<?xml version="1.0" encoding="utf-8"?>
<!-- Generator: Adobe Illustrator 22.1.0, SVG Export Plug-In . SVG Version: 6.00 Build 0)  -->
<svg version="1.1" id="Capa_1" xmlns="http://www.w3.org/2000/svg" xmlns:xlink="http://www.w3.org/1999/xlink" x="0px" y="0px"
	 viewBox="0 0 300 70" style="enable-background:new 0 0 300 70;" xml:space="preserve">
<style type="text/css">
	.st0{fill:#DFE6E9;}
	.st1{fill:#F26101;}
</style>
<path class="st0" d="M300,0.5c-19.1,0-34.5,15.4-34.5,34.5s15.4,34.5,34.5,34.5"/>
<g>
	<path class="st1" d="M7.8,31.3c-0.3-0.3-0.5-0.6-0.5-1c0-0.3,0.1-0.6,0.4-0.9C8,29.1,8.3,29,8.7,29c0.3,0,0.6,0.1,0.9,0.4
		c0.3,0.3,0.5,0.6,0.5,1c0,0.4-0.1,0.7-0.4,1c-0.3,0.3-0.6,0.4-1,0.4C8.4,31.7,8.1,31.6,7.8,31.3z M7.8,34.9c-0.3-0.3-0.5-0.6-0.5-1
		c0-0.3,0.1-0.6,0.4-0.9c0.3-0.3,0.6-0.5,1-0.5c0.3,0,0.6,0.1,0.9,0.4c0.3,0.3,0.5,0.6,0.5,1c0,0.4-0.1,0.7-0.4,1
		c-0.3,0.3-0.6,0.4-1,0.4C8.4,35.3,8.1,35.2,7.8,34.9z M7.8,38.5c-0.3-0.3-0.5-0.6-0.5-1c0-0.3,0.1-0.6,0.4-0.9
		c0.3-0.3,0.6-0.5,1-0.5c0.3,0,0.6,0.1,0.9,0.4c0.3,0.3,0.5,0.6,0.5,1c0,0.4-0.1,0.7-0.4,1c-0.3,0.3-0.6,0.4-1,0.4
		C8.4,38.9,8.1,38.8,7.8,38.5z M7.8,42.1c-0.3-0.3-0.5-0.6-0.5-1c0-0.3,0.1-0.6,0.4-0.9c0.3-0.3,0.6-0.5,1-0.5
		c0.3,0,0.6,0.1,0.9,0.4c0.3,0.3,0.5,0.6,0.5,1c0,0.4-0.1,0.7-0.4,1c-0.3,0.3-0.6,0.4-1,0.4C8.4,42.5,8.1,42.4,7.8,42.1z M7.8,45.7
		c-0.3-0.3-0.5-0.6-0.5-1c0-0.3,0.1-0.6,0.4-0.9c0.3-0.3,0.6-0.5,1-0.5c0.3,0,0.6,0.1,0.9,0.4c0.3,0.3,0.5,0.6,0.5,1
		c0,0.4-0.1,0.7-0.4,1c-0.3,0.3-0.6,0.4-1,0.4C8.4,46.1,8.1,46,7.8,45.7z M11.4,27.7c-0.3-0.3-0.5-0.6-0.5-1c0-0.3,0.1-0.6,0.4-0.9
		c0.3-0.3,0.6-0.5,1-0.5c0.3,0,0.6,0.1,0.9,0.4c0.3,0.3,0.5,0.6,0.5,1c0,0.4-0.1,0.7-0.4,1c-0.3,0.3-0.6,0.4-1,0.4
		C12,28.1,11.7,27.9,11.4,27.7z M11.4,38.5c-0.3-0.3-0.5-0.6-0.5-1c0-0.3,0.1-0.6,0.4-0.9c0.3-0.3,0.6-0.5,1-0.5
		c0.3,0,0.6,0.1,0.9,0.4c0.3,0.3,0.5,0.6,0.5,1c0,0.4-0.1,0.7-0.4,1c-0.3,0.3-0.6,0.4-1,0.4C12,38.9,11.7,38.8,11.4,38.5z M15,24.1
		c-0.3-0.3-0.5-0.6-0.5-1c0-0.3,0.1-0.6,0.4-0.9c0.3-0.3,0.6-0.5,1-0.5c0.3,0,0.6,0.1,0.9,0.4c0.3,0.3,0.5,0.6,0.5,1
		c0,0.4-0.1,0.7-0.4,1s-0.6,0.4-1,0.4C15.6,24.5,15.3,24.3,15,24.1z M15,38.5c-0.3-0.3-0.5-0.6-0.5-1c0-0.3,0.1-0.6,0.4-0.9
		s0.6-0.5,1-0.5c0.3,0,0.6,0.1,0.9,0.4c0.3,0.3,0.5,0.6,0.5,1c0,0.4-0.1,0.7-0.4,1s-0.6,0.4-1,0.4C15.6,38.9,15.3,38.8,15,38.5z
		 M18.6,27.7c-0.3-0.3-0.5-0.6-0.5-1c0-0.3,0.1-0.6,0.4-0.9c0.3-0.3,0.6-0.5,1-0.5c0.3,0,0.6,0.1,0.9,0.4c0.3,0.3,0.5,0.6,0.5,1
		c0,0.4-0.1,0.7-0.4,1c-0.3,0.3-0.6,0.4-1,0.4C19.2,28.1,18.9,27.9,18.6,27.7z M18.6,38.5c-0.3-0.3-0.5-0.6-0.5-1
		c0-0.3,0.1-0.6,0.4-0.9s0.6-0.5,1-0.5c0.3,0,0.6,0.1,0.9,0.4c0.3,0.3,0.5,0.6,0.5,1c0,0.4-0.1,0.7-0.4,1c-0.3,0.3-0.6,0.4-1,0.4
		C19.2,38.9,18.9,38.8,18.6,38.5z M22.2,31.3c-0.3-0.3-0.5-0.6-0.5-1c0-0.3,0.1-0.6,0.4-0.9c0.3-0.3,0.6-0.5,1-0.5
		c0.3,0,0.6,0.1,0.9,0.4c0.3,0.3,0.5,0.6,0.5,1c0,0.4-0.1,0.7-0.4,1s-0.6,0.4-1,0.4C22.8,31.7,22.5,31.6,22.2,31.3z M22.2,34.9
		c-0.3-0.3-0.5-0.6-0.5-1c0-0.3,0.1-0.6,0.4-0.9s0.6-0.5,1-0.5c0.3,0,0.6,0.1,0.9,0.4c0.3,0.3,0.5,0.6,0.5,1c0,0.4-0.1,0.7-0.4,1
		s-0.6,0.4-1,0.4C22.8,35.3,22.5,35.2,22.2,34.9z M22.2,38.5c-0.3-0.3-0.5-0.6-0.5-1c0-0.3,0.1-0.6,0.4-0.9s0.6-0.5,1-0.5
		c0.3,0,0.6,0.1,0.9,0.4c0.3,0.3,0.5,0.6,0.5,1c0,0.4-0.1,0.7-0.4,1s-0.6,0.4-1,0.4C22.8,38.9,22.5,38.8,22.2,38.5z M22.2,42.1
		c-0.3-0.3-0.5-0.6-0.5-1c0-0.3,0.1-0.6,0.4-0.9c0.3-0.3,0.6-0.5,1-0.5c0.3,0,0.6,0.1,0.9,0.4c0.3,0.3,0.5,0.6,0.5,1
		c0,0.4-0.1,0.7-0.4,1s-0.6,0.4-1,0.4C22.8,42.5,22.5,42.4,22.2,42.1z M22.2,45.7c-0.3-0.3-0.5-0.6-0.5-1c0-0.3,0.1-0.6,0.4-0.9
		s0.6-0.5,1-0.5c0.3,0,0.6,0.1,0.9,0.4c0.3,0.3,0.5,0.6,0.5,1c0,0.4-0.1,0.7-0.4,1s-0.6,0.4-1,0.4C22.8,46.1,22.5,46,22.2,45.7z"/>
	<path class="st1" d="M29.4,24.1c-0.3-0.3-0.5-0.6-0.5-1c0-0.3,0.1-0.6,0.4-0.9c0.3-0.3,0.6-0.5,1-0.5c0.3,0,0.6,0.1,0.9,0.4
		c0.3,0.3,0.5,0.6,0.5,1c0,0.4-0.1,0.7-0.4,1s-0.6,0.4-1,0.4C30,24.5,29.7,24.3,29.4,24.1z M29.4,27.7c-0.3-0.3-0.5-0.6-0.5-1
		c0-0.3,0.1-0.6,0.4-0.9c0.3-0.3,0.6-0.5,1-0.5c0.3,0,0.6,0.1,0.9,0.4c0.3,0.3,0.5,0.6,0.5,1c0,0.4-0.1,0.7-0.4,1s-0.6,0.4-1,0.4
		C30,28.1,29.7,27.9,29.4,27.7z M29.4,31.3c-0.3-0.3-0.5-0.6-0.5-1c0-0.3,0.1-0.6,0.4-0.9c0.3-0.3,0.6-0.5,1-0.5
		c0.3,0,0.6,0.1,0.9,0.4c0.3,0.3,0.5,0.6,0.5,1c0,0.4-0.1,0.7-0.4,1s-0.6,0.4-1,0.4C30,31.7,29.7,31.6,29.4,31.3z M29.4,34.9
		c-0.3-0.3-0.5-0.6-0.5-1c0-0.3,0.1-0.6,0.4-0.9c0.3-0.3,0.6-0.5,1-0.5c0.3,0,0.6,0.1,0.9,0.4c0.3,0.3,0.5,0.6,0.5,1
		c0,0.4-0.1,0.7-0.4,1s-0.6,0.4-1,0.4C30,35.3,29.7,35.2,29.4,34.9z M29.4,38.5c-0.3-0.3-0.5-0.6-0.5-1c0-0.3,0.1-0.6,0.4-0.9
		c0.3-0.3,0.6-0.5,1-0.5c0.3,0,0.6,0.1,0.9,0.4c0.3,0.3,0.5,0.6,0.5,1c0,0.4-0.1,0.7-0.4,1s-0.6,0.4-1,0.4
		C30,38.9,29.7,38.8,29.4,38.5z M29.4,42.1c-0.3-0.3-0.5-0.6-0.5-1c0-0.3,0.1-0.6,0.4-0.9c0.3-0.3,0.6-0.5,1-0.5
		c0.3,0,0.6,0.1,0.9,0.4c0.3,0.3,0.5,0.6,0.5,1c0,0.4-0.1,0.7-0.4,1s-0.6,0.4-1,0.4C30,42.5,29.7,42.4,29.4,42.1z M29.4,45.7
		c-0.3-0.3-0.5-0.6-0.5-1c0-0.3,0.1-0.6,0.4-0.9c0.3-0.3,0.6-0.5,1-0.5c0.3,0,0.6,0.1,0.9,0.4c0.3,0.3,0.5,0.6,0.5,1
		c0,0.4-0.1,0.7-0.4,1s-0.6,0.4-1,0.4C30,46.1,29.7,46,29.4,45.7z M33,24.1c-0.3-0.3-0.5-0.6-0.5-1c0-0.3,0.1-0.6,0.4-0.9
		c0.3-0.3,0.6-0.5,1-0.5c0.3,0,0.6,0.1,0.9,0.4c0.3,0.3,0.5,0.6,0.5,1c0,0.4-0.1,0.7-0.4,1s-0.6,0.4-1,0.4
		C33.6,24.5,33.3,24.3,33,24.1z M33,34.9c-0.3-0.3-0.5-0.6-0.5-1c0-0.3,0.1-0.6,0.4-0.9s0.6-0.5,1-0.5c0.3,0,0.6,0.1,0.9,0.4
		c0.3,0.3,0.5,0.6,0.5,1c0,0.4-0.1,0.7-0.4,1s-0.6,0.4-1,0.4C33.6,35.3,33.3,35.2,33,34.9z M36.6,24.1c-0.3-0.3-0.5-0.6-0.5-1
		c0-0.3,0.1-0.6,0.4-0.9c0.3-0.3,0.6-0.5,1-0.5c0.3,0,0.6,0.1,0.9,0.4c0.3,0.3,0.5,0.6,0.5,1c0,0.4-0.1,0.7-0.4,1s-0.6,0.4-1,0.4
		C37.2,24.5,36.9,24.3,36.6,24.1z M36.6,34.9c-0.3-0.3-0.5-0.6-0.5-1c0-0.3,0.1-0.6,0.4-0.9s0.6-0.5,1-0.5c0.3,0,0.6,0.1,0.9,0.4
		c0.3,0.3,0.5,0.6,0.5,1c0,0.4-0.1,0.7-0.4,1s-0.6,0.4-1,0.4C37.2,35.3,36.9,35.2,36.6,34.9z M36.6,38.5c-0.3-0.3-0.5-0.6-0.5-1
		c0-0.3,0.1-0.6,0.4-0.9s0.6-0.5,1-0.5c0.3,0,0.6,0.1,0.9,0.4c0.3,0.3,0.5,0.6,0.5,1c0,0.4-0.1,0.7-0.4,1s-0.6,0.4-1,0.4
		C37.2,38.9,36.9,38.8,36.6,38.5z M40.2,24.1c-0.3-0.3-0.5-0.6-0.5-1c0-0.3,0.1-0.6,0.4-0.9c0.3-0.3,0.6-0.5,1-0.5
		c0.3,0,0.6,0.1,0.9,0.4c0.3,0.3,0.5,0.6,0.5,1c0,0.4-0.1,0.7-0.4,1s-0.6,0.4-1,0.4C40.8,24.5,40.5,24.3,40.2,24.1z M40.2,34.9
		c-0.3-0.3-0.5-0.6-0.5-1c0-0.3,0.1-0.6,0.4-0.9s0.6-0.5,1-0.5c0.3,0,0.6,0.1,0.9,0.4c0.3,0.3,0.5,0.6,0.5,1c0,0.4-0.1,0.7-0.4,1
		s-0.6,0.4-1,0.4C40.8,35.3,40.5,35.2,40.2,34.9z M40.2,42.1c-0.3-0.3-0.5-0.6-0.5-1c0-0.3,0.1-0.6,0.4-0.9c0.3-0.3,0.6-0.5,1-0.5
		c0.3,0,0.6,0.1,0.9,0.4c0.3,0.3,0.5,0.6,0.5,1c0,0.4-0.1,0.7-0.4,1s-0.6,0.4-1,0.4C40.8,42.5,40.5,42.4,40.2,42.1z M43.8,27.7
		c-0.3-0.3-0.5-0.6-0.5-1c0-0.3,0.1-0.6,0.4-0.9c0.3-0.3,0.6-0.5,1-0.5c0.3,0,0.6,0.1,0.9,0.4c0.3,0.3,0.5,0.6,0.5,1
		c0,0.4-0.1,0.7-0.4,1s-0.6,0.4-1,0.4C44.4,28.1,44.1,27.9,43.8,27.7z M43.8,31.3c-0.3-0.3-0.5-0.6-0.5-1c0-0.3,0.1-0.6,0.4-0.9
		c0.3-0.3,0.6-0.5,1-0.5c0.3,0,0.6,0.1,0.9,0.4c0.3,0.3,0.5,0.6,0.5,1c0,0.4-0.1,0.7-0.4,1s-0.6,0.4-1,0.4
		C44.4,31.7,44.1,31.6,43.8,31.3z M43.8,45.7c-0.3-0.3-0.5-0.6-0.5-1c0-0.3,0.1-0.6,0.4-0.9s0.6-0.5,1-0.5c0.3,0,0.6,0.1,0.9,0.4
		c0.3,0.3,0.5,0.6,0.5,1c0,0.4-0.1,0.7-0.4,1s-0.6,0.4-1,0.4C44.4,46.1,44.1,46,43.8,45.7z"/>
	<path class="st1" d="M51,27.7c-0.3-0.3-0.5-0.6-0.5-1c0-0.3,0.1-0.6,0.4-0.9c0.3-0.3,0.6-0.5,1-0.5c0.3,0,0.6,0.1,0.9,0.4
		c0.3,0.3,0.5,0.6,0.5,1c0,0.4-0.1,0.7-0.4,1s-0.6,0.4-1,0.4C51.6,28.1,51.3,27.9,51,27.7z M51,31.3c-0.3-0.3-0.5-0.6-0.5-1
		c0-0.3,0.1-0.6,0.4-0.9c0.3-0.3,0.6-0.5,1-0.5c0.3,0,0.6,0.1,0.9,0.4c0.3,0.3,0.5,0.6,0.5,1c0,0.4-0.1,0.7-0.4,1s-0.6,0.4-1,0.4
		C51.6,31.7,51.3,31.6,51,31.3z M51,34.9c-0.3-0.3-0.5-0.6-0.5-1c0-0.3,0.1-0.6,0.4-0.9s0.6-0.5,1-0.5c0.3,0,0.6,0.1,0.9,0.4
		c0.3,0.3,0.5,0.6,0.5,1c0,0.4-0.1,0.7-0.4,1s-0.6,0.4-1,0.4C51.6,35.3,51.3,35.2,51,34.9z M51,38.5c-0.3-0.3-0.5-0.6-0.5-1
		c0-0.3,0.1-0.6,0.4-0.9s0.6-0.5,1-0.5c0.3,0,0.6,0.1,0.9,0.4c0.3,0.3,0.5,0.6,0.5,1c0,0.4-0.1,0.7-0.4,1s-0.6,0.4-1,0.4
		C51.6,38.9,51.3,38.8,51,38.5z M51,42.1c-0.3-0.3-0.5-0.6-0.5-1c0-0.3,0.1-0.6,0.4-0.9c0.3-0.3,0.6-0.5,1-0.5
		c0.3,0,0.6,0.1,0.9,0.4c0.3,0.3,0.5,0.6,0.5,1c0,0.4-0.1,0.7-0.4,1s-0.6,0.4-1,0.4C51.6,42.5,51.3,42.4,51,42.1z M54.6,24.1
		c-0.3-0.3-0.5-0.6-0.5-1c0-0.3,0.1-0.6,0.4-0.9c0.3-0.3,0.6-0.5,1-0.5c0.3,0,0.6,0.1,0.9,0.4c0.3,0.3,0.5,0.6,0.5,1
		c0,0.4-0.1,0.7-0.4,1c-0.3,0.3-0.6,0.4-1,0.4C55.2,24.5,54.9,24.3,54.6,24.1z M54.6,45.7c-0.3-0.3-0.5-0.6-0.5-1
		c0-0.3,0.1-0.6,0.4-0.9s0.6-0.5,1-0.5c0.3,0,0.6,0.1,0.9,0.4c0.3,0.3,0.5,0.6,0.5,1c0,0.4-0.1,0.7-0.4,1c-0.3,0.3-0.6,0.4-1,0.4
		C55.2,46.1,54.9,46,54.6,45.7z M58.2,24.1c-0.3-0.3-0.5-0.6-0.5-1c0-0.3,0.1-0.6,0.4-0.9c0.3-0.3,0.6-0.5,1-0.5
		c0.3,0,0.6,0.1,0.9,0.4c0.3,0.3,0.5,0.6,0.5,1c0,0.4-0.1,0.7-0.4,1s-0.6,0.4-1,0.4C58.8,24.5,58.5,24.3,58.2,24.1z M58.2,45.7
		c-0.3-0.3-0.5-0.6-0.5-1c0-0.3,0.1-0.6,0.4-0.9c0.3-0.3,0.6-0.5,1-0.5c0.3,0,0.6,0.1,0.9,0.4c0.3,0.3,0.5,0.6,0.5,1
		c0,0.4-0.1,0.7-0.4,1s-0.6,0.4-1,0.4C58.8,46.1,58.5,46,58.2,45.7z M61.8,24.1c-0.3-0.3-0.5-0.6-0.5-1c0-0.3,0.1-0.6,0.4-0.9
		c0.3-0.3,0.6-0.5,1-0.5c0.3,0,0.6,0.1,0.9,0.4c0.3,0.3,0.5,0.6,0.5,1c0,0.4-0.1,0.7-0.4,1s-0.6,0.4-1,0.4
		C62.4,24.5,62.1,24.3,61.8,24.1z M61.8,45.7c-0.3-0.3-0.5-0.6-0.5-1c0-0.3,0.1-0.6,0.4-0.9s0.6-0.5,1-0.5c0.3,0,0.6,0.1,0.9,0.4
		c0.3,0.3,0.5,0.6,0.5,1c0,0.4-0.1,0.7-0.4,1s-0.6,0.4-1,0.4C62.4,46.1,62.1,46,61.8,45.7z M65.4,27.7c-0.3-0.3-0.5-0.6-0.5-1
		c0-0.3,0.1-0.6,0.4-0.9c0.3-0.3,0.6-0.5,1-0.5c0.3,0,0.6,0.1,0.9,0.4c0.3,0.3,0.5,0.6,0.5,1c0,0.4-0.1,0.7-0.4,1
		c-0.3,0.3-0.6,0.4-1,0.4C66,28.1,65.7,27.9,65.4,27.7z M65.4,42.1c-0.3-0.3-0.5-0.6-0.5-1c0-0.3,0.1-0.6,0.4-0.9
		c0.3-0.3,0.6-0.5,1-0.5c0.3,0,0.6,0.1,0.9,0.4c0.3,0.3,0.5,0.6,0.5,1c0,0.4-0.1,0.7-0.4,1c-0.3,0.3-0.6,0.4-1,0.4
		C66,42.5,65.7,42.4,65.4,42.1z"/>
	<path class="st1" d="M72.6,24.1c-0.3-0.3-0.5-0.6-0.5-1c0-0.3,0.1-0.6,0.4-0.9c0.3-0.3,0.6-0.5,1-0.5c0.3,0,0.6,0.1,0.9,0.4
		c0.3,0.3,0.5,0.6,0.5,1c0,0.4-0.1,0.7-0.4,1c-0.3,0.3-0.6,0.4-1,0.4C73.2,24.5,72.9,24.3,72.6,24.1z M72.6,27.7
		c-0.3-0.3-0.5-0.6-0.5-1c0-0.3,0.1-0.6,0.4-0.9c0.3-0.3,0.6-0.5,1-0.5c0.3,0,0.6,0.1,0.9,0.4c0.3,0.3,0.5,0.6,0.5,1
		c0,0.4-0.1,0.7-0.4,1c-0.3,0.3-0.6,0.4-1,0.4C73.2,28.1,72.9,27.9,72.6,27.7z M72.6,31.3c-0.3-0.3-0.5-0.6-0.5-1
		c0-0.3,0.1-0.6,0.4-0.9c0.3-0.3,0.6-0.5,1-0.5c0.3,0,0.6,0.1,0.9,0.4c0.3,0.3,0.5,0.6,0.5,1c0,0.4-0.1,0.7-0.4,1
		c-0.3,0.3-0.6,0.4-1,0.4C73.2,31.7,72.9,31.6,72.6,31.3z M72.6,34.9c-0.3-0.3-0.5-0.6-0.5-1c0-0.3,0.1-0.6,0.4-0.9
		c0.3-0.3,0.6-0.5,1-0.5c0.3,0,0.6,0.1,0.9,0.4c0.3,0.3,0.5,0.6,0.5,1c0,0.4-0.1,0.7-0.4,1c-0.3,0.3-0.6,0.4-1,0.4
		C73.2,35.3,72.9,35.2,72.6,34.9z M72.6,38.5c-0.3-0.3-0.5-0.6-0.5-1c0-0.3,0.1-0.6,0.4-0.9c0.3-0.3,0.6-0.5,1-0.5
		c0.3,0,0.6,0.1,0.9,0.4c0.3,0.3,0.5,0.6,0.5,1c0,0.4-0.1,0.7-0.4,1c-0.3,0.3-0.6,0.4-1,0.4C73.2,38.9,72.9,38.8,72.6,38.5z
		 M72.6,42.1c-0.3-0.3-0.5-0.6-0.5-1c0-0.3,0.1-0.6,0.4-0.9c0.3-0.3,0.6-0.5,1-0.5c0.3,0,0.6,0.1,0.9,0.4c0.3,0.3,0.5,0.6,0.5,1
		c0,0.4-0.1,0.7-0.4,1c-0.3,0.3-0.6,0.4-1,0.4C73.2,42.5,72.9,42.4,72.6,42.1z M72.6,45.7c-0.3-0.3-0.5-0.6-0.5-1
		c0-0.3,0.1-0.6,0.4-0.9c0.3-0.3,0.6-0.5,1-0.5c0.3,0,0.6,0.1,0.9,0.4c0.3,0.3,0.5,0.6,0.5,1c0,0.4-0.1,0.7-0.4,1
		c-0.3,0.3-0.6,0.4-1,0.4C73.2,46.1,72.9,46,72.6,45.7z M76.2,34.9c-0.3-0.3-0.5-0.6-0.5-1c0-0.3,0.1-0.6,0.4-0.9
		c0.3-0.3,0.6-0.5,1-0.5c0.3,0,0.6,0.1,0.9,0.4c0.3,0.3,0.5,0.6,0.5,1c0,0.4-0.1,0.7-0.4,1c-0.3,0.3-0.6,0.4-1,0.4
		C76.8,35.3,76.5,35.2,76.2,34.9z M79.8,34.9c-0.3-0.3-0.5-0.6-0.5-1c0-0.3,0.1-0.6,0.4-0.9c0.3-0.3,0.6-0.5,1-0.5
		c0.3,0,0.6,0.1,0.9,0.4c0.3,0.3,0.5,0.6,0.5,1c0,0.4-0.1,0.7-0.4,1c-0.3,0.3-0.6,0.4-1,0.4C80.4,35.3,80.1,35.2,79.8,34.9z
		 M83.4,34.9c-0.3-0.3-0.5-0.6-0.5-1c0-0.3,0.1-0.6,0.4-0.9c0.3-0.3,0.6-0.5,1-0.5c0.3,0,0.6,0.1,0.9,0.4c0.3,0.3,0.5,0.6,0.5,1
		c0,0.4-0.1,0.7-0.4,1c-0.3,0.3-0.6,0.4-1,0.4C84,35.3,83.7,35.2,83.4,34.9z M87,24.1c-0.3-0.3-0.5-0.6-0.5-1c0-0.3,0.1-0.6,0.4-0.9
		c0.3-0.3,0.6-0.5,1-0.5c0.3,0,0.6,0.1,0.9,0.4c0.3,0.3,0.5,0.6,0.5,1c0,0.4-0.1,0.7-0.4,1c-0.3,0.3-0.6,0.4-1,0.4
		C87.6,24.5,87.3,24.3,87,24.1z M87,27.7c-0.3-0.3-0.5-0.6-0.5-1c0-0.3,0.1-0.6,0.4-0.9c0.3-0.3,0.6-0.5,1-0.5
		c0.3,0,0.6,0.1,0.9,0.4c0.3,0.3,0.5,0.6,0.5,1c0,0.4-0.1,0.7-0.4,1c-0.3,0.3-0.6,0.4-1,0.4C87.6,28.1,87.3,27.9,87,27.7z M87,31.3
		c-0.3-0.3-0.5-0.6-0.5-1c0-0.3,0.1-0.6,0.4-0.9c0.3-0.3,0.6-0.5,1-0.5c0.3,0,0.6,0.1,0.9,0.4c0.3,0.3,0.5,0.6,0.5,1
		c0,0.4-0.1,0.7-0.4,1c-0.3,0.3-0.6,0.4-1,0.4C87.6,31.7,87.3,31.6,87,31.3z M87,34.9c-0.3-0.3-0.5-0.6-0.5-1c0-0.3,0.1-0.6,0.4-0.9
		c0.3-0.3,0.6-0.5,1-0.5c0.3,0,0.6,0.1,0.9,0.4c0.3,0.3,0.5,0.6,0.5,1c0,0.4-0.1,0.7-0.4,1c-0.3,0.3-0.6,0.4-1,0.4
		C87.6,35.3,87.3,35.2,87,34.9z M87,38.5c-0.3-0.3-0.5-0.6-0.5-1c0-0.3,0.1-0.6,0.4-0.9c0.3-0.3,0.6-0.5,1-0.5
		c0.3,0,0.6,0.1,0.9,0.4c0.3,0.3,0.5,0.6,0.5,1c0,0.4-0.1,0.7-0.4,1c-0.3,0.3-0.6,0.4-1,0.4C87.6,38.9,87.3,38.8,87,38.5z M87,42.1
		c-0.3-0.3-0.5-0.6-0.5-1c0-0.3,0.1-0.6,0.4-0.9c0.3-0.3,0.6-0.5,1-0.5c0.3,0,0.6,0.1,0.9,0.4c0.3,0.3,0.5,0.6,0.5,1
		c0,0.4-0.1,0.7-0.4,1c-0.3,0.3-0.6,0.4-1,0.4C87.6,42.5,87.3,42.4,87,42.1z M87,45.7c-0.3-0.3-0.5-0.6-0.5-1c0-0.3,0.1-0.6,0.4-0.9
		c0.3-0.3,0.6-0.5,1-0.5c0.3,0,0.6,0.1,0.9,0.4c0.3,0.3,0.5,0.6,0.5,1c0,0.4-0.1,0.7-0.4,1c-0.3,0.3-0.6,0.4-1,0.4
		C87.6,46.1,87.3,46,87,45.7z"/>
	<path class="st1" d="M97.8,24.1c-0.3-0.3-0.5-0.6-0.5-1c0-0.3,0.1-0.6,0.4-0.9c0.3-0.3,0.6-0.5,1-0.5c0.3,0,0.6,0.1,0.9,0.4
		c0.3,0.3,0.5,0.6,0.5,1c0,0.4-0.1,0.7-0.4,1c-0.3,0.3-0.6,0.4-1,0.4C98.4,24.5,98.1,24.3,97.8,24.1z M97.8,45.7
		c-0.3-0.3-0.5-0.6-0.5-1c0-0.3,0.1-0.6,0.4-0.9c0.3-0.3,0.6-0.5,1-0.5c0.3,0,0.6,0.1,0.9,0.4c0.3,0.3,0.5,0.6,0.5,1
		c0,0.4-0.1,0.7-0.4,1c-0.3,0.3-0.6,0.4-1,0.4C98.4,46.1,98.1,46,97.8,45.7z M101.4,24.1c-0.3-0.3-0.5-0.6-0.5-1
		c0-0.3,0.1-0.6,0.4-0.9c0.3-0.3,0.6-0.5,1-0.5c0.3,0,0.6,0.1,0.9,0.4c0.3,0.3,0.5,0.6,0.5,1c0,0.4-0.1,0.7-0.4,1
		c-0.3,0.3-0.6,0.4-1,0.4C102,24.5,101.7,24.3,101.4,24.1z M101.4,27.7c-0.3-0.3-0.5-0.6-0.5-1c0-0.3,0.1-0.6,0.4-0.9
		c0.3-0.3,0.6-0.5,1-0.5c0.3,0,0.6,0.1,0.9,0.4c0.3,0.3,0.5,0.6,0.5,1c0,0.4-0.1,0.7-0.4,1c-0.3,0.3-0.6,0.4-1,0.4
		C102,28.1,101.7,27.9,101.4,27.7z M101.4,31.3c-0.3-0.3-0.5-0.6-0.5-1c0-0.3,0.1-0.6,0.4-0.9c0.3-0.3,0.6-0.5,1-0.5
		c0.3,0,0.6,0.1,0.9,0.4c0.3,0.3,0.5,0.6,0.5,1c0,0.4-0.1,0.7-0.4,1c-0.3,0.3-0.6,0.4-1,0.4C102,31.7,101.7,31.6,101.4,31.3z
		 M101.4,34.9c-0.3-0.3-0.5-0.6-0.5-1c0-0.3,0.1-0.6,0.4-0.9c0.3-0.3,0.6-0.5,1-0.5c0.3,0,0.6,0.1,0.9,0.4c0.3,0.3,0.5,0.6,0.5,1
		c0,0.4-0.1,0.7-0.4,1c-0.3,0.3-0.6,0.4-1,0.4C102,35.3,101.7,35.2,101.4,34.9z M101.4,38.5c-0.3-0.3-0.5-0.6-0.5-1
		c0-0.3,0.1-0.6,0.4-0.9c0.3-0.3,0.6-0.5,1-0.5c0.3,0,0.6,0.1,0.9,0.4c0.3,0.3,0.5,0.6,0.5,1c0,0.4-0.1,0.7-0.4,1
		c-0.3,0.3-0.6,0.4-1,0.4C102,38.9,101.7,38.8,101.4,38.5z M101.4,42.1c-0.3-0.3-0.5-0.6-0.5-1c0-0.3,0.1-0.6,0.4-0.9
		c0.3-0.3,0.6-0.5,1-0.5c0.3,0,0.6,0.1,0.9,0.4c0.3,0.3,0.5,0.6,0.5,1c0,0.4-0.1,0.7-0.4,1c-0.3,0.3-0.6,0.4-1,0.4
		C102,42.5,101.7,42.4,101.4,42.1z M101.4,45.7c-0.3-0.3-0.5-0.6-0.5-1c0-0.3,0.1-0.6,0.4-0.9c0.3-0.3,0.6-0.5,1-0.5
		c0.3,0,0.6,0.1,0.9,0.4c0.3,0.3,0.5,0.6,0.5,1c0,0.4-0.1,0.7-0.4,1c-0.3,0.3-0.6,0.4-1,0.4C102,46.1,101.7,46,101.4,45.7z
		 M105,24.1c-0.3-0.3-0.5-0.6-0.5-1c0-0.3,0.1-0.6,0.4-0.9c0.3-0.3,0.6-0.5,1-0.5c0.3,0,0.6,0.1,0.9,0.4c0.3,0.3,0.5,0.6,0.5,1
		c0,0.4-0.1,0.7-0.4,1c-0.3,0.3-0.6,0.4-1,0.4C105.6,24.5,105.3,24.3,105,24.1z M105,45.7c-0.3-0.3-0.5-0.6-0.5-1
		c0-0.3,0.1-0.6,0.4-0.9c0.3-0.3,0.6-0.5,1-0.5c0.3,0,0.6,0.1,0.9,0.4c0.3,0.3,0.5,0.6,0.5,1c0,0.4-0.1,0.7-0.4,1
		c-0.3,0.3-0.6,0.4-1,0.4C105.6,46.1,105.3,46,105,45.7z"/>
	<path class="st1" d="M115.8,24.1c-0.3-0.3-0.5-0.6-0.5-1c0-0.3,0.1-0.6,0.4-0.9c0.3-0.3,0.6-0.5,1-0.5c0.3,0,0.6,0.1,0.9,0.4
		c0.3,0.3,0.5,0.6,0.5,1c0,0.4-0.1,0.7-0.4,1c-0.3,0.3-0.6,0.4-1,0.4C116.4,24.5,116.1,24.3,115.8,24.1z M119.4,24.1
		c-0.3-0.3-0.5-0.6-0.5-1c0-0.3,0.1-0.6,0.4-0.9c0.3-0.3,0.6-0.5,1-0.5c0.3,0,0.6,0.1,0.9,0.4c0.3,0.3,0.5,0.6,0.5,1
		c0,0.4-0.1,0.7-0.4,1c-0.3,0.3-0.6,0.4-1,0.4C120,24.5,119.7,24.3,119.4,24.1z M123,24.1c-0.3-0.3-0.5-0.6-0.5-1
		c0-0.3,0.1-0.6,0.4-0.9c0.3-0.3,0.6-0.5,1-0.5c0.3,0,0.6,0.1,0.9,0.4c0.3,0.3,0.5,0.6,0.5,1c0,0.4-0.1,0.7-0.4,1
		c-0.3,0.3-0.6,0.4-1,0.4C123.6,24.5,123.3,24.3,123,24.1z M123,27.7c-0.3-0.3-0.5-0.6-0.5-1c0-0.3,0.1-0.6,0.4-0.9
		c0.3-0.3,0.6-0.5,1-0.5c0.3,0,0.6,0.1,0.9,0.4c0.3,0.3,0.5,0.6,0.5,1c0,0.4-0.1,0.7-0.4,1c-0.3,0.3-0.6,0.4-1,0.4
		C123.6,28.1,123.3,27.9,123,27.7z M123,31.3c-0.3-0.3-0.5-0.6-0.5-1c0-0.3,0.1-0.6,0.4-0.9c0.3-0.3,0.6-0.5,1-0.5
		c0.3,0,0.6,0.1,0.9,0.4c0.3,0.3,0.5,0.6,0.5,1c0,0.4-0.1,0.7-0.4,1c-0.3,0.3-0.6,0.4-1,0.4C123.6,31.7,123.3,31.6,123,31.3z
		 M123,34.9c-0.3-0.3-0.5-0.6-0.5-1c0-0.3,0.1-0.6,0.4-0.9c0.3-0.3,0.6-0.5,1-0.5c0.3,0,0.6,0.1,0.9,0.4c0.3,0.3,0.5,0.6,0.5,1
		c0,0.4-0.1,0.7-0.4,1c-0.3,0.3-0.6,0.4-1,0.4C123.6,35.3,123.3,35.2,123,34.9z M123,38.5c-0.3-0.3-0.5-0.6-0.5-1
		c0-0.3,0.1-0.6,0.4-0.9c0.3-0.3,0.6-0.5,1-0.5c0.3,0,0.6,0.1,0.9,0.4c0.3,0.3,0.5,0.6,0.5,1c0,0.4-0.1,0.7-0.4,1
		c-0.3,0.3-0.6,0.4-1,0.4C123.6,38.9,123.3,38.8,123,38.5z M123,42.1c-0.3-0.3-0.5-0.6-0.5-1c0-0.3,0.1-0.6,0.4-0.9
		c0.3-0.3,0.6-0.5,1-0.5c0.3,0,0.6,0.1,0.9,0.4c0.3,0.3,0.5,0.6,0.5,1c0,0.4-0.1,0.7-0.4,1c-0.3,0.3-0.6,0.4-1,0.4
		C123.6,42.5,123.3,42.4,123,42.1z M123,45.7c-0.3-0.3-0.5-0.6-0.5-1c0-0.3,0.1-0.6,0.4-0.9c0.3-0.3,0.6-0.5,1-0.5
		c0.3,0,0.6,0.1,0.9,0.4c0.3,0.3,0.5,0.6,0.5,1c0,0.4-0.1,0.7-0.4,1c-0.3,0.3-0.6,0.4-1,0.4C123.6,46.1,123.3,46,123,45.7z
		 M126.6,24.1c-0.3-0.3-0.5-0.6-0.5-1c0-0.3,0.1-0.6,0.4-0.9c0.3-0.3,0.6-0.5,1-0.5c0.3,0,0.6,0.1,0.9,0.4c0.3,0.3,0.5,0.6,0.5,1
		c0,0.4-0.1,0.7-0.4,1s-0.6,0.4-1,0.4C127.2,24.5,126.9,24.3,126.6,24.1z M130.2,24.1c-0.3-0.3-0.5-0.6-0.5-1c0-0.3,0.1-0.6,0.4-0.9
		c0.3-0.3,0.6-0.5,1-0.5c0.3,0,0.6,0.1,0.9,0.4c0.3,0.3,0.5,0.6,0.5,1c0,0.4-0.1,0.7-0.4,1c-0.3,0.3-0.6,0.4-1,0.4
		C130.8,24.5,130.5,24.3,130.2,24.1z"/>
	<path class="st1" d="M137.4,24.1c-0.3-0.3-0.5-0.6-0.5-1c0-0.3,0.1-0.6,0.4-0.9c0.3-0.3,0.6-0.5,1-0.5c0.3,0,0.6,0.1,0.9,0.4
		c0.3,0.3,0.5,0.6,0.5,1c0,0.4-0.1,0.7-0.4,1c-0.3,0.3-0.6,0.4-1,0.4C138,24.5,137.7,24.3,137.4,24.1z M137.4,27.7
		c-0.3-0.3-0.5-0.6-0.5-1c0-0.3,0.1-0.6,0.4-0.9c0.3-0.3,0.6-0.5,1-0.5c0.3,0,0.6,0.1,0.9,0.4c0.3,0.3,0.5,0.6,0.5,1
		c0,0.4-0.1,0.7-0.4,1c-0.3,0.3-0.6,0.4-1,0.4C138,28.1,137.7,27.9,137.4,27.7z M137.4,31.3c-0.3-0.3-0.5-0.6-0.5-1
		c0-0.3,0.1-0.6,0.4-0.9c0.3-0.3,0.6-0.5,1-0.5c0.3,0,0.6,0.1,0.9,0.4c0.3,0.3,0.5,0.6,0.5,1c0,0.4-0.1,0.7-0.4,1
		c-0.3,0.3-0.6,0.4-1,0.4C138,31.7,137.7,31.6,137.4,31.3z M137.4,34.9c-0.3-0.3-0.5-0.6-0.5-1c0-0.3,0.1-0.6,0.4-0.9s0.6-0.5,1-0.5
		c0.3,0,0.6,0.1,0.9,0.4c0.3,0.3,0.5,0.6,0.5,1c0,0.4-0.1,0.7-0.4,1c-0.3,0.3-0.6,0.4-1,0.4C138,35.3,137.7,35.2,137.4,34.9z
		 M137.4,38.5c-0.3-0.3-0.5-0.6-0.5-1c0-0.3,0.1-0.6,0.4-0.9s0.6-0.5,1-0.5c0.3,0,0.6,0.1,0.9,0.4c0.3,0.3,0.5,0.6,0.5,1
		c0,0.4-0.1,0.7-0.4,1c-0.3,0.3-0.6,0.4-1,0.4C138,38.9,137.7,38.8,137.4,38.5z M137.4,42.1c-0.3-0.3-0.5-0.6-0.5-1
		c0-0.3,0.1-0.6,0.4-0.9c0.3-0.3,0.6-0.5,1-0.5c0.3,0,0.6,0.1,0.9,0.4c0.3,0.3,0.5,0.6,0.5,1c0,0.4-0.1,0.7-0.4,1
		c-0.3,0.3-0.6,0.4-1,0.4C138,42.5,137.7,42.4,137.4,42.1z M137.4,45.7c-0.3-0.3-0.5-0.6-0.5-1c0-0.3,0.1-0.6,0.4-0.9s0.6-0.5,1-0.5
		c0.3,0,0.6,0.1,0.9,0.4c0.3,0.3,0.5,0.6,0.5,1c0,0.4-0.1,0.7-0.4,1c-0.3,0.3-0.6,0.4-1,0.4C138,46.1,137.7,46,137.4,45.7z
		 M141,24.1c-0.3-0.3-0.5-0.6-0.5-1c0-0.3,0.1-0.6,0.4-0.9c0.3-0.3,0.6-0.5,1-0.5c0.3,0,0.6,0.1,0.9,0.4c0.3,0.3,0.5,0.6,0.5,1
		c0,0.4-0.1,0.7-0.4,1c-0.3,0.3-0.6,0.4-1,0.4C141.6,24.5,141.3,24.3,141,24.1z M141,34.9c-0.3-0.3-0.5-0.6-0.5-1
		c0-0.3,0.1-0.6,0.4-0.9s0.6-0.5,1-0.5c0.3,0,0.6,0.1,0.9,0.4c0.3,0.3,0.5,0.6,0.5,1c0,0.4-0.1,0.7-0.4,1c-0.3,0.3-0.6,0.4-1,0.4
		C141.6,35.3,141.3,35.2,141,34.9z M141,45.7c-0.3-0.3-0.5-0.6-0.5-1c0-0.3,0.1-0.6,0.4-0.9s0.6-0.5,1-0.5c0.3,0,0.6,0.1,0.9,0.4
		c0.3,0.3,0.5,0.6,0.5,1c0,0.4-0.1,0.7-0.4,1c-0.3,0.3-0.6,0.4-1,0.4C141.6,46.1,141.3,46,141,45.7z M144.6,24.1
		c-0.3-0.3-0.5-0.6-0.5-1c0-0.3,0.1-0.6,0.4-0.9c0.3-0.3,0.6-0.5,1-0.5c0.3,0,0.6,0.1,0.9,0.4c0.3,0.3,0.5,0.6,0.5,1
		c0,0.4-0.1,0.7-0.4,1s-0.6,0.4-1,0.4C145.2,24.5,144.9,24.3,144.6,24.1z M144.6,34.9c-0.3-0.3-0.5-0.6-0.5-1c0-0.3,0.1-0.6,0.4-0.9
		c0.3-0.3,0.6-0.5,1-0.5c0.3,0,0.6,0.1,0.9,0.4c0.3,0.3,0.5,0.6,0.5,1c0,0.4-0.1,0.7-0.4,1s-0.6,0.4-1,0.4
		C145.2,35.3,144.9,35.2,144.6,34.9z M144.6,45.7c-0.3-0.3-0.5-0.6-0.5-1c0-0.3,0.1-0.6,0.4-0.9c0.3-0.3,0.6-0.5,1-0.5
		c0.3,0,0.6,0.1,0.9,0.4c0.3,0.3,0.5,0.6,0.5,1c0,0.4-0.1,0.7-0.4,1s-0.6,0.4-1,0.4C145.2,46.1,144.9,46,144.6,45.7z M148.2,24.1
		c-0.3-0.3-0.5-0.6-0.5-1c0-0.3,0.1-0.6,0.4-0.9c0.3-0.3,0.6-0.5,1-0.5c0.3,0,0.6,0.1,0.9,0.4c0.3,0.3,0.5,0.6,0.5,1
		c0,0.4-0.1,0.7-0.4,1c-0.3,0.3-0.6,0.4-1,0.4C148.8,24.5,148.5,24.3,148.2,24.1z M148.2,34.9c-0.3-0.3-0.5-0.6-0.5-1
		c0-0.3,0.1-0.6,0.4-0.9s0.6-0.5,1-0.5c0.3,0,0.6,0.1,0.9,0.4c0.3,0.3,0.5,0.6,0.5,1c0,0.4-0.1,0.7-0.4,1c-0.3,0.3-0.6,0.4-1,0.4
		C148.8,35.3,148.5,35.2,148.2,34.9z M148.2,45.7c-0.3-0.3-0.5-0.6-0.5-1c0-0.3,0.1-0.6,0.4-0.9s0.6-0.5,1-0.5
		c0.3,0,0.6,0.1,0.9,0.4c0.3,0.3,0.5,0.6,0.5,1c0,0.4-0.1,0.7-0.4,1c-0.3,0.3-0.6,0.4-1,0.4C148.8,46.1,148.5,46,148.2,45.7z
		 M151.8,24.1c-0.3-0.3-0.5-0.6-0.5-1c0-0.3,0.1-0.6,0.4-0.9c0.3-0.3,0.6-0.5,1-0.5c0.3,0,0.6,0.1,0.9,0.4c0.3,0.3,0.5,0.6,0.5,1
		c0,0.4-0.1,0.7-0.4,1c-0.3,0.3-0.6,0.4-1,0.4C152.4,24.5,152.1,24.3,151.8,24.1z M151.8,45.7c-0.3-0.3-0.5-0.6-0.5-1
		c0-0.3,0.1-0.6,0.4-0.9s0.6-0.5,1-0.5c0.3,0,0.6,0.1,0.9,0.4c0.3,0.3,0.5,0.6,0.5,1c0,0.4-0.1,0.7-0.4,1c-0.3,0.3-0.6,0.4-1,0.4
		C152.4,46.1,152.1,46,151.8,45.7z"/>
	<path class="st1" d="M159,27.7c-0.3-0.3-0.5-0.6-0.5-1c0-0.3,0.1-0.6,0.4-0.9c0.3-0.3,0.6-0.5,1-0.5c0.3,0,0.6,0.1,0.9,0.4
		c0.3,0.3,0.5,0.6,0.5,1c0,0.4-0.1,0.7-0.4,1c-0.3,0.3-0.6,0.4-1,0.4C159.6,28.1,159.3,27.9,159,27.7z M159,31.3
		c-0.3-0.3-0.5-0.6-0.5-1c0-0.3,0.1-0.6,0.4-0.9c0.3-0.3,0.6-0.5,1-0.5c0.3,0,0.6,0.1,0.9,0.4c0.3,0.3,0.5,0.6,0.5,1
		c0,0.4-0.1,0.7-0.4,1c-0.3,0.3-0.6,0.4-1,0.4C159.6,31.7,159.3,31.6,159,31.3z M159,34.9c-0.3-0.3-0.5-0.6-0.5-1
		c0-0.3,0.1-0.6,0.4-0.9s0.6-0.5,1-0.5c0.3,0,0.6,0.1,0.9,0.4c0.3,0.3,0.5,0.6,0.5,1c0,0.4-0.1,0.7-0.4,1c-0.3,0.3-0.6,0.4-1,0.4
		C159.6,35.3,159.3,35.2,159,34.9z M159,38.5c-0.3-0.3-0.5-0.6-0.5-1c0-0.3,0.1-0.6,0.4-0.9s0.6-0.5,1-0.5c0.3,0,0.6,0.1,0.9,0.4
		c0.3,0.3,0.5,0.6,0.5,1c0,0.4-0.1,0.7-0.4,1c-0.3,0.3-0.6,0.4-1,0.4C159.6,38.9,159.3,38.8,159,38.5z M159,42.1
		c-0.3-0.3-0.5-0.6-0.5-1c0-0.3,0.1-0.6,0.4-0.9c0.3-0.3,0.6-0.5,1-0.5c0.3,0,0.6,0.1,0.9,0.4c0.3,0.3,0.5,0.6,0.5,1
		c0,0.4-0.1,0.7-0.4,1c-0.3,0.3-0.6,0.4-1,0.4C159.6,42.5,159.3,42.4,159,42.1z M162.6,24.1c-0.3-0.3-0.5-0.6-0.5-1
		c0-0.3,0.1-0.6,0.4-0.9c0.3-0.3,0.6-0.5,1-0.5c0.3,0,0.6,0.1,0.9,0.4c0.3,0.3,0.5,0.6,0.5,1c0,0.4-0.1,0.7-0.4,1s-0.6,0.4-1,0.4
		C163.2,24.5,162.9,24.3,162.6,24.1z M162.6,45.7c-0.3-0.3-0.5-0.6-0.5-1c0-0.3,0.1-0.6,0.4-0.9c0.3-0.3,0.6-0.5,1-0.5
		c0.3,0,0.6,0.1,0.9,0.4c0.3,0.3,0.5,0.6,0.5,1c0,0.4-0.1,0.7-0.4,1s-0.6,0.4-1,0.4C163.2,46.1,162.9,46,162.6,45.7z M166.2,24.1
		c-0.3-0.3-0.5-0.6-0.5-1c0-0.3,0.1-0.6,0.4-0.9c0.3-0.3,0.6-0.5,1-0.5c0.3,0,0.6,0.1,0.9,0.4c0.3,0.3,0.5,0.6,0.5,1
		c0,0.4-0.1,0.7-0.4,1c-0.3,0.3-0.6,0.4-1,0.4C166.8,24.5,166.5,24.3,166.2,24.1z M166.2,45.7c-0.3-0.3-0.5-0.6-0.5-1
		c0-0.3,0.1-0.6,0.4-0.9s0.6-0.5,1-0.5c0.3,0,0.6,0.1,0.9,0.4c0.3,0.3,0.5,0.6,0.5,1c0,0.4-0.1,0.7-0.4,1c-0.3,0.3-0.6,0.4-1,0.4
		C166.8,46.1,166.5,46,166.2,45.7z M169.8,24.1c-0.3-0.3-0.5-0.6-0.5-1c0-0.3,0.1-0.6,0.4-0.9c0.3-0.3,0.6-0.5,1-0.5
		c0.3,0,0.6,0.1,0.9,0.4c0.3,0.3,0.5,0.6,0.5,1c0,0.4-0.1,0.7-0.4,1c-0.3,0.3-0.6,0.4-1,0.4C170.4,24.5,170.1,24.3,169.8,24.1z
		 M169.8,45.7c-0.3-0.3-0.5-0.6-0.5-1c0-0.3,0.1-0.6,0.4-0.9s0.6-0.5,1-0.5c0.3,0,0.6,0.1,0.9,0.4c0.3,0.3,0.5,0.6,0.5,1
		c0,0.4-0.1,0.7-0.4,1c-0.3,0.3-0.6,0.4-1,0.4C170.4,46.1,170.1,46,169.8,45.7z M173.4,27.7c-0.3-0.3-0.5-0.6-0.5-1
		c0-0.3,0.1-0.6,0.4-0.9c0.3-0.3,0.6-0.5,1-0.5c0.3,0,0.6,0.1,0.9,0.4c0.3,0.3,0.5,0.6,0.5,1c0,0.4-0.1,0.7-0.4,1s-0.6,0.4-1,0.4
		C174,28.1,173.7,27.9,173.4,27.7z M173.4,42.1c-0.3-0.3-0.5-0.6-0.5-1c0-0.3,0.1-0.6,0.4-0.9c0.3-0.3,0.6-0.5,1-0.5
		c0.3,0,0.6,0.1,0.9,0.4c0.3,0.3,0.5,0.6,0.5,1c0,0.4-0.1,0.7-0.4,1s-0.6,0.4-1,0.4C174,42.5,173.7,42.4,173.4,42.1z"/>
	<path class="st1" d="M180.6,24.1c-0.3-0.3-0.5-0.6-0.5-1c0-0.3,0.1-0.6,0.4-0.9c0.3-0.3,0.6-0.5,1-0.5c0.3,0,0.6,0.1,0.9,0.4
		c0.3,0.3,0.5,0.6,0.5,1c0,0.4-0.1,0.7-0.4,1s-0.6,0.4-1,0.4C181.2,24.5,180.9,24.3,180.6,24.1z M184.2,24.1c-0.3-0.3-0.5-0.6-0.5-1
		c0-0.3,0.1-0.6,0.4-0.9c0.3-0.3,0.6-0.5,1-0.5c0.3,0,0.6,0.1,0.9,0.4c0.3,0.3,0.5,0.6,0.5,1c0,0.4-0.1,0.7-0.4,1
		c-0.3,0.3-0.6,0.4-1,0.4C184.8,24.5,184.5,24.3,184.2,24.1z M187.8,24.1c-0.3-0.3-0.5-0.6-0.5-1c0-0.3,0.1-0.6,0.4-0.9
		c0.3-0.3,0.6-0.5,1-0.5c0.3,0,0.6,0.1,0.9,0.4c0.3,0.3,0.5,0.6,0.5,1c0,0.4-0.1,0.7-0.4,1c-0.3,0.3-0.6,0.4-1,0.4
		C188.4,24.5,188.1,24.3,187.8,24.1z M187.8,27.7c-0.3-0.3-0.5-0.6-0.5-1c0-0.3,0.1-0.6,0.4-0.9c0.3-0.3,0.6-0.5,1-0.5
		c0.3,0,0.6,0.1,0.9,0.4c0.3,0.3,0.5,0.6,0.5,1c0,0.4-0.1,0.7-0.4,1c-0.3,0.3-0.6,0.4-1,0.4C188.4,28.1,188.1,27.9,187.8,27.7z
		 M187.8,31.3c-0.3-0.3-0.5-0.6-0.5-1c0-0.3,0.1-0.6,0.4-0.9c0.3-0.3,0.6-0.5,1-0.5c0.3,0,0.6,0.1,0.9,0.4c0.3,0.3,0.5,0.6,0.5,1
		c0,0.4-0.1,0.7-0.4,1c-0.3,0.3-0.6,0.4-1,0.4C188.4,31.7,188.1,31.6,187.8,31.3z M187.8,34.9c-0.3-0.3-0.5-0.6-0.5-1
		c0-0.3,0.1-0.6,0.4-0.9s0.6-0.5,1-0.5c0.3,0,0.6,0.1,0.9,0.4c0.3,0.3,0.5,0.6,0.5,1c0,0.4-0.1,0.7-0.4,1c-0.3,0.3-0.6,0.4-1,0.4
		C188.4,35.3,188.1,35.2,187.8,34.9z M187.8,38.5c-0.3-0.3-0.5-0.6-0.5-1c0-0.3,0.1-0.6,0.4-0.9s0.6-0.5,1-0.5
		c0.3,0,0.6,0.1,0.9,0.4c0.3,0.3,0.5,0.6,0.5,1c0,0.4-0.1,0.7-0.4,1c-0.3,0.3-0.6,0.4-1,0.4C188.4,38.9,188.1,38.8,187.8,38.5z
		 M187.8,42.1c-0.3-0.3-0.5-0.6-0.5-1c0-0.3,0.1-0.6,0.4-0.9c0.3-0.3,0.6-0.5,1-0.5c0.3,0,0.6,0.1,0.9,0.4c0.3,0.3,0.5,0.6,0.5,1
		c0,0.4-0.1,0.7-0.4,1c-0.3,0.3-0.6,0.4-1,0.4C188.4,42.5,188.1,42.4,187.8,42.1z M187.8,45.7c-0.3-0.3-0.5-0.6-0.5-1
		c0-0.3,0.1-0.6,0.4-0.9s0.6-0.5,1-0.5c0.3,0,0.6,0.1,0.9,0.4c0.3,0.3,0.5,0.6,0.5,1c0,0.4-0.1,0.7-0.4,1c-0.3,0.3-0.6,0.4-1,0.4
		C188.4,46.1,188.1,46,187.8,45.7z M191.4,24.1c-0.3-0.3-0.5-0.6-0.5-1c0-0.3,0.1-0.6,0.4-0.9c0.3-0.3,0.6-0.5,1-0.5
		c0.3,0,0.6,0.1,0.9,0.4c0.3,0.3,0.5,0.6,0.5,1c0,0.4-0.1,0.7-0.4,1s-0.6,0.4-1,0.4C192,24.5,191.7,24.3,191.4,24.1z M195,24.1
		c-0.3-0.3-0.5-0.6-0.5-1c0-0.3,0.1-0.6,0.4-0.9c0.3-0.3,0.6-0.5,1-0.5c0.3,0,0.6,0.1,0.9,0.4c0.3,0.3,0.5,0.6,0.5,1
		c0,0.4-0.1,0.7-0.4,1c-0.3,0.3-0.6,0.4-1,0.4C195.6,24.5,195.3,24.3,195,24.1z"/>
	<path class="st1" d="M202.1,24.1c-0.3-0.3-0.5-0.6-0.5-1c0-0.3,0.1-0.6,0.4-0.9c0.3-0.3,0.6-0.5,1-0.5c0.3,0,0.6,0.1,0.9,0.4
		c0.3,0.3,0.5,0.6,0.5,1c0,0.4-0.1,0.7-0.4,1s-0.6,0.4-1,0.4C202.7,24.5,202.4,24.3,202.1,24.1z M202.1,27.7c-0.3-0.3-0.5-0.6-0.5-1
		c0-0.3,0.1-0.6,0.4-0.9c0.3-0.3,0.6-0.5,1-0.5c0.3,0,0.6,0.1,0.9,0.4c0.3,0.3,0.5,0.6,0.5,1c0,0.4-0.1,0.7-0.4,1s-0.6,0.4-1,0.4
		C202.7,28.1,202.4,27.9,202.1,27.7z M202.1,31.3c-0.3-0.3-0.5-0.6-0.5-1c0-0.3,0.1-0.6,0.4-0.9c0.3-0.3,0.6-0.5,1-0.5
		c0.3,0,0.6,0.1,0.9,0.4c0.3,0.3,0.5,0.6,0.5,1c0,0.4-0.1,0.7-0.4,1s-0.6,0.4-1,0.4C202.7,31.7,202.4,31.6,202.1,31.3z M202.1,34.9
		c-0.3-0.3-0.5-0.6-0.5-1c0-0.3,0.1-0.6,0.4-0.9c0.3-0.3,0.6-0.5,1-0.5c0.3,0,0.6,0.1,0.9,0.4c0.3,0.3,0.5,0.6,0.5,1
		c0,0.4-0.1,0.7-0.4,1s-0.6,0.4-1,0.4C202.7,35.3,202.4,35.2,202.1,34.9z M202.1,38.5c-0.3-0.3-0.5-0.6-0.5-1c0-0.3,0.1-0.6,0.4-0.9
		c0.3-0.3,0.6-0.5,1-0.5c0.3,0,0.6,0.1,0.9,0.4c0.3,0.3,0.5,0.6,0.5,1c0,0.4-0.1,0.7-0.4,1s-0.6,0.4-1,0.4
		C202.7,38.9,202.4,38.8,202.1,38.5z M202.1,42.1c-0.3-0.3-0.5-0.6-0.5-1c0-0.3,0.1-0.6,0.4-0.9c0.3-0.3,0.6-0.5,1-0.5
		c0.3,0,0.6,0.1,0.9,0.4c0.3,0.3,0.5,0.6,0.5,1c0,0.4-0.1,0.7-0.4,1s-0.6,0.4-1,0.4C202.7,42.5,202.4,42.4,202.1,42.1z M205.8,45.7
		c-0.3-0.3-0.5-0.6-0.5-1c0-0.3,0.1-0.6,0.4-0.9s0.6-0.5,1-0.5c0.3,0,0.6,0.1,0.9,0.4c0.3,0.3,0.5,0.6,0.5,1c0,0.4-0.1,0.7-0.4,1
		c-0.3,0.3-0.6,0.4-1,0.4C206.4,46.1,206.1,46,205.8,45.7z M209.4,45.7c-0.3-0.3-0.5-0.6-0.5-1c0-0.3,0.1-0.6,0.4-0.9
		c0.3-0.3,0.6-0.5,1-0.5c0.3,0,0.6,0.1,0.9,0.4c0.3,0.3,0.5,0.6,0.5,1c0,0.4-0.1,0.7-0.4,1s-0.6,0.4-1,0.4
		C210,46.1,209.7,46,209.4,45.7z M213,45.7c-0.3-0.3-0.5-0.6-0.5-1c0-0.3,0.1-0.6,0.4-0.9c0.3-0.3,0.6-0.5,1-0.5
		c0.3,0,0.6,0.1,0.9,0.4c0.3,0.3,0.5,0.6,0.5,1c0,0.4-0.1,0.7-0.4,1s-0.6,0.4-1,0.4C213.6,46.1,213.3,46,213,45.7z M216.6,24.1
		c-0.3-0.3-0.5-0.6-0.5-1c0-0.3,0.1-0.6,0.4-0.9c0.3-0.3,0.6-0.5,1-0.5c0.3,0,0.6,0.1,0.9,0.4c0.3,0.3,0.5,0.6,0.5,1
		c0,0.4-0.1,0.7-0.4,1c-0.3,0.3-0.6,0.4-1,0.4C217.2,24.5,216.9,24.3,216.6,24.1z M216.6,27.7c-0.3-0.3-0.5-0.6-0.5-1
		c0-0.3,0.1-0.6,0.4-0.9c0.3-0.3,0.6-0.5,1-0.5c0.3,0,0.6,0.1,0.9,0.4c0.3,0.3,0.5,0.6,0.5,1c0,0.4-0.1,0.7-0.4,1
		c-0.3,0.3-0.6,0.4-1,0.4C217.2,28.1,216.9,27.9,216.6,27.7z M216.6,31.3c-0.3-0.3-0.5-0.6-0.5-1c0-0.3,0.1-0.6,0.4-0.9
		c0.3-0.3,0.6-0.5,1-0.5c0.3,0,0.6,0.1,0.9,0.4c0.3,0.3,0.5,0.6,0.5,1c0,0.4-0.1,0.7-0.4,1c-0.3,0.3-0.6,0.4-1,0.4
		C217.2,31.7,216.9,31.6,216.6,31.3z M216.6,34.9c-0.3-0.3-0.5-0.6-0.5-1c0-0.3,0.1-0.6,0.4-0.9s0.6-0.5,1-0.5
		c0.3,0,0.6,0.1,0.9,0.4c0.3,0.3,0.5,0.6,0.5,1c0,0.4-0.1,0.7-0.4,1c-0.3,0.3-0.6,0.4-1,0.4C217.2,35.3,216.9,35.2,216.6,34.9z
		 M216.6,38.5c-0.3-0.3-0.5-0.6-0.5-1c0-0.3,0.1-0.6,0.4-0.9s0.6-0.5,1-0.5c0.3,0,0.6,0.1,0.9,0.4c0.3,0.3,0.5,0.6,0.5,1
		c0,0.4-0.1,0.7-0.4,1c-0.3,0.3-0.6,0.4-1,0.4C217.2,38.9,216.9,38.8,216.6,38.5z M216.6,42.1c-0.3-0.3-0.5-0.6-0.5-1
		c0-0.3,0.1-0.6,0.4-0.9c0.3-0.3,0.6-0.5,1-0.5c0.3,0,0.6,0.1,0.9,0.4c0.3,0.3,0.5,0.6,0.5,1c0,0.4-0.1,0.7-0.4,1
		c-0.3,0.3-0.6,0.4-1,0.4C217.2,42.5,216.9,42.4,216.6,42.1z"/>
	<path class="st1" d="M223.7,24.1c-0.3-0.3-0.5-0.6-0.5-1c0-0.3,0.1-0.6,0.4-0.9c0.3-0.3,0.6-0.5,1-0.5c0.3,0,0.6,0.1,0.9,0.4
		c0.3,0.3,0.5,0.6,0.5,1c0,0.4-0.1,0.7-0.4,1c-0.3,0.3-0.6,0.4-1,0.4C224.3,24.5,224,24.3,223.7,24.1z M223.7,27.7
		c-0.3-0.3-0.5-0.6-0.5-1c0-0.3,0.1-0.6,0.4-0.9c0.3-0.3,0.6-0.5,1-0.5c0.3,0,0.6,0.1,0.9,0.4c0.3,0.3,0.5,0.6,0.5,1
		c0,0.4-0.1,0.7-0.4,1c-0.3,0.3-0.6,0.4-1,0.4C224.3,28.1,224,27.9,223.7,27.7z M223.7,31.3c-0.3-0.3-0.5-0.6-0.5-1
		c0-0.3,0.1-0.6,0.4-0.9c0.3-0.3,0.6-0.5,1-0.5c0.3,0,0.6,0.1,0.9,0.4c0.3,0.3,0.5,0.6,0.5,1c0,0.4-0.1,0.7-0.4,1
		c-0.3,0.3-0.6,0.4-1,0.4C224.3,31.7,224,31.6,223.7,31.3z M223.7,34.9c-0.3-0.3-0.5-0.6-0.5-1c0-0.3,0.1-0.6,0.4-0.9s0.6-0.5,1-0.5
		c0.3,0,0.6,0.1,0.9,0.4c0.3,0.3,0.5,0.6,0.5,1c0,0.4-0.1,0.7-0.4,1c-0.3,0.3-0.6,0.4-1,0.4C224.3,35.3,224,35.2,223.7,34.9z
		 M223.7,38.5c-0.3-0.3-0.5-0.6-0.5-1c0-0.3,0.1-0.6,0.4-0.9s0.6-0.5,1-0.5c0.3,0,0.6,0.1,0.9,0.4c0.3,0.3,0.5,0.6,0.5,1
		c0,0.4-0.1,0.7-0.4,1c-0.3,0.3-0.6,0.4-1,0.4C224.3,38.9,224,38.8,223.7,38.5z M223.7,42.1c-0.3-0.3-0.5-0.6-0.5-1
		c0-0.3,0.1-0.6,0.4-0.9c0.3-0.3,0.6-0.5,1-0.5c0.3,0,0.6,0.1,0.9,0.4c0.3,0.3,0.5,0.6,0.5,1c0,0.4-0.1,0.7-0.4,1
		c-0.3,0.3-0.6,0.4-1,0.4C224.3,42.5,224,42.4,223.7,42.1z M223.7,45.7c-0.3-0.3-0.5-0.6-0.5-1c0-0.3,0.1-0.6,0.4-0.9s0.6-0.5,1-0.5
		c0.3,0,0.6,0.1,0.9,0.4c0.3,0.3,0.5,0.6,0.5,1c0,0.4-0.1,0.7-0.4,1c-0.3,0.3-0.6,0.4-1,0.4C224.3,46.1,224,46,223.7,45.7z
		 M227.3,24.1c-0.3-0.3-0.5-0.6-0.5-1c0-0.3,0.1-0.6,0.4-0.9c0.3-0.3,0.6-0.5,1-0.5c0.3,0,0.6,0.1,0.9,0.4c0.3,0.3,0.5,0.6,0.5,1
		c0,0.4-0.1,0.7-0.4,1s-0.6,0.4-1,0.4C227.9,24.5,227.6,24.3,227.3,24.1z M227.3,34.9c-0.3-0.3-0.5-0.6-0.5-1c0-0.3,0.1-0.6,0.4-0.9
		c0.3-0.3,0.6-0.5,1-0.5c0.3,0,0.6,0.1,0.9,0.4c0.3,0.3,0.5,0.6,0.5,1c0,0.4-0.1,0.7-0.4,1s-0.6,0.4-1,0.4
		C227.9,35.3,227.6,35.2,227.3,34.9z M230.9,24.1c-0.3-0.3-0.5-0.6-0.5-1c0-0.3,0.1-0.6,0.4-0.9c0.3-0.3,0.6-0.5,1-0.5
		c0.3,0,0.6,0.1,0.9,0.4c0.3,0.3,0.5,0.6,0.5,1c0,0.4-0.1,0.7-0.4,1s-0.6,0.4-1,0.4C231.5,24.5,231.2,24.3,230.9,24.1z M230.9,34.9
		c-0.3-0.3-0.5-0.6-0.5-1c0-0.3,0.1-0.6,0.4-0.9c0.3-0.3,0.6-0.5,1-0.5c0.3,0,0.6,0.1,0.9,0.4c0.3,0.3,0.5,0.6,0.5,1
		c0,0.4-0.1,0.7-0.4,1s-0.6,0.4-1,0.4C231.5,35.3,231.2,35.2,230.9,34.9z M230.9,38.5c-0.3-0.3-0.5-0.6-0.5-1c0-0.3,0.1-0.6,0.4-0.9
		c0.3-0.3,0.6-0.5,1-0.5c0.3,0,0.6,0.1,0.9,0.4c0.3,0.3,0.5,0.6,0.5,1c0,0.4-0.1,0.7-0.4,1s-0.6,0.4-1,0.4
		C231.5,38.9,231.2,38.8,230.9,38.5z M234.6,24.1c-0.3-0.3-0.5-0.6-0.5-1c0-0.3,0.1-0.6,0.4-0.9c0.3-0.3,0.6-0.5,1-0.5
		c0.3,0,0.6,0.1,0.9,0.4c0.3,0.3,0.5,0.6,0.5,1c0,0.4-0.1,0.7-0.4,1c-0.3,0.3-0.6,0.4-1,0.4C235.2,24.5,234.9,24.3,234.6,24.1z
		 M234.6,34.9c-0.3-0.3-0.5-0.6-0.5-1c0-0.3,0.1-0.6,0.4-0.9s0.6-0.5,1-0.5c0.3,0,0.6,0.1,0.9,0.4c0.3,0.3,0.5,0.6,0.5,1
		c0,0.4-0.1,0.7-0.4,1c-0.3,0.3-0.6,0.4-1,0.4C235.2,35.3,234.9,35.2,234.6,34.9z M234.6,42.1c-0.3-0.3-0.5-0.6-0.5-1
		c0-0.3,0.1-0.6,0.4-0.9c0.3-0.3,0.6-0.5,1-0.5c0.3,0,0.6,0.1,0.9,0.4c0.3,0.3,0.5,0.6,0.5,1c0,0.4-0.1,0.7-0.4,1
		c-0.3,0.3-0.6,0.4-1,0.4C235.2,42.5,234.9,42.4,234.6,42.1z M238.2,27.7c-0.3-0.3-0.5-0.6-0.5-1c0-0.3,0.1-0.6,0.4-0.9
		c0.3-0.3,0.6-0.5,1-0.5c0.3,0,0.6,0.1,0.9,0.4c0.3,0.3,0.5,0.6,0.5,1c0,0.4-0.1,0.7-0.4,1s-0.6,0.4-1,0.4
		C238.8,28.1,238.5,27.9,238.2,27.7z M238.2,31.3c-0.3-0.3-0.5-0.6-0.5-1c0-0.3,0.1-0.6,0.4-0.9c0.3-0.3,0.6-0.5,1-0.5
		c0.3,0,0.6,0.1,0.9,0.4c0.3,0.3,0.5,0.6,0.5,1c0,0.4-0.1,0.7-0.4,1s-0.6,0.4-1,0.4C238.8,31.7,238.5,31.6,238.2,31.3z M238.2,45.7
		c-0.3-0.3-0.5-0.6-0.5-1c0-0.3,0.1-0.6,0.4-0.9c0.3-0.3,0.6-0.5,1-0.5c0.3,0,0.6,0.1,0.9,0.4c0.3,0.3,0.5,0.6,0.5,1
		c0,0.4-0.1,0.7-0.4,1s-0.6,0.4-1,0.4C238.8,46.1,238.5,46,238.2,45.7z"/>
	<path class="st1" d="M245.3,24.1c-0.3-0.3-0.5-0.6-0.5-1c0-0.3,0.1-0.6,0.4-0.9c0.3-0.3,0.6-0.5,1-0.5c0.3,0,0.6,0.1,0.9,0.4
		c0.3,0.3,0.5,0.6,0.5,1c0,0.4-0.1,0.7-0.4,1s-0.6,0.4-1,0.4C245.9,24.5,245.6,24.3,245.3,24.1z M245.3,27.7c-0.3-0.3-0.5-0.6-0.5-1
		c0-0.3,0.1-0.6,0.4-0.9c0.3-0.3,0.6-0.5,1-0.5c0.3,0,0.6,0.1,0.9,0.4c0.3,0.3,0.5,0.6,0.5,1c0,0.4-0.1,0.7-0.4,1s-0.6,0.4-1,0.4
		C245.9,28.1,245.6,27.9,245.3,27.7z M245.3,31.3c-0.3-0.3-0.5-0.6-0.5-1c0-0.3,0.1-0.6,0.4-0.9c0.3-0.3,0.6-0.5,1-0.5
		c0.3,0,0.6,0.1,0.9,0.4c0.3,0.3,0.5,0.6,0.5,1c0,0.4-0.1,0.7-0.4,1s-0.6,0.4-1,0.4C245.9,31.7,245.6,31.6,245.3,31.3z M245.3,34.9
		c-0.3-0.3-0.5-0.6-0.5-1c0-0.3,0.1-0.6,0.4-0.9c0.3-0.3,0.6-0.5,1-0.5c0.3,0,0.6,0.1,0.9,0.4c0.3,0.3,0.5,0.6,0.5,1
		c0,0.4-0.1,0.7-0.4,1s-0.6,0.4-1,0.4C245.9,35.3,245.6,35.2,245.3,34.9z M245.3,38.5c-0.3-0.3-0.5-0.6-0.5-1c0-0.3,0.1-0.6,0.4-0.9
		c0.3-0.3,0.6-0.5,1-0.5c0.3,0,0.6,0.1,0.9,0.4c0.3,0.3,0.5,0.6,0.5,1c0,0.4-0.1,0.7-0.4,1s-0.6,0.4-1,0.4
		C245.9,38.9,245.6,38.8,245.3,38.5z M245.3,42.1c-0.3-0.3-0.5-0.6-0.5-1c0-0.3,0.1-0.6,0.4-0.9c0.3-0.3,0.6-0.5,1-0.5
		c0.3,0,0.6,0.1,0.9,0.4c0.3,0.3,0.5,0.6,0.5,1c0,0.4-0.1,0.7-0.4,1s-0.6,0.4-1,0.4C245.9,42.5,245.6,42.4,245.3,42.1z M245.3,45.7
		c-0.3-0.3-0.5-0.6-0.5-1c0-0.3,0.1-0.6,0.4-0.9c0.3-0.3,0.6-0.5,1-0.5c0.3,0,0.6,0.1,0.9,0.4c0.3,0.3,0.5,0.6,0.5,1
		c0,0.4-0.1,0.7-0.4,1s-0.6,0.4-1,0.4C245.9,46.1,245.6,46,245.3,45.7z M248.9,24.1c-0.3-0.3-0.5-0.6-0.5-1c0-0.3,0.1-0.6,0.4-0.9
		c0.3-0.3,0.6-0.5,1-0.5c0.3,0,0.6,0.1,0.9,0.4c0.3,0.3,0.5,0.6,0.5,1c0,0.4-0.1,0.7-0.4,1s-0.6,0.4-1,0.4
		C249.5,24.5,249.2,24.3,248.9,24.1z M248.9,34.9c-0.3-0.3-0.5-0.6-0.5-1c0-0.3,0.1-0.6,0.4-0.9c0.3-0.3,0.6-0.5,1-0.5
		c0.3,0,0.6,0.1,0.9,0.4c0.3,0.3,0.5,0.6,0.5,1c0,0.4-0.1,0.7-0.4,1s-0.6,0.4-1,0.4C249.5,35.3,249.2,35.2,248.9,34.9z M248.9,45.7
		c-0.3-0.3-0.5-0.6-0.5-1c0-0.3,0.1-0.6,0.4-0.9c0.3-0.3,0.6-0.5,1-0.5c0.3,0,0.6,0.1,0.9,0.4c0.3,0.3,0.5,0.6,0.5,1
		c0,0.4-0.1,0.7-0.4,1s-0.6,0.4-1,0.4C249.5,46.1,249.2,46,248.9,45.7z M252.5,24.1c-0.3-0.3-0.5-0.6-0.5-1c0-0.3,0.1-0.6,0.4-0.9
		c0.3-0.3,0.6-0.5,1-0.5c0.3,0,0.6,0.1,0.9,0.4c0.3,0.3,0.5,0.6,0.5,1c0,0.4-0.1,0.7-0.4,1c-0.3,0.3-0.6,0.4-1,0.4
		C253.1,24.5,252.8,24.3,252.5,24.1z M252.5,34.9c-0.3-0.3-0.5-0.6-0.5-1c0-0.3,0.1-0.6,0.4-0.9s0.6-0.5,1-0.5
		c0.3,0,0.6,0.1,0.9,0.4c0.3,0.3,0.5,0.6,0.5,1c0,0.4-0.1,0.7-0.4,1c-0.3,0.3-0.6,0.4-1,0.4C253.1,35.3,252.8,35.2,252.5,34.9z
		 M252.5,45.7c-0.3-0.3-0.5-0.6-0.5-1c0-0.3,0.1-0.6,0.4-0.9s0.6-0.5,1-0.5c0.3,0,0.6,0.1,0.9,0.4c0.3,0.3,0.5,0.6,0.5,1
		c0,0.4-0.1,0.7-0.4,1c-0.3,0.3-0.6,0.4-1,0.4C253.1,46.1,252.8,46,252.5,45.7z M256.1,24.1c-0.3-0.3-0.5-0.6-0.5-1
		c0-0.3,0.1-0.6,0.4-0.9c0.3-0.3,0.6-0.5,1-0.5c0.3,0,0.6,0.1,0.9,0.4c0.3,0.3,0.5,0.6,0.5,1c0,0.4-0.1,0.7-0.4,1s-0.6,0.4-1,0.4
		C256.7,24.5,256.4,24.3,256.1,24.1z M256.1,34.9c-0.3-0.3-0.5-0.6-0.5-1c0-0.3,0.1-0.6,0.4-0.9c0.3-0.3,0.6-0.5,1-0.5
		c0.3,0,0.6,0.1,0.9,0.4c0.3,0.3,0.5,0.6,0.5,1c0,0.4-0.1,0.7-0.4,1s-0.6,0.4-1,0.4C256.7,35.3,256.4,35.2,256.1,34.9z M256.1,45.7
		c-0.3-0.3-0.5-0.6-0.5-1c0-0.3,0.1-0.6,0.4-0.9c0.3-0.3,0.6-0.5,1-0.5c0.3,0,0.6,0.1,0.9,0.4c0.3,0.3,0.5,0.6,0.5,1
		c0,0.4-0.1,0.7-0.4,1s-0.6,0.4-1,0.4C256.7,46.1,256.4,46,256.1,45.7z M259.7,24.1c-0.3-0.3-0.5-0.6-0.5-1c0-0.3,0.1-0.6,0.4-0.9
		c0.3-0.3,0.6-0.5,1-0.5c0.3,0,0.6,0.1,0.9,0.4c0.3,0.3,0.5,0.6,0.5,1c0,0.4-0.1,0.7-0.4,1s-0.6,0.4-1,0.4
		C260.3,24.5,260,24.3,259.7,24.1z M259.7,45.7c-0.3-0.3-0.5-0.6-0.5-1c0-0.3,0.1-0.6,0.4-0.9c0.3-0.3,0.6-0.5,1-0.5
		c0.3,0,0.6,0.1,0.9,0.4c0.3,0.3,0.5,0.6,0.5,1c0,0.4-0.1,0.7-0.4,1s-0.6,0.4-1,0.4C260.3,46.1,260,46,259.7,45.7z"/>
</g>
</svg>
