<?xml version="1.0" standalone="no"?> <!DOCTYPE svg PUBLIC "-//W3C//DTD SVG 1.0//EN" "http://www.w3.org/TR/2001/REC-SVG-20010904/DTD/svg10.dtd" > <svg xmlns="http://www.w3.org/2000/svg" width="100%" height="100%">
<defs >
<font id="JD-LCD-Rounded" horiz-adv-x="383" ><font-face
    font-family="JD LCD Rounded"
    units-per-em="1024"
    panose-1="0 0 4 0 0 0 0 0 0 0"
    ascent="640"
    descent="-192"
    alphabetic="0" />
<missing-glyph horiz-adv-x="51" d="M224 63V134H152V63H224ZM295 146V218H152V146H295ZM224 229V301H152V229H224ZM295 313V383H224Q194 383 173 363Q152 342 152 313H295ZM0 0V448H448V0H0Z" />
<glyph unicode=" " glyph-name="space" horiz-adv-x="384" />
<glyph unicode="!" glyph-name="exclam" horiz-adv-x="384" d="M158 6Q150 6 142 13Q134 20 134 30Q134 38 141 46Q148 54 158 54Q166 54 174 47Q182 39 182 30Q182 20 175 13Q168 6 158 6V6ZM158 134Q150 134 142 141Q134 148 134 158Q134 166 141 174Q148 182
158 182Q166 182 174 175Q182 167 182 158Q182 148 175 141Q168 134 158 134V134ZM158 198Q150 198 142 205Q134 212 134 222Q134 230 141 238Q148 246 158 246Q166 246 174 239Q182 231 182 222Q182 212 175 205Q168 198 158 198V198ZM158 262Q150 262 142 269Q134
276 134 286Q134 294 141 302Q148 310 158 310Q166 310 174 303Q182 295 182 286Q182 276 175 269Q168 262 158 262V262ZM158 326Q150 326 142 333Q134 340 134 350Q134 358 141 366Q148 374 158 374Q166 374 174 367Q182 359 182 350Q182 340 175 333Q168 326
158 326V326ZM158 390Q150 390 142 397Q134 404 134 414Q134 422 141 430Q148 438 158 438Q166 438 174 431Q182 423 182 414Q182 404 175 397Q168 390 158 390V390Z" />
<glyph unicode="&quot;" glyph-name="quotedbl" horiz-adv-x="255" d="M30 326Q22 326 14 333Q6 340 6 350Q6 358 13 366Q20 374 30 374Q38 374 46 367Q54 359 54 350Q54 340 47 333Q40 326 30 326V326ZM158 326Q150 326 142 333Q134 340 134 350Q134 358 141
366Q148 374 158 374Q166 374 174 367Q182 359 182 350Q182 340 175 333Q168 326 158 326V326ZM30 390Q22 390 14 397Q6 404 6 414Q6 422 13 430Q20 438 30 438Q38 438 46 431Q54 423 54 414Q54 404 47 397Q40 390 30 390V390ZM158 390Q150 390 142 397Q134 404
134 414Q134 422 141 430Q148 438 158 438Q166 438 174 431Q182 423 182 414Q182 404 175 397Q168 390 158 390V390Z" />
<glyph unicode="#" glyph-name="numbersign" d="M94 6Q86 6 78 13Q70 20 70 30Q70 38 77 46Q84 54 94 54Q102 54 110 47Q118 39 118 30Q118 20 111 13Q104 6 94 6V6ZM222 6Q214 6 206 13Q198 20 198 30Q198 38 205 46Q212 54 222 54Q230 54 238 47Q246 39 246
30Q246 20 239 13Q232 6 222 6V6ZM30 70Q22 70 14 77Q6 84 6 94Q6 102 13 110Q20 118 30 118Q38 118 46 111Q54 103 54 94Q54 84 47 77Q40 70 30 70V70ZM94 70Q86 70 78 77Q70 84 70 94Q70 102 77 110Q84 118 94 118Q102 118 110 111Q118 103 118 94Q118 84 111
77Q104 70 94 70V70ZM158 70Q150 70 142 77Q134 84 134 94Q134 102 141 110Q148 118 158 118Q166 118 174 111Q182 103 182 94Q182 84 175 77Q168 70 158 70V70ZM222 70Q214 70 206 77Q198 84 198 94Q198 102 205 110Q212 118 222 118Q230 118 238 111Q246 103
246 94Q246 84 239 77Q232 70 222 70V70ZM286 70Q278 70 270 77Q262 84 262 94Q262 102 269 110Q276 118 286 118Q294 118 302 111Q310 103 310 94Q310 84 303 77Q296 70 286 70V70ZM94 134Q86 134 78 141Q70 148 70 158Q70 166 77 174Q84 182 94 182Q102 182 110
175Q118 167 118 158Q118 148 111 141Q104 134 94 134V134ZM222 134Q214 134 206 141Q198 148 198 158Q198 166 205 174Q212 182 222 182Q230 182 238 175Q246 167 246 158Q246 148 239 141Q232 134 222 134V134ZM30 198Q22 198 14 205Q6 212 6 222Q6 230 13 238Q20
246 30 246Q38 246 46 239Q54 231 54 222Q54 212 47 205Q40 198 30 198V198ZM94 198Q86 198 78 205Q70 212 70 222Q70 230 77 238Q84 246 94 246Q102 246 110 239Q118 231 118 222Q118 212 111 205Q104 198 94 198V198ZM158 198Q150 198 142 205Q134 212 134 222Q134
230 141 238Q148 246 158 246Q166 246 174 239Q182 231 182 222Q182 212 175 205Q168 198 158 198V198ZM222 198Q214 198 206 205Q198 212 198 222Q198 230 205 238Q212 246 222 246Q230 246 238 239Q246 231 246 222Q246 212 239 205Q232 198 222 198V198ZM286
198Q278 198 270 205Q262 212 262 222Q262 230 269 238Q276 246 286 246Q294 246 302 239Q310 231 310 222Q310 212 303 205Q296 198 286 198V198ZM94 262Q86 262 78 269Q70 276 70 286Q70 294 77 302Q84 310 94 310Q102 310 110 303Q118 295 118 286Q118 276 111
269Q104 262 94 262V262ZM222 262Q214 262 206 269Q198 276 198 286Q198 294 205 302Q212 310 222 310Q230 310 238 303Q246 295 246 286Q246 276 239 269Q232 262 222 262V262Z" />
<glyph unicode="$" glyph-name="dollar" d="M158 -121Q150 -121 142 -114Q134 -107 134 -97Q134 -89 141 -81Q148 -73 158 -73Q166 -73 174 -80Q182 -88 182 -97Q182 -107 175 -114Q168 -121 158 -121V-121ZM94 -57Q86 -57 78 -50Q70 -43 70 -33Q70 -25 77 -17Q84
-9 94 -9Q102 -9 110 -16Q118 -24 118 -33Q118 -43 111 -50Q104 -57 94 -57V-57ZM158 -57Q150 -57 142 -50Q134 -43 134 -33Q134 -25 141 -17Q148 -9 158 -9Q166 -9 174 -16Q182 -24 182 -33Q182 -43 175 -50Q168 -57 158 -57V-57ZM222 -57Q214 -57 206 -50Q198
-43 198 -33Q198 -25 205 -17Q212 -9 222 -9Q230 -9 238 -16Q246 -24 246 -33Q246 -43 239 -50Q232 -57 222 -57V-57ZM30 6Q22 6 14 13Q6 20 6 30Q6 38 13 46Q20 54 30 54Q38 54 46 47Q54 39 54 30Q54 20 47 13Q40 6 30 6V6ZM158 6Q150 6 142 13Q134 20 134 30Q134
38 141 46Q148 54 158 54Q166 54 174 47Q182 39 182 30Q182 20 175 13Q168 6 158 6V6ZM286 6Q278 6 270 13Q262 20 262 30Q262 38 269 46Q276 54 286 54Q294 54 302 47Q310 39 310 30Q310 20 303 13Q296 6 286 6V6ZM158 70Q150 70 142 77Q134 84 134 94Q134 102
141 110Q148 118 158 118Q166 118 174 111Q182 103 182 94Q182 84 175 77Q168 70 158 70V70ZM286 70Q278 70 270 77Q262 84 262 94Q262 102 269 110Q276 118 286 118Q294 118 302 111Q310 103 310 94Q310 84 303 77Q296 70 286 70V70ZM94 134Q86 134 78 141Q70
148 70 158Q70 166 77 174Q84 182 94 182Q102 182 110 175Q118 167 118 158Q118 148 111 141Q104 134 94 134V134ZM158 134Q150 134 142 141Q134 148 134 158Q134 166 141 174Q148 182 158 182Q166 182 174 175Q182 167 182 158Q182 148 175 141Q168 134 158 134V134ZM222
134Q214 134 206 141Q198 148 198 158Q198 166 205 174Q212 182 222 182Q230 182 238 175Q246 167 246 158Q246 148 239 141Q232 134 222 134V134ZM30 198Q22 198 14 205Q6 212 6 222Q6 230 13 238Q20 246 30 246Q38 246 46 239Q54 231 54 222Q54 212 47 205Q40
198 30 198V198ZM158 198Q150 198 142 205Q134 212 134 222Q134 230 141 238Q148 246 158 246Q166 246 174 239Q182 231 182 222Q182 212 175 205Q168 198 158 198V198ZM30 262Q22 262 14 269Q6 276 6 286Q6 294 13 302Q20 310 30 310Q38 310 46 303Q54 295 54
286Q54 276 47 269Q40 262 30 262V262ZM158 262Q150 262 142 269Q134 276 134 286Q134 294 141 302Q148 310 158 310Q166 310 174 303Q182 295 182 286Q182 276 175 269Q168 262 158 262V262ZM286 262Q278 262 270 269Q262 276 262 286Q262 294 269 302Q276 310
286 310Q294 310 302 303Q310 295 310 286Q310 276 303 269Q296 262 286 262V262ZM94 326Q86 326 78 333Q70 340 70 350Q70 358 77 366Q84 374 94 374Q102 374 110 367Q118 359 118 350Q118 340 111 333Q104 326 94 326V326ZM158 326Q150 326 142 333Q134 340 134
350Q134 358 141 366Q148 374 158 374Q166 374 174 367Q182 359 182 350Q182 340 175 333Q168 326 158 326V326ZM222 326Q214 326 206 333Q198 340 198 350Q198 358 205 366Q212 374 222 374Q230 374 238 367Q246 359 246 350Q246 340 239 333Q232 326 222 326V326ZM158
390Q150 390 142 397Q134 404 134 414Q134 422 141 430Q148 438 158 438Q166 438 174 431Q182 423 182 414Q182 404 175 397Q168 390 158 390V390Z" />
<glyph unicode="%" glyph-name="percent" d="M30 6Q22 6 14 13Q6 20 6 30Q6 38 13 46Q20 54 30 54Q38 54 46 47Q54 39 54 30Q54 20 47 13Q40 6 30 6V6ZM222 6Q214 6 206 13Q198 20 198 30Q198 38 205 46Q212 54 222 54Q230 54 238 47Q246 39 246 30Q246 20 239
13Q232 6 222 6V6ZM286 6Q278 6 270 13Q262 20 262 30Q262 38 269 46Q276 54 286 54Q294 54 302 47Q310 39 310 30Q310 20 303 13Q296 6 286 6V6ZM94 70Q86 70 78 77Q70 84 70 94Q70 102 77 110Q84 118 94 118Q102 118 110 111Q118 103 118 94Q118 84 111 77Q104
70 94 70V70ZM222 70Q214 70 206 77Q198 84 198 94Q198 102 205 110Q212 118 222 118Q230 118 238 111Q246 103 246 94Q246 84 239 77Q232 70 222 70V70ZM286 70Q278 70 270 77Q262 84 262 94Q262 102 269 110Q276 118 286 118Q294 118 302 111Q310 103 310 94Q310
84 303 77Q296 70 286 70V70ZM158 134Q150 134 142 141Q134 148 134 158Q134 166 141 174Q148 182 158 182Q166 182 174 175Q182 167 182 158Q182 148 175 141Q168 134 158 134V134ZM30 198Q22 198 14 205Q6 212 6 222Q6 230 13 238Q20 246 30 246Q38 246 46 239Q54
231 54 222Q54 212 47 205Q40 198 30 198V198ZM94 198Q86 198 78 205Q70 212 70 222Q70 230 77 238Q84 246 94 246Q102 246 110 239Q118 231 118 222Q118 212 111 205Q104 198 94 198V198ZM222 198Q214 198 206 205Q198 212 198 222Q198 230 205 238Q212 246 222
246Q230 246 238 239Q246 231 246 222Q246 212 239 205Q232 198 222 198V198ZM30 262Q22 262 14 269Q6 276 6 286Q6 294 13 302Q20 310 30 310Q38 310 46 303Q54 295 54 286Q54 276 47 269Q40 262 30 262V262ZM94 262Q86 262 78 269Q70 276 70 286Q70 294 77 302Q84
310 94 310Q102 310 110 303Q118 295 118 286Q118 276 111 269Q104 262 94 262V262ZM286 262Q278 262 270 269Q262 276 262 286Q262 294 269 302Q276 310 286 310Q294 310 302 303Q310 295 310 286Q310 276 303 269Q296 262 286 262V262Z" />
<glyph unicode="&amp;" glyph-name="ampersand" d="M94 6Q86 6 78 13Q70 20 70 30Q70 38 77 46Q84 54 94 54Q102 54 110 47Q118 39 118 30Q118 20 111 13Q104 6 94 6V6ZM158 6Q150 6 142 13Q134 20 134 30Q134 38 141 46Q148 54 158 54Q166 54 174 47Q182 39 182
30Q182 20 175 13Q168 6 158 6V6ZM286 6Q278 6 270 13Q262 20 262 30Q262 38 269 46Q276 54 286 54Q294 54 302 47Q310 39 310 30Q310 20 303 13Q296 6 286 6V6ZM30 70Q22 70 14 77Q6 84 6 94Q6 102 13 110Q20 118 30 118Q38 118 46 111Q54 103 54 94Q54 84 47
77Q40 70 30 70V70ZM222 70Q214 70 206 77Q198 84 198 94Q198 102 205 110Q212 118 222 118Q230 118 238 111Q246 103 246 94Q246 84 239 77Q232 70 222 70V70ZM30 134Q22 134 14 141Q6 148 6 158Q6 166 13 174Q20 182 30 182Q38 182 46 175Q54 167 54 158Q54 148
47 141Q40 134 30 134V134ZM158 134Q150 134 142 141Q134 148 134 158Q134 166 141 174Q148 182 158 182Q166 182 174 175Q182 167 182 158Q182 148 175 141Q168 134 158 134V134ZM286 134Q278 134 270 141Q262 148 262 158Q262 166 269 174Q276 182 286 182Q294
182 302 175Q310 167 310 158Q310 148 303 141Q296 134 286 134V134ZM94 198Q86 198 78 205Q70 212 70 222Q70 230 77 238Q84 246 94 246Q102 246 110 239Q118 231 118 222Q118 212 111 205Q104 198 94 198V198ZM30 262Q22 262 14 269Q6 276 6 286Q6 294 13 302Q20
310 30 310Q38 310 46 303Q54 295 54 286Q54 276 47 269Q40 262 30 262V262ZM158 262Q150 262 142 269Q134 276 134 286Q134 294 141 302Q148 310 158 310Q166 310 174 303Q182 295 182 286Q182 276 175 269Q168 262 158 262V262ZM94 326Q86 326 78 333Q70 340
70 350Q70 358 77 366Q84 374 94 374Q102 374 110 367Q118 359 118 350Q118 340 111 333Q104 326 94 326V326Z" />
<glyph unicode="&apos;" glyph-name="quotesingle" horiz-adv-x="127" d="M30 326Q22 326 14 333Q6 340 6 350Q6 358 13 366Q20 374 30 374Q38 374 46 367Q54 359 54 350Q54 340 47 333Q40 326 30 326V326ZM30 390Q22 390 14 397Q6 404 6 414Q6 422 13 430Q20
438 30 438Q38 438 46 431Q54 423 54 414Q54 404 47 397Q40 390 30 390V390Z" />
<glyph unicode="(" glyph-name="parenleft" horiz-adv-x="191" d="M94 6Q86 6 78 13Q70 20 70 30Q70 38 77 46Q84 54 94 54Q102 54 110 47Q118 39 118 30Q118 20 111 13Q104 6 94 6V6ZM30 70Q22 70 14 77Q6 84 6 94Q6 102 13 110Q20 118 30 118Q38 118 46 111Q54
103 54 94Q54 84 47 77Q40 70 30 70V70ZM30 134Q22 134 14 141Q6 148 6 158Q6 166 13 174Q20 182 30 182Q38 182 46 175Q54 167 54 158Q54 148 47 141Q40 134 30 134V134ZM30 198Q22 198 14 205Q6 212 6 222Q6 230 13 238Q20 246 30 246Q38 246 46 239Q54 231 54
222Q54 212 47 205Q40 198 30 198V198ZM30 262Q22 262 14 269Q6 276 6 286Q6 294 13 302Q20 310 30 310Q38 310 46 303Q54 295 54 286Q54 276 47 269Q40 262 30 262V262ZM30 326Q22 326 14 333Q6 340 6 350Q6 358 13 366Q20 374 30 374Q38 374 46 367Q54 359 54
350Q54 340 47 333Q40 326 30 326V326ZM94 390Q86 390 78 397Q70 404 70 414Q70 422 77 430Q84 438 94 438Q102 438 110 431Q118 423 118 414Q118 404 111 397Q104 390 94 390V390Z" />
<glyph unicode=")" glyph-name="parenright" horiz-adv-x="191" d="M30 6Q22 6 14 13Q6 20 6 30Q6 38 13 46Q20 54 30 54Q38 54 46 47Q54 39 54 30Q54 20 47 13Q40 6 30 6V6ZM94 70Q86 70 78 77Q70 84 70 94Q70 102 77 110Q84 118 94 118Q102 118 110 111Q118
103 118 94Q118 84 111 77Q104 70 94 70V70ZM94 134Q86 134 78 141Q70 148 70 158Q70 166 77 174Q84 182 94 182Q102 182 110 175Q118 167 118 158Q118 148 111 141Q104 134 94 134V134ZM94 198Q86 198 78 205Q70 212 70 222Q70 230 77 238Q84 246 94 246Q102 246
110 239Q118 231 118 222Q118 212 111 205Q104 198 94 198V198ZM94 262Q86 262 78 269Q70 276 70 286Q70 294 77 302Q84 310 94 310Q102 310 110 303Q118 295 118 286Q118 276 111 269Q104 262 94 262V262ZM94 326Q86 326 78 333Q70 340 70 350Q70 358 77 366Q84
374 94 374Q102 374 110 367Q118 359 118 350Q118 340 111 333Q104 326 94 326V326ZM30 390Q22 390 14 397Q6 404 6 414Q6 422 13 430Q20 438 30 438Q38 438 46 431Q54 423 54 414Q54 404 47 397Q40 390 30 390V390Z" />
<glyph unicode="*" glyph-name="asterisk" d="M30 70Q22 70 14 77Q6 84 6 94Q6 102 13 110Q20 118 30 118Q38 118 46 111Q54 103 54 94Q54 84 47 77Q40 70 30 70V70ZM158 70Q150 70 142 77Q134 84 134 94Q134 102 141 110Q148 118 158 118Q166 118 174 111Q182
103 182 94Q182 84 175 77Q168 70 158 70V70ZM286 70Q278 70 270 77Q262 84 262 94Q262 102 269 110Q276 118 286 118Q294 118 302 111Q310 103 310 94Q310 84 303 77Q296 70 286 70V70ZM94 134Q86 134 78 141Q70 148 70 158Q70 166 77 174Q84 182 94 182Q102 182
110 175Q118 167 118 158Q118 148 111 141Q104 134 94 134V134ZM158 134Q150 134 142 141Q134 148 134 158Q134 166 141 174Q148 182 158 182Q166 182 174 175Q182 167 182 158Q182 148 175 141Q168 134 158 134V134ZM222 134Q214 134 206 141Q198 148 198 158Q198
166 205 174Q212 182 222 182Q230 182 238 175Q246 167 246 158Q246 148 239 141Q232 134 222 134V134ZM30 198Q22 198 14 205Q6 212 6 222Q6 230 13 238Q20 246 30 246Q38 246 46 239Q54 231 54 222Q54 212 47 205Q40 198 30 198V198ZM94 198Q86 198 78 205Q70
212 70 222Q70 230 77 238Q84 246 94 246Q102 246 110 239Q118 231 118 222Q118 212 111 205Q104 198 94 198V198ZM158 198Q150 198 142 205Q134 212 134 222Q134 230 141 238Q148 246 158 246Q166 246 174 239Q182 231 182 222Q182 212 175 205Q168 198 158 198V198ZM222
198Q214 198 206 205Q198 212 198 222Q198 230 205 238Q212 246 222 246Q230 246 238 239Q246 231 246 222Q246 212 239 205Q232 198 222 198V198ZM286 198Q278 198 270 205Q262 212 262 222Q262 230 269 238Q276 246 286 246Q294 246 302 239Q310 231 310 222Q310
212 303 205Q296 198 286 198V198ZM94 262Q86 262 78 269Q70 276 70 286Q70 294 77 302Q84 310 94 310Q102 310 110 303Q118 295 118 286Q118 276 111 269Q104 262 94 262V262ZM158 262Q150 262 142 269Q134 276 134 286Q134 294 141 302Q148 310 158 310Q166 310
174 303Q182 295 182 286Q182 276 175 269Q168 262 158 262V262ZM222 262Q214 262 206 269Q198 276 198 286Q198 294 205 302Q212 310 222 310Q230 310 238 303Q246 295 246 286Q246 276 239 269Q232 262 222 262V262ZM30 326Q22 326 14 333Q6 340 6 350Q6 358
13 366Q20 374 30 374Q38 374 46 367Q54 359 54 350Q54 340 47 333Q40 326 30 326V326ZM158 326Q150 326 142 333Q134 340 134 350Q134 358 141 366Q148 374 158 374Q166 374 174 367Q182 359 182 350Q182 340 175 333Q168 326 158 326V326ZM286 326Q278 326 270
333Q262 340 262 350Q262 358 269 366Q276 374 286 374Q294 374 302 367Q310 359 310 350Q310 340 303 333Q296 326 286 326V326Z" />
<glyph unicode="+" glyph-name="plus" d="M158 70Q150 70 142 77Q134 84 134 94Q134 102 141 110Q148 118 158 118Q166 118 174 111Q182 103 182 94Q182 84 175 77Q168 70 158 70V70ZM158 134Q150 134 142 141Q134 148 134 158Q134 166 141 174Q148 182 158 182Q166
182 174 175Q182 167 182 158Q182 148 175 141Q168 134 158 134V134ZM30 198Q22 198 14 205Q6 212 6 222Q6 230 13 238Q20 246 30 246Q38 246 46 239Q54 231 54 222Q54 212 47 205Q40 198 30 198V198ZM94 198Q86 198 78 205Q70 212 70 222Q70 230 77 238Q84 246
94 246Q102 246 110 239Q118 231 118 222Q118 212 111 205Q104 198 94 198V198ZM158 198Q150 198 142 205Q134 212 134 222Q134 230 141 238Q148 246 158 246Q166 246 174 239Q182 231 182 222Q182 212 175 205Q168 198 158 198V198ZM222 198Q214 198 206 205Q198
212 198 222Q198 230 205 238Q212 246 222 246Q230 246 238 239Q246 231 246 222Q246 212 239 205Q232 198 222 198V198ZM286 198Q278 198 270 205Q262 212 262 222Q262 230 269 238Q276 246 286 246Q294 246 302 239Q310 231 310 222Q310 212 303 205Q296 198
286 198V198ZM158 262Q150 262 142 269Q134 276 134 286Q134 294 141 302Q148 310 158 310Q166 310 174 303Q182 295 182 286Q182 276 175 269Q168 262 158 262V262ZM158 326Q150 326 142 333Q134 340 134 350Q134 358 141 366Q148 374 158 374Q166 374 174 367Q182
359 182 350Q182 340 175 333Q168 326 158 326V326Z" />
<glyph unicode="," glyph-name="comma" horiz-adv-x="191" d="M30 -121Q22 -121 14 -114Q6 -107 6 -97Q6 -89 13 -81Q20 -73 30 -73Q38 -73 46 -80Q54 -88 54 -97Q54 -107 47 -114Q40 -121 30 -121V-121ZM94 -57Q86 -57 78 -50Q70 -43 70 -33Q70 -25 77 -17Q84
-9 94 -9Q102 -9 110 -16Q118 -24 118 -33Q118 -43 111 -50Q104 -57 94 -57V-57ZM30 6Q22 6 14 13Q6 20 6 30Q6 38 13 46Q20 54 30 54Q38 54 46 47Q54 39 54 30Q54 20 47 13Q40 6 30 6V6ZM94 6Q86 6 78 13Q70 20 70 30Q70 38 77 46Q84 54 94 54Q102 54 110 47Q118
39 118 30Q118 20 111 13Q104 6 94 6V6ZM30 70Q22 70 14 77Q6 84 6 94Q6 102 13 110Q20 118 30 118Q38 118 46 111Q54 103 54 94Q54 84 47 77Q40 70 30 70V70ZM94 70Q86 70 78 77Q70 84 70 94Q70 102 77 110Q84 118 94 118Q102 118 110 111Q118 103 118 94Q118
84 111 77Q104 70 94 70V70Z" />
<glyph unicode="-" glyph-name="hyphen" d="M30 198Q22 198 14 205Q6 212 6 222Q6 230 13 238Q20 246 30 246Q38 246 46 239Q54 231 54 222Q54 212 47 205Q40 198 30 198V198ZM94 198Q86 198 78 205Q70 212 70 222Q70 230 77 238Q84 246 94 246Q102 246 110 239Q118
231 118 222Q118 212 111 205Q104 198 94 198V198ZM158 198Q150 198 142 205Q134 212 134 222Q134 230 141 238Q148 246 158 246Q166 246 174 239Q182 231 182 222Q182 212 175 205Q168 198 158 198V198ZM222 198Q214 198 206 205Q198 212 198 222Q198 230 205
238Q212 246 222 246Q230 246 238 239Q246 231 246 222Q246 212 239 205Q232 198 222 198V198ZM286 198Q278 198 270 205Q262 212 262 222Q262 230 269 238Q276 246 286 246Q294 246 302 239Q310 231 310 222Q310 212 303 205Q296 198 286 198V198Z" />
<glyph unicode="." glyph-name="period" horiz-adv-x="191" d="M30 6Q22 6 14 13Q6 20 6 30Q6 38 13 46Q20 54 30 54Q38 54 46 47Q54 39 54 30Q54 20 47 13Q40 6 30 6V6ZM94 6Q86 6 78 13Q70 20 70 30Q70 38 77 46Q84 54 94 54Q102 54 110 47Q118 39 118 30Q118
20 111 13Q104 6 94 6V6ZM30 70Q22 70 14 77Q6 84 6 94Q6 102 13 110Q20 118 30 118Q38 118 46 111Q54 103 54 94Q54 84 47 77Q40 70 30 70V70ZM94 70Q86 70 78 77Q70 84 70 94Q70 102 77 110Q84 118 94 118Q102 118 110 111Q118 103 118 94Q118 84 111 77Q104
70 94 70V70Z" />
<glyph unicode="/" glyph-name="slash" d="M30 6Q22 6 14 13Q6 20 6 30Q6 38 13 46Q20 54 30 54Q38 54 46 47Q54 39 54 30Q54 20 47 13Q40 6 30 6V6ZM30 70Q22 70 14 77Q6 84 6 94Q6 102 13 110Q20 118 30 118Q38 118 46 111Q54 103 54 94Q54 84 47 77Q40 70 30
70V70ZM94 134Q86 134 78 141Q70 148 70 158Q70 166 77 174Q84 182 94 182Q102 182 110 175Q118 167 118 158Q118 148 111 141Q104 134 94 134V134ZM158 198Q150 198 142 205Q134 212 134 222Q134 230 141 238Q148 246 158 246Q166 246 174 239Q182 231 182 222Q182
212 175 205Q168 198 158 198V198ZM222 262Q214 262 206 269Q198 276 198 286Q198 294 205 302Q212 310 222 310Q230 310 238 303Q246 295 246 286Q246 276 239 269Q232 262 222 262V262ZM286 326Q278 326 270 333Q262 340 262 350Q262 358 269 366Q276 374 286
374Q294 374 302 367Q310 359 310 350Q310 340 303 333Q296 326 286 326V326ZM286 390Q278 390 270 397Q262 404 262 414Q262 422 269 430Q276 438 286 438Q294 438 302 431Q310 423 310 414Q310 404 303 397Q296 390 286 390V390Z" />
<glyph unicode="0" glyph-name="zero" d="M94 6Q86 6 78 13Q70 20 70 30Q70 38 77 46Q84 54 94 54Q102 54 110 47Q118 39 118 30Q118 20 111 13Q104 6 94 6V6ZM158 6Q150 6 142 13Q134 20 134 30Q134 38 141 46Q148 54 158 54Q166 54 174 47Q182 39 182 30Q182
20 175 13Q168 6 158 6V6ZM222 6Q214 6 206 13Q198 20 198 30Q198 38 205 46Q212 54 222 54Q230 54 238 47Q246 39 246 30Q246 20 239 13Q232 6 222 6V6ZM30 70Q22 70 14 77Q6 84 6 94Q6 102 13 110Q20 118 30 118Q38 118 46 111Q54 103 54 94Q54 84 47 77Q40 70
30 70V70ZM286 70Q278 70 270 77Q262 84 262 94Q262 102 269 110Q276 118 286 118Q294 118 302 111Q310 103 310 94Q310 84 303 77Q296 70 286 70V70ZM30 134Q22 134 14 141Q6 148 6 158Q6 166 13 174Q20 182 30 182Q38 182 46 175Q54 167 54 158Q54 148 47 141Q40
134 30 134V134ZM94 134Q86 134 78 141Q70 148 70 158Q70 166 77 174Q84 182 94 182Q102 182 110 175Q118 167 118 158Q118 148 111 141Q104 134 94 134V134ZM286 134Q278 134 270 141Q262 148 262 158Q262 166 269 174Q276 182 286 182Q294 182 302 175Q310 167
310 158Q310 148 303 141Q296 134 286 134V134ZM30 198Q22 198 14 205Q6 212 6 222Q6 230 13 238Q20 246 30 246Q38 246 46 239Q54 231 54 222Q54 212 47 205Q40 198 30 198V198ZM158 198Q150 198 142 205Q134 212 134 222Q134 230 141 238Q148 246 158 246Q166
246 174 239Q182 231 182 222Q182 212 175 205Q168 198 158 198V198ZM286 198Q278 198 270 205Q262 212 262 222Q262 230 269 238Q276 246 286 246Q294 246 302 239Q310 231 310 222Q310 212 303 205Q296 198 286 198V198ZM30 262Q22 262 14 269Q6 276 6 286Q6
294 13 302Q20 310 30 310Q38 310 46 303Q54 295 54 286Q54 276 47 269Q40 262 30 262V262ZM222 262Q214 262 206 269Q198 276 198 286Q198 294 205 302Q212 310 222 310Q230 310 238 303Q246 295 246 286Q246 276 239 269Q232 262 222 262V262ZM286 262Q278 262
270 269Q262 276 262 286Q262 294 269 302Q276 310 286 310Q294 310 302 303Q310 295 310 286Q310 276 303 269Q296 262 286 262V262ZM30 326Q22 326 14 333Q6 340 6 350Q6 358 13 366Q20 374 30 374Q38 374 46 367Q54 359 54 350Q54 340 47 333Q40 326 30 326V326ZM286
326Q278 326 270 333Q262 340 262 350Q262 358 269 366Q276 374 286 374Q294 374 302 367Q310 359 310 350Q310 340 303 333Q296 326 286 326V326ZM94 390Q86 390 78 397Q70 404 70 414Q70 422 77 430Q84 438 94 438Q102 438 110 431Q118 423 118 414Q118 404 111
397Q104 390 94 390V390ZM158 390Q150 390 142 397Q134 404 134 414Q134 422 141 430Q148 438 158 438Q166 438 174 431Q182 423 182 414Q182 404 175 397Q168 390 158 390V390ZM222 390Q214 390 206 397Q198 404 198 414Q198 422 205 430Q212 438 222 438Q230
438 238 431Q246 423 246 414Q246 404 239 397Q232 390 222 390V390Z" />
<glyph unicode="1" glyph-name="one" horiz-adv-x="384" d="M94 6Q86 6 78 13Q70 20 70 30Q70 38 77 46Q84 54 94 54Q102 54 110 47Q118 39 118 30Q118 20 111 13Q104 6 94 6V6ZM158 6Q150 6 142 13Q134 20 134 30Q134 38 141 46Q148 54 158 54Q166 54 174 47Q182
39 182 30Q182 20 175 13Q168 6 158 6V6ZM222 6Q214 6 206 13Q198 20 198 30Q198 38 205 46Q212 54 222 54Q230 54 238 47Q246 39 246 30Q246 20 239 13Q232 6 222 6V6ZM158 70Q150 70 142 77Q134 84 134 94Q134 102 141 110Q148 118 158 118Q166 118 174 111Q182
103 182 94Q182 84 175 77Q168 70 158 70V70ZM158 134Q150 134 142 141Q134 148 134 158Q134 166 141 174Q148 182 158 182Q166 182 174 175Q182 167 182 158Q182 148 175 141Q168 134 158 134V134ZM158 198Q150 198 142 205Q134 212 134 222Q134 230 141 238Q148
246 158 246Q166 246 174 239Q182 231 182 222Q182 212 175 205Q168 198 158 198V198ZM158 262Q150 262 142 269Q134 276 134 286Q134 294 141 302Q148 310 158 310Q166 310 174 303Q182 295 182 286Q182 276 175 269Q168 262 158 262V262ZM94 326Q86 326 78 333Q70
340 70 350Q70 358 77 366Q84 374 94 374Q102 374 110 367Q118 359 118 350Q118 340 111 333Q104 326 94 326V326ZM158 326Q150 326 142 333Q134 340 134 350Q134 358 141 366Q148 374 158 374Q166 374 174 367Q182 359 182 350Q182 340 175 333Q168 326 158 326V326ZM158
390Q150 390 142 397Q134 404 134 414Q134 422 141 430Q148 438 158 438Q166 438 174 431Q182 423 182 414Q182 404 175 397Q168 390 158 390V390Z" />
<glyph unicode="2" glyph-name="two" d="M30 6Q22 6 14 13Q6 20 6 30Q6 38 13 46Q20 54 30 54Q38 54 46 47Q54 39 54 30Q54 20 47 13Q40 6 30 6V6ZM94 6Q86 6 78 13Q70 20 70 30Q70 38 77 46Q84 54 94 54Q102 54 110 47Q118 39 118 30Q118 20 111 13Q104 6 94
6V6ZM158 6Q150 6 142 13Q134 20 134 30Q134 38 141 46Q148 54 158 54Q166 54 174 47Q182 39 182 30Q182 20 175 13Q168 6 158 6V6ZM222 6Q214 6 206 13Q198 20 198 30Q198 38 205 46Q212 54 222 54Q230 54 238 47Q246 39 246 30Q246 20 239 13Q232 6 222 6V6ZM286
6Q278 6 270 13Q262 20 262 30Q262 38 269 46Q276 54 286 54Q294 54 302 47Q310 39 310 30Q310 20 303 13Q296 6 286 6V6ZM94 70Q86 70 78 77Q70 84 70 94Q70 102 77 110Q84 118 94 118Q102 118 110 111Q118 103 118 94Q118 84 111 77Q104 70 94 70V70ZM158 134Q150
134 142 141Q134 148 134 158Q134 166 141 174Q148 182 158 182Q166 182 174 175Q182 167 182 158Q182 148 175 141Q168 134 158 134V134ZM222 198Q214 198 206 205Q198 212 198 222Q198 230 205 238Q212 246 222 246Q230 246 238 239Q246 231 246 222Q246 212
239 205Q232 198 222 198V198ZM286 262Q278 262 270 269Q262 276 262 286Q262 294 269 302Q276 310 286 310Q294 310 302 303Q310 295 310 286Q310 276 303 269Q296 262 286 262V262ZM30 326Q22 326 14 333Q6 340 6 350Q6 358 13 366Q20 374 30 374Q38 374 46 367Q54
359 54 350Q54 340 47 333Q40 326 30 326V326ZM286 326Q278 326 270 333Q262 340 262 350Q262 358 269 366Q276 374 286 374Q294 374 302 367Q310 359 310 350Q310 340 303 333Q296 326 286 326V326ZM94 390Q86 390 78 397Q70 404 70 414Q70 422 77 430Q84 438
94 438Q102 438 110 431Q118 423 118 414Q118 404 111 397Q104 390 94 390V390ZM158 390Q150 390 142 397Q134 404 134 414Q134 422 141 430Q148 438 158 438Q166 438 174 431Q182 423 182 414Q182 404 175 397Q168 390 158 390V390ZM222 390Q214 390 206 397Q198
404 198 414Q198 422 205 430Q212 438 222 438Q230 438 238 431Q246 423 246 414Q246 404 239 397Q232 390 222 390V390Z" />
<glyph unicode="3" glyph-name="three" d="M94 6Q86 6 78 13Q70 20 70 30Q70 38 77 46Q84 54 94 54Q102 54 110 47Q118 39 118 30Q118 20 111 13Q104 6 94 6V6ZM158 6Q150 6 142 13Q134 20 134 30Q134 38 141 46Q148 54 158 54Q166 54 174 47Q182 39 182 30Q182
20 175 13Q168 6 158 6V6ZM222 6Q214 6 206 13Q198 20 198 30Q198 38 205 46Q212 54 222 54Q230 54 238 47Q246 39 246 30Q246 20 239 13Q232 6 222 6V6ZM30 70Q22 70 14 77Q6 84 6 94Q6 102 13 110Q20 118 30 118Q38 118 46 111Q54 103 54 94Q54 84 47 77Q40 70
30 70V70ZM286 70Q278 70 270 77Q262 84 262 94Q262 102 269 110Q276 118 286 118Q294 118 302 111Q310 103 310 94Q310 84 303 77Q296 70 286 70V70ZM286 134Q278 134 270 141Q262 148 262 158Q262 166 269 174Q276 182 286 182Q294 182 302 175Q310 167 310 158Q310
148 303 141Q296 134 286 134V134ZM158 198Q150 198 142 205Q134 212 134 222Q134 230 141 238Q148 246 158 246Q166 246 174 239Q182 231 182 222Q182 212 175 205Q168 198 158 198V198ZM222 198Q214 198 206 205Q198 212 198 222Q198 230 205 238Q212 246 222
246Q230 246 238 239Q246 231 246 222Q246 212 239 205Q232 198 222 198V198ZM286 262Q278 262 270 269Q262 276 262 286Q262 294 269 302Q276 310 286 310Q294 310 302 303Q310 295 310 286Q310 276 303 269Q296 262 286 262V262ZM30 326Q22 326 14 333Q6 340
6 350Q6 358 13 366Q20 374 30 374Q38 374 46 367Q54 359 54 350Q54 340 47 333Q40 326 30 326V326ZM286 326Q278 326 270 333Q262 340 262 350Q262 358 269 366Q276 374 286 374Q294 374 302 367Q310 359 310 350Q310 340 303 333Q296 326 286 326V326ZM94 390Q86
390 78 397Q70 404 70 414Q70 422 77 430Q84 438 94 438Q102 438 110 431Q118 423 118 414Q118 404 111 397Q104 390 94 390V390ZM158 390Q150 390 142 397Q134 404 134 414Q134 422 141 430Q148 438 158 438Q166 438 174 431Q182 423 182 414Q182 404 175 397Q168
390 158 390V390ZM222 390Q214 390 206 397Q198 404 198 414Q198 422 205 430Q212 438 222 438Q230 438 238 431Q246 423 246 414Q246 404 239 397Q232 390 222 390V390Z" />
<glyph unicode="4" glyph-name="four" d="M222 6Q214 6 206 13Q198 20 198 30Q198 38 205 46Q212 54 222 54Q230 54 238 47Q246 39 246 30Q246 20 239 13Q232 6 222 6V6ZM222 70Q214 70 206 77Q198 84 198 94Q198 102 205 110Q212 118 222 118Q230 118 238 111Q246
103 246 94Q246 84 239 77Q232 70 222 70V70ZM30 134Q22 134 14 141Q6 148 6 158Q6 166 13 174Q20 182 30 182Q38 182 46 175Q54 167 54 158Q54 148 47 141Q40 134 30 134V134ZM94 134Q86 134 78 141Q70 148 70 158Q70 166 77 174Q84 182 94 182Q102 182 110 175Q118
167 118 158Q118 148 111 141Q104 134 94 134V134ZM158 134Q150 134 142 141Q134 148 134 158Q134 166 141 174Q148 182 158 182Q166 182 174 175Q182 167 182 158Q182 148 175 141Q168 134 158 134V134ZM222 134Q214 134 206 141Q198 148 198 158Q198 166 205
174Q212 182 222 182Q230 182 238 175Q246 167 246 158Q246 148 239 141Q232 134 222 134V134ZM286 134Q278 134 270 141Q262 148 262 158Q262 166 269 174Q276 182 286 182Q294 182 302 175Q310 167 310 158Q310 148 303 141Q296 134 286 134V134ZM30 198Q22 198
14 205Q6 212 6 222Q6 230 13 238Q20 246 30 246Q38 246 46 239Q54 231 54 222Q54 212 47 205Q40 198 30 198V198ZM222 198Q214 198 206 205Q198 212 198 222Q198 230 205 238Q212 246 222 246Q230 246 238 239Q246 231 246 222Q246 212 239 205Q232 198 222 198V198ZM94
262Q86 262 78 269Q70 276 70 286Q70 294 77 302Q84 310 94 310Q102 310 110 303Q118 295 118 286Q118 276 111 269Q104 262 94 262V262ZM222 262Q214 262 206 269Q198 276 198 286Q198 294 205 302Q212 310 222 310Q230 310 238 303Q246 295 246 286Q246 276 239
269Q232 262 222 262V262ZM158 326Q150 326 142 333Q134 340 134 350Q134 358 141 366Q148 374 158 374Q166 374 174 367Q182 359 182 350Q182 340 175 333Q168 326 158 326V326ZM222 326Q214 326 206 333Q198 340 198 350Q198 358 205 366Q212 374 222 374Q230
374 238 367Q246 359 246 350Q246 340 239 333Q232 326 222 326V326ZM222 390Q214 390 206 397Q198 404 198 414Q198 422 205 430Q212 438 222 438Q230 438 238 431Q246 423 246 414Q246 404 239 397Q232 390 222 390V390Z" />
<glyph unicode="5" glyph-name="five" d="M94 6Q86 6 78 13Q70 20 70 30Q70 38 77 46Q84 54 94 54Q102 54 110 47Q118 39 118 30Q118 20 111 13Q104 6 94 6V6ZM158 6Q150 6 142 13Q134 20 134 30Q134 38 141 46Q148 54 158 54Q166 54 174 47Q182 39 182 30Q182
20 175 13Q168 6 158 6V6ZM222 6Q214 6 206 13Q198 20 198 30Q198 38 205 46Q212 54 222 54Q230 54 238 47Q246 39 246 30Q246 20 239 13Q232 6 222 6V6ZM30 70Q22 70 14 77Q6 84 6 94Q6 102 13 110Q20 118 30 118Q38 118 46 111Q54 103 54 94Q54 84 47 77Q40 70
30 70V70ZM286 70Q278 70 270 77Q262 84 262 94Q262 102 269 110Q276 118 286 118Q294 118 302 111Q310 103 310 94Q310 84 303 77Q296 70 286 70V70ZM286 134Q278 134 270 141Q262 148 262 158Q262 166 269 174Q276 182 286 182Q294 182 302 175Q310 167 310 158Q310
148 303 141Q296 134 286 134V134ZM286 198Q278 198 270 205Q262 212 262 222Q262 230 269 238Q276 246 286 246Q294 246 302 239Q310 231 310 222Q310 212 303 205Q296 198 286 198V198ZM30 262Q22 262 14 269Q6 276 6 286Q6 294 13 302Q20 310 30 310Q38 310
46 303Q54 295 54 286Q54 276 47 269Q40 262 30 262V262ZM94 262Q86 262 78 269Q70 276 70 286Q70 294 77 302Q84 310 94 310Q102 310 110 303Q118 295 118 286Q118 276 111 269Q104 262 94 262V262ZM158 262Q150 262 142 269Q134 276 134 286Q134 294 141 302Q148
310 158 310Q166 310 174 303Q182 295 182 286Q182 276 175 269Q168 262 158 262V262ZM222 262Q214 262 206 269Q198 276 198 286Q198 294 205 302Q212 310 222 310Q230 310 238 303Q246 295 246 286Q246 276 239 269Q232 262 222 262V262ZM30 326Q22 326 14 333Q6
340 6 350Q6 358 13 366Q20 374 30 374Q38 374 46 367Q54 359 54 350Q54 340 47 333Q40 326 30 326V326ZM30 390Q22 390 14 397Q6 404 6 414Q6 422 13 430Q20 438 30 438Q38 438 46 431Q54 423 54 414Q54 404 47 397Q40 390 30 390V390ZM94 390Q86 390 78 397Q70
404 70 414Q70 422 77 430Q84 438 94 438Q102 438 110 431Q118 423 118 414Q118 404 111 397Q104 390 94 390V390ZM158 390Q150 390 142 397Q134 404 134 414Q134 422 141 430Q148 438 158 438Q166 438 174 431Q182 423 182 414Q182 404 175 397Q168 390 158 390V390ZM222
390Q214 390 206 397Q198 404 198 414Q198 422 205 430Q212 438 222 438Q230 438 238 431Q246 423 246 414Q246 404 239 397Q232 390 222 390V390ZM286 390Q278 390 270 397Q262 404 262 414Q262 422 269 430Q276 438 286 438Q294 438 302 431Q310 423 310 414Q310
404 303 397Q296 390 286 390V390Z" />
<glyph unicode="6" glyph-name="six" d="M94 6Q86 6 78 13Q70 20 70 30Q70 38 77 46Q84 54 94 54Q102 54 110 47Q118 39 118 30Q118 20 111 13Q104 6 94 6V6ZM158 6Q150 6 142 13Q134 20 134 30Q134 38 141 46Q148 54 158 54Q166 54 174 47Q182 39 182 30Q182
20 175 13Q168 6 158 6V6ZM222 6Q214 6 206 13Q198 20 198 30Q198 38 205 46Q212 54 222 54Q230 54 238 47Q246 39 246 30Q246 20 239 13Q232 6 222 6V6ZM30 70Q22 70 14 77Q6 84 6 94Q6 102 13 110Q20 118 30 118Q38 118 46 111Q54 103 54 94Q54 84 47 77Q40 70
30 70V70ZM286 70Q278 70 270 77Q262 84 262 94Q262 102 269 110Q276 118 286 118Q294 118 302 111Q310 103 310 94Q310 84 303 77Q296 70 286 70V70ZM30 134Q22 134 14 141Q6 148 6 158Q6 166 13 174Q20 182 30 182Q38 182 46 175Q54 167 54 158Q54 148 47 141Q40
134 30 134V134ZM286 134Q278 134 270 141Q262 148 262 158Q262 166 269 174Q276 182 286 182Q294 182 302 175Q310 167 310 158Q310 148 303 141Q296 134 286 134V134ZM30 198Q22 198 14 205Q6 212 6 222Q6 230 13 238Q20 246 30 246Q38 246 46 239Q54 231 54
222Q54 212 47 205Q40 198 30 198V198ZM94 198Q86 198 78 205Q70 212 70 222Q70 230 77 238Q84 246 94 246Q102 246 110 239Q118 231 118 222Q118 212 111 205Q104 198 94 198V198ZM158 198Q150 198 142 205Q134 212 134 222Q134 230 141 238Q148 246 158 246Q166
246 174 239Q182 231 182 222Q182 212 175 205Q168 198 158 198V198ZM222 198Q214 198 206 205Q198 212 198 222Q198 230 205 238Q212 246 222 246Q230 246 238 239Q246 231 246 222Q246 212 239 205Q232 198 222 198V198ZM30 262Q22 262 14 269Q6 276 6 286Q6
294 13 302Q20 310 30 310Q38 310 46 303Q54 295 54 286Q54 276 47 269Q40 262 30 262V262ZM30 326Q22 326 14 333Q6 340 6 350Q6 358 13 366Q20 374 30 374Q38 374 46 367Q54 359 54 350Q54 340 47 333Q40 326 30 326V326ZM286 326Q278 326 270 333Q262 340 262
350Q262 358 269 366Q276 374 286 374Q294 374 302 367Q310 359 310 350Q310 340 303 333Q296 326 286 326V326ZM94 390Q86 390 78 397Q70 404 70 414Q70 422 77 430Q84 438 94 438Q102 438 110 431Q118 423 118 414Q118 404 111 397Q104 390 94 390V390ZM158 390Q150
390 142 397Q134 404 134 414Q134 422 141 430Q148 438 158 438Q166 438 174 431Q182 423 182 414Q182 404 175 397Q168 390 158 390V390ZM222 390Q214 390 206 397Q198 404 198 414Q198 422 205 430Q212 438 222 438Q230 438 238 431Q246 423 246 414Q246 404
239 397Q232 390 222 390V390Z" />
<glyph unicode="7" glyph-name="seven" d="M30 6Q22 6 14 13Q6 20 6 30Q6 38 13 46Q20 54 30 54Q38 54 46 47Q54 39 54 30Q54 20 47 13Q40 6 30 6V6ZM30 70Q22 70 14 77Q6 84 6 94Q6 102 13 110Q20 118 30 118Q38 118 46 111Q54 103 54 94Q54 84 47 77Q40 70 30
70V70ZM94 134Q86 134 78 141Q70 148 70 158Q70 166 77 174Q84 182 94 182Q102 182 110 175Q118 167 118 158Q118 148 111 141Q104 134 94 134V134ZM158 198Q150 198 142 205Q134 212 134 222Q134 230 141 238Q148 246 158 246Q166 246 174 239Q182 231 182 222Q182
212 175 205Q168 198 158 198V198ZM222 262Q214 262 206 269Q198 276 198 286Q198 294 205 302Q212 310 222 310Q230 310 238 303Q246 295 246 286Q246 276 239 269Q232 262 222 262V262ZM286 326Q278 326 270 333Q262 340 262 350Q262 358 269 366Q276 374 286
374Q294 374 302 367Q310 359 310 350Q310 340 303 333Q296 326 286 326V326ZM30 390Q22 390 14 397Q6 404 6 414Q6 422 13 430Q20 438 30 438Q38 438 46 431Q54 423 54 414Q54 404 47 397Q40 390 30 390V390ZM94 390Q86 390 78 397Q70 404 70 414Q70 422 77 430Q84
438 94 438Q102 438 110 431Q118 423 118 414Q118 404 111 397Q104 390 94 390V390ZM158 390Q150 390 142 397Q134 404 134 414Q134 422 141 430Q148 438 158 438Q166 438 174 431Q182 423 182 414Q182 404 175 397Q168 390 158 390V390ZM222 390Q214 390 206 397Q198
404 198 414Q198 422 205 430Q212 438 222 438Q230 438 238 431Q246 423 246 414Q246 404 239 397Q232 390 222 390V390ZM286 390Q278 390 270 397Q262 404 262 414Q262 422 269 430Q276 438 286 438Q294 438 302 431Q310 423 310 414Q310 404 303 397Q296 390
286 390V390Z" />
<glyph unicode="8" glyph-name="eight" d="M94 6Q86 6 78 13Q70 20 70 30Q70 38 77 46Q84 54 94 54Q102 54 110 47Q118 39 118 30Q118 20 111 13Q104 6 94 6V6ZM158 6Q150 6 142 13Q134 20 134 30Q134 38 141 46Q148 54 158 54Q166 54 174 47Q182 39 182 30Q182
20 175 13Q168 6 158 6V6ZM222 6Q214 6 206 13Q198 20 198 30Q198 38 205 46Q212 54 222 54Q230 54 238 47Q246 39 246 30Q246 20 239 13Q232 6 222 6V6ZM30 70Q22 70 14 77Q6 84 6 94Q6 102 13 110Q20 118 30 118Q38 118 46 111Q54 103 54 94Q54 84 47 77Q40 70
30 70V70ZM286 70Q278 70 270 77Q262 84 262 94Q262 102 269 110Q276 118 286 118Q294 118 302 111Q310 103 310 94Q310 84 303 77Q296 70 286 70V70ZM30 134Q22 134 14 141Q6 148 6 158Q6 166 13 174Q20 182 30 182Q38 182 46 175Q54 167 54 158Q54 148 47 141Q40
134 30 134V134ZM286 134Q278 134 270 141Q262 148 262 158Q262 166 269 174Q276 182 286 182Q294 182 302 175Q310 167 310 158Q310 148 303 141Q296 134 286 134V134ZM94 198Q86 198 78 205Q70 212 70 222Q70 230 77 238Q84 246 94 246Q102 246 110 239Q118 231
118 222Q118 212 111 205Q104 198 94 198V198ZM158 198Q150 198 142 205Q134 212 134 222Q134 230 141 238Q148 246 158 246Q166 246 174 239Q182 231 182 222Q182 212 175 205Q168 198 158 198V198ZM222 198Q214 198 206 205Q198 212 198 222Q198 230 205 238Q212
246 222 246Q230 246 238 239Q246 231 246 222Q246 212 239 205Q232 198 222 198V198ZM30 262Q22 262 14 269Q6 276 6 286Q6 294 13 302Q20 310 30 310Q38 310 46 303Q54 295 54 286Q54 276 47 269Q40 262 30 262V262ZM286 262Q278 262 270 269Q262 276 262 286Q262
294 269 302Q276 310 286 310Q294 310 302 303Q310 295 310 286Q310 276 303 269Q296 262 286 262V262ZM30 326Q22 326 14 333Q6 340 6 350Q6 358 13 366Q20 374 30 374Q38 374 46 367Q54 359 54 350Q54 340 47 333Q40 326 30 326V326ZM286 326Q278 326 270 333Q262
340 262 350Q262 358 269 366Q276 374 286 374Q294 374 302 367Q310 359 310 350Q310 340 303 333Q296 326 286 326V326ZM94 390Q86 390 78 397Q70 404 70 414Q70 422 77 430Q84 438 94 438Q102 438 110 431Q118 423 118 414Q118 404 111 397Q104 390 94 390V390ZM158
390Q150 390 142 397Q134 404 134 414Q134 422 141 430Q148 438 158 438Q166 438 174 431Q182 423 182 414Q182 404 175 397Q168 390 158 390V390ZM222 390Q214 390 206 397Q198 404 198 414Q198 422 205 430Q212 438 222 438Q230 438 238 431Q246 423 246 414Q246
404 239 397Q232 390 222 390V390Z" />
<glyph unicode="9" glyph-name="nine" d="M94 6Q86 6 78 13Q70 20 70 30Q70 38 77 46Q84 54 94 54Q102 54 110 47Q118 39 118 30Q118 20 111 13Q104 6 94 6V6ZM158 6Q150 6 142 13Q134 20 134 30Q134 38 141 46Q148 54 158 54Q166 54 174 47Q182 39 182 30Q182
20 175 13Q168 6 158 6V6ZM222 6Q214 6 206 13Q198 20 198 30Q198 38 205 46Q212 54 222 54Q230 54 238 47Q246 39 246 30Q246 20 239 13Q232 6 222 6V6ZM30 70Q22 70 14 77Q6 84 6 94Q6 102 13 110Q20 118 30 118Q38 118 46 111Q54 103 54 94Q54 84 47 77Q40 70
30 70V70ZM286 70Q278 70 270 77Q262 84 262 94Q262 102 269 110Q276 118 286 118Q294 118 302 111Q310 103 310 94Q310 84 303 77Q296 70 286 70V70ZM286 134Q278 134 270 141Q262 148 262 158Q262 166 269 174Q276 182 286 182Q294 182 302 175Q310 167 310 158Q310
148 303 141Q296 134 286 134V134ZM94 198Q86 198 78 205Q70 212 70 222Q70 230 77 238Q84 246 94 246Q102 246 110 239Q118 231 118 222Q118 212 111 205Q104 198 94 198V198ZM158 198Q150 198 142 205Q134 212 134 222Q134 230 141 238Q148 246 158 246Q166 246
174 239Q182 231 182 222Q182 212 175 205Q168 198 158 198V198ZM222 198Q214 198 206 205Q198 212 198 222Q198 230 205 238Q212 246 222 246Q230 246 238 239Q246 231 246 222Q246 212 239 205Q232 198 222 198V198ZM286 198Q278 198 270 205Q262 212 262 222Q262
230 269 238Q276 246 286 246Q294 246 302 239Q310 231 310 222Q310 212 303 205Q296 198 286 198V198ZM30 262Q22 262 14 269Q6 276 6 286Q6 294 13 302Q20 310 30 310Q38 310 46 303Q54 295 54 286Q54 276 47 269Q40 262 30 262V262ZM286 262Q278 262 270 269Q262
276 262 286Q262 294 269 302Q276 310 286 310Q294 310 302 303Q310 295 310 286Q310 276 303 269Q296 262 286 262V262ZM30 326Q22 326 14 333Q6 340 6 350Q6 358 13 366Q20 374 30 374Q38 374 46 367Q54 359 54 350Q54 340 47 333Q40 326 30 326V326ZM286 326Q278
326 270 333Q262 340 262 350Q262 358 269 366Q276 374 286 374Q294 374 302 367Q310 359 310 350Q310 340 303 333Q296 326 286 326V326ZM94 390Q86 390 78 397Q70 404 70 414Q70 422 77 430Q84 438 94 438Q102 438 110 431Q118 423 118 414Q118 404 111 397Q104
390 94 390V390ZM158 390Q150 390 142 397Q134 404 134 414Q134 422 141 430Q148 438 158 438Q166 438 174 431Q182 423 182 414Q182 404 175 397Q168 390 158 390V390ZM222 390Q214 390 206 397Q198 404 198 414Q198 422 205 430Q212 438 222 438Q230 438 238
431Q246 423 246 414Q246 404 239 397Q232 390 222 390V390Z" />
<glyph unicode=":" glyph-name="colon" horiz-adv-x="191" d="M30 6Q22 6 14 13Q6 20 6 30Q6 38 13 46Q20 54 30 54Q38 54 46 47Q54 39 54 30Q54 20 47 13Q40 6 30 6V6ZM94 6Q86 6 78 13Q70 20 70 30Q70 38 77 46Q84 54 94 54Q102 54 110 47Q118 39 118 30Q118
20 111 13Q104 6 94 6V6ZM30 70Q22 70 14 77Q6 84 6 94Q6 102 13 110Q20 118 30 118Q38 118 46 111Q54 103 54 94Q54 84 47 77Q40 70 30 70V70ZM94 70Q86 70 78 77Q70 84 70 94Q70 102 77 110Q84 118 94 118Q102 118 110 111Q118 103 118 94Q118 84 111 77Q104
70 94 70V70ZM30 198Q22 198 14 205Q6 212 6 222Q6 230 13 238Q20 246 30 246Q38 246 46 239Q54 231 54 222Q54 212 47 205Q40 198 30 198V198ZM94 198Q86 198 78 205Q70 212 70 222Q70 230 77 238Q84 246 94 246Q102 246 110 239Q118 231 118 222Q118 212 111
205Q104 198 94 198V198ZM30 262Q22 262 14 269Q6 276 6 286Q6 294 13 302Q20 310 30 310Q38 310 46 303Q54 295 54 286Q54 276 47 269Q40 262 30 262V262ZM94 262Q86 262 78 269Q70 276 70 286Q70 294 77 302Q84 310 94 310Q102 310 110 303Q118 295 118 286Q118
276 111 269Q104 262 94 262V262Z" />
<glyph unicode=";" glyph-name="semicolon" horiz-adv-x="191" d="M30 -121Q22 -121 14 -114Q6 -107 6 -97Q6 -89 13 -81Q20 -73 30 -73Q38 -73 46 -80Q54 -88 54 -97Q54 -107 47 -114Q40 -121 30 -121V-121ZM94 -57Q86 -57 78 -50Q70 -43 70 -33Q70 -25 77 -17Q84
-9 94 -9Q102 -9 110 -16Q118 -24 118 -33Q118 -43 111 -50Q104 -57 94 -57V-57ZM30 6Q22 6 14 13Q6 20 6 30Q6 38 13 46Q20 54 30 54Q38 54 46 47Q54 39 54 30Q54 20 47 13Q40 6 30 6V6ZM94 6Q86 6 78 13Q70 20 70 30Q70 38 77 46Q84 54 94 54Q102 54 110 47Q118
39 118 30Q118 20 111 13Q104 6 94 6V6ZM30 70Q22 70 14 77Q6 84 6 94Q6 102 13 110Q20 118 30 118Q38 118 46 111Q54 103 54 94Q54 84 47 77Q40 70 30 70V70ZM94 70Q86 70 78 77Q70 84 70 94Q70 102 77 110Q84 118 94 118Q102 118 110 111Q118 103 118 94Q118
84 111 77Q104 70 94 70V70ZM30 198Q22 198 14 205Q6 212 6 222Q6 230 13 238Q20 246 30 246Q38 246 46 239Q54 231 54 222Q54 212 47 205Q40 198 30 198V198ZM94 198Q86 198 78 205Q70 212 70 222Q70 230 77 238Q84 246 94 246Q102 246 110 239Q118 231 118 222Q118
212 111 205Q104 198 94 198V198ZM30 262Q22 262 14 269Q6 276 6 286Q6 294 13 302Q20 310 30 310Q38 310 46 303Q54 295 54 286Q54 276 47 269Q40 262 30 262V262ZM94 262Q86 262 78 269Q70 276 70 286Q70 294 77 302Q84 310 94 310Q102 310 110 303Q118 295 118
286Q118 276 111 269Q104 262 94 262V262Z" />
<glyph unicode="&lt;" glyph-name="less" d="M222 6Q214 6 206 13Q198 20 198 30Q198 38 205 46Q212 54 222 54Q230 54 238 47Q246 39 246 30Q246 20 239 13Q232 6 222 6V6ZM158 70Q150 70 142 77Q134 84 134 94Q134 102 141 110Q148 118 158 118Q166 118 174
111Q182 103 182 94Q182 84 175 77Q168 70 158 70V70ZM94 134Q86 134 78 141Q70 148 70 158Q70 166 77 174Q84 182 94 182Q102 182 110 175Q118 167 118 158Q118 148 111 141Q104 134 94 134V134ZM30 198Q22 198 14 205Q6 212 6 222Q6 230 13 238Q20 246 30 246Q38
246 46 239Q54 231 54 222Q54 212 47 205Q40 198 30 198V198ZM94 262Q86 262 78 269Q70 276 70 286Q70 294 77 302Q84 310 94 310Q102 310 110 303Q118 295 118 286Q118 276 111 269Q104 262 94 262V262ZM158 326Q150 326 142 333Q134 340 134 350Q134 358 141
366Q148 374 158 374Q166 374 174 367Q182 359 182 350Q182 340 175 333Q168 326 158 326V326ZM222 390Q214 390 206 397Q198 404 198 414Q198 422 205 430Q212 438 222 438Q230 438 238 431Q246 423 246 414Q246 404 239 397Q232 390 222 390V390Z" />
<glyph unicode="=" glyph-name="equal" d="M30 134Q22 134 14 141Q6 148 6 158Q6 166 13 174Q20 182 30 182Q38 182 46 175Q54 167 54 158Q54 148 47 141Q40 134 30 134V134ZM94 134Q86 134 78 141Q70 148 70 158Q70 166 77 174Q84 182 94 182Q102 182 110 175Q118
167 118 158Q118 148 111 141Q104 134 94 134V134ZM158 134Q150 134 142 141Q134 148 134 158Q134 166 141 174Q148 182 158 182Q166 182 174 175Q182 167 182 158Q182 148 175 141Q168 134 158 134V134ZM222 134Q214 134 206 141Q198 148 198 158Q198 166 205
174Q212 182 222 182Q230 182 238 175Q246 167 246 158Q246 148 239 141Q232 134 222 134V134ZM286 134Q278 134 270 141Q262 148 262 158Q262 166 269 174Q276 182 286 182Q294 182 302 175Q310 167 310 158Q310 148 303 141Q296 134 286 134V134ZM30 262Q22 262
14 269Q6 276 6 286Q6 294 13 302Q20 310 30 310Q38 310 46 303Q54 295 54 286Q54 276 47 269Q40 262 30 262V262ZM94 262Q86 262 78 269Q70 276 70 286Q70 294 77 302Q84 310 94 310Q102 310 110 303Q118 295 118 286Q118 276 111 269Q104 262 94 262V262ZM158
262Q150 262 142 269Q134 276 134 286Q134 294 141 302Q148 310 158 310Q166 310 174 303Q182 295 182 286Q182 276 175 269Q168 262 158 262V262ZM222 262Q214 262 206 269Q198 276 198 286Q198 294 205 302Q212 310 222 310Q230 310 238 303Q246 295 246 286Q246
276 239 269Q232 262 222 262V262ZM286 262Q278 262 270 269Q262 276 262 286Q262 294 269 302Q276 310 286 310Q294 310 302 303Q310 295 310 286Q310 276 303 269Q296 262 286 262V262Z" />
<glyph unicode="&gt;" glyph-name="greater" d="M30 6Q22 6 14 13Q6 20 6 30Q6 38 13 46Q20 54 30 54Q38 54 46 47Q54 39 54 30Q54 20 47 13Q40 6 30 6V6ZM94 70Q86 70 78 77Q70 84 70 94Q70 102 77 110Q84 118 94 118Q102 118 110 111Q118 103 118 94Q118 84
111 77Q104 70 94 70V70ZM158 134Q150 134 142 141Q134 148 134 158Q134 166 141 174Q148 182 158 182Q166 182 174 175Q182 167 182 158Q182 148 175 141Q168 134 158 134V134ZM222 198Q214 198 206 205Q198 212 198 222Q198 230 205 238Q212 246 222 246Q230
246 238 239Q246 231 246 222Q246 212 239 205Q232 198 222 198V198ZM158 262Q150 262 142 269Q134 276 134 286Q134 294 141 302Q148 310 158 310Q166 310 174 303Q182 295 182 286Q182 276 175 269Q168 262 158 262V262ZM94 326Q86 326 78 333Q70 340 70 350Q70
358 77 366Q84 374 94 374Q102 374 110 367Q118 359 118 350Q118 340 111 333Q104 326 94 326V326ZM30 390Q22 390 14 397Q6 404 6 414Q6 422 13 430Q20 438 30 438Q38 438 46 431Q54 423 54 414Q54 404 47 397Q40 390 30 390V390Z" />
<glyph unicode="?" glyph-name="question" d="M158 6Q150 6 142 13Q134 20 134 30Q134 38 141 46Q148 54 158 54Q166 54 174 47Q182 39 182 30Q182 20 175 13Q168 6 158 6V6ZM158 134Q150 134 142 141Q134 148 134 158Q134 166 141 174Q148 182 158 182Q166 182
174 175Q182 167 182 158Q182 148 175 141Q168 134 158 134V134ZM222 198Q214 198 206 205Q198 212 198 222Q198 230 205 238Q212 246 222 246Q230 246 238 239Q246 231 246 222Q246 212 239 205Q232 198 222 198V198ZM286 262Q278 262 270 269Q262 276 262 286Q262
294 269 302Q276 310 286 310Q294 310 302 303Q310 295 310 286Q310 276 303 269Q296 262 286 262V262ZM30 326Q22 326 14 333Q6 340 6 350Q6 358 13 366Q20 374 30 374Q38 374 46 367Q54 359 54 350Q54 340 47 333Q40 326 30 326V326ZM286 326Q278 326 270 333Q262
340 262 350Q262 358 269 366Q276 374 286 374Q294 374 302 367Q310 359 310 350Q310 340 303 333Q296 326 286 326V326ZM94 390Q86 390 78 397Q70 404 70 414Q70 422 77 430Q84 438 94 438Q102 438 110 431Q118 423 118 414Q118 404 111 397Q104 390 94 390V390ZM158
390Q150 390 142 397Q134 404 134 414Q134 422 141 430Q148 438 158 438Q166 438 174 431Q182 423 182 414Q182 404 175 397Q168 390 158 390V390ZM222 390Q214 390 206 397Q198 404 198 414Q198 422 205 430Q212 438 222 438Q230 438 238 431Q246 423 246 414Q246
404 239 397Q232 390 222 390V390Z" />
<glyph unicode="@" glyph-name="at" horiz-adv-x="447" d="M94 -121Q86 -121 78 -114Q70 -107 70 -97Q70 -89 77 -81Q84 -73 94 -73Q102 -73 110 -80Q118 -88 118 -97Q118 -107 111 -114Q104 -121 94 -121V-121ZM158 -121Q150 -121 142 -114Q134 -107 134 -97Q134
-89 141 -81Q148 -73 158 -73Q166 -73 174 -80Q182 -88 182 -97Q182 -107 175 -114Q168 -121 158 -121V-121ZM222 -121Q214 -121 206 -114Q198 -107 198 -97Q198 -89 205 -81Q212 -73 222 -73Q230 -73 238 -80Q246 -88 246 -97Q246 -107 239 -114Q232 -121 222
-121V-121ZM286 -121Q278 -121 270 -114Q262 -107 262 -97Q262 -89 269 -81Q276 -73 286 -73Q294 -73 302 -80Q310 -88 310 -97Q310 -107 303 -114Q296 -121 286 -121V-121ZM30 -57Q22 -57 14 -50Q6 -43 6 -33Q6 -25 13 -17Q20 -9 30 -9Q38 -9 46 -16Q54 -24 54
-33Q54 -43 47 -50Q40 -57 30 -57V-57ZM30 6Q22 6 14 13Q6 20 6 30Q6 38 13 46Q20 54 30 54Q38 54 46 47Q54 39 54 30Q54 20 47 13Q40 6 30 6V6ZM158 6Q150 6 142 13Q134 20 134 30Q134 38 141 46Q148 54 158 54Q166 54 174 47Q182 39 182 30Q182 20 175 13Q168
6 158 6V6ZM222 6Q214 6 206 13Q198 20 198 30Q198 38 205 46Q212 54 222 54Q230 54 238 47Q246 39 246 30Q246 20 239 13Q232 6 222 6V6ZM286 6Q278 6 270 13Q262 20 262 30Q262 38 269 46Q276 54 286 54Q294 54 302 47Q310 39 310 30Q310 20 303 13Q296 6 286
6V6ZM30 70Q22 70 14 77Q6 84 6 94Q6 102 13 110Q20 118 30 118Q38 118 46 111Q54 103 54 94Q54 84 47 77Q40 70 30 70V70ZM94 70Q86 70 78 77Q70 84 70 94Q70 102 77 110Q84 118 94 118Q102 118 110 111Q118 103 118 94Q118 84 111 77Q104 70 94 70V70ZM222 70Q214
70 206 77Q198 84 198 94Q198 102 205 110Q212 118 222 118Q230 118 238 111Q246 103 246 94Q246 84 239 77Q232 70 222 70V70ZM286 70Q278 70 270 77Q262 84 262 94Q262 102 269 110Q276 118 286 118Q294 118 302 111Q310 103 310 94Q310 84 303 77Q296 70 286
70V70ZM30 134Q22 134 14 141Q6 148 6 158Q6 166 13 174Q20 182 30 182Q38 182 46 175Q54 167 54 158Q54 148 47 141Q40 134 30 134V134ZM158 134Q150 134 142 141Q134 148 134 158Q134 166 141 174Q148 182 158 182Q166 182 174 175Q182 167 182 158Q182 148 175
141Q168 134 158 134V134ZM286 134Q278 134 270 141Q262 148 262 158Q262 166 269 174Q276 182 286 182Q294 182 302 175Q310 167 310 158Q310 148 303 141Q296 134 286 134V134ZM30 198Q22 198 14 205Q6 212 6 222Q6 230 13 238Q20 246 30 246Q38 246 46 239Q54
231 54 222Q54 212 47 205Q40 198 30 198V198ZM286 198Q278 198 270 205Q262 212 262 222Q262 230 269 238Q276 246 286 246Q294 246 302 239Q310 231 310 222Q310 212 303 205Q296 198 286 198V198ZM94 262Q86 262 78 269Q70 276 70 286Q70 294 77 302Q84 310
94 310Q102 310 110 303Q118 295 118 286Q118 276 111 269Q104 262 94 262V262ZM158 262Q150 262 142 269Q134 276 134 286Q134 294 141 302Q148 310 158 310Q166 310 174 303Q182 295 182 286Q182 276 175 269Q168 262 158 262V262ZM222 262Q214 262 206 269Q198
276 198 286Q198 294 205 302Q212 310 222 310Q230 310 238 303Q246 295 246 286Q246 276 239 269Q232 262 222 262V262Z" />
<glyph unicode="A" glyph-name="A" d="M30 6Q22 6 14 13Q6 20 6 30Q6 38 13 46Q20 54 30 54Q38 54 46 47Q54 39 54 30Q54 20 47 13Q40 6 30 6V6ZM286 6Q278 6 270 13Q262 20 262 30Q262 38 269 46Q276 54 286 54Q294 54 302 47Q310 39 310 30Q310 20 303 13Q296
6 286 6V6ZM30 70Q22 70 14 77Q6 84 6 94Q6 102 13 110Q20 118 30 118Q38 118 46 111Q54 103 54 94Q54 84 47 77Q40 70 30 70V70ZM286 70Q278 70 270 77Q262 84 262 94Q262 102 269 110Q276 118 286 118Q294 118 302 111Q310 103 310 94Q310 84 303 77Q296 70 286
70V70ZM30 134Q22 134 14 141Q6 148 6 158Q6 166 13 174Q20 182 30 182Q38 182 46 175Q54 167 54 158Q54 148 47 141Q40 134 30 134V134ZM94 134Q86 134 78 141Q70 148 70 158Q70 166 77 174Q84 182 94 182Q102 182 110 175Q118 167 118 158Q118 148 111 141Q104
134 94 134V134ZM158 134Q150 134 142 141Q134 148 134 158Q134 166 141 174Q148 182 158 182Q166 182 174 175Q182 167 182 158Q182 148 175 141Q168 134 158 134V134ZM222 134Q214 134 206 141Q198 148 198 158Q198 166 205 174Q212 182 222 182Q230 182 238
175Q246 167 246 158Q246 148 239 141Q232 134 222 134V134ZM286 134Q278 134 270 141Q262 148 262 158Q262 166 269 174Q276 182 286 182Q294 182 302 175Q310 167 310 158Q310 148 303 141Q296 134 286 134V134ZM30 198Q22 198 14 205Q6 212 6 222Q6 230 13 238Q20
246 30 246Q38 246 46 239Q54 231 54 222Q54 212 47 205Q40 198 30 198V198ZM286 198Q278 198 270 205Q262 212 262 222Q262 230 269 238Q276 246 286 246Q294 246 302 239Q310 231 310 222Q310 212 303 205Q296 198 286 198V198ZM30 262Q22 262 14 269Q6 276 6
286Q6 294 13 302Q20 310 30 310Q38 310 46 303Q54 295 54 286Q54 276 47 269Q40 262 30 262V262ZM286 262Q278 262 270 269Q262 276 262 286Q262 294 269 302Q276 310 286 310Q294 310 302 303Q310 295 310 286Q310 276 303 269Q296 262 286 262V262ZM94 326Q86
326 78 333Q70 340 70 350Q70 358 77 366Q84 374 94 374Q102 374 110 367Q118 359 118 350Q118 340 111 333Q104 326 94 326V326ZM222 326Q214 326 206 333Q198 340 198 350Q198 358 205 366Q212 374 222 374Q230 374 238 367Q246 359 246 350Q246 340 239 333Q232
326 222 326V326ZM158 390Q150 390 142 397Q134 404 134 414Q134 422 141 430Q148 438 158 438Q166 438 174 431Q182 423 182 414Q182 404 175 397Q168 390 158 390V390Z" />
<glyph unicode="B" glyph-name="B" d="M30 6Q22 6 14 13Q6 20 6 30Q6 38 13 46Q20 54 30 54Q38 54 46 47Q54 39 54 30Q54 20 47 13Q40 6 30 6V6ZM94 6Q86 6 78 13Q70 20 70 30Q70 38 77 46Q84 54 94 54Q102 54 110 47Q118 39 118 30Q118 20 111 13Q104 6 94 6V6ZM158
6Q150 6 142 13Q134 20 134 30Q134 38 141 46Q148 54 158 54Q166 54 174 47Q182 39 182 30Q182 20 175 13Q168 6 158 6V6ZM222 6Q214 6 206 13Q198 20 198 30Q198 38 205 46Q212 54 222 54Q230 54 238 47Q246 39 246 30Q246 20 239 13Q232 6 222 6V6ZM30 70Q22
70 14 77Q6 84 6 94Q6 102 13 110Q20 118 30 118Q38 118 46 111Q54 103 54 94Q54 84 47 77Q40 70 30 70V70ZM286 70Q278 70 270 77Q262 84 262 94Q262 102 269 110Q276 118 286 118Q294 118 302 111Q310 103 310 94Q310 84 303 77Q296 70 286 70V70ZM30 134Q22
134 14 141Q6 148 6 158Q6 166 13 174Q20 182 30 182Q38 182 46 175Q54 167 54 158Q54 148 47 141Q40 134 30 134V134ZM286 134Q278 134 270 141Q262 148 262 158Q262 166 269 174Q276 182 286 182Q294 182 302 175Q310 167 310 158Q310 148 303 141Q296 134 286
134V134ZM30 198Q22 198 14 205Q6 212 6 222Q6 230 13 238Q20 246 30 246Q38 246 46 239Q54 231 54 222Q54 212 47 205Q40 198 30 198V198ZM94 198Q86 198 78 205Q70 212 70 222Q70 230 77 238Q84 246 94 246Q102 246 110 239Q118 231 118 222Q118 212 111 205Q104
198 94 198V198ZM158 198Q150 198 142 205Q134 212 134 222Q134 230 141 238Q148 246 158 246Q166 246 174 239Q182 231 182 222Q182 212 175 205Q168 198 158 198V198ZM222 198Q214 198 206 205Q198 212 198 222Q198 230 205 238Q212 246 222 246Q230 246 238
239Q246 231 246 222Q246 212 239 205Q232 198 222 198V198ZM30 262Q22 262 14 269Q6 276 6 286Q6 294 13 302Q20 310 30 310Q38 310 46 303Q54 295 54 286Q54 276 47 269Q40 262 30 262V262ZM286 262Q278 262 270 269Q262 276 262 286Q262 294 269 302Q276 310
286 310Q294 310 302 303Q310 295 310 286Q310 276 303 269Q296 262 286 262V262ZM30 326Q22 326 14 333Q6 340 6 350Q6 358 13 366Q20 374 30 374Q38 374 46 367Q54 359 54 350Q54 340 47 333Q40 326 30 326V326ZM286 326Q278 326 270 333Q262 340 262 350Q262
358 269 366Q276 374 286 374Q294 374 302 367Q310 359 310 350Q310 340 303 333Q296 326 286 326V326ZM30 390Q22 390 14 397Q6 404 6 414Q6 422 13 430Q20 438 30 438Q38 438 46 431Q54 423 54 414Q54 404 47 397Q40 390 30 390V390ZM94 390Q86 390 78 397Q70
404 70 414Q70 422 77 430Q84 438 94 438Q102 438 110 431Q118 423 118 414Q118 404 111 397Q104 390 94 390V390ZM158 390Q150 390 142 397Q134 404 134 414Q134 422 141 430Q148 438 158 438Q166 438 174 431Q182 423 182 414Q182 404 175 397Q168 390 158 390V390ZM222
390Q214 390 206 397Q198 404 198 414Q198 422 205 430Q212 438 222 438Q230 438 238 431Q246 423 246 414Q246 404 239 397Q232 390 222 390V390Z" />
<glyph unicode="C" glyph-name="C" d="M94 6Q86 6 78 13Q70 20 70 30Q70 38 77 46Q84 54 94 54Q102 54 110 47Q118 39 118 30Q118 20 111 13Q104 6 94 6V6ZM158 6Q150 6 142 13Q134 20 134 30Q134 38 141 46Q148 54 158 54Q166 54 174 47Q182 39 182 30Q182 20
175 13Q168 6 158 6V6ZM222 6Q214 6 206 13Q198 20 198 30Q198 38 205 46Q212 54 222 54Q230 54 238 47Q246 39 246 30Q246 20 239 13Q232 6 222 6V6ZM30 70Q22 70 14 77Q6 84 6 94Q6 102 13 110Q20 118 30 118Q38 118 46 111Q54 103 54 94Q54 84 47 77Q40 70 30
70V70ZM286 70Q278 70 270 77Q262 84 262 94Q262 102 269 110Q276 118 286 118Q294 118 302 111Q310 103 310 94Q310 84 303 77Q296 70 286 70V70ZM30 134Q22 134 14 141Q6 148 6 158Q6 166 13 174Q20 182 30 182Q38 182 46 175Q54 167 54 158Q54 148 47 141Q40
134 30 134V134ZM30 198Q22 198 14 205Q6 212 6 222Q6 230 13 238Q20 246 30 246Q38 246 46 239Q54 231 54 222Q54 212 47 205Q40 198 30 198V198ZM30 262Q22 262 14 269Q6 276 6 286Q6 294 13 302Q20 310 30 310Q38 310 46 303Q54 295 54 286Q54 276 47 269Q40
262 30 262V262ZM30 326Q22 326 14 333Q6 340 6 350Q6 358 13 366Q20 374 30 374Q38 374 46 367Q54 359 54 350Q54 340 47 333Q40 326 30 326V326ZM286 326Q278 326 270 333Q262 340 262 350Q262 358 269 366Q276 374 286 374Q294 374 302 367Q310 359 310 350Q310
340 303 333Q296 326 286 326V326ZM94 390Q86 390 78 397Q70 404 70 414Q70 422 77 430Q84 438 94 438Q102 438 110 431Q118 423 118 414Q118 404 111 397Q104 390 94 390V390ZM158 390Q150 390 142 397Q134 404 134 414Q134 422 141 430Q148 438 158 438Q166 438
174 431Q182 423 182 414Q182 404 175 397Q168 390 158 390V390ZM222 390Q214 390 206 397Q198 404 198 414Q198 422 205 430Q212 438 222 438Q230 438 238 431Q246 423 246 414Q246 404 239 397Q232 390 222 390V390Z" />
<glyph unicode="D" glyph-name="D" d="M30 6Q22 6 14 13Q6 20 6 30Q6 38 13 46Q20 54 30 54Q38 54 46 47Q54 39 54 30Q54 20 47 13Q40 6 30 6V6ZM94 6Q86 6 78 13Q70 20 70 30Q70 38 77 46Q84 54 94 54Q102 54 110 47Q118 39 118 30Q118 20 111 13Q104 6 94 6V6ZM158
6Q150 6 142 13Q134 20 134 30Q134 38 141 46Q148 54 158 54Q166 54 174 47Q182 39 182 30Q182 20 175 13Q168 6 158 6V6ZM222 6Q214 6 206 13Q198 20 198 30Q198 38 205 46Q212 54 222 54Q230 54 238 47Q246 39 246 30Q246 20 239 13Q232 6 222 6V6ZM30 70Q22
70 14 77Q6 84 6 94Q6 102 13 110Q20 118 30 118Q38 118 46 111Q54 103 54 94Q54 84 47 77Q40 70 30 70V70ZM286 70Q278 70 270 77Q262 84 262 94Q262 102 269 110Q276 118 286 118Q294 118 302 111Q310 103 310 94Q310 84 303 77Q296 70 286 70V70ZM30 134Q22
134 14 141Q6 148 6 158Q6 166 13 174Q20 182 30 182Q38 182 46 175Q54 167 54 158Q54 148 47 141Q40 134 30 134V134ZM286 134Q278 134 270 141Q262 148 262 158Q262 166 269 174Q276 182 286 182Q294 182 302 175Q310 167 310 158Q310 148 303 141Q296 134 286
134V134ZM30 198Q22 198 14 205Q6 212 6 222Q6 230 13 238Q20 246 30 246Q38 246 46 239Q54 231 54 222Q54 212 47 205Q40 198 30 198V198ZM286 198Q278 198 270 205Q262 212 262 222Q262 230 269 238Q276 246 286 246Q294 246 302 239Q310 231 310 222Q310 212
303 205Q296 198 286 198V198ZM30 262Q22 262 14 269Q6 276 6 286Q6 294 13 302Q20 310 30 310Q38 310 46 303Q54 295 54 286Q54 276 47 269Q40 262 30 262V262ZM286 262Q278 262 270 269Q262 276 262 286Q262 294 269 302Q276 310 286 310Q294 310 302 303Q310
295 310 286Q310 276 303 269Q296 262 286 262V262ZM30 326Q22 326 14 333Q6 340 6 350Q6 358 13 366Q20 374 30 374Q38 374 46 367Q54 359 54 350Q54 340 47 333Q40 326 30 326V326ZM286 326Q278 326 270 333Q262 340 262 350Q262 358 269 366Q276 374 286 374Q294
374 302 367Q310 359 310 350Q310 340 303 333Q296 326 286 326V326ZM30 390Q22 390 14 397Q6 404 6 414Q6 422 13 430Q20 438 30 438Q38 438 46 431Q54 423 54 414Q54 404 47 397Q40 390 30 390V390ZM94 390Q86 390 78 397Q70 404 70 414Q70 422 77 430Q84 438
94 438Q102 438 110 431Q118 423 118 414Q118 404 111 397Q104 390 94 390V390ZM158 390Q150 390 142 397Q134 404 134 414Q134 422 141 430Q148 438 158 438Q166 438 174 431Q182 423 182 414Q182 404 175 397Q168 390 158 390V390ZM222 390Q214 390 206 397Q198
404 198 414Q198 422 205 430Q212 438 222 438Q230 438 238 431Q246 423 246 414Q246 404 239 397Q232 390 222 390V390Z" />
<glyph unicode="E" glyph-name="E" d="M30 6Q22 6 14 13Q6 20 6 30Q6 38 13 46Q20 54 30 54Q38 54 46 47Q54 39 54 30Q54 20 47 13Q40 6 30 6V6ZM94 6Q86 6 78 13Q70 20 70 30Q70 38 77 46Q84 54 94 54Q102 54 110 47Q118 39 118 30Q118 20 111 13Q104 6 94 6V6ZM158
6Q150 6 142 13Q134 20 134 30Q134 38 141 46Q148 54 158 54Q166 54 174 47Q182 39 182 30Q182 20 175 13Q168 6 158 6V6ZM222 6Q214 6 206 13Q198 20 198 30Q198 38 205 46Q212 54 222 54Q230 54 238 47Q246 39 246 30Q246 20 239 13Q232 6 222 6V6ZM286 6Q278
6 270 13Q262 20 262 30Q262 38 269 46Q276 54 286 54Q294 54 302 47Q310 39 310 30Q310 20 303 13Q296 6 286 6V6ZM30 70Q22 70 14 77Q6 84 6 94Q6 102 13 110Q20 118 30 118Q38 118 46 111Q54 103 54 94Q54 84 47 77Q40 70 30 70V70ZM30 134Q22 134 14 141Q6
148 6 158Q6 166 13 174Q20 182 30 182Q38 182 46 175Q54 167 54 158Q54 148 47 141Q40 134 30 134V134ZM30 198Q22 198 14 205Q6 212 6 222Q6 230 13 238Q20 246 30 246Q38 246 46 239Q54 231 54 222Q54 212 47 205Q40 198 30 198V198ZM94 198Q86 198 78 205Q70
212 70 222Q70 230 77 238Q84 246 94 246Q102 246 110 239Q118 231 118 222Q118 212 111 205Q104 198 94 198V198ZM158 198Q150 198 142 205Q134 212 134 222Q134 230 141 238Q148 246 158 246Q166 246 174 239Q182 231 182 222Q182 212 175 205Q168 198 158 198V198ZM222
198Q214 198 206 205Q198 212 198 222Q198 230 205 238Q212 246 222 246Q230 246 238 239Q246 231 246 222Q246 212 239 205Q232 198 222 198V198ZM30 262Q22 262 14 269Q6 276 6 286Q6 294 13 302Q20 310 30 310Q38 310 46 303Q54 295 54 286Q54 276 47 269Q40
262 30 262V262ZM30 326Q22 326 14 333Q6 340 6 350Q6 358 13 366Q20 374 30 374Q38 374 46 367Q54 359 54 350Q54 340 47 333Q40 326 30 326V326ZM30 390Q22 390 14 397Q6 404 6 414Q6 422 13 430Q20 438 30 438Q38 438 46 431Q54 423 54 414Q54 404 47 397Q40
390 30 390V390ZM94 390Q86 390 78 397Q70 404 70 414Q70 422 77 430Q84 438 94 438Q102 438 110 431Q118 423 118 414Q118 404 111 397Q104 390 94 390V390ZM158 390Q150 390 142 397Q134 404 134 414Q134 422 141 430Q148 438 158 438Q166 438 174 431Q182 423
182 414Q182 404 175 397Q168 390 158 390V390ZM222 390Q214 390 206 397Q198 404 198 414Q198 422 205 430Q212 438 222 438Q230 438 238 431Q246 423 246 414Q246 404 239 397Q232 390 222 390V390ZM286 390Q278 390 270 397Q262 404 262 414Q262 422 269 430Q276
438 286 438Q294 438 302 431Q310 423 310 414Q310 404 303 397Q296 390 286 390V390Z" />
<glyph unicode="F" glyph-name="F" d="M30 6Q22 6 14 13Q6 20 6 30Q6 38 13 46Q20 54 30 54Q38 54 46 47Q54 39 54 30Q54 20 47 13Q40 6 30 6V6ZM30 70Q22 70 14 77Q6 84 6 94Q6 102 13 110Q20 118 30 118Q38 118 46 111Q54 103 54 94Q54 84 47 77Q40 70 30 70V70ZM30
134Q22 134 14 141Q6 148 6 158Q6 166 13 174Q20 182 30 182Q38 182 46 175Q54 167 54 158Q54 148 47 141Q40 134 30 134V134ZM30 198Q22 198 14 205Q6 212 6 222Q6 230 13 238Q20 246 30 246Q38 246 46 239Q54 231 54 222Q54 212 47 205Q40 198 30 198V198ZM94
198Q86 198 78 205Q70 212 70 222Q70 230 77 238Q84 246 94 246Q102 246 110 239Q118 231 118 222Q118 212 111 205Q104 198 94 198V198ZM158 198Q150 198 142 205Q134 212 134 222Q134 230 141 238Q148 246 158 246Q166 246 174 239Q182 231 182 222Q182 212 175
205Q168 198 158 198V198ZM222 198Q214 198 206 205Q198 212 198 222Q198 230 205 238Q212 246 222 246Q230 246 238 239Q246 231 246 222Q246 212 239 205Q232 198 222 198V198ZM30 262Q22 262 14 269Q6 276 6 286Q6 294 13 302Q20 310 30 310Q38 310 46 303Q54
295 54 286Q54 276 47 269Q40 262 30 262V262ZM30 326Q22 326 14 333Q6 340 6 350Q6 358 13 366Q20 374 30 374Q38 374 46 367Q54 359 54 350Q54 340 47 333Q40 326 30 326V326ZM30 390Q22 390 14 397Q6 404 6 414Q6 422 13 430Q20 438 30 438Q38 438 46 431Q54
423 54 414Q54 404 47 397Q40 390 30 390V390ZM94 390Q86 390 78 397Q70 404 70 414Q70 422 77 430Q84 438 94 438Q102 438 110 431Q118 423 118 414Q118 404 111 397Q104 390 94 390V390ZM158 390Q150 390 142 397Q134 404 134 414Q134 422 141 430Q148 438 158
438Q166 438 174 431Q182 423 182 414Q182 404 175 397Q168 390 158 390V390ZM222 390Q214 390 206 397Q198 404 198 414Q198 422 205 430Q212 438 222 438Q230 438 238 431Q246 423 246 414Q246 404 239 397Q232 390 222 390V390ZM286 390Q278 390 270 397Q262
404 262 414Q262 422 269 430Q276 438 286 438Q294 438 302 431Q310 423 310 414Q310 404 303 397Q296 390 286 390V390Z" />
<glyph unicode="G" glyph-name="G" d="M94 6Q86 6 78 13Q70 20 70 30Q70 38 77 46Q84 54 94 54Q102 54 110 47Q118 39 118 30Q118 20 111 13Q104 6 94 6V6ZM158 6Q150 6 142 13Q134 20 134 30Q134 38 141 46Q148 54 158 54Q166 54 174 47Q182 39 182 30Q182 20
175 13Q168 6 158 6V6ZM222 6Q214 6 206 13Q198 20 198 30Q198 38 205 46Q212 54 222 54Q230 54 238 47Q246 39 246 30Q246 20 239 13Q232 6 222 6V6ZM30 70Q22 70 14 77Q6 84 6 94Q6 102 13 110Q20 118 30 118Q38 118 46 111Q54 103 54 94Q54 84 47 77Q40 70 30
70V70ZM286 70Q278 70 270 77Q262 84 262 94Q262 102 269 110Q276 118 286 118Q294 118 302 111Q310 103 310 94Q310 84 303 77Q296 70 286 70V70ZM30 134Q22 134 14 141Q6 148 6 158Q6 166 13 174Q20 182 30 182Q38 182 46 175Q54 167 54 158Q54 148 47 141Q40
134 30 134V134ZM286 134Q278 134 270 141Q262 148 262 158Q262 166 269 174Q276 182 286 182Q294 182 302 175Q310 167 310 158Q310 148 303 141Q296 134 286 134V134ZM30 198Q22 198 14 205Q6 212 6 222Q6 230 13 238Q20 246 30 246Q38 246 46 239Q54 231 54
222Q54 212 47 205Q40 198 30 198V198ZM158 198Q150 198 142 205Q134 212 134 222Q134 230 141 238Q148 246 158 246Q166 246 174 239Q182 231 182 222Q182 212 175 205Q168 198 158 198V198ZM222 198Q214 198 206 205Q198 212 198 222Q198 230 205 238Q212 246
222 246Q230 246 238 239Q246 231 246 222Q246 212 239 205Q232 198 222 198V198ZM286 198Q278 198 270 205Q262 212 262 222Q262 230 269 238Q276 246 286 246Q294 246 302 239Q310 231 310 222Q310 212 303 205Q296 198 286 198V198ZM30 262Q22 262 14 269Q6
276 6 286Q6 294 13 302Q20 310 30 310Q38 310 46 303Q54 295 54 286Q54 276 47 269Q40 262 30 262V262ZM30 326Q22 326 14 333Q6 340 6 350Q6 358 13 366Q20 374 30 374Q38 374 46 367Q54 359 54 350Q54 340 47 333Q40 326 30 326V326ZM286 326Q278 326 270 333Q262
340 262 350Q262 358 269 366Q276 374 286 374Q294 374 302 367Q310 359 310 350Q310 340 303 333Q296 326 286 326V326ZM94 390Q86 390 78 397Q70 404 70 414Q70 422 77 430Q84 438 94 438Q102 438 110 431Q118 423 118 414Q118 404 111 397Q104 390 94 390V390ZM158
390Q150 390 142 397Q134 404 134 414Q134 422 141 430Q148 438 158 438Q166 438 174 431Q182 423 182 414Q182 404 175 397Q168 390 158 390V390ZM222 390Q214 390 206 397Q198 404 198 414Q198 422 205 430Q212 438 222 438Q230 438 238 431Q246 423 246 414Q246
404 239 397Q232 390 222 390V390Z" />
<glyph unicode="H" glyph-name="H" d="M30 6Q22 6 14 13Q6 20 6 30Q6 38 13 46Q20 54 30 54Q38 54 46 47Q54 39 54 30Q54 20 47 13Q40 6 30 6V6ZM286 6Q278 6 270 13Q262 20 262 30Q262 38 269 46Q276 54 286 54Q294 54 302 47Q310 39 310 30Q310 20 303 13Q296
6 286 6V6ZM30 70Q22 70 14 77Q6 84 6 94Q6 102 13 110Q20 118 30 118Q38 118 46 111Q54 103 54 94Q54 84 47 77Q40 70 30 70V70ZM286 70Q278 70 270 77Q262 84 262 94Q262 102 269 110Q276 118 286 118Q294 118 302 111Q310 103 310 94Q310 84 303 77Q296 70 286
70V70ZM30 134Q22 134 14 141Q6 148 6 158Q6 166 13 174Q20 182 30 182Q38 182 46 175Q54 167 54 158Q54 148 47 141Q40 134 30 134V134ZM286 134Q278 134 270 141Q262 148 262 158Q262 166 269 174Q276 182 286 182Q294 182 302 175Q310 167 310 158Q310 148 303
141Q296 134 286 134V134ZM30 198Q22 198 14 205Q6 212 6 222Q6 230 13 238Q20 246 30 246Q38 246 46 239Q54 231 54 222Q54 212 47 205Q40 198 30 198V198ZM94 198Q86 198 78 205Q70 212 70 222Q70 230 77 238Q84 246 94 246Q102 246 110 239Q118 231 118 222Q118
212 111 205Q104 198 94 198V198ZM158 198Q150 198 142 205Q134 212 134 222Q134 230 141 238Q148 246 158 246Q166 246 174 239Q182 231 182 222Q182 212 175 205Q168 198 158 198V198ZM222 198Q214 198 206 205Q198 212 198 222Q198 230 205 238Q212 246 222
246Q230 246 238 239Q246 231 246 222Q246 212 239 205Q232 198 222 198V198ZM286 198Q278 198 270 205Q262 212 262 222Q262 230 269 238Q276 246 286 246Q294 246 302 239Q310 231 310 222Q310 212 303 205Q296 198 286 198V198ZM30 262Q22 262 14 269Q6 276
6 286Q6 294 13 302Q20 310 30 310Q38 310 46 303Q54 295 54 286Q54 276 47 269Q40 262 30 262V262ZM286 262Q278 262 270 269Q262 276 262 286Q262 294 269 302Q276 310 286 310Q294 310 302 303Q310 295 310 286Q310 276 303 269Q296 262 286 262V262ZM30 326Q22
326 14 333Q6 340 6 350Q6 358 13 366Q20 374 30 374Q38 374 46 367Q54 359 54 350Q54 340 47 333Q40 326 30 326V326ZM286 326Q278 326 270 333Q262 340 262 350Q262 358 269 366Q276 374 286 374Q294 374 302 367Q310 359 310 350Q310 340 303 333Q296 326 286
326V326ZM30 390Q22 390 14 397Q6 404 6 414Q6 422 13 430Q20 438 30 438Q38 438 46 431Q54 423 54 414Q54 404 47 397Q40 390 30 390V390ZM286 390Q278 390 270 397Q262 404 262 414Q262 422 269 430Q276 438 286 438Q294 438 302 431Q310 423 310 414Q310 404
303 397Q296 390 286 390V390Z" />
<glyph unicode="I" glyph-name="I" horiz-adv-x="384" d="M94 6Q86 6 78 13Q70 20 70 30Q70 38 77 46Q84 54 94 54Q102 54 110 47Q118 39 118 30Q118 20 111 13Q104 6 94 6V6ZM158 6Q150 6 142 13Q134 20 134 30Q134 38 141 46Q148 54 158 54Q166 54 174 47Q182
39 182 30Q182 20 175 13Q168 6 158 6V6ZM222 6Q214 6 206 13Q198 20 198 30Q198 38 205 46Q212 54 222 54Q230 54 238 47Q246 39 246 30Q246 20 239 13Q232 6 222 6V6ZM158 70Q150 70 142 77Q134 84 134 94Q134 102 141 110Q148 118 158 118Q166 118 174 111Q182
103 182 94Q182 84 175 77Q168 70 158 70V70ZM158 134Q150 134 142 141Q134 148 134 158Q134 166 141 174Q148 182 158 182Q166 182 174 175Q182 167 182 158Q182 148 175 141Q168 134 158 134V134ZM158 198Q150 198 142 205Q134 212 134 222Q134 230 141 238Q148
246 158 246Q166 246 174 239Q182 231 182 222Q182 212 175 205Q168 198 158 198V198ZM158 262Q150 262 142 269Q134 276 134 286Q134 294 141 302Q148 310 158 310Q166 310 174 303Q182 295 182 286Q182 276 175 269Q168 262 158 262V262ZM158 326Q150 326 142
333Q134 340 134 350Q134 358 141 366Q148 374 158 374Q166 374 174 367Q182 359 182 350Q182 340 175 333Q168 326 158 326V326ZM94 390Q86 390 78 397Q70 404 70 414Q70 422 77 430Q84 438 94 438Q102 438 110 431Q118 423 118 414Q118 404 111 397Q104 390 94
390V390ZM158 390Q150 390 142 397Q134 404 134 414Q134 422 141 430Q148 438 158 438Q166 438 174 431Q182 423 182 414Q182 404 175 397Q168 390 158 390V390ZM222 390Q214 390 206 397Q198 404 198 414Q198 422 205 430Q212 438 222 438Q230 438 238 431Q246
423 246 414Q246 404 239 397Q232 390 222 390V390Z" />
<glyph unicode="J" glyph-name="J" d="M94 6Q86 6 78 13Q70 20 70 30Q70 38 77 46Q84 54 94 54Q102 54 110 47Q118 39 118 30Q118 20 111 13Q104 6 94 6V6ZM158 6Q150 6 142 13Q134 20 134 30Q134 38 141 46Q148 54 158 54Q166 54 174 47Q182 39 182 30Q182 20
175 13Q168 6 158 6V6ZM30 70Q22 70 14 77Q6 84 6 94Q6 102 13 110Q20 118 30 118Q38 118 46 111Q54 103 54 94Q54 84 47 77Q40 70 30 70V70ZM222 70Q214 70 206 77Q198 84 198 94Q198 102 205 110Q212 118 222 118Q230 118 238 111Q246 103 246 94Q246 84 239
77Q232 70 222 70V70ZM222 134Q214 134 206 141Q198 148 198 158Q198 166 205 174Q212 182 222 182Q230 182 238 175Q246 167 246 158Q246 148 239 141Q232 134 222 134V134ZM222 198Q214 198 206 205Q198 212 198 222Q198 230 205 238Q212 246 222 246Q230 246
238 239Q246 231 246 222Q246 212 239 205Q232 198 222 198V198ZM222 262Q214 262 206 269Q198 276 198 286Q198 294 205 302Q212 310 222 310Q230 310 238 303Q246 295 246 286Q246 276 239 269Q232 262 222 262V262ZM222 326Q214 326 206 333Q198 340 198 350Q198
358 205 366Q212 374 222 374Q230 374 238 367Q246 359 246 350Q246 340 239 333Q232 326 222 326V326ZM94 390Q86 390 78 397Q70 404 70 414Q70 422 77 430Q84 438 94 438Q102 438 110 431Q118 423 118 414Q118 404 111 397Q104 390 94 390V390ZM158 390Q150 390
142 397Q134 404 134 414Q134 422 141 430Q148 438 158 438Q166 438 174 431Q182 423 182 414Q182 404 175 397Q168 390 158 390V390ZM222 390Q214 390 206 397Q198 404 198 414Q198 422 205 430Q212 438 222 438Q230 438 238 431Q246 423 246 414Q246 404 239
397Q232 390 222 390V390ZM286 390Q278 390 270 397Q262 404 262 414Q262 422 269 430Q276 438 286 438Q294 438 302 431Q310 423 310 414Q310 404 303 397Q296 390 286 390V390Z" />
<glyph unicode="K" glyph-name="K" d="M30 6Q22 6 14 13Q6 20 6 30Q6 38 13 46Q20 54 30 54Q38 54 46 47Q54 39 54 30Q54 20 47 13Q40 6 30 6V6ZM286 6Q278 6 270 13Q262 20 262 30Q262 38 269 46Q276 54 286 54Q294 54 302 47Q310 39 310 30Q310 20 303 13Q296
6 286 6V6ZM30 70Q22 70 14 77Q6 84 6 94Q6 102 13 110Q20 118 30 118Q38 118 46 111Q54 103 54 94Q54 84 47 77Q40 70 30 70V70ZM222 70Q214 70 206 77Q198 84 198 94Q198 102 205 110Q212 118 222 118Q230 118 238 111Q246 103 246 94Q246 84 239 77Q232 70 222
70V70ZM30 134Q22 134 14 141Q6 148 6 158Q6 166 13 174Q20 182 30 182Q38 182 46 175Q54 167 54 158Q54 148 47 141Q40 134 30 134V134ZM158 134Q150 134 142 141Q134 148 134 158Q134 166 141 174Q148 182 158 182Q166 182 174 175Q182 167 182 158Q182 148 175
141Q168 134 158 134V134ZM30 198Q22 198 14 205Q6 212 6 222Q6 230 13 238Q20 246 30 246Q38 246 46 239Q54 231 54 222Q54 212 47 205Q40 198 30 198V198ZM94 198Q86 198 78 205Q70 212 70 222Q70 230 77 238Q84 246 94 246Q102 246 110 239Q118 231 118 222Q118
212 111 205Q104 198 94 198V198ZM30 262Q22 262 14 269Q6 276 6 286Q6 294 13 302Q20 310 30 310Q38 310 46 303Q54 295 54 286Q54 276 47 269Q40 262 30 262V262ZM158 262Q150 262 142 269Q134 276 134 286Q134 294 141 302Q148 310 158 310Q166 310 174 303Q182
295 182 286Q182 276 175 269Q168 262 158 262V262ZM30 326Q22 326 14 333Q6 340 6 350Q6 358 13 366Q20 374 30 374Q38 374 46 367Q54 359 54 350Q54 340 47 333Q40 326 30 326V326ZM222 326Q214 326 206 333Q198 340 198 350Q198 358 205 366Q212 374 222 374Q230
374 238 367Q246 359 246 350Q246 340 239 333Q232 326 222 326V326ZM30 390Q22 390 14 397Q6 404 6 414Q6 422 13 430Q20 438 30 438Q38 438 46 431Q54 423 54 414Q54 404 47 397Q40 390 30 390V390ZM286 390Q278 390 270 397Q262 404 262 414Q262 422 269 430Q276
438 286 438Q294 438 302 431Q310 423 310 414Q310 404 303 397Q296 390 286 390V390Z" />
<glyph unicode="L" glyph-name="L" d="M30 6Q22 6 14 13Q6 20 6 30Q6 38 13 46Q20 54 30 54Q38 54 46 47Q54 39 54 30Q54 20 47 13Q40 6 30 6V6ZM94 6Q86 6 78 13Q70 20 70 30Q70 38 77 46Q84 54 94 54Q102 54 110 47Q118 39 118 30Q118 20 111 13Q104 6 94 6V6ZM158
6Q150 6 142 13Q134 20 134 30Q134 38 141 46Q148 54 158 54Q166 54 174 47Q182 39 182 30Q182 20 175 13Q168 6 158 6V6ZM222 6Q214 6 206 13Q198 20 198 30Q198 38 205 46Q212 54 222 54Q230 54 238 47Q246 39 246 30Q246 20 239 13Q232 6 222 6V6ZM286 6Q278
6 270 13Q262 20 262 30Q262 38 269 46Q276 54 286 54Q294 54 302 47Q310 39 310 30Q310 20 303 13Q296 6 286 6V6ZM30 70Q22 70 14 77Q6 84 6 94Q6 102 13 110Q20 118 30 118Q38 118 46 111Q54 103 54 94Q54 84 47 77Q40 70 30 70V70ZM30 134Q22 134 14 141Q6
148 6 158Q6 166 13 174Q20 182 30 182Q38 182 46 175Q54 167 54 158Q54 148 47 141Q40 134 30 134V134ZM30 198Q22 198 14 205Q6 212 6 222Q6 230 13 238Q20 246 30 246Q38 246 46 239Q54 231 54 222Q54 212 47 205Q40 198 30 198V198ZM30 262Q22 262 14 269Q6
276 6 286Q6 294 13 302Q20 310 30 310Q38 310 46 303Q54 295 54 286Q54 276 47 269Q40 262 30 262V262ZM30 326Q22 326 14 333Q6 340 6 350Q6 358 13 366Q20 374 30 374Q38 374 46 367Q54 359 54 350Q54 340 47 333Q40 326 30 326V326ZM30 390Q22 390 14 397Q6
404 6 414Q6 422 13 430Q20 438 30 438Q38 438 46 431Q54 423 54 414Q54 404 47 397Q40 390 30 390V390Z" />
<glyph unicode="M" glyph-name="M" d="M30 6Q22 6 14 13Q6 20 6 30Q6 38 13 46Q20 54 30 54Q38 54 46 47Q54 39 54 30Q54 20 47 13Q40 6 30 6V6ZM286 6Q278 6 270 13Q262 20 262 30Q262 38 269 46Q276 54 286 54Q294 54 302 47Q310 39 310 30Q310 20 303 13Q296
6 286 6V6ZM30 70Q22 70 14 77Q6 84 6 94Q6 102 13 110Q20 118 30 118Q38 118 46 111Q54 103 54 94Q54 84 47 77Q40 70 30 70V70ZM286 70Q278 70 270 77Q262 84 262 94Q262 102 269 110Q276 118 286 118Q294 118 302 111Q310 103 310 94Q310 84 303 77Q296 70 286
70V70ZM30 134Q22 134 14 141Q6 148 6 158Q6 166 13 174Q20 182 30 182Q38 182 46 175Q54 167 54 158Q54 148 47 141Q40 134 30 134V134ZM286 134Q278 134 270 141Q262 148 262 158Q262 166 269 174Q276 182 286 182Q294 182 302 175Q310 167 310 158Q310 148 303
141Q296 134 286 134V134ZM30 198Q22 198 14 205Q6 212 6 222Q6 230 13 238Q20 246 30 246Q38 246 46 239Q54 231 54 222Q54 212 47 205Q40 198 30 198V198ZM158 198Q150 198 142 205Q134 212 134 222Q134 230 141 238Q148 246 158 246Q166 246 174 239Q182 231
182 222Q182 212 175 205Q168 198 158 198V198ZM286 198Q278 198 270 205Q262 212 262 222Q262 230 269 238Q276 246 286 246Q294 246 302 239Q310 231 310 222Q310 212 303 205Q296 198 286 198V198ZM30 262Q22 262 14 269Q6 276 6 286Q6 294 13 302Q20 310 30
310Q38 310 46 303Q54 295 54 286Q54 276 47 269Q40 262 30 262V262ZM158 262Q150 262 142 269Q134 276 134 286Q134 294 141 302Q148 310 158 310Q166 310 174 303Q182 295 182 286Q182 276 175 269Q168 262 158 262V262ZM286 262Q278 262 270 269Q262 276 262
286Q262 294 269 302Q276 310 286 310Q294 310 302 303Q310 295 310 286Q310 276 303 269Q296 262 286 262V262ZM30 326Q22 326 14 333Q6 340 6 350Q6 358 13 366Q20 374 30 374Q38 374 46 367Q54 359 54 350Q54 340 47 333Q40 326 30 326V326ZM94 326Q86 326 78
333Q70 340 70 350Q70 358 77 366Q84 374 94 374Q102 374 110 367Q118 359 118 350Q118 340 111 333Q104 326 94 326V326ZM222 326Q214 326 206 333Q198 340 198 350Q198 358 205 366Q212 374 222 374Q230 374 238 367Q246 359 246 350Q246 340 239 333Q232 326
222 326V326ZM286 326Q278 326 270 333Q262 340 262 350Q262 358 269 366Q276 374 286 374Q294 374 302 367Q310 359 310 350Q310 340 303 333Q296 326 286 326V326ZM30 390Q22 390 14 397Q6 404 6 414Q6 422 13 430Q20 438 30 438Q38 438 46 431Q54 423 54 414Q54
404 47 397Q40 390 30 390V390ZM286 390Q278 390 270 397Q262 404 262 414Q262 422 269 430Q276 438 286 438Q294 438 302 431Q310 423 310 414Q310 404 303 397Q296 390 286 390V390Z" />
<glyph unicode="N" glyph-name="N" d="M30 6Q22 6 14 13Q6 20 6 30Q6 38 13 46Q20 54 30 54Q38 54 46 47Q54 39 54 30Q54 20 47 13Q40 6 30 6V6ZM286 6Q278 6 270 13Q262 20 262 30Q262 38 269 46Q276 54 286 54Q294 54 302 47Q310 39 310 30Q310 20 303 13Q296
6 286 6V6ZM30 70Q22 70 14 77Q6 84 6 94Q6 102 13 110Q20 118 30 118Q38 118 46 111Q54 103 54 94Q54 84 47 77Q40 70 30 70V70ZM286 70Q278 70 270 77Q262 84 262 94Q262 102 269 110Q276 118 286 118Q294 118 302 111Q310 103 310 94Q310 84 303 77Q296 70 286
70V70ZM30 134Q22 134 14 141Q6 148 6 158Q6 166 13 174Q20 182 30 182Q38 182 46 175Q54 167 54 158Q54 148 47 141Q40 134 30 134V134ZM286 134Q278 134 270 141Q262 148 262 158Q262 166 269 174Q276 182 286 182Q294 182 302 175Q310 167 310 158Q310 148 303
141Q296 134 286 134V134ZM30 198Q22 198 14 205Q6 212 6 222Q6 230 13 238Q20 246 30 246Q38 246 46 239Q54 231 54 222Q54 212 47 205Q40 198 30 198V198ZM222 198Q214 198 206 205Q198 212 198 222Q198 230 205 238Q212 246 222 246Q230 246 238 239Q246 231
246 222Q246 212 239 205Q232 198 222 198V198ZM286 198Q278 198 270 205Q262 212 262 222Q262 230 269 238Q276 246 286 246Q294 246 302 239Q310 231 310 222Q310 212 303 205Q296 198 286 198V198ZM30 262Q22 262 14 269Q6 276 6 286Q6 294 13 302Q20 310 30
310Q38 310 46 303Q54 295 54 286Q54 276 47 269Q40 262 30 262V262ZM158 262Q150 262 142 269Q134 276 134 286Q134 294 141 302Q148 310 158 310Q166 310 174 303Q182 295 182 286Q182 276 175 269Q168 262 158 262V262ZM286 262Q278 262 270 269Q262 276 262
286Q262 294 269 302Q276 310 286 310Q294 310 302 303Q310 295 310 286Q310 276 303 269Q296 262 286 262V262ZM30 326Q22 326 14 333Q6 340 6 350Q6 358 13 366Q20 374 30 374Q38 374 46 367Q54 359 54 350Q54 340 47 333Q40 326 30 326V326ZM94 326Q86 326 78
333Q70 340 70 350Q70 358 77 366Q84 374 94 374Q102 374 110 367Q118 359 118 350Q118 340 111 333Q104 326 94 326V326ZM286 326Q278 326 270 333Q262 340 262 350Q262 358 269 366Q276 374 286 374Q294 374 302 367Q310 359 310 350Q310 340 303 333Q296 326
286 326V326ZM30 390Q22 390 14 397Q6 404 6 414Q6 422 13 430Q20 438 30 438Q38 438 46 431Q54 423 54 414Q54 404 47 397Q40 390 30 390V390ZM286 390Q278 390 270 397Q262 404 262 414Q262 422 269 430Q276 438 286 438Q294 438 302 431Q310 423 310 414Q310
404 303 397Q296 390 286 390V390Z" />
<glyph unicode="O" glyph-name="O" d="M94 6Q86 6 78 13Q70 20 70 30Q70 38 77 46Q84 54 94 54Q102 54 110 47Q118 39 118 30Q118 20 111 13Q104 6 94 6V6ZM158 6Q150 6 142 13Q134 20 134 30Q134 38 141 46Q148 54 158 54Q166 54 174 47Q182 39 182 30Q182 20
175 13Q168 6 158 6V6ZM222 6Q214 6 206 13Q198 20 198 30Q198 38 205 46Q212 54 222 54Q230 54 238 47Q246 39 246 30Q246 20 239 13Q232 6 222 6V6ZM30 70Q22 70 14 77Q6 84 6 94Q6 102 13 110Q20 118 30 118Q38 118 46 111Q54 103 54 94Q54 84 47 77Q40 70 30
70V70ZM286 70Q278 70 270 77Q262 84 262 94Q262 102 269 110Q276 118 286 118Q294 118 302 111Q310 103 310 94Q310 84 303 77Q296 70 286 70V70ZM30 134Q22 134 14 141Q6 148 6 158Q6 166 13 174Q20 182 30 182Q38 182 46 175Q54 167 54 158Q54 148 47 141Q40
134 30 134V134ZM286 134Q278 134 270 141Q262 148 262 158Q262 166 269 174Q276 182 286 182Q294 182 302 175Q310 167 310 158Q310 148 303 141Q296 134 286 134V134ZM30 198Q22 198 14 205Q6 212 6 222Q6 230 13 238Q20 246 30 246Q38 246 46 239Q54 231 54
222Q54 212 47 205Q40 198 30 198V198ZM286 198Q278 198 270 205Q262 212 262 222Q262 230 269 238Q276 246 286 246Q294 246 302 239Q310 231 310 222Q310 212 303 205Q296 198 286 198V198ZM30 262Q22 262 14 269Q6 276 6 286Q6 294 13 302Q20 310 30 310Q38
310 46 303Q54 295 54 286Q54 276 47 269Q40 262 30 262V262ZM286 262Q278 262 270 269Q262 276 262 286Q262 294 269 302Q276 310 286 310Q294 310 302 303Q310 295 310 286Q310 276 303 269Q296 262 286 262V262ZM30 326Q22 326 14 333Q6 340 6 350Q6 358 13
366Q20 374 30 374Q38 374 46 367Q54 359 54 350Q54 340 47 333Q40 326 30 326V326ZM286 326Q278 326 270 333Q262 340 262 350Q262 358 269 366Q276 374 286 374Q294 374 302 367Q310 359 310 350Q310 340 303 333Q296 326 286 326V326ZM94 390Q86 390 78 397Q70
404 70 414Q70 422 77 430Q84 438 94 438Q102 438 110 431Q118 423 118 414Q118 404 111 397Q104 390 94 390V390ZM158 390Q150 390 142 397Q134 404 134 414Q134 422 141 430Q148 438 158 438Q166 438 174 431Q182 423 182 414Q182 404 175 397Q168 390 158 390V390ZM222
390Q214 390 206 397Q198 404 198 414Q198 422 205 430Q212 438 222 438Q230 438 238 431Q246 423 246 414Q246 404 239 397Q232 390 222 390V390Z" />
<glyph unicode="P" glyph-name="P" d="M30 6Q22 6 14 13Q6 20 6 30Q6 38 13 46Q20 54 30 54Q38 54 46 47Q54 39 54 30Q54 20 47 13Q40 6 30 6V6ZM30 70Q22 70 14 77Q6 84 6 94Q6 102 13 110Q20 118 30 118Q38 118 46 111Q54 103 54 94Q54 84 47 77Q40 70 30 70V70ZM30
134Q22 134 14 141Q6 148 6 158Q6 166 13 174Q20 182 30 182Q38 182 46 175Q54 167 54 158Q54 148 47 141Q40 134 30 134V134ZM30 198Q22 198 14 205Q6 212 6 222Q6 230 13 238Q20 246 30 246Q38 246 46 239Q54 231 54 222Q54 212 47 205Q40 198 30 198V198ZM94
198Q86 198 78 205Q70 212 70 222Q70 230 77 238Q84 246 94 246Q102 246 110 239Q118 231 118 222Q118 212 111 205Q104 198 94 198V198ZM158 198Q150 198 142 205Q134 212 134 222Q134 230 141 238Q148 246 158 246Q166 246 174 239Q182 231 182 222Q182 212 175
205Q168 198 158 198V198ZM222 198Q214 198 206 205Q198 212 198 222Q198 230 205 238Q212 246 222 246Q230 246 238 239Q246 231 246 222Q246 212 239 205Q232 198 222 198V198ZM30 262Q22 262 14 269Q6 276 6 286Q6 294 13 302Q20 310 30 310Q38 310 46 303Q54
295 54 286Q54 276 47 269Q40 262 30 262V262ZM286 262Q278 262 270 269Q262 276 262 286Q262 294 269 302Q276 310 286 310Q294 310 302 303Q310 295 310 286Q310 276 303 269Q296 262 286 262V262ZM30 326Q22 326 14 333Q6 340 6 350Q6 358 13 366Q20 374 30
374Q38 374 46 367Q54 359 54 350Q54 340 47 333Q40 326 30 326V326ZM286 326Q278 326 270 333Q262 340 262 350Q262 358 269 366Q276 374 286 374Q294 374 302 367Q310 359 310 350Q310 340 303 333Q296 326 286 326V326ZM30 390Q22 390 14 397Q6 404 6 414Q6
422 13 430Q20 438 30 438Q38 438 46 431Q54 423 54 414Q54 404 47 397Q40 390 30 390V390ZM94 390Q86 390 78 397Q70 404 70 414Q70 422 77 430Q84 438 94 438Q102 438 110 431Q118 423 118 414Q118 404 111 397Q104 390 94 390V390ZM158 390Q150 390 142 397Q134
404 134 414Q134 422 141 430Q148 438 158 438Q166 438 174 431Q182 423 182 414Q182 404 175 397Q168 390 158 390V390ZM222 390Q214 390 206 397Q198 404 198 414Q198 422 205 430Q212 438 222 438Q230 438 238 431Q246 423 246 414Q246 404 239 397Q232 390
222 390V390Z" />
<glyph unicode="Q" glyph-name="Q" d="M286 -121Q278 -121 270 -114Q262 -107 262 -97Q262 -89 269 -81Q276 -73 286 -73Q294 -73 302 -80Q310 -88 310 -97Q310 -107 303 -114Q296 -121 286 -121V-121ZM222 -57Q214 -57 206 -50Q198 -43 198 -33Q198 -25 205 -17Q212
-9 222 -9Q230 -9 238 -16Q246 -24 246 -33Q246 -43 239 -50Q232 -57 222 -57V-57ZM94 6Q86 6 78 13Q70 20 70 30Q70 38 77 46Q84 54 94 54Q102 54 110 47Q118 39 118 30Q118 20 111 13Q104 6 94 6V6ZM158 6Q150 6 142 13Q134 20 134 30Q134 38 141 46Q148 54 158
54Q166 54 174 47Q182 39 182 30Q182 20 175 13Q168 6 158 6V6ZM222 6Q214 6 206 13Q198 20 198 30Q198 38 205 46Q212 54 222 54Q230 54 238 47Q246 39 246 30Q246 20 239 13Q232 6 222 6V6ZM30 70Q22 70 14 77Q6 84 6 94Q6 102 13 110Q20 118 30 118Q38 118 46
111Q54 103 54 94Q54 84 47 77Q40 70 30 70V70ZM286 70Q278 70 270 77Q262 84 262 94Q262 102 269 110Q276 118 286 118Q294 118 302 111Q310 103 310 94Q310 84 303 77Q296 70 286 70V70ZM30 134Q22 134 14 141Q6 148 6 158Q6 166 13 174Q20 182 30 182Q38 182
46 175Q54 167 54 158Q54 148 47 141Q40 134 30 134V134ZM286 134Q278 134 270 141Q262 148 262 158Q262 166 269 174Q276 182 286 182Q294 182 302 175Q310 167 310 158Q310 148 303 141Q296 134 286 134V134ZM30 198Q22 198 14 205Q6 212 6 222Q6 230 13 238Q20
246 30 246Q38 246 46 239Q54 231 54 222Q54 212 47 205Q40 198 30 198V198ZM286 198Q278 198 270 205Q262 212 262 222Q262 230 269 238Q276 246 286 246Q294 246 302 239Q310 231 310 222Q310 212 303 205Q296 198 286 198V198ZM30 262Q22 262 14 269Q6 276 6
286Q6 294 13 302Q20 310 30 310Q38 310 46 303Q54 295 54 286Q54 276 47 269Q40 262 30 262V262ZM286 262Q278 262 270 269Q262 276 262 286Q262 294 269 302Q276 310 286 310Q294 310 302 303Q310 295 310 286Q310 276 303 269Q296 262 286 262V262ZM30 326Q22
326 14 333Q6 340 6 350Q6 358 13 366Q20 374 30 374Q38 374 46 367Q54 359 54 350Q54 340 47 333Q40 326 30 326V326ZM286 326Q278 326 270 333Q262 340 262 350Q262 358 269 366Q276 374 286 374Q294 374 302 367Q310 359 310 350Q310 340 303 333Q296 326 286
326V326ZM94 390Q86 390 78 397Q70 404 70 414Q70 422 77 430Q84 438 94 438Q102 438 110 431Q118 423 118 414Q118 404 111 397Q104 390 94 390V390ZM158 390Q150 390 142 397Q134 404 134 414Q134 422 141 430Q148 438 158 438Q166 438 174 431Q182 423 182 414Q182
404 175 397Q168 390 158 390V390ZM222 390Q214 390 206 397Q198 404 198 414Q198 422 205 430Q212 438 222 438Q230 438 238 431Q246 423 246 414Q246 404 239 397Q232 390 222 390V390Z" />
<glyph unicode="R" glyph-name="R" d="M30 6Q22 6 14 13Q6 20 6 30Q6 38 13 46Q20 54 30 54Q38 54 46 47Q54 39 54 30Q54 20 47 13Q40 6 30 6V6ZM286 6Q278 6 270 13Q262 20 262 30Q262 38 269 46Q276 54 286 54Q294 54 302 47Q310 39 310 30Q310 20 303 13Q296
6 286 6V6ZM30 70Q22 70 14 77Q6 84 6 94Q6 102 13 110Q20 118 30 118Q38 118 46 111Q54 103 54 94Q54 84 47 77Q40 70 30 70V70ZM222 70Q214 70 206 77Q198 84 198 94Q198 102 205 110Q212 118 222 118Q230 118 238 111Q246 103 246 94Q246 84 239 77Q232 70 222
70V70ZM30 134Q22 134 14 141Q6 148 6 158Q6 166 13 174Q20 182 30 182Q38 182 46 175Q54 167 54 158Q54 148 47 141Q40 134 30 134V134ZM158 134Q150 134 142 141Q134 148 134 158Q134 166 141 174Q148 182 158 182Q166 182 174 175Q182 167 182 158Q182 148 175
141Q168 134 158 134V134ZM30 198Q22 198 14 205Q6 212 6 222Q6 230 13 238Q20 246 30 246Q38 246 46 239Q54 231 54 222Q54 212 47 205Q40 198 30 198V198ZM94 198Q86 198 78 205Q70 212 70 222Q70 230 77 238Q84 246 94 246Q102 246 110 239Q118 231 118 222Q118
212 111 205Q104 198 94 198V198ZM158 198Q150 198 142 205Q134 212 134 222Q134 230 141 238Q148 246 158 246Q166 246 174 239Q182 231 182 222Q182 212 175 205Q168 198 158 198V198ZM222 198Q214 198 206 205Q198 212 198 222Q198 230 205 238Q212 246 222
246Q230 246 238 239Q246 231 246 222Q246 212 239 205Q232 198 222 198V198ZM30 262Q22 262 14 269Q6 276 6 286Q6 294 13 302Q20 310 30 310Q38 310 46 303Q54 295 54 286Q54 276 47 269Q40 262 30 262V262ZM286 262Q278 262 270 269Q262 276 262 286Q262 294
269 302Q276 310 286 310Q294 310 302 303Q310 295 310 286Q310 276 303 269Q296 262 286 262V262ZM30 326Q22 326 14 333Q6 340 6 350Q6 358 13 366Q20 374 30 374Q38 374 46 367Q54 359 54 350Q54 340 47 333Q40 326 30 326V326ZM286 326Q278 326 270 333Q262
340 262 350Q262 358 269 366Q276 374 286 374Q294 374 302 367Q310 359 310 350Q310 340 303 333Q296 326 286 326V326ZM30 390Q22 390 14 397Q6 404 6 414Q6 422 13 430Q20 438 30 438Q38 438 46 431Q54 423 54 414Q54 404 47 397Q40 390 30 390V390ZM94 390Q86
390 78 397Q70 404 70 414Q70 422 77 430Q84 438 94 438Q102 438 110 431Q118 423 118 414Q118 404 111 397Q104 390 94 390V390ZM158 390Q150 390 142 397Q134 404 134 414Q134 422 141 430Q148 438 158 438Q166 438 174 431Q182 423 182 414Q182 404 175 397Q168
390 158 390V390ZM222 390Q214 390 206 397Q198 404 198 414Q198 422 205 430Q212 438 222 438Q230 438 238 431Q246 423 246 414Q246 404 239 397Q232 390 222 390V390Z" />
<glyph unicode="S" glyph-name="S" d="M94 6Q86 6 78 13Q70 20 70 30Q70 38 77 46Q84 54 94 54Q102 54 110 47Q118 39 118 30Q118 20 111 13Q104 6 94 6V6ZM158 6Q150 6 142 13Q134 20 134 30Q134 38 141 46Q148 54 158 54Q166 54 174 47Q182 39 182 30Q182 20
175 13Q168 6 158 6V6ZM222 6Q214 6 206 13Q198 20 198 30Q198 38 205 46Q212 54 222 54Q230 54 238 47Q246 39 246 30Q246 20 239 13Q232 6 222 6V6ZM30 70Q22 70 14 77Q6 84 6 94Q6 102 13 110Q20 118 30 118Q38 118 46 111Q54 103 54 94Q54 84 47 77Q40 70 30
70V70ZM286 70Q278 70 270 77Q262 84 262 94Q262 102 269 110Q276 118 286 118Q294 118 302 111Q310 103 310 94Q310 84 303 77Q296 70 286 70V70ZM286 134Q278 134 270 141Q262 148 262 158Q262 166 269 174Q276 182 286 182Q294 182 302 175Q310 167 310 158Q310
148 303 141Q296 134 286 134V134ZM94 198Q86 198 78 205Q70 212 70 222Q70 230 77 238Q84 246 94 246Q102 246 110 239Q118 231 118 222Q118 212 111 205Q104 198 94 198V198ZM158 198Q150 198 142 205Q134 212 134 222Q134 230 141 238Q148 246 158 246Q166 246
174 239Q182 231 182 222Q182 212 175 205Q168 198 158 198V198ZM222 198Q214 198 206 205Q198 212 198 222Q198 230 205 238Q212 246 222 246Q230 246 238 239Q246 231 246 222Q246 212 239 205Q232 198 222 198V198ZM30 262Q22 262 14 269Q6 276 6 286Q6 294
13 302Q20 310 30 310Q38 310 46 303Q54 295 54 286Q54 276 47 269Q40 262 30 262V262ZM30 326Q22 326 14 333Q6 340 6 350Q6 358 13 366Q20 374 30 374Q38 374 46 367Q54 359 54 350Q54 340 47 333Q40 326 30 326V326ZM286 326Q278 326 270 333Q262 340 262 350Q262
358 269 366Q276 374 286 374Q294 374 302 367Q310 359 310 350Q310 340 303 333Q296 326 286 326V326ZM94 390Q86 390 78 397Q70 404 70 414Q70 422 77 430Q84 438 94 438Q102 438 110 431Q118 423 118 414Q118 404 111 397Q104 390 94 390V390ZM158 390Q150 390
142 397Q134 404 134 414Q134 422 141 430Q148 438 158 438Q166 438 174 431Q182 423 182 414Q182 404 175 397Q168 390 158 390V390ZM222 390Q214 390 206 397Q198 404 198 414Q198 422 205 430Q212 438 222 438Q230 438 238 431Q246 423 246 414Q246 404 239
397Q232 390 222 390V390Z" />
<glyph unicode="T" glyph-name="T" d="M158 6Q150 6 142 13Q134 20 134 30Q134 38 141 46Q148 54 158 54Q166 54 174 47Q182 39 182 30Q182 20 175 13Q168 6 158 6V6ZM158 70Q150 70 142 77Q134 84 134 94Q134 102 141 110Q148 118 158 118Q166 118 174 111Q182
103 182 94Q182 84 175 77Q168 70 158 70V70ZM158 134Q150 134 142 141Q134 148 134 158Q134 166 141 174Q148 182 158 182Q166 182 174 175Q182 167 182 158Q182 148 175 141Q168 134 158 134V134ZM158 198Q150 198 142 205Q134 212 134 222Q134 230 141 238Q148
246 158 246Q166 246 174 239Q182 231 182 222Q182 212 175 205Q168 198 158 198V198ZM158 262Q150 262 142 269Q134 276 134 286Q134 294 141 302Q148 310 158 310Q166 310 174 303Q182 295 182 286Q182 276 175 269Q168 262 158 262V262ZM158 326Q150 326 142
333Q134 340 134 350Q134 358 141 366Q148 374 158 374Q166 374 174 367Q182 359 182 350Q182 340 175 333Q168 326 158 326V326ZM30 390Q22 390 14 397Q6 404 6 414Q6 422 13 430Q20 438 30 438Q38 438 46 431Q54 423 54 414Q54 404 47 397Q40 390 30 390V390ZM94
390Q86 390 78 397Q70 404 70 414Q70 422 77 430Q84 438 94 438Q102 438 110 431Q118 423 118 414Q118 404 111 397Q104 390 94 390V390ZM158 390Q150 390 142 397Q134 404 134 414Q134 422 141 430Q148 438 158 438Q166 438 174 431Q182 423 182 414Q182 404 175
397Q168 390 158 390V390ZM222 390Q214 390 206 397Q198 404 198 414Q198 422 205 430Q212 438 222 438Q230 438 238 431Q246 423 246 414Q246 404 239 397Q232 390 222 390V390ZM286 390Q278 390 270 397Q262 404 262 414Q262 422 269 430Q276 438 286 438Q294
438 302 431Q310 423 310 414Q310 404 303 397Q296 390 286 390V390Z" />
<glyph unicode="U" glyph-name="U" d="M94 6Q86 6 78 13Q70 20 70 30Q70 38 77 46Q84 54 94 54Q102 54 110 47Q118 39 118 30Q118 20 111 13Q104 6 94 6V6ZM158 6Q150 6 142 13Q134 20 134 30Q134 38 141 46Q148 54 158 54Q166 54 174 47Q182 39 182 30Q182 20
175 13Q168 6 158 6V6ZM222 6Q214 6 206 13Q198 20 198 30Q198 38 205 46Q212 54 222 54Q230 54 238 47Q246 39 246 30Q246 20 239 13Q232 6 222 6V6ZM30 70Q22 70 14 77Q6 84 6 94Q6 102 13 110Q20 118 30 118Q38 118 46 111Q54 103 54 94Q54 84 47 77Q40 70 30
70V70ZM286 70Q278 70 270 77Q262 84 262 94Q262 102 269 110Q276 118 286 118Q294 118 302 111Q310 103 310 94Q310 84 303 77Q296 70 286 70V70ZM30 134Q22 134 14 141Q6 148 6 158Q6 166 13 174Q20 182 30 182Q38 182 46 175Q54 167 54 158Q54 148 47 141Q40
134 30 134V134ZM286 134Q278 134 270 141Q262 148 262 158Q262 166 269 174Q276 182 286 182Q294 182 302 175Q310 167 310 158Q310 148 303 141Q296 134 286 134V134ZM30 198Q22 198 14 205Q6 212 6 222Q6 230 13 238Q20 246 30 246Q38 246 46 239Q54 231 54
222Q54 212 47 205Q40 198 30 198V198ZM286 198Q278 198 270 205Q262 212 262 222Q262 230 269 238Q276 246 286 246Q294 246 302 239Q310 231 310 222Q310 212 303 205Q296 198 286 198V198ZM30 262Q22 262 14 269Q6 276 6 286Q6 294 13 302Q20 310 30 310Q38
310 46 303Q54 295 54 286Q54 276 47 269Q40 262 30 262V262ZM286 262Q278 262 270 269Q262 276 262 286Q262 294 269 302Q276 310 286 310Q294 310 302 303Q310 295 310 286Q310 276 303 269Q296 262 286 262V262ZM30 326Q22 326 14 333Q6 340 6 350Q6 358 13
366Q20 374 30 374Q38 374 46 367Q54 359 54 350Q54 340 47 333Q40 326 30 326V326ZM286 326Q278 326 270 333Q262 340 262 350Q262 358 269 366Q276 374 286 374Q294 374 302 367Q310 359 310 350Q310 340 303 333Q296 326 286 326V326ZM30 390Q22 390 14 397Q6
404 6 414Q6 422 13 430Q20 438 30 438Q38 438 46 431Q54 423 54 414Q54 404 47 397Q40 390 30 390V390ZM286 390Q278 390 270 397Q262 404 262 414Q262 422 269 430Q276 438 286 438Q294 438 302 431Q310 423 310 414Q310 404 303 397Q296 390 286 390V390Z" />
<glyph unicode="V" glyph-name="V" d="M158 6Q150 6 142 13Q134 20 134 30Q134 38 141 46Q148 54 158 54Q166 54 174 47Q182 39 182 30Q182 20 175 13Q168 6 158 6V6ZM94 70Q86 70 78 77Q70 84 70 94Q70 102 77 110Q84 118 94 118Q102 118 110 111Q118 103 118
94Q118 84 111 77Q104 70 94 70V70ZM222 70Q214 70 206 77Q198 84 198 94Q198 102 205 110Q212 118 222 118Q230 118 238 111Q246 103 246 94Q246 84 239 77Q232 70 222 70V70ZM30 134Q22 134 14 141Q6 148 6 158Q6 166 13 174Q20 182 30 182Q38 182 46 175Q54
167 54 158Q54 148 47 141Q40 134 30 134V134ZM286 134Q278 134 270 141Q262 148 262 158Q262 166 269 174Q276 182 286 182Q294 182 302 175Q310 167 310 158Q310 148 303 141Q296 134 286 134V134ZM30 198Q22 198 14 205Q6 212 6 222Q6 230 13 238Q20 246 30
246Q38 246 46 239Q54 231 54 222Q54 212 47 205Q40 198 30 198V198ZM286 198Q278 198 270 205Q262 212 262 222Q262 230 269 238Q276 246 286 246Q294 246 302 239Q310 231 310 222Q310 212 303 205Q296 198 286 198V198ZM30 262Q22 262 14 269Q6 276 6 286Q6
294 13 302Q20 310 30 310Q38 310 46 303Q54 295 54 286Q54 276 47 269Q40 262 30 262V262ZM286 262Q278 262 270 269Q262 276 262 286Q262 294 269 302Q276 310 286 310Q294 310 302 303Q310 295 310 286Q310 276 303 269Q296 262 286 262V262ZM30 326Q22 326
14 333Q6 340 6 350Q6 358 13 366Q20 374 30 374Q38 374 46 367Q54 359 54 350Q54 340 47 333Q40 326 30 326V326ZM286 326Q278 326 270 333Q262 340 262 350Q262 358 269 366Q276 374 286 374Q294 374 302 367Q310 359 310 350Q310 340 303 333Q296 326 286 326V326ZM30
390Q22 390 14 397Q6 404 6 414Q6 422 13 430Q20 438 30 438Q38 438 46 431Q54 423 54 414Q54 404 47 397Q40 390 30 390V390ZM286 390Q278 390 270 397Q262 404 262 414Q262 422 269 430Q276 438 286 438Q294 438 302 431Q310 423 310 414Q310 404 303 397Q296
390 286 390V390Z" />
<glyph unicode="W" glyph-name="W" d="M94 6Q86 6 78 13Q70 20 70 30Q70 38 77 46Q84 54 94 54Q102 54 110 47Q118 39 118 30Q118 20 111 13Q104 6 94 6V6ZM222 6Q214 6 206 13Q198 20 198 30Q198 38 205 46Q212 54 222 54Q230 54 238 47Q246 39 246 30Q246 20
239 13Q232 6 222 6V6ZM30 70Q22 70 14 77Q6 84 6 94Q6 102 13 110Q20 118 30 118Q38 118 46 111Q54 103 54 94Q54 84 47 77Q40 70 30 70V70ZM158 70Q150 70 142 77Q134 84 134 94Q134 102 141 110Q148 118 158 118Q166 118 174 111Q182 103 182 94Q182 84 175
77Q168 70 158 70V70ZM286 70Q278 70 270 77Q262 84 262 94Q262 102 269 110Q276 118 286 118Q294 118 302 111Q310 103 310 94Q310 84 303 77Q296 70 286 70V70ZM30 134Q22 134 14 141Q6 148 6 158Q6 166 13 174Q20 182 30 182Q38 182 46 175Q54 167 54 158Q54
148 47 141Q40 134 30 134V134ZM158 134Q150 134 142 141Q134 148 134 158Q134 166 141 174Q148 182 158 182Q166 182 174 175Q182 167 182 158Q182 148 175 141Q168 134 158 134V134ZM286 134Q278 134 270 141Q262 148 262 158Q262 166 269 174Q276 182 286 182Q294
182 302 175Q310 167 310 158Q310 148 303 141Q296 134 286 134V134ZM30 198Q22 198 14 205Q6 212 6 222Q6 230 13 238Q20 246 30 246Q38 246 46 239Q54 231 54 222Q54 212 47 205Q40 198 30 198V198ZM286 198Q278 198 270 205Q262 212 262 222Q262 230 269 238Q276
246 286 246Q294 246 302 239Q310 231 310 222Q310 212 303 205Q296 198 286 198V198ZM30 262Q22 262 14 269Q6 276 6 286Q6 294 13 302Q20 310 30 310Q38 310 46 303Q54 295 54 286Q54 276 47 269Q40 262 30 262V262ZM286 262Q278 262 270 269Q262 276 262 286Q262
294 269 302Q276 310 286 310Q294 310 302 303Q310 295 310 286Q310 276 303 269Q296 262 286 262V262ZM30 326Q22 326 14 333Q6 340 6 350Q6 358 13 366Q20 374 30 374Q38 374 46 367Q54 359 54 350Q54 340 47 333Q40 326 30 326V326ZM286 326Q278 326 270 333Q262
340 262 350Q262 358 269 366Q276 374 286 374Q294 374 302 367Q310 359 310 350Q310 340 303 333Q296 326 286 326V326ZM30 390Q22 390 14 397Q6 404 6 414Q6 422 13 430Q20 438 30 438Q38 438 46 431Q54 423 54 414Q54 404 47 397Q40 390 30 390V390ZM286 390Q278
390 270 397Q262 404 262 414Q262 422 269 430Q276 438 286 438Q294 438 302 431Q310 423 310 414Q310 404 303 397Q296 390 286 390V390Z" />
<glyph unicode="X" glyph-name="X" d="M30 6Q22 6 14 13Q6 20 6 30Q6 38 13 46Q20 54 30 54Q38 54 46 47Q54 39 54 30Q54 20 47 13Q40 6 30 6V6ZM286 6Q278 6 270 13Q262 20 262 30Q262 38 269 46Q276 54 286 54Q294 54 302 47Q310 39 310 30Q310 20 303 13Q296
6 286 6V6ZM30 70Q22 70 14 77Q6 84 6 94Q6 102 13 110Q20 118 30 118Q38 118 46 111Q54 103 54 94Q54 84 47 77Q40 70 30 70V70ZM286 70Q278 70 270 77Q262 84 262 94Q262 102 269 110Q276 118 286 118Q294 118 302 111Q310 103 310 94Q310 84 303 77Q296 70 286
70V70ZM94 134Q86 134 78 141Q70 148 70 158Q70 166 77 174Q84 182 94 182Q102 182 110 175Q118 167 118 158Q118 148 111 141Q104 134 94 134V134ZM222 134Q214 134 206 141Q198 148 198 158Q198 166 205 174Q212 182 222 182Q230 182 238 175Q246 167 246 158Q246
148 239 141Q232 134 222 134V134ZM158 198Q150 198 142 205Q134 212 134 222Q134 230 141 238Q148 246 158 246Q166 246 174 239Q182 231 182 222Q182 212 175 205Q168 198 158 198V198ZM94 262Q86 262 78 269Q70 276 70 286Q70 294 77 302Q84 310 94 310Q102
310 110 303Q118 295 118 286Q118 276 111 269Q104 262 94 262V262ZM222 262Q214 262 206 269Q198 276 198 286Q198 294 205 302Q212 310 222 310Q230 310 238 303Q246 295 246 286Q246 276 239 269Q232 262 222 262V262ZM30 326Q22 326 14 333Q6 340 6 350Q6 358
13 366Q20 374 30 374Q38 374 46 367Q54 359 54 350Q54 340 47 333Q40 326 30 326V326ZM286 326Q278 326 270 333Q262 340 262 350Q262 358 269 366Q276 374 286 374Q294 374 302 367Q310 359 310 350Q310 340 303 333Q296 326 286 326V326ZM30 390Q22 390 14 397Q6
404 6 414Q6 422 13 430Q20 438 30 438Q38 438 46 431Q54 423 54 414Q54 404 47 397Q40 390 30 390V390ZM286 390Q278 390 270 397Q262 404 262 414Q262 422 269 430Q276 438 286 438Q294 438 302 431Q310 423 310 414Q310 404 303 397Q296 390 286 390V390Z" />
<glyph unicode="Y" glyph-name="Y" d="M158 6Q150 6 142 13Q134 20 134 30Q134 38 141 46Q148 54 158 54Q166 54 174 47Q182 39 182 30Q182 20 175 13Q168 6 158 6V6ZM158 70Q150 70 142 77Q134 84 134 94Q134 102 141 110Q148 118 158 118Q166 118 174 111Q182
103 182 94Q182 84 175 77Q168 70 158 70V70ZM158 134Q150 134 142 141Q134 148 134 158Q134 166 141 174Q148 182 158 182Q166 182 174 175Q182 167 182 158Q182 148 175 141Q168 134 158 134V134ZM158 198Q150 198 142 205Q134 212 134 222Q134 230 141 238Q148
246 158 246Q166 246 174 239Q182 231 182 222Q182 212 175 205Q168 198 158 198V198ZM94 262Q86 262 78 269Q70 276 70 286Q70 294 77 302Q84 310 94 310Q102 310 110 303Q118 295 118 286Q118 276 111 269Q104 262 94 262V262ZM222 262Q214 262 206 269Q198 276
198 286Q198 294 205 302Q212 310 222 310Q230 310 238 303Q246 295 246 286Q246 276 239 269Q232 262 222 262V262ZM30 326Q22 326 14 333Q6 340 6 350Q6 358 13 366Q20 374 30 374Q38 374 46 367Q54 359 54 350Q54 340 47 333Q40 326 30 326V326ZM286 326Q278
326 270 333Q262 340 262 350Q262 358 269 366Q276 374 286 374Q294 374 302 367Q310 359 310 350Q310 340 303 333Q296 326 286 326V326ZM30 390Q22 390 14 397Q6 404 6 414Q6 422 13 430Q20 438 30 438Q38 438 46 431Q54 423 54 414Q54 404 47 397Q40 390 30
390V390ZM286 390Q278 390 270 397Q262 404 262 414Q262 422 269 430Q276 438 286 438Q294 438 302 431Q310 423 310 414Q310 404 303 397Q296 390 286 390V390Z" />
<glyph unicode="Z" glyph-name="Z" d="M30 6Q22 6 14 13Q6 20 6 30Q6 38 13 46Q20 54 30 54Q38 54 46 47Q54 39 54 30Q54 20 47 13Q40 6 30 6V6ZM94 6Q86 6 78 13Q70 20 70 30Q70 38 77 46Q84 54 94 54Q102 54 110 47Q118 39 118 30Q118 20 111 13Q104 6 94 6V6ZM158
6Q150 6 142 13Q134 20 134 30Q134 38 141 46Q148 54 158 54Q166 54 174 47Q182 39 182 30Q182 20 175 13Q168 6 158 6V6ZM222 6Q214 6 206 13Q198 20 198 30Q198 38 205 46Q212 54 222 54Q230 54 238 47Q246 39 246 30Q246 20 239 13Q232 6 222 6V6ZM286 6Q278
6 270 13Q262 20 262 30Q262 38 269 46Q276 54 286 54Q294 54 302 47Q310 39 310 30Q310 20 303 13Q296 6 286 6V6ZM30 70Q22 70 14 77Q6 84 6 94Q6 102 13 110Q20 118 30 118Q38 118 46 111Q54 103 54 94Q54 84 47 77Q40 70 30 70V70ZM94 134Q86 134 78 141Q70
148 70 158Q70 166 77 174Q84 182 94 182Q102 182 110 175Q118 167 118 158Q118 148 111 141Q104 134 94 134V134ZM158 198Q150 198 142 205Q134 212 134 222Q134 230 141 238Q148 246 158 246Q166 246 174 239Q182 231 182 222Q182 212 175 205Q168 198 158 198V198ZM222
262Q214 262 206 269Q198 276 198 286Q198 294 205 302Q212 310 222 310Q230 310 238 303Q246 295 246 286Q246 276 239 269Q232 262 222 262V262ZM286 326Q278 326 270 333Q262 340 262 350Q262 358 269 366Q276 374 286 374Q294 374 302 367Q310 359 310 350Q310
340 303 333Q296 326 286 326V326ZM30 390Q22 390 14 397Q6 404 6 414Q6 422 13 430Q20 438 30 438Q38 438 46 431Q54 423 54 414Q54 404 47 397Q40 390 30 390V390ZM94 390Q86 390 78 397Q70 404 70 414Q70 422 77 430Q84 438 94 438Q102 438 110 431Q118 423
118 414Q118 404 111 397Q104 390 94 390V390ZM158 390Q150 390 142 397Q134 404 134 414Q134 422 141 430Q148 438 158 438Q166 438 174 431Q182 423 182 414Q182 404 175 397Q168 390 158 390V390ZM222 390Q214 390 206 397Q198 404 198 414Q198 422 205 430Q212
438 222 438Q230 438 238 431Q246 423 246 414Q246 404 239 397Q232 390 222 390V390ZM286 390Q278 390 270 397Q262 404 262 414Q262 422 269 430Q276 438 286 438Q294 438 302 431Q310 423 310 414Q310 404 303 397Q296 390 286 390V390Z" />
<glyph unicode="[" glyph-name="bracketleft" horiz-adv-x="191" d="M30 6Q22 6 14 13Q6 20 6 30Q6 38 13 46Q20 54 30 54Q38 54 46 47Q54 39 54 30Q54 20 47 13Q40 6 30 6V6ZM94 6Q86 6 78 13Q70 20 70 30Q70 38 77 46Q84 54 94 54Q102 54 110 47Q118 39 118
30Q118 20 111 13Q104 6 94 6V6ZM30 70Q22 70 14 77Q6 84 6 94Q6 102 13 110Q20 118 30 118Q38 118 46 111Q54 103 54 94Q54 84 47 77Q40 70 30 70V70ZM30 134Q22 134 14 141Q6 148 6 158Q6 166 13 174Q20 182 30 182Q38 182 46 175Q54 167 54 158Q54 148 47 141Q40
134 30 134V134ZM30 198Q22 198 14 205Q6 212 6 222Q6 230 13 238Q20 246 30 246Q38 246 46 239Q54 231 54 222Q54 212 47 205Q40 198 30 198V198ZM30 262Q22 262 14 269Q6 276 6 286Q6 294 13 302Q20 310 30 310Q38 310 46 303Q54 295 54 286Q54 276 47 269Q40
262 30 262V262ZM30 326Q22 326 14 333Q6 340 6 350Q6 358 13 366Q20 374 30 374Q38 374 46 367Q54 359 54 350Q54 340 47 333Q40 326 30 326V326ZM30 390Q22 390 14 397Q6 404 6 414Q6 422 13 430Q20 438 30 438Q38 438 46 431Q54 423 54 414Q54 404 47 397Q40
390 30 390V390ZM94 390Q86 390 78 397Q70 404 70 414Q70 422 77 430Q84 438 94 438Q102 438 110 431Q118 423 118 414Q118 404 111 397Q104 390 94 390V390Z" />
<glyph unicode="\" glyph-name="backslash" d="M286 6Q278 6 270 13Q262 20 262 30Q262 38 269 46Q276 54 286 54Q294 54 302 47Q310 39 310 30Q310 20 303 13Q296 6 286 6V6ZM286 70Q278 70 270 77Q262 84 262 94Q262 102 269 110Q276 118 286 118Q294 118 302
111Q310 103 310 94Q310 84 303 77Q296 70 286 70V70ZM222 134Q214 134 206 141Q198 148 198 158Q198 166 205 174Q212 182 222 182Q230 182 238 175Q246 167 246 158Q246 148 239 141Q232 134 222 134V134ZM158 198Q150 198 142 205Q134 212 134 222Q134 230 141
238Q148 246 158 246Q166 246 174 239Q182 231 182 222Q182 212 175 205Q168 198 158 198V198ZM94 262Q86 262 78 269Q70 276 70 286Q70 294 77 302Q84 310 94 310Q102 310 110 303Q118 295 118 286Q118 276 111 269Q104 262 94 262V262ZM30 326Q22 326 14 333Q6
340 6 350Q6 358 13 366Q20 374 30 374Q38 374 46 367Q54 359 54 350Q54 340 47 333Q40 326 30 326V326ZM30 390Q22 390 14 397Q6 404 6 414Q6 422 13 430Q20 438 30 438Q38 438 46 431Q54 423 54 414Q54 404 47 397Q40 390 30 390V390Z" />
<glyph unicode="]" glyph-name="bracketright" horiz-adv-x="191" d="M30 6Q22 6 14 13Q6 20 6 30Q6 38 13 46Q20 54 30 54Q38 54 46 47Q54 39 54 30Q54 20 47 13Q40 6 30 6V6ZM94 6Q86 6 78 13Q70 20 70 30Q70 38 77 46Q84 54 94 54Q102 54 110 47Q118 39 118
30Q118 20 111 13Q104 6 94 6V6ZM94 70Q86 70 78 77Q70 84 70 94Q70 102 77 110Q84 118 94 118Q102 118 110 111Q118 103 118 94Q118 84 111 77Q104 70 94 70V70ZM94 134Q86 134 78 141Q70 148 70 158Q70 166 77 174Q84 182 94 182Q102 182 110 175Q118 167 118
158Q118 148 111 141Q104 134 94 134V134ZM94 198Q86 198 78 205Q70 212 70 222Q70 230 77 238Q84 246 94 246Q102 246 110 239Q118 231 118 222Q118 212 111 205Q104 198 94 198V198ZM94 262Q86 262 78 269Q70 276 70 286Q70 294 77 302Q84 310 94 310Q102 310
110 303Q118 295 118 286Q118 276 111 269Q104 262 94 262V262ZM94 326Q86 326 78 333Q70 340 70 350Q70 358 77 366Q84 374 94 374Q102 374 110 367Q118 359 118 350Q118 340 111 333Q104 326 94 326V326ZM30 390Q22 390 14 397Q6 404 6 414Q6 422 13 430Q20 438
30 438Q38 438 46 431Q54 423 54 414Q54 404 47 397Q40 390 30 390V390ZM94 390Q86 390 78 397Q70 404 70 414Q70 422 77 430Q84 438 94 438Q102 438 110 431Q118 423 118 414Q118 404 111 397Q104 390 94 390V390Z" />
<glyph unicode="^" glyph-name="asciicircum" horiz-adv-x="384" d="M94 326Q86 326 78 333Q70 340 70 350Q70 358 77 366Q84 374 94 374Q102 374 110 367Q118 359 118 350Q118 340 111 333Q104 326 94 326V326ZM222 326Q214 326 206 333Q198 340 198 350Q198
358 205 366Q212 374 222 374Q230 374 238 367Q246 359 246 350Q246 340 239 333Q232 326 222 326V326ZM158 390Q150 390 142 397Q134 404 134 414Q134 422 141 430Q148 438 158 438Q166 438 174 431Q182 423 182 414Q182 404 175 397Q168 390 158 390V390Z" />
<glyph unicode="_" glyph-name="underscore" d="M30 6Q22 6 14 13Q6 20 6 30Q6 38 13 46Q20 54 30 54Q38 54 46 47Q54 39 54 30Q54 20 47 13Q40 6 30 6V6ZM94 6Q86 6 78 13Q70 20 70 30Q70 38 77 46Q84 54 94 54Q102 54 110 47Q118 39 118 30Q118 20 111 13Q104
6 94 6V6ZM158 6Q150 6 142 13Q134 20 134 30Q134 38 141 46Q148 54 158 54Q166 54 174 47Q182 39 182 30Q182 20 175 13Q168 6 158 6V6ZM222 6Q214 6 206 13Q198 20 198 30Q198 38 205 46Q212 54 222 54Q230 54 238 47Q246 39 246 30Q246 20 239 13Q232 6 222
6V6ZM286 6Q278 6 270 13Q262 20 262 30Q262 38 269 46Q276 54 286 54Q294 54 302 47Q310 39 310 30Q310 20 303 13Q296 6 286 6V6Z" />
<glyph unicode="`" glyph-name="grave" horiz-adv-x="384" d="M222 326Q214 326 206 333Q198 340 198 350Q198 358 205 366Q212 374 222 374Q230 374 238 367Q246 359 246 350Q246 340 239 333Q232 326 222 326V326ZM158 390Q150 390 142 397Q134 404 134 414Q134
422 141 430Q148 438 158 438Q166 438 174 431Q182 423 182 414Q182 404 175 397Q168 390 158 390V390Z" />
<glyph unicode="a" glyph-name="a" d="M94 6Q86 6 78 13Q70 20 70 30Q70 38 77 46Q84 54 94 54Q102 54 110 47Q118 39 118 30Q118 20 111 13Q104 6 94 6V6ZM158 6Q150 6 142 13Q134 20 134 30Q134 38 141 46Q148 54 158 54Q166 54 174 47Q182 39 182 30Q182 20
175 13Q168 6 158 6V6ZM222 6Q214 6 206 13Q198 20 198 30Q198 38 205 46Q212 54 222 54Q230 54 238 47Q246 39 246 30Q246 20 239 13Q232 6 222 6V6ZM286 6Q278 6 270 13Q262 20 262 30Q262 38 269 46Q276 54 286 54Q294 54 302 47Q310 39 310 30Q310 20 303 13Q296
6 286 6V6ZM30 70Q22 70 14 77Q6 84 6 94Q6 102 13 110Q20 118 30 118Q38 118 46 111Q54 103 54 94Q54 84 47 77Q40 70 30 70V70ZM286 70Q278 70 270 77Q262 84 262 94Q262 102 269 110Q276 118 286 118Q294 118 302 111Q310 103 310 94Q310 84 303 77Q296 70 286
70V70ZM94 134Q86 134 78 141Q70 148 70 158Q70 166 77 174Q84 182 94 182Q102 182 110 175Q118 167 118 158Q118 148 111 141Q104 134 94 134V134ZM158 134Q150 134 142 141Q134 148 134 158Q134 166 141 174Q148 182 158 182Q166 182 174 175Q182 167 182 158Q182
148 175 141Q168 134 158 134V134ZM222 134Q214 134 206 141Q198 148 198 158Q198 166 205 174Q212 182 222 182Q230 182 238 175Q246 167 246 158Q246 148 239 141Q232 134 222 134V134ZM286 134Q278 134 270 141Q262 148 262 158Q262 166 269 174Q276 182 286
182Q294 182 302 175Q310 167 310 158Q310 148 303 141Q296 134 286 134V134ZM286 198Q278 198 270 205Q262 212 262 222Q262 230 269 238Q276 246 286 246Q294 246 302 239Q310 231 310 222Q310 212 303 205Q296 198 286 198V198ZM94 262Q86 262 78 269Q70 276
70 286Q70 294 77 302Q84 310 94 310Q102 310 110 303Q118 295 118 286Q118 276 111 269Q104 262 94 262V262ZM158 262Q150 262 142 269Q134 276 134 286Q134 294 141 302Q148 310 158 310Q166 310 174 303Q182 295 182 286Q182 276 175 269Q168 262 158 262V262ZM222
262Q214 262 206 269Q198 276 198 286Q198 294 205 302Q212 310 222 310Q230 310 238 303Q246 295 246 286Q246 276 239 269Q232 262 222 262V262Z" />
<glyph unicode="b" glyph-name="b" d="M30 6Q22 6 14 13Q6 20 6 30Q6 38 13 46Q20 54 30 54Q38 54 46 47Q54 39 54 30Q54 20 47 13Q40 6 30 6V6ZM94 6Q86 6 78 13Q70 20 70 30Q70 38 77 46Q84 54 94 54Q102 54 110 47Q118 39 118 30Q118 20 111 13Q104 6 94 6V6ZM158
6Q150 6 142 13Q134 20 134 30Q134 38 141 46Q148 54 158 54Q166 54 174 47Q182 39 182 30Q182 20 175 13Q168 6 158 6V6ZM222 6Q214 6 206 13Q198 20 198 30Q198 38 205 46Q212 54 222 54Q230 54 238 47Q246 39 246 30Q246 20 239 13Q232 6 222 6V6ZM30 70Q22
70 14 77Q6 84 6 94Q6 102 13 110Q20 118 30 118Q38 118 46 111Q54 103 54 94Q54 84 47 77Q40 70 30 70V70ZM286 70Q278 70 270 77Q262 84 262 94Q262 102 269 110Q276 118 286 118Q294 118 302 111Q310 103 310 94Q310 84 303 77Q296 70 286 70V70ZM30 134Q22
134 14 141Q6 148 6 158Q6 166 13 174Q20 182 30 182Q38 182 46 175Q54 167 54 158Q54 148 47 141Q40 134 30 134V134ZM286 134Q278 134 270 141Q262 148 262 158Q262 166 269 174Q276 182 286 182Q294 182 302 175Q310 167 310 158Q310 148 303 141Q296 134 286
134V134ZM30 198Q22 198 14 205Q6 212 6 222Q6 230 13 238Q20 246 30 246Q38 246 46 239Q54 231 54 222Q54 212 47 205Q40 198 30 198V198ZM286 198Q278 198 270 205Q262 212 262 222Q262 230 269 238Q276 246 286 246Q294 246 302 239Q310 231 310 222Q310 212
303 205Q296 198 286 198V198ZM30 262Q22 262 14 269Q6 276 6 286Q6 294 13 302Q20 310 30 310Q38 310 46 303Q54 295 54 286Q54 276 47 269Q40 262 30 262V262ZM94 262Q86 262 78 269Q70 276 70 286Q70 294 77 302Q84 310 94 310Q102 310 110 303Q118 295 118
286Q118 276 111 269Q104 262 94 262V262ZM158 262Q150 262 142 269Q134 276 134 286Q134 294 141 302Q148 310 158 310Q166 310 174 303Q182 295 182 286Q182 276 175 269Q168 262 158 262V262ZM222 262Q214 262 206 269Q198 276 198 286Q198 294 205 302Q212
310 222 310Q230 310 238 303Q246 295 246 286Q246 276 239 269Q232 262 222 262V262ZM30 326Q22 326 14 333Q6 340 6 350Q6 358 13 366Q20 374 30 374Q38 374 46 367Q54 359 54 350Q54 340 47 333Q40 326 30 326V326ZM30 390Q22 390 14 397Q6 404 6 414Q6 422
13 430Q20 438 30 438Q38 438 46 431Q54 423 54 414Q54 404 47 397Q40 390 30 390V390Z" />
<glyph unicode="c" glyph-name="c" d="M94 6Q86 6 78 13Q70 20 70 30Q70 38 77 46Q84 54 94 54Q102 54 110 47Q118 39 118 30Q118 20 111 13Q104 6 94 6V6ZM158 6Q150 6 142 13Q134 20 134 30Q134 38 141 46Q148 54 158 54Q166 54 174 47Q182 39 182 30Q182 20
175 13Q168 6 158 6V6ZM222 6Q214 6 206 13Q198 20 198 30Q198 38 205 46Q212 54 222 54Q230 54 238 47Q246 39 246 30Q246 20 239 13Q232 6 222 6V6ZM30 70Q22 70 14 77Q6 84 6 94Q6 102 13 110Q20 118 30 118Q38 118 46 111Q54 103 54 94Q54 84 47 77Q40 70 30
70V70ZM286 70Q278 70 270 77Q262 84 262 94Q262 102 269 110Q276 118 286 118Q294 118 302 111Q310 103 310 94Q310 84 303 77Q296 70 286 70V70ZM30 134Q22 134 14 141Q6 148 6 158Q6 166 13 174Q20 182 30 182Q38 182 46 175Q54 167 54 158Q54 148 47 141Q40
134 30 134V134ZM30 198Q22 198 14 205Q6 212 6 222Q6 230 13 238Q20 246 30 246Q38 246 46 239Q54 231 54 222Q54 212 47 205Q40 198 30 198V198ZM286 198Q278 198 270 205Q262 212 262 222Q262 230 269 238Q276 246 286 246Q294 246 302 239Q310 231 310 222Q310
212 303 205Q296 198 286 198V198ZM94 262Q86 262 78 269Q70 276 70 286Q70 294 77 302Q84 310 94 310Q102 310 110 303Q118 295 118 286Q118 276 111 269Q104 262 94 262V262ZM158 262Q150 262 142 269Q134 276 134 286Q134 294 141 302Q148 310 158 310Q166 310
174 303Q182 295 182 286Q182 276 175 269Q168 262 158 262V262ZM222 262Q214 262 206 269Q198 276 198 286Q198 294 205 302Q212 310 222 310Q230 310 238 303Q246 295 246 286Q246 276 239 269Q232 262 222 262V262Z" />
<glyph unicode="d" glyph-name="d" d="M94 6Q86 6 78 13Q70 20 70 30Q70 38 77 46Q84 54 94 54Q102 54 110 47Q118 39 118 30Q118 20 111 13Q104 6 94 6V6ZM158 6Q150 6 142 13Q134 20 134 30Q134 38 141 46Q148 54 158 54Q166 54 174 47Q182 39 182 30Q182 20
175 13Q168 6 158 6V6ZM222 6Q214 6 206 13Q198 20 198 30Q198 38 205 46Q212 54 222 54Q230 54 238 47Q246 39 246 30Q246 20 239 13Q232 6 222 6V6ZM286 6Q278 6 270 13Q262 20 262 30Q262 38 269 46Q276 54 286 54Q294 54 302 47Q310 39 310 30Q310 20 303 13Q296
6 286 6V6ZM30 70Q22 70 14 77Q6 84 6 94Q6 102 13 110Q20 118 30 118Q38 118 46 111Q54 103 54 94Q54 84 47 77Q40 70 30 70V70ZM286 70Q278 70 270 77Q262 84 262 94Q262 102 269 110Q276 118 286 118Q294 118 302 111Q310 103 310 94Q310 84 303 77Q296 70 286
70V70ZM30 134Q22 134 14 141Q6 148 6 158Q6 166 13 174Q20 182 30 182Q38 182 46 175Q54 167 54 158Q54 148 47 141Q40 134 30 134V134ZM286 134Q278 134 270 141Q262 148 262 158Q262 166 269 174Q276 182 286 182Q294 182 302 175Q310 167 310 158Q310 148 303
141Q296 134 286 134V134ZM30 198Q22 198 14 205Q6 212 6 222Q6 230 13 238Q20 246 30 246Q38 246 46 239Q54 231 54 222Q54 212 47 205Q40 198 30 198V198ZM286 198Q278 198 270 205Q262 212 262 222Q262 230 269 238Q276 246 286 246Q294 246 302 239Q310 231
310 222Q310 212 303 205Q296 198 286 198V198ZM94 262Q86 262 78 269Q70 276 70 286Q70 294 77 302Q84 310 94 310Q102 310 110 303Q118 295 118 286Q118 276 111 269Q104 262 94 262V262ZM158 262Q150 262 142 269Q134 276 134 286Q134 294 141 302Q148 310 158
310Q166 310 174 303Q182 295 182 286Q182 276 175 269Q168 262 158 262V262ZM222 262Q214 262 206 269Q198 276 198 286Q198 294 205 302Q212 310 222 310Q230 310 238 303Q246 295 246 286Q246 276 239 269Q232 262 222 262V262ZM286 262Q278 262 270 269Q262
276 262 286Q262 294 269 302Q276 310 286 310Q294 310 302 303Q310 295 310 286Q310 276 303 269Q296 262 286 262V262ZM286 326Q278 326 270 333Q262 340 262 350Q262 358 269 366Q276 374 286 374Q294 374 302 367Q310 359 310 350Q310 340 303 333Q296 326
286 326V326ZM286 390Q278 390 270 397Q262 404 262 414Q262 422 269 430Q276 438 286 438Q294 438 302 431Q310 423 310 414Q310 404 303 397Q296 390 286 390V390Z" />
<glyph unicode="e" glyph-name="e" d="M94 6Q86 6 78 13Q70 20 70 30Q70 38 77 46Q84 54 94 54Q102 54 110 47Q118 39 118 30Q118 20 111 13Q104 6 94 6V6ZM158 6Q150 6 142 13Q134 20 134 30Q134 38 141 46Q148 54 158 54Q166 54 174 47Q182 39 182 30Q182 20
175 13Q168 6 158 6V6ZM222 6Q214 6 206 13Q198 20 198 30Q198 38 205 46Q212 54 222 54Q230 54 238 47Q246 39 246 30Q246 20 239 13Q232 6 222 6V6ZM30 70Q22 70 14 77Q6 84 6 94Q6 102 13 110Q20 118 30 118Q38 118 46 111Q54 103 54 94Q54 84 47 77Q40 70 30
70V70ZM30 134Q22 134 14 141Q6 148 6 158Q6 166 13 174Q20 182 30 182Q38 182 46 175Q54 167 54 158Q54 148 47 141Q40 134 30 134V134ZM94 134Q86 134 78 141Q70 148 70 158Q70 166 77 174Q84 182 94 182Q102 182 110 175Q118 167 118 158Q118 148 111 141Q104
134 94 134V134ZM158 134Q150 134 142 141Q134 148 134 158Q134 166 141 174Q148 182 158 182Q166 182 174 175Q182 167 182 158Q182 148 175 141Q168 134 158 134V134ZM222 134Q214 134 206 141Q198 148 198 158Q198 166 205 174Q212 182 222 182Q230 182 238
175Q246 167 246 158Q246 148 239 141Q232 134 222 134V134ZM286 134Q278 134 270 141Q262 148 262 158Q262 166 269 174Q276 182 286 182Q294 182 302 175Q310 167 310 158Q310 148 303 141Q296 134 286 134V134ZM30 198Q22 198 14 205Q6 212 6 222Q6 230 13 238Q20
246 30 246Q38 246 46 239Q54 231 54 222Q54 212 47 205Q40 198 30 198V198ZM286 198Q278 198 270 205Q262 212 262 222Q262 230 269 238Q276 246 286 246Q294 246 302 239Q310 231 310 222Q310 212 303 205Q296 198 286 198V198ZM94 262Q86 262 78 269Q70 276
70 286Q70 294 77 302Q84 310 94 310Q102 310 110 303Q118 295 118 286Q118 276 111 269Q104 262 94 262V262ZM158 262Q150 262 142 269Q134 276 134 286Q134 294 141 302Q148 310 158 310Q166 310 174 303Q182 295 182 286Q182 276 175 269Q168 262 158 262V262ZM222
262Q214 262 206 269Q198 276 198 286Q198 294 205 302Q212 310 222 310Q230 310 238 303Q246 295 246 286Q246 276 239 269Q232 262 222 262V262Z" />
<glyph unicode="f" glyph-name="f" d="M94 6Q86 6 78 13Q70 20 70 30Q70 38 77 46Q84 54 94 54Q102 54 110 47Q118 39 118 30Q118 20 111 13Q104 6 94 6V6ZM94 70Q86 70 78 77Q70 84 70 94Q70 102 77 110Q84 118 94 118Q102 118 110 111Q118 103 118 94Q118 84
111 77Q104 70 94 70V70ZM94 134Q86 134 78 141Q70 148 70 158Q70 166 77 174Q84 182 94 182Q102 182 110 175Q118 167 118 158Q118 148 111 141Q104 134 94 134V134ZM30 198Q22 198 14 205Q6 212 6 222Q6 230 13 238Q20 246 30 246Q38 246 46 239Q54 231 54 222Q54
212 47 205Q40 198 30 198V198ZM94 198Q86 198 78 205Q70 212 70 222Q70 230 77 238Q84 246 94 246Q102 246 110 239Q118 231 118 222Q118 212 111 205Q104 198 94 198V198ZM158 198Q150 198 142 205Q134 212 134 222Q134 230 141 238Q148 246 158 246Q166 246
174 239Q182 231 182 222Q182 212 175 205Q168 198 158 198V198ZM94 262Q86 262 78 269Q70 276 70 286Q70 294 77 302Q84 310 94 310Q102 310 110 303Q118 295 118 286Q118 276 111 269Q104 262 94 262V262ZM94 326Q86 326 78 333Q70 340 70 350Q70 358 77 366Q84
374 94 374Q102 374 110 367Q118 359 118 350Q118 340 111 333Q104 326 94 326V326ZM286 326Q278 326 270 333Q262 340 262 350Q262 358 269 366Q276 374 286 374Q294 374 302 367Q310 359 310 350Q310 340 303 333Q296 326 286 326V326ZM158 390Q150 390 142 397Q134
404 134 414Q134 422 141 430Q148 438 158 438Q166 438 174 431Q182 423 182 414Q182 404 175 397Q168 390 158 390V390ZM222 390Q214 390 206 397Q198 404 198 414Q198 422 205 430Q212 438 222 438Q230 438 238 431Q246 423 246 414Q246 404 239 397Q232 390
222 390V390Z" />
<glyph unicode="g" glyph-name="g" d="M94 -185Q86 -185 78 -178Q70 -171 70 -161Q70 -153 77 -145Q84 -137 94 -137Q102 -137 110 -144Q118 -152 118 -161Q118 -171 111 -178Q104 -185 94 -185V-185ZM158 -185Q150 -185 142 -178Q134 -171 134 -161Q134 -153
141 -145Q148 -137 158 -137Q166 -137 174 -144Q182 -152 182 -161Q182 -171 175 -178Q168 -185 158 -185V-185ZM222 -185Q214 -185 206 -178Q198 -171 198 -161Q198 -153 205 -145Q212 -137 222 -137Q230 -137 238 -144Q246 -152 246 -161Q246 -171 239 -178Q232
-185 222 -185V-185ZM30 -121Q22 -121 14 -114Q6 -107 6 -97Q6 -89 13 -81Q20 -73 30 -73Q38 -73 46 -80Q54 -88 54 -97Q54 -107 47 -114Q40 -121 30 -121V-121ZM286 -121Q278 -121 270 -114Q262 -107 262 -97Q262 -89 269 -81Q276 -73 286 -73Q294 -73 302 -80Q310
-88 310 -97Q310 -107 303 -114Q296 -121 286 -121V-121ZM286 -57Q278 -57 270 -50Q262 -43 262 -33Q262 -25 269 -17Q276 -9 286 -9Q294 -9 302 -16Q310 -24 310 -33Q310 -43 303 -50Q296 -57 286 -57V-57ZM94 6Q86 6 78 13Q70 20 70 30Q70 38 77 46Q84 54 94
54Q102 54 110 47Q118 39 118 30Q118 20 111 13Q104 6 94 6V6ZM158 6Q150 6 142 13Q134 20 134 30Q134 38 141 46Q148 54 158 54Q166 54 174 47Q182 39 182 30Q182 20 175 13Q168 6 158 6V6ZM222 6Q214 6 206 13Q198 20 198 30Q198 38 205 46Q212 54 222 54Q230
54 238 47Q246 39 246 30Q246 20 239 13Q232 6 222 6V6ZM286 6Q278 6 270 13Q262 20 262 30Q262 38 269 46Q276 54 286 54Q294 54 302 47Q310 39 310 30Q310 20 303 13Q296 6 286 6V6ZM30 70Q22 70 14 77Q6 84 6 94Q6 102 13 110Q20 118 30 118Q38 118 46 111Q54
103 54 94Q54 84 47 77Q40 70 30 70V70ZM286 70Q278 70 270 77Q262 84 262 94Q262 102 269 110Q276 118 286 118Q294 118 302 111Q310 103 310 94Q310 84 303 77Q296 70 286 70V70ZM30 134Q22 134 14 141Q6 148 6 158Q6 166 13 174Q20 182 30 182Q38 182 46 175Q54
167 54 158Q54 148 47 141Q40 134 30 134V134ZM286 134Q278 134 270 141Q262 148 262 158Q262 166 269 174Q276 182 286 182Q294 182 302 175Q310 167 310 158Q310 148 303 141Q296 134 286 134V134ZM30 198Q22 198 14 205Q6 212 6 222Q6 230 13 238Q20 246 30
246Q38 246 46 239Q54 231 54 222Q54 212 47 205Q40 198 30 198V198ZM286 198Q278 198 270 205Q262 212 262 222Q262 230 269 238Q276 246 286 246Q294 246 302 239Q310 231 310 222Q310 212 303 205Q296 198 286 198V198ZM94 262Q86 262 78 269Q70 276 70 286Q70
294 77 302Q84 310 94 310Q102 310 110 303Q118 295 118 286Q118 276 111 269Q104 262 94 262V262ZM158 262Q150 262 142 269Q134 276 134 286Q134 294 141 302Q148 310 158 310Q166 310 174 303Q182 295 182 286Q182 276 175 269Q168 262 158 262V262ZM222 262Q214
262 206 269Q198 276 198 286Q198 294 205 302Q212 310 222 310Q230 310 238 303Q246 295 246 286Q246 276 239 269Q232 262 222 262V262Z" />
<glyph unicode="h" glyph-name="h" d="M30 6Q22 6 14 13Q6 20 6 30Q6 38 13 46Q20 54 30 54Q38 54 46 47Q54 39 54 30Q54 20 47 13Q40 6 30 6V6ZM286 6Q278 6 270 13Q262 20 262 30Q262 38 269 46Q276 54 286 54Q294 54 302 47Q310 39 310 30Q310 20 303 13Q296
6 286 6V6ZM30 70Q22 70 14 77Q6 84 6 94Q6 102 13 110Q20 118 30 118Q38 118 46 111Q54 103 54 94Q54 84 47 77Q40 70 30 70V70ZM286 70Q278 70 270 77Q262 84 262 94Q262 102 269 110Q276 118 286 118Q294 118 302 111Q310 103 310 94Q310 84 303 77Q296 70 286
70V70ZM30 134Q22 134 14 141Q6 148 6 158Q6 166 13 174Q20 182 30 182Q38 182 46 175Q54 167 54 158Q54 148 47 141Q40 134 30 134V134ZM286 134Q278 134 270 141Q262 148 262 158Q262 166 269 174Q276 182 286 182Q294 182 302 175Q310 167 310 158Q310 148 303
141Q296 134 286 134V134ZM30 198Q22 198 14 205Q6 212 6 222Q6 230 13 238Q20 246 30 246Q38 246 46 239Q54 231 54 222Q54 212 47 205Q40 198 30 198V198ZM94 198Q86 198 78 205Q70 212 70 222Q70 230 77 238Q84 246 94 246Q102 246 110 239Q118 231 118 222Q118
212 111 205Q104 198 94 198V198ZM286 198Q278 198 270 205Q262 212 262 222Q262 230 269 238Q276 246 286 246Q294 246 302 239Q310 231 310 222Q310 212 303 205Q296 198 286 198V198ZM30 262Q22 262 14 269Q6 276 6 286Q6 294 13 302Q20 310 30 310Q38 310 46
303Q54 295 54 286Q54 276 47 269Q40 262 30 262V262ZM158 262Q150 262 142 269Q134 276 134 286Q134 294 141 302Q148 310 158 310Q166 310 174 303Q182 295 182 286Q182 276 175 269Q168 262 158 262V262ZM222 262Q214 262 206 269Q198 276 198 286Q198 294 205
302Q212 310 222 310Q230 310 238 303Q246 295 246 286Q246 276 239 269Q232 262 222 262V262ZM30 326Q22 326 14 333Q6 340 6 350Q6 358 13 366Q20 374 30 374Q38 374 46 367Q54 359 54 350Q54 340 47 333Q40 326 30 326V326ZM30 390Q22 390 14 397Q6 404 6 414Q6
422 13 430Q20 438 30 438Q38 438 46 431Q54 423 54 414Q54 404 47 397Q40 390 30 390V390Z" />
<glyph unicode="i" glyph-name="i" horiz-adv-x="384" d="M94 6Q86 6 78 13Q70 20 70 30Q70 38 77 46Q84 54 94 54Q102 54 110 47Q118 39 118 30Q118 20 111 13Q104 6 94 6V6ZM158 6Q150 6 142 13Q134 20 134 30Q134 38 141 46Q148 54 158 54Q166 54 174 47Q182
39 182 30Q182 20 175 13Q168 6 158 6V6ZM222 6Q214 6 206 13Q198 20 198 30Q198 38 205 46Q212 54 222 54Q230 54 238 47Q246 39 246 30Q246 20 239 13Q232 6 222 6V6ZM158 70Q150 70 142 77Q134 84 134 94Q134 102 141 110Q148 118 158 118Q166 118 174 111Q182
103 182 94Q182 84 175 77Q168 70 158 70V70ZM158 134Q150 134 142 141Q134 148 134 158Q134 166 141 174Q148 182 158 182Q166 182 174 175Q182 167 182 158Q182 148 175 141Q168 134 158 134V134ZM158 198Q150 198 142 205Q134 212 134 222Q134 230 141 238Q148
246 158 246Q166 246 174 239Q182 231 182 222Q182 212 175 205Q168 198 158 198V198ZM94 262Q86 262 78 269Q70 276 70 286Q70 294 77 302Q84 310 94 310Q102 310 110 303Q118 295 118 286Q118 276 111 269Q104 262 94 262V262ZM158 262Q150 262 142 269Q134 276
134 286Q134 294 141 302Q148 310 158 310Q166 310 174 303Q182 295 182 286Q182 276 175 269Q168 262 158 262V262ZM158 390Q150 390 142 397Q134 404 134 414Q134 422 141 430Q148 438 158 438Q166 438 174 431Q182 423 182 414Q182 404 175 397Q168 390 158
390V390Z" />
<glyph unicode="j" glyph-name="j" horiz-adv-x="384" d="M158 -185Q150 -185 142 -178Q134 -171 134 -161Q134 -153 141 -145Q148 -137 158 -137Q166 -137 174 -144Q182 -152 182 -161Q182 -171 175 -178Q168 -185 158 -185V-185ZM94 -121Q86 -121 78 -114Q70
-107 70 -97Q70 -89 77 -81Q84 -73 94 -73Q102 -73 110 -80Q118 -88 118 -97Q118 -107 111 -114Q104 -121 94 -121V-121ZM222 -121Q214 -121 206 -114Q198 -107 198 -97Q198 -89 205 -81Q212 -73 222 -73Q230 -73 238 -80Q246 -88 246 -97Q246 -107 239 -114Q232
-121 222 -121V-121ZM222 -57Q214 -57 206 -50Q198 -43 198 -33Q198 -25 205 -17Q212 -9 222 -9Q230 -9 238 -16Q246 -24 246 -33Q246 -43 239 -50Q232 -57 222 -57V-57ZM222 6Q214 6 206 13Q198 20 198 30Q198 38 205 46Q212 54 222 54Q230 54 238 47Q246 39 246
30Q246 20 239 13Q232 6 222 6V6ZM222 70Q214 70 206 77Q198 84 198 94Q198 102 205 110Q212 118 222 118Q230 118 238 111Q246 103 246 94Q246 84 239 77Q232 70 222 70V70ZM222 134Q214 134 206 141Q198 148 198 158Q198 166 205 174Q212 182 222 182Q230 182
238 175Q246 167 246 158Q246 148 239 141Q232 134 222 134V134ZM222 198Q214 198 206 205Q198 212 198 222Q198 230 205 238Q212 246 222 246Q230 246 238 239Q246 231 246 222Q246 212 239 205Q232 198 222 198V198ZM158 262Q150 262 142 269Q134 276 134 286Q134
294 141 302Q148 310 158 310Q166 310 174 303Q182 295 182 286Q182 276 175 269Q168 262 158 262V262ZM222 262Q214 262 206 269Q198 276 198 286Q198 294 205 302Q212 310 222 310Q230 310 238 303Q246 295 246 286Q246 276 239 269Q232 262 222 262V262ZM222
390Q214 390 206 397Q198 404 198 414Q198 422 205 430Q212 438 222 438Q230 438 238 431Q246 423 246 414Q246 404 239 397Q232 390 222 390V390Z" />
<glyph unicode="k" glyph-name="k" d="M30 6Q22 6 14 13Q6 20 6 30Q6 38 13 46Q20 54 30 54Q38 54 46 47Q54 39 54 30Q54 20 47 13Q40 6 30 6V6ZM286 6Q278 6 270 13Q262 20 262 30Q262 38 269 46Q276 54 286 54Q294 54 302 47Q310 39 310 30Q310 20 303 13Q296
6 286 6V6ZM30 70Q22 70 14 77Q6 84 6 94Q6 102 13 110Q20 118 30 118Q38 118 46 111Q54 103 54 94Q54 84 47 77Q40 70 30 70V70ZM222 70Q214 70 206 77Q198 84 198 94Q198 102 205 110Q212 118 222 118Q230 118 238 111Q246 103 246 94Q246 84 239 77Q232 70 222
70V70ZM30 134Q22 134 14 141Q6 148 6 158Q6 166 13 174Q20 182 30 182Q38 182 46 175Q54 167 54 158Q54 148 47 141Q40 134 30 134V134ZM94 134Q86 134 78 141Q70 148 70 158Q70 166 77 174Q84 182 94 182Q102 182 110 175Q118 167 118 158Q118 148 111 141Q104
134 94 134V134ZM158 134Q150 134 142 141Q134 148 134 158Q134 166 141 174Q148 182 158 182Q166 182 174 175Q182 167 182 158Q182 148 175 141Q168 134 158 134V134ZM30 198Q22 198 14 205Q6 212 6 222Q6 230 13 238Q20 246 30 246Q38 246 46 239Q54 231 54
222Q54 212 47 205Q40 198 30 198V198ZM158 198Q150 198 142 205Q134 212 134 222Q134 230 141 238Q148 246 158 246Q166 246 174 239Q182 231 182 222Q182 212 175 205Q168 198 158 198V198ZM30 262Q22 262 14 269Q6 276 6 286Q6 294 13 302Q20 310 30 310Q38
310 46 303Q54 295 54 286Q54 276 47 269Q40 262 30 262V262ZM222 262Q214 262 206 269Q198 276 198 286Q198 294 205 302Q212 310 222 310Q230 310 238 303Q246 295 246 286Q246 276 239 269Q232 262 222 262V262ZM30 326Q22 326 14 333Q6 340 6 350Q6 358 13
366Q20 374 30 374Q38 374 46 367Q54 359 54 350Q54 340 47 333Q40 326 30 326V326ZM30 390Q22 390 14 397Q6 404 6 414Q6 422 13 430Q20 438 30 438Q38 438 46 431Q54 423 54 414Q54 404 47 397Q40 390 30 390V390Z" />
<glyph unicode="l" glyph-name="l" horiz-adv-x="384" d="M94 6Q86 6 78 13Q70 20 70 30Q70 38 77 46Q84 54 94 54Q102 54 110 47Q118 39 118 30Q118 20 111 13Q104 6 94 6V6ZM158 6Q150 6 142 13Q134 20 134 30Q134 38 141 46Q148 54 158 54Q166 54 174 47Q182
39 182 30Q182 20 175 13Q168 6 158 6V6ZM222 6Q214 6 206 13Q198 20 198 30Q198 38 205 46Q212 54 222 54Q230 54 238 47Q246 39 246 30Q246 20 239 13Q232 6 222 6V6ZM158 70Q150 70 142 77Q134 84 134 94Q134 102 141 110Q148 118 158 118Q166 118 174 111Q182
103 182 94Q182 84 175 77Q168 70 158 70V70ZM158 134Q150 134 142 141Q134 148 134 158Q134 166 141 174Q148 182 158 182Q166 182 174 175Q182 167 182 158Q182 148 175 141Q168 134 158 134V134ZM158 198Q150 198 142 205Q134 212 134 222Q134 230 141 238Q148
246 158 246Q166 246 174 239Q182 231 182 222Q182 212 175 205Q168 198 158 198V198ZM158 262Q150 262 142 269Q134 276 134 286Q134 294 141 302Q148 310 158 310Q166 310 174 303Q182 295 182 286Q182 276 175 269Q168 262 158 262V262ZM158 326Q150 326 142
333Q134 340 134 350Q134 358 141 366Q148 374 158 374Q166 374 174 367Q182 359 182 350Q182 340 175 333Q168 326 158 326V326ZM94 390Q86 390 78 397Q70 404 70 414Q70 422 77 430Q84 438 94 438Q102 438 110 431Q118 423 118 414Q118 404 111 397Q104 390 94
390V390ZM158 390Q150 390 142 397Q134 404 134 414Q134 422 141 430Q148 438 158 438Q166 438 174 431Q182 423 182 414Q182 404 175 397Q168 390 158 390V390Z" />
<glyph unicode="m" glyph-name="m" d="M30 6Q22 6 14 13Q6 20 6 30Q6 38 13 46Q20 54 30 54Q38 54 46 47Q54 39 54 30Q54 20 47 13Q40 6 30 6V6ZM158 6Q150 6 142 13Q134 20 134 30Q134 38 141 46Q148 54 158 54Q166 54 174 47Q182 39 182 30Q182 20 175 13Q168
6 158 6V6ZM286 6Q278 6 270 13Q262 20 262 30Q262 38 269 46Q276 54 286 54Q294 54 302 47Q310 39 310 30Q310 20 303 13Q296 6 286 6V6ZM30 70Q22 70 14 77Q6 84 6 94Q6 102 13 110Q20 118 30 118Q38 118 46 111Q54 103 54 94Q54 84 47 77Q40 70 30 70V70ZM158
70Q150 70 142 77Q134 84 134 94Q134 102 141 110Q148 118 158 118Q166 118 174 111Q182 103 182 94Q182 84 175 77Q168 70 158 70V70ZM286 70Q278 70 270 77Q262 84 262 94Q262 102 269 110Q276 118 286 118Q294 118 302 111Q310 103 310 94Q310 84 303 77Q296
70 286 70V70ZM30 134Q22 134 14 141Q6 148 6 158Q6 166 13 174Q20 182 30 182Q38 182 46 175Q54 167 54 158Q54 148 47 141Q40 134 30 134V134ZM158 134Q150 134 142 141Q134 148 134 158Q134 166 141 174Q148 182 158 182Q166 182 174 175Q182 167 182 158Q182
148 175 141Q168 134 158 134V134ZM286 134Q278 134 270 141Q262 148 262 158Q262 166 269 174Q276 182 286 182Q294 182 302 175Q310 167 310 158Q310 148 303 141Q296 134 286 134V134ZM30 198Q22 198 14 205Q6 212 6 222Q6 230 13 238Q20 246 30 246Q38 246
46 239Q54 231 54 222Q54 212 47 205Q40 198 30 198V198ZM158 198Q150 198 142 205Q134 212 134 222Q134 230 141 238Q148 246 158 246Q166 246 174 239Q182 231 182 222Q182 212 175 205Q168 198 158 198V198ZM286 198Q278 198 270 205Q262 212 262 222Q262 230
269 238Q276 246 286 246Q294 246 302 239Q310 231 310 222Q310 212 303 205Q296 198 286 198V198ZM30 262Q22 262 14 269Q6 276 6 286Q6 294 13 302Q20 310 30 310Q38 310 46 303Q54 295 54 286Q54 276 47 269Q40 262 30 262V262ZM94 262Q86 262 78 269Q70 276
70 286Q70 294 77 302Q84 310 94 310Q102 310 110 303Q118 295 118 286Q118 276 111 269Q104 262 94 262V262ZM222 262Q214 262 206 269Q198 276 198 286Q198 294 205 302Q212 310 222 310Q230 310 238 303Q246 295 246 286Q246 276 239 269Q232 262 222 262V262Z"
/>
<glyph unicode="n" glyph-name="n" d="M30 6Q22 6 14 13Q6 20 6 30Q6 38 13 46Q20 54 30 54Q38 54 46 47Q54 39 54 30Q54 20 47 13Q40 6 30 6V6ZM286 6Q278 6 270 13Q262 20 262 30Q262 38 269 46Q276 54 286 54Q294 54 302 47Q310 39 310 30Q310 20 303 13Q296
6 286 6V6ZM30 70Q22 70 14 77Q6 84 6 94Q6 102 13 110Q20 118 30 118Q38 118 46 111Q54 103 54 94Q54 84 47 77Q40 70 30 70V70ZM286 70Q278 70 270 77Q262 84 262 94Q262 102 269 110Q276 118 286 118Q294 118 302 111Q310 103 310 94Q310 84 303 77Q296 70 286
70V70ZM30 134Q22 134 14 141Q6 148 6 158Q6 166 13 174Q20 182 30 182Q38 182 46 175Q54 167 54 158Q54 148 47 141Q40 134 30 134V134ZM286 134Q278 134 270 141Q262 148 262 158Q262 166 269 174Q276 182 286 182Q294 182 302 175Q310 167 310 158Q310 148 303
141Q296 134 286 134V134ZM30 198Q22 198 14 205Q6 212 6 222Q6 230 13 238Q20 246 30 246Q38 246 46 239Q54 231 54 222Q54 212 47 205Q40 198 30 198V198ZM94 198Q86 198 78 205Q70 212 70 222Q70 230 77 238Q84 246 94 246Q102 246 110 239Q118 231 118 222Q118
212 111 205Q104 198 94 198V198ZM286 198Q278 198 270 205Q262 212 262 222Q262 230 269 238Q276 246 286 246Q294 246 302 239Q310 231 310 222Q310 212 303 205Q296 198 286 198V198ZM30 262Q22 262 14 269Q6 276 6 286Q6 294 13 302Q20 310 30 310Q38 310 46
303Q54 295 54 286Q54 276 47 269Q40 262 30 262V262ZM158 262Q150 262 142 269Q134 276 134 286Q134 294 141 302Q148 310 158 310Q166 310 174 303Q182 295 182 286Q182 276 175 269Q168 262 158 262V262ZM222 262Q214 262 206 269Q198 276 198 286Q198 294 205
302Q212 310 222 310Q230 310 238 303Q246 295 246 286Q246 276 239 269Q232 262 222 262V262Z" />
<glyph unicode="o" glyph-name="o" d="M94 6Q86 6 78 13Q70 20 70 30Q70 38 77 46Q84 54 94 54Q102 54 110 47Q118 39 118 30Q118 20 111 13Q104 6 94 6V6ZM158 6Q150 6 142 13Q134 20 134 30Q134 38 141 46Q148 54 158 54Q166 54 174 47Q182 39 182 30Q182 20
175 13Q168 6 158 6V6ZM222 6Q214 6 206 13Q198 20 198 30Q198 38 205 46Q212 54 222 54Q230 54 238 47Q246 39 246 30Q246 20 239 13Q232 6 222 6V6ZM30 70Q22 70 14 77Q6 84 6 94Q6 102 13 110Q20 118 30 118Q38 118 46 111Q54 103 54 94Q54 84 47 77Q40 70 30
70V70ZM286 70Q278 70 270 77Q262 84 262 94Q262 102 269 110Q276 118 286 118Q294 118 302 111Q310 103 310 94Q310 84 303 77Q296 70 286 70V70ZM30 134Q22 134 14 141Q6 148 6 158Q6 166 13 174Q20 182 30 182Q38 182 46 175Q54 167 54 158Q54 148 47 141Q40
134 30 134V134ZM286 134Q278 134 270 141Q262 148 262 158Q262 166 269 174Q276 182 286 182Q294 182 302 175Q310 167 310 158Q310 148 303 141Q296 134 286 134V134ZM30 198Q22 198 14 205Q6 212 6 222Q6 230 13 238Q20 246 30 246Q38 246 46 239Q54 231 54
222Q54 212 47 205Q40 198 30 198V198ZM286 198Q278 198 270 205Q262 212 262 222Q262 230 269 238Q276 246 286 246Q294 246 302 239Q310 231 310 222Q310 212 303 205Q296 198 286 198V198ZM94 262Q86 262 78 269Q70 276 70 286Q70 294 77 302Q84 310 94 310Q102
310 110 303Q118 295 118 286Q118 276 111 269Q104 262 94 262V262ZM158 262Q150 262 142 269Q134 276 134 286Q134 294 141 302Q148 310 158 310Q166 310 174 303Q182 295 182 286Q182 276 175 269Q168 262 158 262V262ZM222 262Q214 262 206 269Q198 276 198
286Q198 294 205 302Q212 310 222 310Q230 310 238 303Q246 295 246 286Q246 276 239 269Q232 262 222 262V262Z" />
<glyph unicode="p" glyph-name="p" d="M30 -185Q22 -185 14 -178Q6 -171 6 -161Q6 -153 13 -145Q20 -137 30 -137Q38 -137 46 -144Q54 -152 54 -161Q54 -171 47 -178Q40 -185 30 -185V-185ZM30 -121Q22 -121 14 -114Q6 -107 6 -97Q6 -89 13 -81Q20 -73 30 -73Q38
-73 46 -80Q54 -88 54 -97Q54 -107 47 -114Q40 -121 30 -121V-121ZM30 -57Q22 -57 14 -50Q6 -43 6 -33Q6 -25 13 -17Q20 -9 30 -9Q38 -9 46 -16Q54 -24 54 -33Q54 -43 47 -50Q40 -57 30 -57V-57ZM30 6Q22 6 14 13Q6 20 6 30Q6 38 13 46Q20 54 30 54Q38 54 46 47Q54
39 54 30Q54 20 47 13Q40 6 30 6V6ZM94 6Q86 6 78 13Q70 20 70 30Q70 38 77 46Q84 54 94 54Q102 54 110 47Q118 39 118 30Q118 20 111 13Q104 6 94 6V6ZM158 6Q150 6 142 13Q134 20 134 30Q134 38 141 46Q148 54 158 54Q166 54 174 47Q182 39 182 30Q182 20 175
13Q168 6 158 6V6ZM222 6Q214 6 206 13Q198 20 198 30Q198 38 205 46Q212 54 222 54Q230 54 238 47Q246 39 246 30Q246 20 239 13Q232 6 222 6V6ZM30 70Q22 70 14 77Q6 84 6 94Q6 102 13 110Q20 118 30 118Q38 118 46 111Q54 103 54 94Q54 84 47 77Q40 70 30 70V70ZM286
70Q278 70 270 77Q262 84 262 94Q262 102 269 110Q276 118 286 118Q294 118 302 111Q310 103 310 94Q310 84 303 77Q296 70 286 70V70ZM30 134Q22 134 14 141Q6 148 6 158Q6 166 13 174Q20 182 30 182Q38 182 46 175Q54 167 54 158Q54 148 47 141Q40 134 30 134V134ZM286
134Q278 134 270 141Q262 148 262 158Q262 166 269 174Q276 182 286 182Q294 182 302 175Q310 167 310 158Q310 148 303 141Q296 134 286 134V134ZM30 198Q22 198 14 205Q6 212 6 222Q6 230 13 238Q20 246 30 246Q38 246 46 239Q54 231 54 222Q54 212 47 205Q40
198 30 198V198ZM286 198Q278 198 270 205Q262 212 262 222Q262 230 269 238Q276 246 286 246Q294 246 302 239Q310 231 310 222Q310 212 303 205Q296 198 286 198V198ZM94 262Q86 262 78 269Q70 276 70 286Q70 294 77 302Q84 310 94 310Q102 310 110 303Q118 295
118 286Q118 276 111 269Q104 262 94 262V262ZM158 262Q150 262 142 269Q134 276 134 286Q134 294 141 302Q148 310 158 310Q166 310 174 303Q182 295 182 286Q182 276 175 269Q168 262 158 262V262ZM222 262Q214 262 206 269Q198 276 198 286Q198 294 205 302Q212
310 222 310Q230 310 238 303Q246 295 246 286Q246 276 239 269Q232 262 222 262V262Z" />
<glyph unicode="q" glyph-name="q" d="M286 -185Q278 -185 270 -178Q262 -171 262 -161Q262 -153 269 -145Q276 -137 286 -137Q294 -137 302 -144Q310 -152 310 -161Q310 -171 303 -178Q296 -185 286 -185V-185ZM286 -121Q278 -121 270 -114Q262 -107 262 -97Q262
-89 269 -81Q276 -73 286 -73Q294 -73 302 -80Q310 -88 310 -97Q310 -107 303 -114Q296 -121 286 -121V-121ZM286 -57Q278 -57 270 -50Q262 -43 262 -33Q262 -25 269 -17Q276 -9 286 -9Q294 -9 302 -16Q310 -24 310 -33Q310 -43 303 -50Q296 -57 286 -57V-57ZM94
6Q86 6 78 13Q70 20 70 30Q70 38 77 46Q84 54 94 54Q102 54 110 47Q118 39 118 30Q118 20 111 13Q104 6 94 6V6ZM158 6Q150 6 142 13Q134 20 134 30Q134 38 141 46Q148 54 158 54Q166 54 174 47Q182 39 182 30Q182 20 175 13Q168 6 158 6V6ZM222 6Q214 6 206 13Q198
20 198 30Q198 38 205 46Q212 54 222 54Q230 54 238 47Q246 39 246 30Q246 20 239 13Q232 6 222 6V6ZM286 6Q278 6 270 13Q262 20 262 30Q262 38 269 46Q276 54 286 54Q294 54 302 47Q310 39 310 30Q310 20 303 13Q296 6 286 6V6ZM30 70Q22 70 14 77Q6 84 6 94Q6
102 13 110Q20 118 30 118Q38 118 46 111Q54 103 54 94Q54 84 47 77Q40 70 30 70V70ZM286 70Q278 70 270 77Q262 84 262 94Q262 102 269 110Q276 118 286 118Q294 118 302 111Q310 103 310 94Q310 84 303 77Q296 70 286 70V70ZM30 134Q22 134 14 141Q6 148 6 158Q6
166 13 174Q20 182 30 182Q38 182 46 175Q54 167 54 158Q54 148 47 141Q40 134 30 134V134ZM286 134Q278 134 270 141Q262 148 262 158Q262 166 269 174Q276 182 286 182Q294 182 302 175Q310 167 310 158Q310 148 303 141Q296 134 286 134V134ZM30 198Q22 198
14 205Q6 212 6 222Q6 230 13 238Q20 246 30 246Q38 246 46 239Q54 231 54 222Q54 212 47 205Q40 198 30 198V198ZM286 198Q278 198 270 205Q262 212 262 222Q262 230 269 238Q276 246 286 246Q294 246 302 239Q310 231 310 222Q310 212 303 205Q296 198 286 198V198ZM94
262Q86 262 78 269Q70 276 70 286Q70 294 77 302Q84 310 94 310Q102 310 110 303Q118 295 118 286Q118 276 111 269Q104 262 94 262V262ZM158 262Q150 262 142 269Q134 276 134 286Q134 294 141 302Q148 310 158 310Q166 310 174 303Q182 295 182 286Q182 276 175
269Q168 262 158 262V262ZM222 262Q214 262 206 269Q198 276 198 286Q198 294 205 302Q212 310 222 310Q230 310 238 303Q246 295 246 286Q246 276 239 269Q232 262 222 262V262Z" />
<glyph unicode="r" glyph-name="r" d="M30 6Q22 6 14 13Q6 20 6 30Q6 38 13 46Q20 54 30 54Q38 54 46 47Q54 39 54 30Q54 20 47 13Q40 6 30 6V6ZM30 70Q22 70 14 77Q6 84 6 94Q6 102 13 110Q20 118 30 118Q38 118 46 111Q54 103 54 94Q54 84 47 77Q40 70 30 70V70ZM30
134Q22 134 14 141Q6 148 6 158Q6 166 13 174Q20 182 30 182Q38 182 46 175Q54 167 54 158Q54 148 47 141Q40 134 30 134V134ZM30 198Q22 198 14 205Q6 212 6 222Q6 230 13 238Q20 246 30 246Q38 246 46 239Q54 231 54 222Q54 212 47 205Q40 198 30 198V198ZM94
198Q86 198 78 205Q70 212 70 222Q70 230 77 238Q84 246 94 246Q102 246 110 239Q118 231 118 222Q118 212 111 205Q104 198 94 198V198ZM286 198Q278 198 270 205Q262 212 262 222Q262 230 269 238Q276 246 286 246Q294 246 302 239Q310 231 310 222Q310 212 303
205Q296 198 286 198V198ZM30 262Q22 262 14 269Q6 276 6 286Q6 294 13 302Q20 310 30 310Q38 310 46 303Q54 295 54 286Q54 276 47 269Q40 262 30 262V262ZM158 262Q150 262 142 269Q134 276 134 286Q134 294 141 302Q148 310 158 310Q166 310 174 303Q182 295
182 286Q182 276 175 269Q168 262 158 262V262ZM222 262Q214 262 206 269Q198 276 198 286Q198 294 205 302Q212 310 222 310Q230 310 238 303Q246 295 246 286Q246 276 239 269Q232 262 222 262V262Z" />
<glyph unicode="s" glyph-name="s" d="M30 6Q22 6 14 13Q6 20 6 30Q6 38 13 46Q20 54 30 54Q38 54 46 47Q54 39 54 30Q54 20 47 13Q40 6 30 6V6ZM94 6Q86 6 78 13Q70 20 70 30Q70 38 77 46Q84 54 94 54Q102 54 110 47Q118 39 118 30Q118 20 111 13Q104 6 94 6V6ZM158
6Q150 6 142 13Q134 20 134 30Q134 38 141 46Q148 54 158 54Q166 54 174 47Q182 39 182 30Q182 20 175 13Q168 6 158 6V6ZM222 6Q214 6 206 13Q198 20 198 30Q198 38 205 46Q212 54 222 54Q230 54 238 47Q246 39 246 30Q246 20 239 13Q232 6 222 6V6ZM286 70Q278
70 270 77Q262 84 262 94Q262 102 269 110Q276 118 286 118Q294 118 302 111Q310 103 310 94Q310 84 303 77Q296 70 286 70V70ZM94 134Q86 134 78 141Q70 148 70 158Q70 166 77 174Q84 182 94 182Q102 182 110 175Q118 167 118 158Q118 148 111 141Q104 134 94
134V134ZM158 134Q150 134 142 141Q134 148 134 158Q134 166 141 174Q148 182 158 182Q166 182 174 175Q182 167 182 158Q182 148 175 141Q168 134 158 134V134ZM222 134Q214 134 206 141Q198 148 198 158Q198 166 205 174Q212 182 222 182Q230 182 238 175Q246
167 246 158Q246 148 239 141Q232 134 222 134V134ZM30 198Q22 198 14 205Q6 212 6 222Q6 230 13 238Q20 246 30 246Q38 246 46 239Q54 231 54 222Q54 212 47 205Q40 198 30 198V198ZM94 262Q86 262 78 269Q70 276 70 286Q70 294 77 302Q84 310 94 310Q102 310
110 303Q118 295 118 286Q118 276 111 269Q104 262 94 262V262ZM158 262Q150 262 142 269Q134 276 134 286Q134 294 141 302Q148 310 158 310Q166 310 174 303Q182 295 182 286Q182 276 175 269Q168 262 158 262V262ZM222 262Q214 262 206 269Q198 276 198 286Q198
294 205 302Q212 310 222 310Q230 310 238 303Q246 295 246 286Q246 276 239 269Q232 262 222 262V262ZM286 262Q278 262 270 269Q262 276 262 286Q262 294 269 302Q276 310 286 310Q294 310 302 303Q310 295 310 286Q310 276 303 269Q296 262 286 262V262Z" />
<glyph unicode="t" glyph-name="t" horiz-adv-x="384" d="M222 6Q214 6 206 13Q198 20 198 30Q198 38 205 46Q212 54 222 54Q230 54 238 47Q246 39 246 30Q246 20 239 13Q232 6 222 6V6ZM286 6Q278 6 270 13Q262 20 262 30Q262 38 269 46Q276 54 286 54Q294 54
302 47Q310 39 310 30Q310 20 303 13Q296 6 286 6V6ZM158 70Q150 70 142 77Q134 84 134 94Q134 102 141 110Q148 118 158 118Q166 118 174 111Q182 103 182 94Q182 84 175 77Q168 70 158 70V70ZM158 134Q150 134 142 141Q134 148 134 158Q134 166 141 174Q148 182
158 182Q166 182 174 175Q182 167 182 158Q182 148 175 141Q168 134 158 134V134ZM158 198Q150 198 142 205Q134 212 134 222Q134 230 141 238Q148 246 158 246Q166 246 174 239Q182 231 182 222Q182 212 175 205Q168 198 158 198V198ZM94 262Q86 262 78 269Q70
276 70 286Q70 294 77 302Q84 310 94 310Q102 310 110 303Q118 295 118 286Q118 276 111 269Q104 262 94 262V262ZM158 262Q150 262 142 269Q134 276 134 286Q134 294 141 302Q148 310 158 310Q166 310 174 303Q182 295 182 286Q182 276 175 269Q168 262 158 262V262ZM222
262Q214 262 206 269Q198 276 198 286Q198 294 205 302Q212 310 222 310Q230 310 238 303Q246 295 246 286Q246 276 239 269Q232 262 222 262V262ZM286 262Q278 262 270 269Q262 276 262 286Q262 294 269 302Q276 310 286 310Q294 310 302 303Q310 295 310 286Q310
276 303 269Q296 262 286 262V262ZM158 326Q150 326 142 333Q134 340 134 350Q134 358 141 366Q148 374 158 374Q166 374 174 367Q182 359 182 350Q182 340 175 333Q168 326 158 326V326ZM158 390Q150 390 142 397Q134 404 134 414Q134 422 141 430Q148 438 158
438Q166 438 174 431Q182 423 182 414Q182 404 175 397Q168 390 158 390V390Z" />
<glyph unicode="u" glyph-name="u" d="M94 6Q86 6 78 13Q70 20 70 30Q70 38 77 46Q84 54 94 54Q102 54 110 47Q118 39 118 30Q118 20 111 13Q104 6 94 6V6ZM158 6Q150 6 142 13Q134 20 134 30Q134 38 141 46Q148 54 158 54Q166 54 174 47Q182 39 182 30Q182 20
175 13Q168 6 158 6V6ZM286 6Q278 6 270 13Q262 20 262 30Q262 38 269 46Q276 54 286 54Q294 54 302 47Q310 39 310 30Q310 20 303 13Q296 6 286 6V6ZM30 70Q22 70 14 77Q6 84 6 94Q6 102 13 110Q20 118 30 118Q38 118 46 111Q54 103 54 94Q54 84 47 77Q40 70 30
70V70ZM222 70Q214 70 206 77Q198 84 198 94Q198 102 205 110Q212 118 222 118Q230 118 238 111Q246 103 246 94Q246 84 239 77Q232 70 222 70V70ZM286 70Q278 70 270 77Q262 84 262 94Q262 102 269 110Q276 118 286 118Q294 118 302 111Q310 103 310 94Q310 84
303 77Q296 70 286 70V70ZM30 134Q22 134 14 141Q6 148 6 158Q6 166 13 174Q20 182 30 182Q38 182 46 175Q54 167 54 158Q54 148 47 141Q40 134 30 134V134ZM286 134Q278 134 270 141Q262 148 262 158Q262 166 269 174Q276 182 286 182Q294 182 302 175Q310 167
310 158Q310 148 303 141Q296 134 286 134V134ZM30 198Q22 198 14 205Q6 212 6 222Q6 230 13 238Q20 246 30 246Q38 246 46 239Q54 231 54 222Q54 212 47 205Q40 198 30 198V198ZM286 198Q278 198 270 205Q262 212 262 222Q262 230 269 238Q276 246 286 246Q294
246 302 239Q310 231 310 222Q310 212 303 205Q296 198 286 198V198ZM30 262Q22 262 14 269Q6 276 6 286Q6 294 13 302Q20 310 30 310Q38 310 46 303Q54 295 54 286Q54 276 47 269Q40 262 30 262V262ZM286 262Q278 262 270 269Q262 276 262 286Q262 294 269 302Q276
310 286 310Q294 310 302 303Q310 295 310 286Q310 276 303 269Q296 262 286 262V262Z" />
<glyph unicode="v" glyph-name="v" d="M158 6Q150 6 142 13Q134 20 134 30Q134 38 141 46Q148 54 158 54Q166 54 174 47Q182 39 182 30Q182 20 175 13Q168 6 158 6V6ZM94 70Q86 70 78 77Q70 84 70 94Q70 102 77 110Q84 118 94 118Q102 118 110 111Q118 103 118
94Q118 84 111 77Q104 70 94 70V70ZM222 70Q214 70 206 77Q198 84 198 94Q198 102 205 110Q212 118 222 118Q230 118 238 111Q246 103 246 94Q246 84 239 77Q232 70 222 70V70ZM30 134Q22 134 14 141Q6 148 6 158Q6 166 13 174Q20 182 30 182Q38 182 46 175Q54
167 54 158Q54 148 47 141Q40 134 30 134V134ZM286 134Q278 134 270 141Q262 148 262 158Q262 166 269 174Q276 182 286 182Q294 182 302 175Q310 167 310 158Q310 148 303 141Q296 134 286 134V134ZM30 198Q22 198 14 205Q6 212 6 222Q6 230 13 238Q20 246 30
246Q38 246 46 239Q54 231 54 222Q54 212 47 205Q40 198 30 198V198ZM286 198Q278 198 270 205Q262 212 262 222Q262 230 269 238Q276 246 286 246Q294 246 302 239Q310 231 310 222Q310 212 303 205Q296 198 286 198V198ZM30 262Q22 262 14 269Q6 276 6 286Q6
294 13 302Q20 310 30 310Q38 310 46 303Q54 295 54 286Q54 276 47 269Q40 262 30 262V262ZM286 262Q278 262 270 269Q262 276 262 286Q262 294 269 302Q276 310 286 310Q294 310 302 303Q310 295 310 286Q310 276 303 269Q296 262 286 262V262Z" />
<glyph unicode="w" glyph-name="w" d="M94 6Q86 6 78 13Q70 20 70 30Q70 38 77 46Q84 54 94 54Q102 54 110 47Q118 39 118 30Q118 20 111 13Q104 6 94 6V6ZM222 6Q214 6 206 13Q198 20 198 30Q198 38 205 46Q212 54 222 54Q230 54 238 47Q246 39 246 30Q246 20
239 13Q232 6 222 6V6ZM30 70Q22 70 14 77Q6 84 6 94Q6 102 13 110Q20 118 30 118Q38 118 46 111Q54 103 54 94Q54 84 47 77Q40 70 30 70V70ZM158 70Q150 70 142 77Q134 84 134 94Q134 102 141 110Q148 118 158 118Q166 118 174 111Q182 103 182 94Q182 84 175
77Q168 70 158 70V70ZM286 70Q278 70 270 77Q262 84 262 94Q262 102 269 110Q276 118 286 118Q294 118 302 111Q310 103 310 94Q310 84 303 77Q296 70 286 70V70ZM30 134Q22 134 14 141Q6 148 6 158Q6 166 13 174Q20 182 30 182Q38 182 46 175Q54 167 54 158Q54
148 47 141Q40 134 30 134V134ZM158 134Q150 134 142 141Q134 148 134 158Q134 166 141 174Q148 182 158 182Q166 182 174 175Q182 167 182 158Q182 148 175 141Q168 134 158 134V134ZM286 134Q278 134 270 141Q262 148 262 158Q262 166 269 174Q276 182 286 182Q294
182 302 175Q310 167 310 158Q310 148 303 141Q296 134 286 134V134ZM30 198Q22 198 14 205Q6 212 6 222Q6 230 13 238Q20 246 30 246Q38 246 46 239Q54 231 54 222Q54 212 47 205Q40 198 30 198V198ZM286 198Q278 198 270 205Q262 212 262 222Q262 230 269 238Q276
246 286 246Q294 246 302 239Q310 231 310 222Q310 212 303 205Q296 198 286 198V198ZM30 262Q22 262 14 269Q6 276 6 286Q6 294 13 302Q20 310 30 310Q38 310 46 303Q54 295 54 286Q54 276 47 269Q40 262 30 262V262ZM286 262Q278 262 270 269Q262 276 262 286Q262
294 269 302Q276 310 286 310Q294 310 302 303Q310 295 310 286Q310 276 303 269Q296 262 286 262V262Z" />
<glyph unicode="x" glyph-name="x" d="M30 6Q22 6 14 13Q6 20 6 30Q6 38 13 46Q20 54 30 54Q38 54 46 47Q54 39 54 30Q54 20 47 13Q40 6 30 6V6ZM286 6Q278 6 270 13Q262 20 262 30Q262 38 269 46Q276 54 286 54Q294 54 302 47Q310 39 310 30Q310 20 303 13Q296
6 286 6V6ZM94 70Q86 70 78 77Q70 84 70 94Q70 102 77 110Q84 118 94 118Q102 118 110 111Q118 103 118 94Q118 84 111 77Q104 70 94 70V70ZM222 70Q214 70 206 77Q198 84 198 94Q198 102 205 110Q212 118 222 118Q230 118 238 111Q246 103 246 94Q246 84 239 77Q232
70 222 70V70ZM158 134Q150 134 142 141Q134 148 134 158Q134 166 141 174Q148 182 158 182Q166 182 174 175Q182 167 182 158Q182 148 175 141Q168 134 158 134V134ZM94 198Q86 198 78 205Q70 212 70 222Q70 230 77 238Q84 246 94 246Q102 246 110 239Q118 231
118 222Q118 212 111 205Q104 198 94 198V198ZM222 198Q214 198 206 205Q198 212 198 222Q198 230 205 238Q212 246 222 246Q230 246 238 239Q246 231 246 222Q246 212 239 205Q232 198 222 198V198ZM30 262Q22 262 14 269Q6 276 6 286Q6 294 13 302Q20 310 30
310Q38 310 46 303Q54 295 54 286Q54 276 47 269Q40 262 30 262V262ZM286 262Q278 262 270 269Q262 276 262 286Q262 294 269 302Q276 310 286 310Q294 310 302 303Q310 295 310 286Q310 276 303 269Q296 262 286 262V262Z" />
<glyph unicode="y" glyph-name="y" d="M94 -185Q86 -185 78 -178Q70 -171 70 -161Q70 -153 77 -145Q84 -137 94 -137Q102 -137 110 -144Q118 -152 118 -161Q118 -171 111 -178Q104 -185 94 -185V-185ZM158 -185Q150 -185 142 -178Q134 -171 134 -161Q134 -153
141 -145Q148 -137 158 -137Q166 -137 174 -144Q182 -152 182 -161Q182 -171 175 -178Q168 -185 158 -185V-185ZM222 -185Q214 -185 206 -178Q198 -171 198 -161Q198 -153 205 -145Q212 -137 222 -137Q230 -137 238 -144Q246 -152 246 -161Q246 -171 239 -178Q232
-185 222 -185V-185ZM30 -121Q22 -121 14 -114Q6 -107 6 -97Q6 -89 13 -81Q20 -73 30 -73Q38 -73 46 -80Q54 -88 54 -97Q54 -107 47 -114Q40 -121 30 -121V-121ZM286 -121Q278 -121 270 -114Q262 -107 262 -97Q262 -89 269 -81Q276 -73 286 -73Q294 -73 302 -80Q310
-88 310 -97Q310 -107 303 -114Q296 -121 286 -121V-121ZM286 -57Q278 -57 270 -50Q262 -43 262 -33Q262 -25 269 -17Q276 -9 286 -9Q294 -9 302 -16Q310 -24 310 -33Q310 -43 303 -50Q296 -57 286 -57V-57ZM94 6Q86 6 78 13Q70 20 70 30Q70 38 77 46Q84 54 94
54Q102 54 110 47Q118 39 118 30Q118 20 111 13Q104 6 94 6V6ZM158 6Q150 6 142 13Q134 20 134 30Q134 38 141 46Q148 54 158 54Q166 54 174 47Q182 39 182 30Q182 20 175 13Q168 6 158 6V6ZM286 6Q278 6 270 13Q262 20 262 30Q262 38 269 46Q276 54 286 54Q294
54 302 47Q310 39 310 30Q310 20 303 13Q296 6 286 6V6ZM30 70Q22 70 14 77Q6 84 6 94Q6 102 13 110Q20 118 30 118Q38 118 46 111Q54 103 54 94Q54 84 47 77Q40 70 30 70V70ZM222 70Q214 70 206 77Q198 84 198 94Q198 102 205 110Q212 118 222 118Q230 118 238
111Q246 103 246 94Q246 84 239 77Q232 70 222 70V70ZM286 70Q278 70 270 77Q262 84 262 94Q262 102 269 110Q276 118 286 118Q294 118 302 111Q310 103 310 94Q310 84 303 77Q296 70 286 70V70ZM30 134Q22 134 14 141Q6 148 6 158Q6 166 13 174Q20 182 30 182Q38
182 46 175Q54 167 54 158Q54 148 47 141Q40 134 30 134V134ZM286 134Q278 134 270 141Q262 148 262 158Q262 166 269 174Q276 182 286 182Q294 182 302 175Q310 167 310 158Q310 148 303 141Q296 134 286 134V134ZM30 198Q22 198 14 205Q6 212 6 222Q6 230 13
238Q20 246 30 246Q38 246 46 239Q54 231 54 222Q54 212 47 205Q40 198 30 198V198ZM286 198Q278 198 270 205Q262 212 262 222Q262 230 269 238Q276 246 286 246Q294 246 302 239Q310 231 310 222Q310 212 303 205Q296 198 286 198V198ZM30 262Q22 262 14 269Q6
276 6 286Q6 294 13 302Q20 310 30 310Q38 310 46 303Q54 295 54 286Q54 276 47 269Q40 262 30 262V262ZM286 262Q278 262 270 269Q262 276 262 286Q262 294 269 302Q276 310 286 310Q294 310 302 303Q310 295 310 286Q310 276 303 269Q296 262 286 262V262Z" />
<glyph unicode="z" glyph-name="z" d="M30 6Q22 6 14 13Q6 20 6 30Q6 38 13 46Q20 54 30 54Q38 54 46 47Q54 39 54 30Q54 20 47 13Q40 6 30 6V6ZM94 6Q86 6 78 13Q70 20 70 30Q70 38 77 46Q84 54 94 54Q102 54 110 47Q118 39 118 30Q118 20 111 13Q104 6 94 6V6ZM158
6Q150 6 142 13Q134 20 134 30Q134 38 141 46Q148 54 158 54Q166 54 174 47Q182 39 182 30Q182 20 175 13Q168 6 158 6V6ZM222 6Q214 6 206 13Q198 20 198 30Q198 38 205 46Q212 54 222 54Q230 54 238 47Q246 39 246 30Q246 20 239 13Q232 6 222 6V6ZM286 6Q278
6 270 13Q262 20 262 30Q262 38 269 46Q276 54 286 54Q294 54 302 47Q310 39 310 30Q310 20 303 13Q296 6 286 6V6ZM94 70Q86 70 78 77Q70 84 70 94Q70 102 77 110Q84 118 94 118Q102 118 110 111Q118 103 118 94Q118 84 111 77Q104 70 94 70V70ZM158 134Q150 134
142 141Q134 148 134 158Q134 166 141 174Q148 182 158 182Q166 182 174 175Q182 167 182 158Q182 148 175 141Q168 134 158 134V134ZM222 198Q214 198 206 205Q198 212 198 222Q198 230 205 238Q212 246 222 246Q230 246 238 239Q246 231 246 222Q246 212 239
205Q232 198 222 198V198ZM30 262Q22 262 14 269Q6 276 6 286Q6 294 13 302Q20 310 30 310Q38 310 46 303Q54 295 54 286Q54 276 47 269Q40 262 30 262V262ZM94 262Q86 262 78 269Q70 276 70 286Q70 294 77 302Q84 310 94 310Q102 310 110 303Q118 295 118 286Q118
276 111 269Q104 262 94 262V262ZM158 262Q150 262 142 269Q134 276 134 286Q134 294 141 302Q148 310 158 310Q166 310 174 303Q182 295 182 286Q182 276 175 269Q168 262 158 262V262ZM222 262Q214 262 206 269Q198 276 198 286Q198 294 205 302Q212 310 222
310Q230 310 238 303Q246 295 246 286Q246 276 239 269Q232 262 222 262V262ZM286 262Q278 262 270 269Q262 276 262 286Q262 294 269 302Q276 310 286 310Q294 310 302 303Q310 295 310 286Q310 276 303 269Q296 262 286 262V262Z" />
<glyph unicode="{" glyph-name="braceleft" horiz-adv-x="255" d="M158 6Q150 6 142 13Q134 20 134 30Q134 38 141 46Q148 54 158 54Q166 54 174 47Q182 39 182 30Q182 20 175 13Q168 6 158 6V6ZM94 70Q86 70 78 77Q70 84 70 94Q70 102 77 110Q84 118 94 118Q102
118 110 111Q118 103 118 94Q118 84 111 77Q104 70 94 70V70ZM94 134Q86 134 78 141Q70 148 70 158Q70 166 77 174Q84 182 94 182Q102 182 110 175Q118 167 118 158Q118 148 111 141Q104 134 94 134V134ZM30 198Q22 198 14 205Q6 212 6 222Q6 230 13 238Q20 246
30 246Q38 246 46 239Q54 231 54 222Q54 212 47 205Q40 198 30 198V198ZM94 198Q86 198 78 205Q70 212 70 222Q70 230 77 238Q84 246 94 246Q102 246 110 239Q118 231 118 222Q118 212 111 205Q104 198 94 198V198ZM94 262Q86 262 78 269Q70 276 70 286Q70 294
77 302Q84 310 94 310Q102 310 110 303Q118 295 118 286Q118 276 111 269Q104 262 94 262V262ZM94 326Q86 326 78 333Q70 340 70 350Q70 358 77 366Q84 374 94 374Q102 374 110 367Q118 359 118 350Q118 340 111 333Q104 326 94 326V326ZM158 390Q150 390 142 397Q134
404 134 414Q134 422 141 430Q148 438 158 438Q166 438 174 431Q182 423 182 414Q182 404 175 397Q168 390 158 390V390Z" />
<glyph unicode="|" glyph-name="bar" horiz-adv-x="127" d="M30 6Q22 6 14 13Q6 20 6 30Q6 38 13 46Q20 54 30 54Q38 54 46 47Q54 39 54 30Q54 20 47 13Q40 6 30 6V6ZM30 70Q22 70 14 77Q6 84 6 94Q6 102 13 110Q20 118 30 118Q38 118 46 111Q54 103 54 94Q54
84 47 77Q40 70 30 70V70ZM30 134Q22 134 14 141Q6 148 6 158Q6 166 13 174Q20 182 30 182Q38 182 46 175Q54 167 54 158Q54 148 47 141Q40 134 30 134V134ZM30 198Q22 198 14 205Q6 212 6 222Q6 230 13 238Q20 246 30 246Q38 246 46 239Q54 231 54 222Q54 212
47 205Q40 198 30 198V198ZM30 262Q22 262 14 269Q6 276 6 286Q6 294 13 302Q20 310 30 310Q38 310 46 303Q54 295 54 286Q54 276 47 269Q40 262 30 262V262ZM30 326Q22 326 14 333Q6 340 6 350Q6 358 13 366Q20 374 30 374Q38 374 46 367Q54 359 54 350Q54 340
47 333Q40 326 30 326V326ZM30 390Q22 390 14 397Q6 404 6 414Q6 422 13 430Q20 438 30 438Q38 438 46 431Q54 423 54 414Q54 404 47 397Q40 390 30 390V390Z" />
<glyph unicode="}" glyph-name="braceright" horiz-adv-x="255" d="M30 6Q22 6 14 13Q6 20 6 30Q6 38 13 46Q20 54 30 54Q38 54 46 47Q54 39 54 30Q54 20 47 13Q40 6 30 6V6ZM94 70Q86 70 78 77Q70 84 70 94Q70 102 77 110Q84 118 94 118Q102 118 110 111Q118
103 118 94Q118 84 111 77Q104 70 94 70V70ZM94 134Q86 134 78 141Q70 148 70 158Q70 166 77 174Q84 182 94 182Q102 182 110 175Q118 167 118 158Q118 148 111 141Q104 134 94 134V134ZM94 198Q86 198 78 205Q70 212 70 222Q70 230 77 238Q84 246 94 246Q102 246
110 239Q118 231 118 222Q118 212 111 205Q104 198 94 198V198ZM158 198Q150 198 142 205Q134 212 134 222Q134 230 141 238Q148 246 158 246Q166 246 174 239Q182 231 182 222Q182 212 175 205Q168 198 158 198V198ZM94 262Q86 262 78 269Q70 276 70 286Q70 294
77 302Q84 310 94 310Q102 310 110 303Q118 295 118 286Q118 276 111 269Q104 262 94 262V262ZM94 326Q86 326 78 333Q70 340 70 350Q70 358 77 366Q84 374 94 374Q102 374 110 367Q118 359 118 350Q118 340 111 333Q104 326 94 326V326ZM30 390Q22 390 14 397Q6
404 6 414Q6 422 13 430Q20 438 30 438Q38 438 46 431Q54 423 54 414Q54 404 47 397Q40 390 30 390V390Z" />
<glyph unicode="~" glyph-name="asciitilde" horiz-adv-x="319" d="M30 198Q22 198 14 205Q6 212 6 222Q6 230 13 238Q20 246 30 246Q38 246 46 239Q54 231 54 222Q54 212 47 205Q40 198 30 198V198ZM158 198Q150 198 142 205Q134 212 134 222Q134 230 141 238Q148
246 158 246Q166 246 174 239Q182 231 182 222Q182 212 175 205Q168 198 158 198V198ZM94 262Q86 262 78 269Q70 276 70 286Q70 294 77 302Q84 310 94 310Q102 310 110 303Q118 295 118 286Q118 276 111 269Q104 262 94 262V262ZM222 262Q214 262 206 269Q198 276
198 286Q198 294 205 302Q212 310 222 310Q230 310 238 303Q246 295 246 286Q246 276 239 269Q232 262 222 262V262Z" />
</font>
</defs>
</svg>
