<?xml version="1.0" encoding="utf-8"?>
<!-- Generator: Adobe Illustrator 22.1.0, SVG Export Plug-In . SVG Version: 6.00 Build 0)  -->
<svg version="1.1" id="Layer_1" xmlns="http://www.w3.org/2000/svg" xmlns:xlink="http://www.w3.org/1999/xlink" x="0px" y="0px"
	 viewBox="0 0 1245 1245" style="enable-background:new 0 0 1245 1245;" xml:space="preserve">
<style type="text/css">
	.st0{fill:#FFFFFF;}
</style>
<g>
	<g>
		<path d="M0.5,0.5h1245v1245H0.5V0.5z M5.7,5.7C5.5,415,5.7,824.2,5.6,1233.5c0,2.7-0.1,5.5,0.6,8.2c0.5-77.7,0.1-155.5,0.2-233.2
			c0-334-0.1-668,0-1002.1c408-0.1,816,0,1224.1-0.1c3.7,0,7.5,0.2,11.2-0.2c-2.7-0.6-5.5-0.5-8.2-0.5C824.3,5.7,415,5.5,5.7,5.7z
			 M594.2,323.2c-11.5,11.2-12.6,28.3-13.7,43.3c0,44.3,0,88.7,0,133c0.5,14.3,2.8,30,13.8,40.3c9,7.3,20.7,10.7,32.1,11.7
			c39.7,0,79.5,0,119.2,0c12-1.1,24.7-3.7,34.1-11.9c8.7-8.2,11.6-20.5,12.8-32c0-18.4,0-36.7,0-55.1c-31.3,0-62.7,0-94,0
			c0,8.7,0,17.4,0,26c-0.4,6.3-1,13.5-6.2,17.8c-7.8,3.9-17-2-16.7-10.7c-0.2-36.1-0.2-72.2,0-108.3c-0.3-8.6,8.8-14.6,16.6-10.7
			c1.4,1.4,2.8,2.8,4.2,4.2c2.7,9.3,2.1,19.1,2.1,28.7c31.3,0,62.7,0,94,0c0-13.7,0-27.4,0-41.1c-1.2-12.4-3.8-25.7-12.8-35
			c-9.7-8.4-22.8-10.6-35.1-11.9c-39.4,0-78.9-0.1-118.3,0C615.1,313.3,602.8,315,594.2,323.2z M154.6,312.5
			c-0.3,6.8-2.1,13.3-3.1,20c-12.7,72.7-25.8,145.3-38.2,218c32,0,64,0,96,0c2.1-17,3.8-34,5.3-51c8.6,0,17.2,0,25.8,0
			c1.6,17,3.1,34,5.3,51c32,0,64,0,95.9,0c-0.1-2.1-0.2-4.2-0.7-6.3c-13.5-77.3-27.3-154.5-40.7-231.7
			C251.8,312.5,203.2,312.5,154.6,312.5z M351.5,312.5c0,79.3,0,158.7,0,238c31,0,62,0,93,0c0-32.7,0-65.3,0-98
			c6.5,0.3,13.7-1.3,19.3,2.8c2.4,2.3,3.4,5.9,3.7,9.1c0,28.7,0,57.4,0,86.1c31.7,0,63.3,0,95,0c0-21.7,0-43.3,0-65
			c-1.2-15.6-1.8-32.4-11.3-45.7c-5.7-8.9-15.9-13.3-25.5-16.8c8.3-1.4,15.9-5.6,22.4-10.9c7.9-7.4,11.4-18.1,13.1-28.5
			c0.7-18.7,2-39.8-10.6-55.2c-12.4-13.5-32-14.9-49.2-15.8C451.5,312.5,401.5,312.5,351.5,312.5z M811.5,312.5
			c0,79.3,0,158.7,0,238c31,0,62,0,93,0c0-34.3,0-68.7,0-103c7.7,0,15.3,0,23,0c0,34.3,0,68.7,0,103c31,0,62,0,93,0
			c0-79.3,0-158.7,0-238c-31,0-62,0-93,0c0,26.7,0,53.3,0,80c-7.7,0-15.3,0-23,0c0-26.7,0-53.3,0-80
			C873.5,312.5,842.5,312.5,811.5,312.5z M1041.5,312.5c0,79.3,0,158.7,0,238c31,0,62,0,93,0c0-79.3,0-158.7,0-238
			C1103.5,312.5,1072.5,312.5,1041.5,312.5z M53.5,608.5c0,1.9,0,3.8,0,5.8c380,0.1,760-0.2,1139.9,0.1c-0.1-2-0.2-3.9-0.2-5.9
			C813.3,608.5,433.4,608.5,53.5,608.5z M113.8,672.6c0.2,4-0.6,7.8-1.3,11.7c11-0.4,22,0.6,32.9-0.8c25.8-0.3,51.5-0.4,77.3-0.2
			c-5.5,67.6-6.6,135.6-14.3,203.1c8-0.1,16-0.1,24,0c-0.4-16.6,0.2-33.1,1.4-49.6c2.7-47.8,5.8-95.5,8.4-143.3
			c0.6-3.3-1-7.5,1.5-10.1c36.2-0.5,72.4-0.3,108.5,1c-0.3-4,0-7.9,1.3-11.7C273.7,672.8,193.7,672.9,113.8,672.6z M558.7,672.7
			c-1,5.5-1,11.2-1.1,16.8c8.9-0.9,17.8-1,26.7,0c-0.3-5.7,0.7-11.2,1.2-16.8C576.6,672.7,567.7,672.7,558.7,672.7z M1115.5,672.5
			c-0.4,18.6,1,37.3-1,55.7c-8.5-1.6-17.3-1.3-25.8-2.7c-15.7,0.1-31.5-2.6-47.2-0.4c-34.7,1.2-70.6,6.5-101.2,24.1
			c-11,7-22,14.7-29.3,25.8c-17.8,22.6-20.2,57.5-1.2,80.1c21.7,24.5,56.1,31.9,87.4,33.7c10.8,1.8,21.7-0.4,32.5-0.6
			c22.7-3.1,46.5-8.1,64.7-22.9c6.3-4.3,10.5-10.7,15.2-16.6c-0.7,12.6-2.9,25.1-3.1,37.7c7,0,14,0,21,0
			c-0.3-43.4,2.6-86.5,4.4-129.7c1.5-28.1,2.5-56.3,5.8-84.3C1130.3,672.5,1122.9,672.5,1115.5,672.5z M477.5,725.2
			c-18.8,1.3-38.6,4-54.5,14.8c-6.4,4.1-11,10.3-16.7,15.2c0.4-9.3,0.6-18.7,2.4-27.8c-6.5,1.8-13.5,1.4-20.1,0.4
			c0.7,23.7-1,47.2-2.1,70.8c-2.1,29.3-3.7,58.6-6.9,87.7c7.3-0.1,14.7-0.2,22,0.1c-0.9-21,0.7-42,1-63c2.1-17.7,1.2-36.4,9-53
			c6.7-14,20.4-22.8,34.1-28.9c20.8-8.7,44-6.9,65.9-4c0.1-4.1,0.1-8.2-1.7-11.9C498.9,725.8,488.2,723.5,477.5,725.2z M660.7,732.6
			c-0.2,4.5-1.9,8.7-2.5,13.2c35-8.9,71.2-12.6,107.3-11c14.6,1.4,30,2.3,43,9.7c7.1,3,14.2,9.8,13,18.2c-0.4,6.1-5.8,10-9.8,14
			c-12.8,9.4-29,11.3-44.1,14.7c-33.8,5.6-68,9.8-101,19.3c-13.8,4.8-28.9,9.9-37.9,22c-6.6,7.8-6.7,19.4-2.9,28.4
			c5.8,10.4,16.4,16.8,27.3,20.8c16,5.6,33.1,6.2,49.7,7.2c24.5,1.5,49-1.3,73.4-3.6c1.2-4.5,2.7-8.9,4.3-13.2
			c-26.7,5.5-53.8,8.5-81,6.9c-15.5-1.6-32.1-3-45.2-12.5c-8.1-4.6-13.4-15-9.7-24.1c4.5-12.7,18.4-17.5,29.7-22.5
			c36.2-12.4,74.7-14.8,111.9-23.1c12.1-2.5,23.9-6.5,34.6-12.8c-3.6,34-3.5,68.4-10.4,102.2c7.7,0.1,15.5,0,23.2,0
			c-0.2-16.4,0-32.8,1.7-49c0.8-24.7,5.9-49.2,5.3-74c0.5-9.4-4-19-12.2-23.9c-21.7-13.6-48.2-13.1-72.8-15.2
			C723.7,724.3,692,726.8,660.7,732.6z M558.5,727.9c0.3,16.2-1.5,32.4-1.8,48.6c-2.8,36.7-4.1,73.5-8.9,110
			c7.2-0.4,14.4-0.2,21.7-0.1c0.6-53,5.4-105.8,10.2-158.5C572.7,729,565.4,728.8,558.5,727.9z M512.8,1133.8
			c-8,7.1-9.6,18.7-7.5,28.7c3,12.9,15.8,22.8,29.2,21.8c11.1,0.9,20.8-6.3,26.6-15.3c6.9-13.7,2.8-32.5-11-40.3
			C538.7,1121.9,521.7,1123.2,512.8,1133.8z M617.8,1125c-13.8,2.1-25.4,15.3-24.3,29.5c-0.4,5.4,1,10.7,3.8,15.3
			c7.1,14.4,27.1,18.4,40.8,11.3c6.1-3.9,11.6-9.4,13.5-16.6c5.7-14.4-2.2-32.9-17.2-37.8C629.2,1124.3,623.3,1124.4,617.8,1125z
			 M684.9,1140.9c-6.2,13.5-2.5,31.7,11.1,39.1c16.5,11.3,43.1,0.6,45.5-19.7c2-6.6-0.4-13.2-2.3-19.4c-1.5-2-2.8-4.1-4.1-6.1
			C722.1,1119.1,693.5,1122.1,684.9,1140.9z"/>
	</g>
	<path d="M444.5,367.5c6.8,0.3,14.9-1.6,20.2,3.7c4.1,6.7,3.3,15.4,1.6,22.8c-0.8,1.1-1.6,2.2-2.3,3.4c-5.9,3.5-12.9,3.4-19.5,3.2
		C444.5,389.5,444.5,378.5,444.5,367.5z"/>
	<path d="M226.5,375.9c0.5-0.4,1.5-1.3,2-1.7c1.9,23.8,5.1,47.6,8.2,71.4c-6.1,0-12.3,0-18.4,0C221.2,422.3,224.5,399.1,226.5,375.9
		z"/>
	<path d="M984.6,744c41.8-11.9,86.3-12,128.9-4.3c0.7,10.7-1.6,21.1-1,31.8c-2,19.4-0.4,39.7-7.7,58.2
		c-8.5,20.8-27.8,35.3-48.4,42.7c-21.2,7-44,8.5-66.1,6.1c-21.1-2.4-43.2-8.7-58.4-24.3c-9.9-11-16.3-25.8-14.8-40.7
		c0.4-10.8,5.1-20.7,10.5-29.8C940.1,763.2,962.3,750.9,984.6,744z"/>
</g>
<g>
	<path class="st0" d="M5.7,5.7c409.3-0.2,818.5,0,1227.8-0.1c2.7,0,5.5-0.1,8.2,0.5c-3.7,0.5-7.5,0.2-11.2,0.2
		c-408,0.1-816-0.1-1224.1,0.1c-0.1,334,0,668,0,1002.1c-0.2,77.7,0.3,155.5-0.2,233.2c-0.6-2.7-0.5-5.5-0.6-8.2
		C5.7,824.2,5.5,415,5.7,5.7z"/>
	<path class="st0" d="M594.2,323.2c8.5-8.2,20.9-9.9,32.1-11.6c39.4-0.1,78.9,0,118.3,0c12.3,1.3,25.5,3.5,35.1,11.9
		c9,9.3,11.6,22.6,12.8,35c0,13.7,0,27.4,0,41.1c-31.3,0-62.7,0-94,0c0-9.6,0.6-19.3-2.1-28.7c-1.4-1.4-2.8-2.8-4.2-4.2
		c-7.7-3.9-16.9,2.1-16.6,10.7c-0.2,36.1-0.2,72.2,0,108.3c-0.3,8.7,8.9,14.5,16.7,10.7c5.3-4.4,5.8-11.5,6.2-17.8
		c0-8.7,0-17.4,0-26c31.3,0,62.7,0,94,0c0,18.4,0,36.7,0,55.1c-1.2,11.5-4.1,23.8-12.8,32c-9.4,8.2-22.1,10.7-34.1,11.9
		c-39.7,0-79.5,0-119.2,0c-11.4-1-23.1-4.4-32.1-11.7c-11-10.3-13.3-26-13.8-40.3c0-44.3,0-88.7,0-133
		C581.7,351.5,582.7,334.4,594.2,323.2z"/>
	<g>
		<path class="st0" d="M154.6,312.5c48.6,0,97.1,0,145.7,0c13.4,77.3,27.2,154.5,40.7,231.7c0.5,2.1,0.5,4.2,0.7,6.3
			c-32,0-64,0-95.9,0c-2.2-17-3.7-34-5.3-51c-8.6,0-17.2,0-25.8,0c-1.5,17-3.2,34-5.3,51c-32,0-64,0-96,0
			c12.4-72.7,25.5-145.3,38.2-218C152.5,325.8,154.4,319.3,154.6,312.5z M226.5,375.9c-2.1,23.3-5.4,46.4-8.2,69.6
			c6.1,0,12.3,0,18.4,0c-3.1-23.7-6.3-47.5-8.2-71.4C228,374.5,227,375.4,226.5,375.9z"/>
	</g>
	<g>
		<path class="st0" d="M351.5,312.5c50,0,100,0,150,0c17.2,0.9,36.7,2.3,49.2,15.8c12.6,15.5,11.3,36.5,10.6,55.2
			c-1.6,10.5-5.1,21.1-13.1,28.5c-6.5,5.3-14.1,9.5-22.4,10.9c9.6,3.5,19.8,7.9,25.5,16.8c9.4,13.3,10,30.1,11.3,45.7
			c-0.1,21.7,0,43.3,0,65c-31.7,0-63.3,0-95,0c0-28.7,0-57.4,0-86.1c-0.3-3.2-1.3-6.8-3.7-9.1c-5.6-4-12.8-2.5-19.3-2.8
			c0,32.7,0,65.3,0,98c-31,0-62,0-93,0C351.5,471.2,351.5,391.8,351.5,312.5z M444.5,367.5c0,11,0,22,0,33
			c6.6,0.2,13.6,0.3,19.5-3.2c0.7-1.2,1.5-2.3,2.3-3.4c1.7-7.3,2.5-16.1-1.6-22.8C459.4,366,451.3,367.8,444.5,367.5z"/>
	</g>
	<path class="st0" d="M811.5,312.5c31,0,62,0,93,0c0,26.7,0,53.3,0,80c7.7,0,15.3,0,23,0c0-26.7,0-53.3,0-80c31,0,62,0,93,0
		c0,79.3,0,158.7,0,238c-31,0-62,0-93,0c0-34.3,0-68.7,0-103c-7.7,0-15.3,0-23,0c0,34.3,0,68.7,0,103c-31,0-62,0-93,0
		C811.5,471.2,811.5,391.8,811.5,312.5z"/>
	<ellipse class="st0" cx="1088" cy="431.5" rx="65.8" ry="168.3"/>
	<path class="st0" d="M53.5,608.5c379.9,0,759.8,0,1139.7,0c0,2,0.1,3.9,0.2,5.9c-380-0.3-760-0.1-1139.9-0.1
		C53.5,612.3,53.5,610.4,53.5,608.5z"/>
	<path class="st0" d="M113.8,672.6c80,0.3,159.9,0.1,239.8,0.1c-1.3,3.8-1.6,7.8-1.3,11.7c-36.1-1.3-72.3-1.5-108.5-1
		c-2.5,2.6-1,6.8-1.5,10.1c-2.7,47.8-5.8,95.5-8.4,143.3c-1.3,16.5-1.9,33-1.4,49.6c-8-0.1-16-0.1-24,0
		c7.6-67.5,8.8-135.4,14.3-203.1c-25.8-0.2-51.5-0.1-77.3,0.2c-10.9,1.4-21.9,0.5-32.9,0.8C113.1,680.5,114,676.6,113.8,672.6z"/>
	<path class="st0" d="M558.7,672.7c8.9,0,17.9,0.1,26.8,0c-0.5,5.6-1.5,11.2-1.2,16.8c-8.9-1.1-17.8-1-26.7,0
		C557.7,683.8,557.7,678.2,558.7,672.7z"/>
	<g>
		<path class="st0" d="M1115.5,672.5c7.4,0,14.8,0,22.2,0c-3.3,28-4.3,56.2-5.8,84.3c-1.8,43.2-4.7,86.3-4.4,129.7c-7,0-14,0-21,0
			c0.2-12.6,2.4-25.1,3.1-37.7c-4.7,5.8-8.9,12.3-15.2,16.6c-18.2,14.9-42,19.8-64.7,22.9c-10.8,0.2-21.7,2.4-32.5,0.6
			c-31.3-1.9-65.7-9.3-87.4-33.7c-19-22.7-16.5-57.5,1.2-80.1c7.3-11.1,18.3-18.8,29.3-25.8c30.6-17.6,66.5-22.9,101.2-24.1
			c15.7-2.2,31.5,0.5,47.2,0.4c8.5,1.4,17.3,1.1,25.8,2.7C1116.5,709.8,1115.1,691.1,1115.5,672.5z M984.6,744
			c-22.3,6.9-44.5,19.2-57,39.7c-5.4,9.1-10.1,19-10.5,29.8c-1.5,14.9,4.9,29.7,14.8,40.7c15.2,15.6,37.3,21.9,58.4,24.3
			c22.1,2.5,44.8,1,66.1-6.1c20.7-7.4,39.9-21.9,48.4-42.7c7.3-18.6,5.7-38.8,7.7-58.2c-0.6-10.7,1.7-21.1,1-31.8
			C1070.9,732.1,1026.5,732.1,984.6,744z"/>
	</g>
	<path class="st0" d="M477.5,725.2c10.7-1.8,21.5,0.5,32.2,0.4c1.8,3.7,1.8,7.8,1.7,11.9c-21.8-2.9-45-4.7-65.9,4
		c-13.8,6.1-27.4,15-34.1,28.9c-7.8,16.5-6.8,35.3-9,53c-0.3,21-1.9,41.9-1,63c-7.3-0.2-14.7-0.1-22-0.1c3.2-29.2,4.8-58.5,6.9-87.7
		c1.1-23.6,2.8-47.1,2.1-70.8c6.6,1,13.6,1.3,20.1-0.4c-1.8,9.1-2,18.5-2.4,27.8c5.7-4.9,10.3-11.1,16.7-15.2
		C438.9,729.2,458.7,726.6,477.5,725.2z"/>
	<path class="st0" d="M660.7,732.6c31.3-5.8,63-8.4,94.8-8.1c24.6,2,51.1,1.6,72.8,15.2c8.2,4.8,12.7,14.5,12.2,23.9
		c0.6,24.8-4.5,49.3-5.3,74c-1.7,16.2-1.9,32.6-1.7,49c-7.7,0-15.5,0-23.2,0c6.9-33.7,6.8-68.1,10.4-102.2
		c-10.7,6.3-22.5,10.3-34.6,12.8c-37.2,8.3-75.7,10.7-111.9,23.1c-11.3,5-25.3,9.8-29.7,22.5c-3.7,9.1,1.6,19.5,9.7,24.1
		c13.1,9.5,29.7,10.8,45.2,12.5c27.2,1.5,54.4-1.4,81-6.9c-1.6,4.3-3.1,8.7-4.3,13.2c-24.4,2.3-48.9,5.1-73.4,3.6
		c-16.7-1-33.8-1.5-49.7-7.2c-10.9-4.1-21.5-10.5-27.3-20.8c-3.9-9-3.8-20.6,2.9-28.4c9-12.2,24.2-17.3,37.9-22
		c33-9.5,67.2-13.7,101-19.3c15.1-3.3,31.3-5.3,44.1-14.7c4-3.9,9.5-7.9,9.8-14c1.2-8.4-5.9-15.2-13-18.2c-13-7.4-28.5-8.3-43-9.7
		c-36.1-1.6-72.3,2.1-107.3,11C658.8,741.3,660.5,737.1,660.7,732.6z"/>
	<path class="st0" d="M558.5,727.9c6.9,0.9,14.2,1.1,21.1-0.1c-4.7,52.8-9.5,105.5-10.2,158.5c-7.2,0-14.5-0.3-21.7,0.1
		c4.8-36.5,6-73.4,8.9-110C557,760.3,558.8,744.1,558.5,727.9z"/>
	<path class="st0" d="M512.8,1133.8c8.9-10.6,25.8-11.9,37.4-4.9c13.7,7.8,17.8,26.5,11,40.3c-5.8,8.9-15.5,16.2-26.6,15.3
		c-13.4,1-26.2-8.9-29.2-21.8C503.2,1152.6,504.8,1140.9,512.8,1133.8z"/>
	<path class="st0" d="M617.8,1125c5.6-0.6,11.4-0.8,16.6,1.7c14.9,5,22.8,23.4,17.2,37.8c-2,7.2-7.4,12.7-13.5,16.6
		c-13.7,7.1-33.6,3.1-40.8-11.3c-2.8-4.6-4.2-9.9-3.8-15.3C592.3,1140.3,604,1127.1,617.8,1125z"/>
	<path class="st0" d="M684.9,1140.9c8.6-18.8,37.2-21.8,50.2-6.1c1.3,2,2.6,4.1,4.1,6.1c1.9,6.3,4.3,12.9,2.3,19.4
		c-2.4,20.3-29,30.9-45.5,19.7C682.3,1172.7,678.6,1154.4,684.9,1140.9z"/>
</g>
</svg>
