<svg id="Capa_1" data-name="Capa 1" xmlns="http://www.w3.org/2000/svg" viewBox="0 0 1024 1086"><defs><style>.cls-1{fill:#fff;}</style></defs><title>1024x1080</title><rect class="cls-1" width="1024" height="1062.4"/><polygon points="0 0 190 0 115.32 1086 0 1086 0 0"/><g id="Layer_1" data-name="Layer 1"><path class="cls-1" d="M12.06,607.88v-2H114v2Z"/><path class="cls-1" d="M31.59,818.3c-2.51-3.93-3-9.23-3.11-14.13,0-13.23-.06-26.47,0-39.7.21-6.08,1.21-13.46,5.91-16.5,6-3.74,12.9-2.15,19.32-2.48,0,11.57,0,23.13,0,34.73-2.59.15-5.21-.37-7.75.45-2.21.67-2.73,4.71-1.35,6.75,1.21,1.48,3,1.41,4.58,1.52H76.56c1.53-.08,3.23,0,4.5-1.3,1.72-2,1-6.53-1.47-7-3.43-.82-6.94-.19-10.43-.41,0-11.57,0-23.17,0-34.74,4.5-.07,9,0,13.45,0,4-.08,8.47.85,11.32,4.81s3.31,9.49,3.51,14.57v40c-.17,4.93-.92,10.27-3.65,14s-6.83,4.75-10.6,4.78c-13.25,0-26.49,0-39.74,0C39.24,823.45,34.49,822.63,31.59,818.3Z"/><path class="cls-1" d="M29,981.59c-.14-17.87,0-35.73-.05-53.64q34-7.79,68.07-15.46c0,11.83,0,23.65,0,35.48-4.89.7-9.82,1.26-14.71,2,0,3.23,0,6.45,0,9.68,4.89.66,9.82,1.26,14.71,2,0,11.75,0,23.54,0,35.29h-.72C73.86,991.64,51.4,986.67,29,981.59Zm15.73-26.84c7.48,1.26,15,2.41,22.46,3.6,0-2.34,0-4.71,0-7C59.63,952.42,52.15,953.53,44.69,954.75Z"/><path class="cls-1" d="M28.91,908.6c0-17.39,0-34.77,0-52.2-.09-6.37-.09-13.34,2.79-18.83,2.48-4.63,7.06-6.19,11.17-6.48,4.35-.23,9.1-.08,12.79,3.29,2.65,2.45,4,6.49,4.89,10.38.84-4.3,2.77-8.45,5.85-10.63,4.12-2.93,9-3.16,13.59-3.27H97v34.85H73.37c-1.47,0-3.31.26-4.06,2.19s-.29,4.3-.38,6.41c9.36,0,18.69,0,28.05,0,0,11.42,0,22.87,0,34.29Zm15.55-34.29c3.19,0,6.36,0,9.56,0-.12-2.59.54-6.08-1.44-7.78a7,7,0,0,0-6.6-.12C43.82,867.93,44.57,871.68,44.46,874.31Z"/><path class="cls-1" d="M28.91,738.08c0-11.42,0-22.88,0-34.3,7.69,0,15.35,0,23,0v-8.57c-7.69,0-15.35,0-23,0V660.89H97v34.29c-9.85,0-19.67,0-29.51,0v8.56c9.82.12,19.66,0,29.48,0,0,11.42,0,22.87,0,34.29Q63,738.07,28.91,738.08Z"/><path class="cls-1" d="M28.91,653q0-17.13,0-34.26H97V653C74.29,653,51.6,653,28.91,653Z"/><path class="cls-1" d="M29.05,595.17q0-29.19,0-58.43a19.86,19.86,0,0,0,3.6.49c-.49,13.42-.43,26.87-.43,40.33q26.47,1.79,53,3.63c4,.37,8,.11,11.93.19-.09,2.89-.06,5.74,0,8.63-5.5-.55-11-1.4-16.53-1.7q-24.19-1.66-48.38-3.37c0,3.41,0,6.82,0,10.23C31.15,595.2,30.12,595.2,29.05,595.17Z"/><path class="cls-1" d="M29.11,460.75c0-3.26,0-6.52,0-9.79,1.67.19,3.31.23,5,.34-.11,3.22-.09,6.48,0,9.71C32.42,460.93,30.78,460.82,29.11,460.75Z"/><path class="cls-1" d="M29.11,254.86c0-2.67,0-5.3,0-8,11.66,1.37,23.38,1.82,35.1,2.52,11,.63,22,1.19,32.94,1.15,0,2.52,0,5.08,0,7.6-4.14-.41-8.29-.93-12.44-1.3a29.72,29.72,0,0,1,6.05,6.38c3.49,5.19,5.36,11.82,6.39,18.5a83.85,83.85,0,0,1-.77,30.1c-1.59,7.3-4.5,14.53-9.3,19.12-7.26,6.64-17.51,5.9-24.8-.25-7.54-6.12-12-16.87-14.19-27.7-3-15.64-2.74-32-1.3-47.89A94.14,94.14,0,0,0,29.11,254.86Zm20.27,35.92c.84,7.41,2.36,14.83,5.39,21.35,3.85,8.68,10.88,15.09,18.66,16.17,6,.81,12.29-2.56,16.12-8.64,3-4.82,4.52-11,5.27-17.05a69.67,69.67,0,0,0-1.35-24.32c-2.59-10.64-9.88-19.5-18.6-21-8.12-1.41-16.36-1.3-24.54-2A126.33,126.33,0,0,0,49.38,290.78Z"/><path class="cls-1" d="M46,493.48a72.42,72.42,0,0,1,.2-14.94,21.28,21.28,0,0,0,3.46-.37A73.69,73.69,0,0,0,49,493.52c.52,7.45,3.34,14.68,7.92,19.35a17.11,17.11,0,0,0,10.13,4.67c10,1.41,20,1.34,30.09,1.52-.05,2.56-.05,5.15,0,7.71-16.76-1.63-33.54-3.33-50.36-3.19.09-2.33.09-4.7,0-7,3.05.26,6.13.59,9.21.82a32.48,32.48,0,0,1-5.93-7.53C47.54,505,46.5,499.19,46,493.48Z"/><path class="cls-1" d="M48.14,422.71c-2.42-16.45-3.42-33.47-1.24-50,.7-4.37,1.79-8.79,4-12.27a8.37,8.37,0,0,1,7.51-3.86c5.79.08,11.52.93,17.28,1.56a187.52,187.52,0,0,0,21.43,1.15c-.09,2.71,0,5.38,0,8.08-10.8-2.15-21.74-2.48-32.63-3.56a46.22,46.22,0,0,1,3.37,9.42C70.55,385.31,71.41,398,74,410.11c1.21,5.67,2.68,11.49,5.68,16.05,2.27,3.56,6.68,4.64,9.59,1.82,3.45-3.45,4.92-9.16,5.5-14.53A125.16,125.16,0,0,0,93,378.93c1.26.52,2.53,1,3.83,1.45a181.88,181.88,0,0,1,.75,34.92c-.44,5.82-1.67,11.75-4.58,16.35-2.08,3.41-5.5,5.71-8.93,5s-6.25-4-8-7.78c-2.71-6-4.06-12.83-5.27-19.54-2.16-11.42-2.86-23.24-5.45-34.51-1-4.3-2.76-8.75-6-10.9-2.39-1.59-5.35-.07-6.85,2.63-3.2,5.56-3.63,12.76-3.92,19.43a152,152,0,0,0,3.49,37.81C50.82,423.35,49.47,423.05,48.14,422.71Z"/><path class="cls-1" d="M46.76,460.56c.09-2.52.09-5.07,0-7.6a488.72,488.72,0,0,0,50.37,3.86c-.12,2.59,0,5.15-.09,7.71C80.34,462.49,63.55,461.34,46.76,460.56Z"/></g><ellipse class="cls-1" cx="39.1" cy="235.08" rx="7.24" ry="8.12"/><ellipse class="cls-1" cx="65.43" cy="235.08" rx="7.24" ry="8.12"/><ellipse class="cls-1" cx="90.76" cy="235.08" rx="7.24" ry="8.12"/></svg>