<?xml version="1.0" encoding="utf-8"?>
<!-- Generator: Adobe Illustrator 22.1.0, SVG Export Plug-In . SVG Version: 6.00 Build 0)  -->
<svg version="1.1" id="Capa_1" xmlns="http://www.w3.org/2000/svg" xmlns:xlink="http://www.w3.org/1999/xlink" x="0px" y="0px"
	 viewBox="0 0 2560 1440" style="enable-background:new 0 0 2560 1440;" xml:space="preserve">
<style type="text/css">
	.st0{fill:#FFFFFF;}
</style>
<rect x="0" class="st0" width="2560" height="1440"/>
<polygon points="0.4,0 336,0 204.1,1458 0.4,1458 "/>
<g id="Layer_1">
	<g>
		<path class="st0" d="M36,815.1v-2.4c52.1,0,104.2,0,156.3,0v2.4C140.2,815.1,88.1,815.1,36,815.1z"/>
		<path class="st0" d="M66,1063.3c-3.8-4.6-4.5-10.9-4.8-16.7c0-15.6-0.1-31.2,0-46.8c0.3-7.2,1.9-15.9,9-19.5
			c9.2-4.4,19.8-2.5,29.6-2.9c0,13.6,0,27.3,0,41c-4,0.2-8-0.4-11.9,0.5c-3.4,0.8-4.2,5.6-2.1,8c1.9,1.7,4.6,1.7,7,1.8
			c14,0,27.9,0,41.9,0c2.3-0.1,4.9,0,6.9-1.5c2.6-2.4,1.5-7.7-2.3-8.3c-5.3-1-10.6-0.2-16-0.5c0-13.6,0-27.3,0-41
			c6.9-0.1,13.7,0,20.6,0c6.1-0.1,13,1,17.3,5.7c4.1,4.7,5.1,11.2,5.4,17.2c0,15.7,0,31.5,0,47.2c-0.3,5.8-1.4,12.1-5.6,16.5
			c-4.1,4.3-10.5,5.6-16.2,5.6c-20.3,0-40.6,0-60.9,0C77.7,1069.4,70.4,1068.4,66,1063.3z"/>
		<g>
			<path class="st0" d="M61.9,1255.9c-0.2-21.1,0-42.2-0.1-63.3c34.8-6.1,69.6-12.2,104.3-18.2c0,13.9,0,27.9,0,41.8
				c-7.5,0.8-15.1,1.5-22.6,2.4c0,3.8,0,7.6,0,11.4c7.5,0.8,15.1,1.5,22.6,2.3c0,13.9,0,27.8,0,41.6h-1.1
				C130.7,1267.8,96.3,1261.9,61.9,1255.9z M86,1224.3c11.5,1.5,23,2.8,34.4,4.2c0-2.8,0-5.6,0-8.3
				C108.9,1221.5,97.5,1222.8,86,1224.3z"/>
		</g>
		<g>
			<path class="st0" d="M61.8,1169.8c0-20.5,0-41,0-61.6c-0.1-7.5-0.1-15.7,4.3-22.2c3.8-5.5,10.8-7.3,17.1-7.7
				c6.7-0.3,13.9-0.1,19.6,3.9c4.1,2.9,6.2,7.7,7.5,12.2c1.3-5.1,4.2-10,9-12.6c6.3-3.5,13.8-3.7,20.8-3.8c8.7,0,17.3,0,26,0
				c0,13.7,0,27.4,0,41.1c-12,0-24.1,0-36.2,0c-2.3,0-5.1,0.3-6.2,2.6c-1.1,2.4-0.4,5.1-0.6,7.6c14.3,0,28.6,0,43,0
				c0,13.5,0,27,0,40.5C131.4,1169.8,96.6,1169.8,61.8,1169.8z M85.7,1129.4c4.9,0,9.8,0,14.7,0c-0.2-3.1,0.8-7.2-2.2-9.2
				c-3.1-1.4-6.9-1.3-10.1-0.1C84.7,1121.9,85.9,1126.3,85.7,1129.4z"/>
		</g>
		<path class="st0" d="M61.8,968.7c0-13.5,0-27,0-40.5c11.8,0,23.5,0,35.3,0c0-3.4,0-6.7,0-10.1c-11.8,0-23.5,0-35.3,0
			c0-13.5,0-26.9,0-40.4c34.8,0,69.6,0,104.3,0c0,13.5,0,26.9,0,40.5c-15.1,0-30.1,0-45.2,0c0,3.4,0,6.7,0,10.1
			c15.1,0.1,30.1,0,45.2,0c0,13.5,0,27,0,40.5C131.4,968.7,96.6,968.7,61.8,968.7z"/>
		<path class="st0" d="M61.8,868.3c0-13.5,0-26.9,0-40.4c34.8,0,69.6,0,104.3,0c0,13.5,0,26.9,0,40.4
			C131.4,868.3,96.6,868.4,61.8,868.3z"/>
		<path class="st0" d="M62.1,800.1c0-23,0-46,0-68.9c1.8,0.3,3.7,0.5,5.5,0.6c-0.8,15.8-0.7,31.7-0.7,47.6
			c27.1,1.4,54.1,2.8,81.2,4.3c6.1,0.4,12.2,0.1,18.3,0.2c-0.1,3.4-0.1,6.8,0,10.2c-8.4-0.7-16.9-1.7-25.3-2
			c-24.7-1.3-49.4-2.7-74.2-4c0,4,0,8,0,12.1C65.3,800.1,63.7,800.1,62.1,800.1z"/>
		<path class="st0" d="M62.2,641.5c0-3.8,0-7.7,0-11.5c2.6,0.2,5.1,0.3,7.6,0.4c-0.2,3.8-0.1,7.7,0,11.5
			C67.2,641.7,64.7,641.6,62.2,641.5z"/>
		<g>
			<path class="st0" d="M62.2,398.7c0-3.1,0-6.3,0-9.4c17.9,1.6,35.8,2.1,53.8,3c16.8,0.7,33.7,1.4,50.5,1.4c0,3,0,6,0,9
				c-6.4-0.5-12.7-1.1-19.1-1.5c3.3,2.2,6.7,4.4,9.3,7.5c5.3,6.1,8.2,13.9,9.8,21.8c2.3,11.7,2,24-1.2,35.5
				c-2.4,8.6-6.9,17.1-14.3,22.6c-11.1,7.8-26.8,7-38-0.3c-11.6-7.2-18.4-19.9-21.8-32.7c-4.6-18.5-4.2-37.7-2-56.5
				C80.2,398.1,71.2,398.2,62.2,398.7z M93.2,441c1.3,8.7,3.6,17.5,8.3,25.2c5.9,10.2,16.7,17.8,28.6,19.1c9.3,1,18.8-3,24.7-10.2
				c4.7-5.7,6.9-12.9,8.1-20.1c1.4-9.5,0.9-19.5-2.1-28.7c-4-12.6-15.1-23-28.5-24.8c-12.4-1.7-25.1-1.5-37.6-2.3
				C91.6,412.9,91.2,427.2,93.2,441z"/>
		</g>
		<path class="st0" d="M88.1,680.1c-0.6-5.9-0.7-11.8,0.3-17.6c1.8,0,3.5-0.2,5.3-0.4c-1,6-1.7,12.1-1,18.1
			c0.8,8.8,5.1,17.3,12.1,22.8c4.4,3.4,10,4.9,15.5,5.5c15.3,1.7,30.7,1.6,46.1,1.8c-0.1,3-0.1,6.1,0,9.1
			c-25.7-1.9-51.4-3.9-77.2-3.8c0.1-2.8,0.1-5.6,0-8.3c4.7,0.3,9.4,0.7,14.1,1c-3.3-2.6-6.7-5.3-9.1-8.9
			C90.4,693.7,88.8,686.9,88.1,680.1z"/>
		<path class="st0" d="M91.3,596.7c-3.7-19.4-5.3-39.5-1.9-59c1.1-5.2,2.7-10.4,6.1-14.5c2.7-3.3,7.3-4.7,11.5-4.5
			c8.9,0.1,17.7,1.1,26.5,1.8c10.9,0.8,21.9,1.5,32.8,1.4c-0.1,3.2,0,6.3,0,9.5c-16.6-2.5-33.3-2.9-50-4.2c2,3.5,4.1,7.1,5.2,11.1
			c4.1,14.3,5.5,29.2,9.4,43.6c1.9,6.7,4.1,13.6,8.7,18.9c3.5,4.2,10.2,5.5,14.7,2.1c5.3-4.1,7.5-10.8,8.4-17.1
			c1.8-13.6,0.4-27.4-2.6-40.7c1.9,0.6,3.9,1.2,5.9,1.7c2,13.6,2.6,27.5,1.1,41.2c-0.7,6.9-2.6,13.9-7,19.3c-3.2,4-8.4,6.7-13.7,5.9
			c-5.3-0.8-9.6-4.8-12.3-9.2c-4.1-7.1-6.2-15.1-8.1-23c-3.3-13.5-4.4-27.4-8.3-40.7c-1.5-5.1-4.2-10.3-9.1-12.9
			c-3.7-1.9-8.2-0.1-10.5,3.1c-4.9,6.6-5.6,15-6,22.9c-0.6,15,1.1,30.2,5.3,44.6C95.4,597.4,93.4,597.1,91.3,596.7z"/>
		<path class="st0" d="M89.2,641.3c0.1-3,0.1-6,0-9c25.6,2.4,51.4,4.2,77.2,4.5c-0.2,3.1,0,6.1-0.1,9.1
			C140.7,643.6,114.9,642.2,89.2,641.3z"/>
	</g>
</g>
<circle class="st0" cx="73.5" cy="366.5" r="11.5"/>
<circle class="st0" cx="115.5" cy="366.5" r="11.5"/>
<circle class="st0" cx="153.5" cy="366.5" r="11.5"/>
</svg>
