<?xml version="1.0" encoding="utf-8"?>
<!-- Generator: Adobe Illustrator 22.1.0, SVG Export Plug-In . SVG Version: 6.00 Build 0)  -->
<svg version="1.1" id="Calque_1" xmlns="http://www.w3.org/2000/svg" xmlns:xlink="http://www.w3.org/1999/xlink" x="0px" y="0px"
	 viewBox="0 0 738 63" style="enable-background:new 0 0 738 63;" xml:space="preserve">
<g>
	<path d="M16.2,22.6c-0.5-0.5-0.7-1.1-0.7-1.8c0-0.7,0.2-1.2,0.7-1.7s1.1-0.7,1.8-0.7c0.7,0,1.2,0.2,1.7,0.7s0.7,1.1,0.7,1.7
		c0,0.7-0.2,1.3-0.7,1.8s-1.1,0.7-1.7,0.7C17.3,23.3,16.7,23.1,16.2,22.6z M16.2,28.7c-0.5-0.5-0.7-1.1-0.7-1.8
		c0-0.7,0.2-1.2,0.7-1.7s1.1-0.7,1.8-0.7c0.7,0,1.2,0.2,1.7,0.7s0.7,1.1,0.7,1.7c0,0.7-0.2,1.3-0.7,1.8s-1.1,0.7-1.7,0.7
		C17.3,29.4,16.7,29.2,16.2,28.7z M16.2,34.9c-0.5-0.5-0.7-1.1-0.7-1.8c0-0.7,0.2-1.2,0.7-1.7s1.1-0.7,1.8-0.7
		c0.7,0,1.2,0.2,1.7,0.7s0.7,1.1,0.7,1.7c0,0.7-0.2,1.3-0.7,1.8s-1.1,0.7-1.7,0.7C17.3,35.6,16.7,35.3,16.2,34.9z M16.2,41
		c-0.5-0.5-0.7-1.1-0.7-1.8c0-0.7,0.2-1.2,0.7-1.7s1.1-0.7,1.8-0.7c0.7,0,1.2,0.2,1.7,0.7s0.7,1.1,0.7,1.7c0,0.7-0.2,1.3-0.7,1.8
		s-1.1,0.7-1.7,0.7C17.3,41.7,16.7,41.5,16.2,41z M16.2,47.1c-0.5-0.5-0.7-1.1-0.7-1.8c0-0.7,0.2-1.2,0.7-1.7s1.1-0.7,1.8-0.7
		c0.7,0,1.2,0.2,1.7,0.7s0.7,1.1,0.7,1.7c0,0.7-0.2,1.3-0.7,1.8s-1.1,0.7-1.7,0.7C17.3,47.8,16.7,47.6,16.2,47.1z M22.4,16.5
		c-0.5-0.5-0.7-1.1-0.7-1.8c0-0.7,0.2-1.2,0.7-1.7s1.1-0.7,1.8-0.7c0.7,0,1.2,0.2,1.7,0.7s0.7,1.1,0.7,1.7c0,0.7-0.2,1.3-0.7,1.8
		s-1.1,0.7-1.7,0.7C23.4,17.2,22.8,17,22.4,16.5z M22.4,53.2c-0.5-0.5-0.7-1.1-0.7-1.8c0-0.7,0.2-1.2,0.7-1.7s1.1-0.7,1.8-0.7
		c0.7,0,1.2,0.2,1.7,0.7s0.7,1.1,0.7,1.7c0,0.7-0.2,1.3-0.7,1.8s-1.1,0.7-1.7,0.7C23.4,53.9,22.8,53.7,22.4,53.2z M28.5,16.5
		c-0.5-0.5-0.7-1.1-0.7-1.8c0-0.7,0.2-1.2,0.7-1.7s1.1-0.7,1.8-0.7c0.7,0,1.2,0.2,1.7,0.7s0.7,1.1,0.7,1.7c0,0.7-0.2,1.3-0.7,1.8
		s-1.1,0.7-1.7,0.7C29.6,17.2,29,17,28.5,16.5z M28.5,53.2c-0.5-0.5-0.7-1.1-0.7-1.8c0-0.7,0.2-1.2,0.7-1.7s1.1-0.7,1.8-0.7
		c0.7,0,1.2,0.2,1.7,0.7s0.7,1.1,0.7,1.7c0,0.7-0.2,1.3-0.7,1.8s-1.1,0.7-1.7,0.7C29.6,53.9,29,53.7,28.5,53.2z M34.6,16.5
		c-0.5-0.5-0.7-1.1-0.7-1.8c0-0.7,0.2-1.2,0.7-1.7s1.1-0.7,1.8-0.7c0.7,0,1.2,0.2,1.7,0.7s0.7,1.1,0.7,1.7c0,0.7-0.2,1.3-0.7,1.8
		s-1.1,0.7-1.7,0.7C35.7,17.2,35.1,17,34.6,16.5z M34.6,53.2c-0.5-0.5-0.7-1.1-0.7-1.8c0-0.7,0.2-1.2,0.7-1.7s1.1-0.7,1.8-0.7
		c0.7,0,1.2,0.2,1.7,0.7s0.7,1.1,0.7,1.7c0,0.7-0.2,1.3-0.7,1.8s-1.1,0.7-1.7,0.7C35.7,53.9,35.1,53.7,34.6,53.2z M40.7,22.6
		c-0.5-0.5-0.7-1.1-0.7-1.8c0-0.7,0.2-1.2,0.7-1.7s1.1-0.7,1.8-0.7c0.7,0,1.2,0.2,1.7,0.7s0.7,1.1,0.7,1.7c0,0.7-0.2,1.3-0.7,1.8
		s-1.1,0.7-1.7,0.7C41.8,23.3,41.2,23.1,40.7,22.6z M40.7,47.1C40.3,46.6,40,46,40,45.3c0-0.7,0.2-1.2,0.7-1.7s1.1-0.7,1.8-0.7
		c0.7,0,1.2,0.2,1.7,0.7s0.7,1.1,0.7,1.7c0,0.7-0.2,1.3-0.7,1.8s-1.1,0.7-1.7,0.7C41.8,47.8,41.2,47.6,40.7,47.1z"/>
	<path d="M48.7,28.7C48.2,28.2,48,27.7,48,27c0-0.7,0.2-1.2,0.7-1.7s1.1-0.7,1.8-0.7c0.7,0,1.2,0.2,1.7,0.7s0.7,1.1,0.7,1.7
		c0,0.7-0.2,1.3-0.7,1.8s-1.1,0.7-1.7,0.7C49.7,29.4,49.1,29.2,48.7,28.7z M48.7,34.9c-0.5-0.5-0.7-1.1-0.7-1.8
		c0-0.7,0.2-1.2,0.7-1.7s1.1-0.7,1.8-0.7c0.7,0,1.2,0.2,1.7,0.7s0.7,1.1,0.7,1.7c0,0.7-0.2,1.3-0.7,1.8s-1.1,0.7-1.7,0.7
		C49.7,35.6,49.1,35.3,48.7,34.9z M48.7,41c-0.5-0.5-0.7-1.1-0.7-1.8c0-0.7,0.2-1.2,0.7-1.7s1.1-0.7,1.8-0.7c0.7,0,1.2,0.2,1.7,0.7
		s0.7,1.1,0.7,1.7c0,0.7-0.2,1.3-0.7,1.8s-1.1,0.7-1.7,0.7C49.7,41.7,49.1,41.5,48.7,41z M48.7,47.1C48.2,46.6,48,46,48,45.3
		c0-0.7,0.2-1.2,0.7-1.7s1.1-0.7,1.8-0.7c0.7,0,1.2,0.2,1.7,0.7s0.7,1.1,0.7,1.7c0,0.7-0.2,1.3-0.7,1.8s-1.1,0.7-1.7,0.7
		C49.7,47.8,49.1,47.6,48.7,47.1z M48.7,53.2c-0.5-0.5-0.7-1.1-0.7-1.8c0-0.7,0.2-1.2,0.7-1.7s1.1-0.7,1.8-0.7
		c0.7,0,1.2,0.2,1.7,0.7s0.7,1.1,0.7,1.7c0,0.7-0.2,1.3-0.7,1.8s-1.1,0.7-1.7,0.7C49.7,53.9,49.1,53.7,48.7,53.2z M54.8,22.6
		c-0.5-0.5-0.7-1.1-0.7-1.8c0-0.7,0.2-1.2,0.7-1.7s1.1-0.7,1.8-0.7c0.7,0,1.2,0.2,1.7,0.7s0.7,1.1,0.7,1.7c0,0.7-0.2,1.3-0.7,1.8
		s-1.1,0.7-1.7,0.7C55.9,23.3,55.3,23.1,54.8,22.6z M54.8,41c-0.5-0.5-0.7-1.1-0.7-1.8c0-0.7,0.2-1.2,0.7-1.7s1.1-0.7,1.8-0.7
		c0.7,0,1.2,0.2,1.7,0.7s0.7,1.1,0.7,1.7c0,0.7-0.2,1.3-0.7,1.8s-1.1,0.7-1.7,0.7C55.9,41.7,55.3,41.5,54.8,41z M60.9,16.5
		c-0.5-0.5-0.7-1.1-0.7-1.8c0-0.7,0.2-1.2,0.7-1.7s1.1-0.7,1.8-0.7c0.7,0,1.2,0.2,1.7,0.7s0.7,1.1,0.7,1.7c0,0.7-0.2,1.3-0.7,1.8
		s-1.1,0.7-1.7,0.7C62,17.2,61.4,17,60.9,16.5z M60.9,41c-0.5-0.5-0.7-1.1-0.7-1.8c0-0.7,0.2-1.2,0.7-1.7s1.1-0.7,1.8-0.7
		c0.7,0,1.2,0.2,1.7,0.7s0.7,1.1,0.7,1.7c0,0.7-0.2,1.3-0.7,1.8s-1.1,0.7-1.7,0.7C62,41.7,61.4,41.5,60.9,41z M67,22.6
		c-0.5-0.5-0.7-1.1-0.7-1.8c0-0.7,0.2-1.2,0.7-1.7s1.1-0.7,1.8-0.7c0.7,0,1.2,0.2,1.7,0.7s0.7,1.1,0.7,1.7c0,0.7-0.2,1.3-0.7,1.8
		s-1.1,0.7-1.7,0.7C68.1,23.3,67.5,23.1,67,22.6z M67,41c-0.5-0.5-0.7-1.1-0.7-1.8c0-0.7,0.2-1.2,0.7-1.7s1.1-0.7,1.8-0.7
		c0.7,0,1.2,0.2,1.7,0.7s0.7,1.1,0.7,1.7c0,0.7-0.2,1.3-0.7,1.8s-1.1,0.7-1.7,0.7C68.1,41.7,67.5,41.5,67,41z M73.2,28.7
		c-0.5-0.5-0.7-1.1-0.7-1.8c0-0.7,0.2-1.2,0.7-1.7s1.1-0.7,1.8-0.7c0.7,0,1.2,0.2,1.7,0.7s0.7,1.1,0.7,1.7c0,0.7-0.2,1.3-0.7,1.8
		s-1.1,0.7-1.7,0.7C74.2,29.4,73.6,29.2,73.2,28.7z M73.2,34.9c-0.5-0.5-0.7-1.1-0.7-1.8c0-0.7,0.2-1.2,0.7-1.7s1.1-0.7,1.8-0.7
		c0.7,0,1.2,0.2,1.7,0.7s0.7,1.1,0.7,1.7c0,0.7-0.2,1.3-0.7,1.8s-1.1,0.7-1.7,0.7C74.2,35.6,73.6,35.3,73.2,34.9z M73.2,41
		c-0.5-0.5-0.7-1.1-0.7-1.8c0-0.7,0.2-1.2,0.7-1.7s1.1-0.7,1.8-0.7c0.7,0,1.2,0.2,1.7,0.7s0.7,1.1,0.7,1.7c0,0.7-0.2,1.3-0.7,1.8
		s-1.1,0.7-1.7,0.7C74.2,41.7,73.6,41.5,73.2,41z M73.2,47.1c-0.5-0.5-0.7-1.1-0.7-1.8c0-0.7,0.2-1.2,0.7-1.7s1.1-0.7,1.8-0.7
		c0.7,0,1.2,0.2,1.7,0.7s0.7,1.1,0.7,1.7c0,0.7-0.2,1.3-0.7,1.8s-1.1,0.7-1.7,0.7C74.2,47.8,73.6,47.6,73.2,47.1z M73.2,53.2
		c-0.5-0.5-0.7-1.1-0.7-1.8c0-0.7,0.2-1.2,0.7-1.7s1.1-0.7,1.8-0.7c0.7,0,1.2,0.2,1.7,0.7s0.7,1.1,0.7,1.7c0,0.7-0.2,1.3-0.7,1.8
		s-1.1,0.7-1.7,0.7C74.2,53.9,73.6,53.7,73.2,53.2z"/>
	<path d="M81.1,16.5c-0.5-0.5-0.7-1.1-0.7-1.8c0-0.7,0.2-1.2,0.7-1.7s1.1-0.7,1.8-0.7c0.7,0,1.2,0.2,1.7,0.7s0.7,1.1,0.7,1.7
		c0,0.7-0.2,1.3-0.7,1.8s-1.1,0.7-1.7,0.7C82.2,17.2,81.6,17,81.1,16.5z M81.1,22.6c-0.5-0.5-0.7-1.1-0.7-1.8c0-0.7,0.2-1.2,0.7-1.7
		s1.1-0.7,1.8-0.7c0.7,0,1.2,0.2,1.7,0.7s0.7,1.1,0.7,1.7c0,0.7-0.2,1.3-0.7,1.8s-1.1,0.7-1.7,0.7C82.2,23.3,81.6,23.1,81.1,22.6z
		 M81.1,28.7c-0.5-0.5-0.7-1.1-0.7-1.8c0-0.7,0.2-1.2,0.7-1.7s1.1-0.7,1.8-0.7c0.7,0,1.2,0.2,1.7,0.7s0.7,1.1,0.7,1.7
		c0,0.7-0.2,1.3-0.7,1.8s-1.1,0.7-1.7,0.7C82.2,29.4,81.6,29.2,81.1,28.7z M81.1,34.9c-0.5-0.5-0.7-1.1-0.7-1.8
		c0-0.7,0.2-1.2,0.7-1.7s1.1-0.7,1.8-0.7c0.7,0,1.2,0.2,1.7,0.7s0.7,1.1,0.7,1.7c0,0.7-0.2,1.3-0.7,1.8s-1.1,0.7-1.7,0.7
		C82.2,35.6,81.6,35.3,81.1,34.9z M81.1,41c-0.5-0.5-0.7-1.1-0.7-1.8c0-0.7,0.2-1.2,0.7-1.7s1.1-0.7,1.8-0.7c0.7,0,1.2,0.2,1.7,0.7
		s0.7,1.1,0.7,1.7c0,0.7-0.2,1.3-0.7,1.8s-1.1,0.7-1.7,0.7C82.2,41.7,81.6,41.5,81.1,41z M81.1,47.1c-0.5-0.5-0.7-1.1-0.7-1.8
		c0-0.7,0.2-1.2,0.7-1.7s1.1-0.7,1.8-0.7c0.7,0,1.2,0.2,1.7,0.7s0.7,1.1,0.7,1.7c0,0.7-0.2,1.3-0.7,1.8s-1.1,0.7-1.7,0.7
		C82.2,47.8,81.6,47.6,81.1,47.1z M81.1,53.2c-0.5-0.5-0.7-1.1-0.7-1.8c0-0.7,0.2-1.2,0.7-1.7s1.1-0.7,1.8-0.7
		c0.7,0,1.2,0.2,1.7,0.7s0.7,1.1,0.7,1.7c0,0.7-0.2,1.3-0.7,1.8s-1.1,0.7-1.7,0.7C82.2,53.9,81.6,53.7,81.1,53.2z M87.2,16.5
		c-0.5-0.5-0.7-1.1-0.7-1.8c0-0.7,0.2-1.2,0.7-1.7s1.1-0.7,1.8-0.7c0.7,0,1.2,0.2,1.7,0.7s0.7,1.1,0.7,1.7c0,0.7-0.2,1.3-0.7,1.8
		s-1.1,0.7-1.7,0.7C88.3,17.2,87.7,17,87.2,16.5z M87.2,34.9c-0.5-0.5-0.7-1.1-0.7-1.8c0-0.7,0.2-1.2,0.7-1.7s1.1-0.7,1.8-0.7
		c0.7,0,1.2,0.2,1.7,0.7s0.7,1.1,0.7,1.7c0,0.7-0.2,1.3-0.7,1.8s-1.1,0.7-1.7,0.7C88.3,35.6,87.7,35.3,87.2,34.9z M87.2,53.2
		c-0.5-0.5-0.7-1.1-0.7-1.8c0-0.7,0.2-1.2,0.7-1.7S88.3,49,89,49c0.7,0,1.2,0.2,1.7,0.7s0.7,1.1,0.7,1.7c0,0.7-0.2,1.3-0.7,1.8
		s-1.1,0.7-1.7,0.7C88.3,53.9,87.7,53.7,87.2,53.2z M93.4,16.5c-0.5-0.5-0.7-1.1-0.7-1.8c0-0.7,0.2-1.2,0.7-1.7s1.1-0.7,1.8-0.7
		c0.7,0,1.2,0.2,1.7,0.7s0.7,1.1,0.7,1.7c0,0.7-0.2,1.3-0.7,1.8s-1.1,0.7-1.7,0.7C94.4,17.2,93.8,17,93.4,16.5z M93.4,34.9
		c-0.5-0.5-0.7-1.1-0.7-1.8c0-0.7,0.2-1.2,0.7-1.7s1.1-0.7,1.8-0.7c0.7,0,1.2,0.2,1.7,0.7s0.7,1.1,0.7,1.7c0,0.7-0.2,1.3-0.7,1.8
		s-1.1,0.7-1.7,0.7C94.4,35.6,93.8,35.3,93.4,34.9z M93.4,53.2c-0.5-0.5-0.7-1.1-0.7-1.8c0-0.7,0.2-1.2,0.7-1.7s1.1-0.7,1.8-0.7
		c0.7,0,1.2,0.2,1.7,0.7s0.7,1.1,0.7,1.7c0,0.7-0.2,1.3-0.7,1.8s-1.1,0.7-1.7,0.7C94.4,53.9,93.8,53.7,93.4,53.2z M99.5,16.5
		c-0.5-0.5-0.7-1.1-0.7-1.8c0-0.7,0.2-1.2,0.7-1.7s1.1-0.7,1.8-0.7c0.7,0,1.2,0.2,1.7,0.7s0.7,1.1,0.7,1.7c0,0.7-0.2,1.3-0.7,1.8
		s-1.1,0.7-1.7,0.7C100.6,17.2,100,17,99.5,16.5z M99.5,34.9c-0.5-0.5-0.7-1.1-0.7-1.8c0-0.7,0.2-1.2,0.7-1.7s1.1-0.7,1.8-0.7
		c0.7,0,1.2,0.2,1.7,0.7s0.7,1.1,0.7,1.7c0,0.7-0.2,1.3-0.7,1.8s-1.1,0.7-1.7,0.7C100.6,35.6,100,35.3,99.5,34.9z M99.5,53.2
		c-0.5-0.5-0.7-1.1-0.7-1.8c0-0.7,0.2-1.2,0.7-1.7s1.1-0.7,1.8-0.7c0.7,0,1.2,0.2,1.7,0.7s0.7,1.1,0.7,1.7c0,0.7-0.2,1.3-0.7,1.8
		s-1.1,0.7-1.7,0.7C100.6,53.9,100,53.7,99.5,53.2z M105.6,22.6c-0.5-0.5-0.7-1.1-0.7-1.8c0-0.7,0.2-1.2,0.7-1.7s1.1-0.7,1.8-0.7
		c0.7,0,1.2,0.2,1.7,0.7s0.7,1.1,0.7,1.7c0,0.7-0.2,1.3-0.7,1.8s-1.1,0.7-1.7,0.7C106.7,23.3,106.1,23.1,105.6,22.6z M105.6,28.7
		c-0.5-0.5-0.7-1.1-0.7-1.8c0-0.7,0.2-1.2,0.7-1.7s1.1-0.7,1.8-0.7c0.7,0,1.2,0.2,1.7,0.7s0.7,1.1,0.7,1.7c0,0.7-0.2,1.3-0.7,1.8
		s-1.1,0.7-1.7,0.7C106.7,29.4,106.1,29.2,105.6,28.7z M105.6,41c-0.5-0.5-0.7-1.1-0.7-1.8c0-0.7,0.2-1.2,0.7-1.7s1.1-0.7,1.8-0.7
		c0.7,0,1.2,0.2,1.7,0.7s0.7,1.1,0.7,1.7c0,0.7-0.2,1.3-0.7,1.8s-1.1,0.7-1.7,0.7C106.7,41.7,106.1,41.5,105.6,41z M105.6,47.1
		c-0.5-0.5-0.7-1.1-0.7-1.8c0-0.7,0.2-1.2,0.7-1.7s1.1-0.7,1.8-0.7c0.7,0,1.2,0.2,1.7,0.7s0.7,1.1,0.7,1.7c0,0.7-0.2,1.3-0.7,1.8
		s-1.1,0.7-1.7,0.7C106.7,47.8,106.1,47.6,105.6,47.1z"/>
	<path d="M119.7,16.5c-0.5-0.5-0.7-1.1-0.7-1.8c0-0.7,0.2-1.2,0.7-1.7s1.1-0.7,1.8-0.7c0.7,0,1.2,0.2,1.7,0.7s0.7,1.1,0.7,1.7
		c0,0.7-0.2,1.3-0.7,1.8s-1.1,0.7-1.7,0.7C120.7,17.2,120.2,17,119.7,16.5z M119.7,53.2c-0.5-0.5-0.7-1.1-0.7-1.8
		c0-0.7,0.2-1.2,0.7-1.7s1.1-0.7,1.8-0.7c0.7,0,1.2,0.2,1.7,0.7s0.7,1.1,0.7,1.7c0,0.7-0.2,1.3-0.7,1.8s-1.1,0.7-1.7,0.7
		C120.7,53.9,120.2,53.7,119.7,53.2z M125.8,16.5c-0.5-0.5-0.7-1.1-0.7-1.8c0-0.7,0.2-1.2,0.7-1.7s1.1-0.7,1.8-0.7
		c0.7,0,1.2,0.2,1.7,0.7s0.7,1.1,0.7,1.7c0,0.7-0.2,1.3-0.7,1.8s-1.1,0.7-1.7,0.7C126.9,17.2,126.3,17,125.8,16.5z M125.8,22.6
		c-0.5-0.5-0.7-1.1-0.7-1.8c0-0.7,0.2-1.2,0.7-1.7s1.1-0.7,1.8-0.7c0.7,0,1.2,0.2,1.7,0.7s0.7,1.1,0.7,1.7c0,0.7-0.2,1.3-0.7,1.8
		s-1.1,0.7-1.7,0.7C126.9,23.3,126.3,23.1,125.8,22.6z M125.8,28.7c-0.5-0.5-0.7-1.1-0.7-1.8c0-0.7,0.2-1.2,0.7-1.7s1.1-0.7,1.8-0.7
		c0.7,0,1.2,0.2,1.7,0.7s0.7,1.1,0.7,1.7c0,0.7-0.2,1.3-0.7,1.8s-1.1,0.7-1.7,0.7C126.9,29.4,126.3,29.2,125.8,28.7z M125.8,34.9
		c-0.5-0.5-0.7-1.1-0.7-1.8c0-0.7,0.2-1.2,0.7-1.7s1.1-0.7,1.8-0.7c0.7,0,1.2,0.2,1.7,0.7s0.7,1.1,0.7,1.7c0,0.7-0.2,1.3-0.7,1.8
		s-1.1,0.7-1.7,0.7C126.9,35.6,126.3,35.3,125.8,34.9z M125.8,41c-0.5-0.5-0.7-1.1-0.7-1.8c0-0.7,0.2-1.2,0.7-1.7s1.1-0.7,1.8-0.7
		c0.7,0,1.2,0.2,1.7,0.7s0.7,1.1,0.7,1.7c0,0.7-0.2,1.3-0.7,1.8s-1.1,0.7-1.7,0.7C126.9,41.7,126.3,41.5,125.8,41z M125.8,47.1
		c-0.5-0.5-0.7-1.1-0.7-1.8c0-0.7,0.2-1.2,0.7-1.7s1.1-0.7,1.8-0.7c0.7,0,1.2,0.2,1.7,0.7s0.7,1.1,0.7,1.7c0,0.7-0.2,1.3-0.7,1.8
		s-1.1,0.7-1.7,0.7C126.9,47.8,126.3,47.6,125.8,47.1z M125.8,53.2c-0.5-0.5-0.7-1.1-0.7-1.8c0-0.7,0.2-1.2,0.7-1.7s1.1-0.7,1.8-0.7
		c0.7,0,1.2,0.2,1.7,0.7s0.7,1.1,0.7,1.7c0,0.7-0.2,1.3-0.7,1.8s-1.1,0.7-1.7,0.7C126.9,53.9,126.3,53.7,125.8,53.2z M131.9,16.5
		c-0.5-0.5-0.7-1.1-0.7-1.8c0-0.7,0.2-1.2,0.7-1.7s1.1-0.7,1.8-0.7c0.7,0,1.2,0.2,1.7,0.7s0.7,1.1,0.7,1.7c0,0.7-0.2,1.3-0.7,1.8
		s-1.1,0.7-1.7,0.7C133,17.2,132.4,17,131.9,16.5z M131.9,53.2c-0.5-0.5-0.7-1.1-0.7-1.8c0-0.7,0.2-1.2,0.7-1.7s1.1-0.7,1.8-0.7
		c0.7,0,1.2,0.2,1.7,0.7s0.7,1.1,0.7,1.7c0,0.7-0.2,1.3-0.7,1.8s-1.1,0.7-1.7,0.7C133,53.9,132.4,53.7,131.9,53.2z"/>
	<path d="M146,16.5c-0.5-0.5-0.7-1.1-0.7-1.8c0-0.7,0.2-1.2,0.7-1.7s1.1-0.7,1.8-0.7c0.7,0,1.2,0.2,1.7,0.7s0.7,1.1,0.7,1.7
		c0,0.7-0.2,1.3-0.7,1.8s-1.1,0.7-1.7,0.7C147.1,17.2,146.5,17,146,16.5z M146,22.6c-0.5-0.5-0.7-1.1-0.7-1.8c0-0.7,0.2-1.2,0.7-1.7
		s1.1-0.7,1.8-0.7c0.7,0,1.2,0.2,1.7,0.7s0.7,1.1,0.7,1.7c0,0.7-0.2,1.3-0.7,1.8s-1.1,0.7-1.7,0.7C147.1,23.3,146.5,23.1,146,22.6z
		 M146,28.7c-0.5-0.5-0.7-1.1-0.7-1.8c0-0.7,0.2-1.2,0.7-1.7s1.1-0.7,1.8-0.7c0.7,0,1.2,0.2,1.7,0.7s0.7,1.1,0.7,1.7
		c0,0.7-0.2,1.3-0.7,1.8s-1.1,0.7-1.7,0.7C147.1,29.4,146.5,29.2,146,28.7z M146,34.9c-0.5-0.5-0.7-1.1-0.7-1.8
		c0-0.7,0.2-1.2,0.7-1.7s1.1-0.7,1.8-0.7c0.7,0,1.2,0.2,1.7,0.7s0.7,1.1,0.7,1.7c0,0.7-0.2,1.3-0.7,1.8s-1.1,0.7-1.7,0.7
		C147.1,35.6,146.5,35.3,146,34.9z M146,41c-0.5-0.5-0.7-1.1-0.7-1.8c0-0.7,0.2-1.2,0.7-1.7s1.1-0.7,1.8-0.7c0.7,0,1.2,0.2,1.7,0.7
		s0.7,1.1,0.7,1.7c0,0.7-0.2,1.3-0.7,1.8s-1.1,0.7-1.7,0.7C147.1,41.7,146.5,41.5,146,41z M146,47.1c-0.5-0.5-0.7-1.1-0.7-1.8
		c0-0.7,0.2-1.2,0.7-1.7s1.1-0.7,1.8-0.7c0.7,0,1.2,0.2,1.7,0.7s0.7,1.1,0.7,1.7c0,0.7-0.2,1.3-0.7,1.8s-1.1,0.7-1.7,0.7
		C147.1,47.8,146.5,47.6,146,47.1z M146,53.2c-0.5-0.5-0.7-1.1-0.7-1.8c0-0.7,0.2-1.2,0.7-1.7s1.1-0.7,1.8-0.7
		c0.7,0,1.2,0.2,1.7,0.7s0.7,1.1,0.7,1.7c0,0.7-0.2,1.3-0.7,1.8s-1.1,0.7-1.7,0.7C147.1,53.9,146.5,53.7,146,53.2z M152.1,22.6
		c-0.5-0.5-0.7-1.1-0.7-1.8c0-0.7,0.2-1.2,0.7-1.7s1.1-0.7,1.8-0.7c0.7,0,1.2,0.2,1.7,0.7s0.7,1.1,0.7,1.7c0,0.7-0.2,1.3-0.7,1.8
		s-1.1,0.7-1.7,0.7C153.2,23.3,152.6,23.1,152.1,22.6z M158.2,28.7c-0.5-0.5-0.7-1.1-0.7-1.8c0-0.7,0.2-1.2,0.7-1.7s1.1-0.7,1.8-0.7
		c0.7,0,1.2,0.2,1.7,0.7s0.7,1.1,0.7,1.7c0,0.7-0.2,1.3-0.7,1.8s-1.1,0.7-1.7,0.7C159.3,29.4,158.7,29.2,158.2,28.7z M158.2,34.9
		c-0.5-0.5-0.7-1.1-0.7-1.8c0-0.7,0.2-1.2,0.7-1.7s1.1-0.7,1.8-0.7c0.7,0,1.2,0.2,1.7,0.7s0.7,1.1,0.7,1.7c0,0.7-0.2,1.3-0.7,1.8
		s-1.1,0.7-1.7,0.7C159.3,35.6,158.7,35.3,158.2,34.9z M158.2,41c-0.5-0.5-0.7-1.1-0.7-1.8c0-0.7,0.2-1.2,0.7-1.7s1.1-0.7,1.8-0.7
		c0.7,0,1.2,0.2,1.7,0.7s0.7,1.1,0.7,1.7c0,0.7-0.2,1.3-0.7,1.8s-1.1,0.7-1.7,0.7C159.3,41.7,158.7,41.5,158.2,41z M164.4,47.1
		c-0.5-0.5-0.7-1.1-0.7-1.8c0-0.7,0.2-1.2,0.7-1.7s1.1-0.7,1.8-0.7c0.7,0,1.2,0.2,1.7,0.7s0.7,1.1,0.7,1.7c0,0.7-0.2,1.3-0.7,1.8
		s-1.1,0.7-1.7,0.7C165.4,47.8,164.8,47.6,164.4,47.1z M170.5,16.5c-0.5-0.5-0.7-1.1-0.7-1.8c0-0.7,0.2-1.2,0.7-1.7s1.1-0.7,1.8-0.7
		c0.7,0,1.2,0.2,1.7,0.7s0.7,1.1,0.7,1.7c0,0.7-0.2,1.3-0.7,1.8s-1.1,0.7-1.7,0.7C171.6,17.2,171,17,170.5,16.5z M170.5,22.6
		c-0.5-0.5-0.7-1.1-0.7-1.8c0-0.7,0.2-1.2,0.7-1.7s1.1-0.7,1.8-0.7c0.7,0,1.2,0.2,1.7,0.7s0.7,1.1,0.7,1.7c0,0.7-0.2,1.3-0.7,1.8
		s-1.1,0.7-1.7,0.7C171.6,23.3,171,23.1,170.5,22.6z M170.5,28.7c-0.5-0.5-0.7-1.1-0.7-1.8c0-0.7,0.2-1.2,0.7-1.7s1.1-0.7,1.8-0.7
		c0.7,0,1.2,0.2,1.7,0.7s0.7,1.1,0.7,1.7c0,0.7-0.2,1.3-0.7,1.8s-1.1,0.7-1.7,0.7C171.6,29.4,171,29.2,170.5,28.7z M170.5,34.9
		c-0.5-0.5-0.7-1.1-0.7-1.8c0-0.7,0.2-1.2,0.7-1.7s1.1-0.7,1.8-0.7c0.7,0,1.2,0.2,1.7,0.7s0.7,1.1,0.7,1.7c0,0.7-0.2,1.3-0.7,1.8
		s-1.1,0.7-1.7,0.7C171.6,35.6,171,35.3,170.5,34.9z M170.5,41c-0.5-0.5-0.7-1.1-0.7-1.8c0-0.7,0.2-1.2,0.7-1.7s1.1-0.7,1.8-0.7
		c0.7,0,1.2,0.2,1.7,0.7s0.7,1.1,0.7,1.7c0,0.7-0.2,1.3-0.7,1.8s-1.1,0.7-1.7,0.7C171.6,41.7,171,41.5,170.5,41z M170.5,47.1
		c-0.5-0.5-0.7-1.1-0.7-1.8c0-0.7,0.2-1.2,0.7-1.7s1.1-0.7,1.8-0.7c0.7,0,1.2,0.2,1.7,0.7s0.7,1.1,0.7,1.7c0,0.7-0.2,1.3-0.7,1.8
		s-1.1,0.7-1.7,0.7C171.6,47.8,171,47.6,170.5,47.1z M170.5,53.2c-0.5-0.5-0.7-1.1-0.7-1.8c0-0.7,0.2-1.2,0.7-1.7s1.1-0.7,1.8-0.7
		c0.7,0,1.2,0.2,1.7,0.7s0.7,1.1,0.7,1.7c0,0.7-0.2,1.3-0.7,1.8s-1.1,0.7-1.7,0.7C171.6,53.9,171,53.7,170.5,53.2z"/>
	<path d="M178.4,16.5c-0.5-0.5-0.7-1.1-0.7-1.8c0-0.7,0.2-1.2,0.7-1.7s1.1-0.7,1.8-0.7c0.7,0,1.2,0.2,1.7,0.7s0.7,1.1,0.7,1.7
		c0,0.7-0.2,1.3-0.7,1.8s-1.1,0.7-1.7,0.7C179.5,17.2,178.9,17,178.4,16.5z M178.4,22.6c-0.5-0.5-0.7-1.1-0.7-1.8
		c0-0.7,0.2-1.2,0.7-1.7s1.1-0.7,1.8-0.7c0.7,0,1.2,0.2,1.7,0.7s0.7,1.1,0.7,1.7c0,0.7-0.2,1.3-0.7,1.8s-1.1,0.7-1.7,0.7
		C179.5,23.3,178.9,23.1,178.4,22.6z M178.4,28.7c-0.5-0.5-0.7-1.1-0.7-1.8c0-0.7,0.2-1.2,0.7-1.7s1.1-0.7,1.8-0.7
		c0.7,0,1.2,0.2,1.7,0.7s0.7,1.1,0.7,1.7c0,0.7-0.2,1.3-0.7,1.8s-1.1,0.7-1.7,0.7C179.5,29.4,178.9,29.2,178.4,28.7z M178.4,34.9
		c-0.5-0.5-0.7-1.1-0.7-1.8c0-0.7,0.2-1.2,0.7-1.7s1.1-0.7,1.8-0.7c0.7,0,1.2,0.2,1.7,0.7s0.7,1.1,0.7,1.7c0,0.7-0.2,1.3-0.7,1.8
		s-1.1,0.7-1.7,0.7C179.5,35.6,178.9,35.3,178.4,34.9z M178.4,41c-0.5-0.5-0.7-1.1-0.7-1.8c0-0.7,0.2-1.2,0.7-1.7s1.1-0.7,1.8-0.7
		c0.7,0,1.2,0.2,1.7,0.7s0.7,1.1,0.7,1.7c0,0.7-0.2,1.3-0.7,1.8s-1.1,0.7-1.7,0.7C179.5,41.7,178.9,41.5,178.4,41z M178.4,47.1
		c-0.5-0.5-0.7-1.1-0.7-1.8c0-0.7,0.2-1.2,0.7-1.7s1.1-0.7,1.8-0.7c0.7,0,1.2,0.2,1.7,0.7s0.7,1.1,0.7,1.7c0,0.7-0.2,1.3-0.7,1.8
		s-1.1,0.7-1.7,0.7C179.5,47.8,178.9,47.6,178.4,47.1z M178.4,53.2c-0.5-0.5-0.7-1.1-0.7-1.8c0-0.7,0.2-1.2,0.7-1.7s1.1-0.7,1.8-0.7
		c0.7,0,1.2,0.2,1.7,0.7s0.7,1.1,0.7,1.7c0,0.7-0.2,1.3-0.7,1.8s-1.1,0.7-1.7,0.7C179.5,53.9,178.9,53.7,178.4,53.2z M184.6,16.5
		c-0.5-0.5-0.7-1.1-0.7-1.8c0-0.7,0.2-1.2,0.7-1.7s1.1-0.7,1.8-0.7c0.7,0,1.2,0.2,1.7,0.7s0.7,1.1,0.7,1.7c0,0.7-0.2,1.3-0.7,1.8
		s-1.1,0.7-1.7,0.7C185.6,17.2,185,17,184.6,16.5z M184.6,34.9c-0.5-0.5-0.7-1.1-0.7-1.8c0-0.7,0.2-1.2,0.7-1.7s1.1-0.7,1.8-0.7
		c0.7,0,1.2,0.2,1.7,0.7s0.7,1.1,0.7,1.7c0,0.7-0.2,1.3-0.7,1.8s-1.1,0.7-1.7,0.7C185.6,35.6,185,35.3,184.6,34.9z M184.6,53.2
		c-0.5-0.5-0.7-1.1-0.7-1.8c0-0.7,0.2-1.2,0.7-1.7s1.1-0.7,1.8-0.7c0.7,0,1.2,0.2,1.7,0.7s0.7,1.1,0.7,1.7c0,0.7-0.2,1.3-0.7,1.8
		s-1.1,0.7-1.7,0.7C185.6,53.9,185,53.7,184.6,53.2z M190.7,16.5c-0.5-0.5-0.7-1.1-0.7-1.8c0-0.7,0.2-1.2,0.7-1.7s1.1-0.7,1.8-0.7
		c0.7,0,1.2,0.2,1.7,0.7s0.7,1.1,0.7,1.7c0,0.7-0.2,1.3-0.7,1.8s-1.1,0.7-1.7,0.7C191.7,17.2,191.2,17,190.7,16.5z M190.7,34.9
		c-0.5-0.5-0.7-1.1-0.7-1.8c0-0.7,0.2-1.2,0.7-1.7s1.1-0.7,1.8-0.7c0.7,0,1.2,0.2,1.7,0.7s0.7,1.1,0.7,1.7c0,0.7-0.2,1.3-0.7,1.8
		s-1.1,0.7-1.7,0.7C191.7,35.6,191.2,35.3,190.7,34.9z M190.7,53.2c-0.5-0.5-0.7-1.1-0.7-1.8c0-0.7,0.2-1.2,0.7-1.7s1.1-0.7,1.8-0.7
		c0.7,0,1.2,0.2,1.7,0.7s0.7,1.1,0.7,1.7c0,0.7-0.2,1.3-0.7,1.8s-1.1,0.7-1.7,0.7C191.7,53.9,191.2,53.7,190.7,53.2z M196.8,16.5
		c-0.5-0.5-0.7-1.1-0.7-1.8c0-0.7,0.2-1.2,0.7-1.7s1.1-0.7,1.8-0.7c0.7,0,1.2,0.2,1.7,0.7s0.7,1.1,0.7,1.7c0,0.7-0.2,1.3-0.7,1.8
		s-1.1,0.7-1.7,0.7C197.9,17.2,197.3,17,196.8,16.5z M196.8,34.9c-0.5-0.5-0.7-1.1-0.7-1.8c0-0.7,0.2-1.2,0.7-1.7s1.1-0.7,1.8-0.7
		c0.7,0,1.2,0.2,1.7,0.7s0.7,1.1,0.7,1.7c0,0.7-0.2,1.3-0.7,1.8s-1.1,0.7-1.7,0.7C197.9,35.6,197.3,35.3,196.8,34.9z M196.8,53.2
		c-0.5-0.5-0.7-1.1-0.7-1.8c0-0.7,0.2-1.2,0.7-1.7s1.1-0.7,1.8-0.7c0.7,0,1.2,0.2,1.7,0.7s0.7,1.1,0.7,1.7c0,0.7-0.2,1.3-0.7,1.8
		s-1.1,0.7-1.7,0.7C197.9,53.9,197.3,53.7,196.8,53.2z M202.9,16.5c-0.5-0.5-0.7-1.1-0.7-1.8c0-0.7,0.2-1.2,0.7-1.7s1.1-0.7,1.8-0.7
		c0.7,0,1.2,0.2,1.7,0.7s0.7,1.1,0.7,1.7c0,0.7-0.2,1.3-0.7,1.8s-1.1,0.7-1.7,0.7C204,17.2,203.4,17,202.9,16.5z M202.9,53.2
		c-0.5-0.5-0.7-1.1-0.7-1.8c0-0.7,0.2-1.2,0.7-1.7s1.1-0.7,1.8-0.7c0.7,0,1.2,0.2,1.7,0.7s0.7,1.1,0.7,1.7c0,0.7-0.2,1.3-0.7,1.8
		s-1.1,0.7-1.7,0.7C204,53.9,203.4,53.7,202.9,53.2z"/>
	<path d="M210.9,16.5c-0.5-0.5-0.7-1.1-0.7-1.8c0-0.7,0.2-1.2,0.7-1.7s1.1-0.7,1.8-0.7c0.7,0,1.2,0.2,1.7,0.7s0.7,1.1,0.7,1.7
		c0,0.7-0.2,1.3-0.7,1.8s-1.1,0.7-1.7,0.7C211.9,17.2,211.3,17,210.9,16.5z M217,16.5c-0.5-0.5-0.7-1.1-0.7-1.8
		c0-0.7,0.2-1.2,0.7-1.7s1.1-0.7,1.8-0.7c0.7,0,1.2,0.2,1.7,0.7s0.7,1.1,0.7,1.7c0,0.7-0.2,1.3-0.7,1.8s-1.1,0.7-1.7,0.7
		C218.1,17.2,217.5,17,217,16.5z M223.1,16.5c-0.5-0.5-0.7-1.1-0.7-1.8c0-0.7,0.2-1.2,0.7-1.7s1.1-0.7,1.8-0.7
		c0.7,0,1.2,0.2,1.7,0.7s0.7,1.1,0.7,1.7c0,0.7-0.2,1.3-0.7,1.8s-1.1,0.7-1.7,0.7C224.2,17.2,223.6,17,223.1,16.5z M223.1,22.6
		c-0.5-0.5-0.7-1.1-0.7-1.8c0-0.7,0.2-1.2,0.7-1.7s1.1-0.7,1.8-0.7c0.7,0,1.2,0.2,1.7,0.7s0.7,1.1,0.7,1.7c0,0.7-0.2,1.3-0.7,1.8
		s-1.1,0.7-1.7,0.7C224.2,23.3,223.6,23.1,223.1,22.6z M223.1,28.7c-0.5-0.5-0.7-1.1-0.7-1.8c0-0.7,0.2-1.2,0.7-1.7s1.1-0.7,1.8-0.7
		c0.7,0,1.2,0.2,1.7,0.7s0.7,1.1,0.7,1.7c0,0.7-0.2,1.3-0.7,1.8s-1.1,0.7-1.7,0.7C224.2,29.4,223.6,29.2,223.1,28.7z M223.1,34.9
		c-0.5-0.5-0.7-1.1-0.7-1.8c0-0.7,0.2-1.2,0.7-1.7s1.1-0.7,1.8-0.7c0.7,0,1.2,0.2,1.7,0.7s0.7,1.1,0.7,1.7c0,0.7-0.2,1.3-0.7,1.8
		s-1.1,0.7-1.7,0.7C224.2,35.6,223.6,35.3,223.1,34.9z M223.1,41c-0.5-0.5-0.7-1.1-0.7-1.8c0-0.7,0.2-1.2,0.7-1.7s1.1-0.7,1.8-0.7
		c0.7,0,1.2,0.2,1.7,0.7s0.7,1.1,0.7,1.7c0,0.7-0.2,1.3-0.7,1.8s-1.1,0.7-1.7,0.7C224.2,41.7,223.6,41.5,223.1,41z M223.1,47.1
		c-0.5-0.5-0.7-1.1-0.7-1.8c0-0.7,0.2-1.2,0.7-1.7s1.1-0.7,1.8-0.7c0.7,0,1.2,0.2,1.7,0.7s0.7,1.1,0.7,1.7c0,0.7-0.2,1.3-0.7,1.8
		s-1.1,0.7-1.7,0.7C224.2,47.8,223.6,47.6,223.1,47.1z M223.1,53.2c-0.5-0.5-0.7-1.1-0.7-1.8c0-0.7,0.2-1.2,0.7-1.7s1.1-0.7,1.8-0.7
		c0.7,0,1.2,0.2,1.7,0.7s0.7,1.1,0.7,1.7c0,0.7-0.2,1.3-0.7,1.8s-1.1,0.7-1.7,0.7C224.2,53.9,223.6,53.7,223.1,53.2z M229.2,16.5
		c-0.5-0.5-0.7-1.1-0.7-1.8c0-0.7,0.2-1.2,0.7-1.7s1.1-0.7,1.8-0.7c0.7,0,1.2,0.2,1.7,0.7s0.7,1.1,0.7,1.7c0,0.7-0.2,1.3-0.7,1.8
		s-1.1,0.7-1.7,0.7C230.3,17.2,229.7,17,229.2,16.5z M235.4,16.5c-0.5-0.5-0.7-1.1-0.7-1.8c0-0.7,0.2-1.2,0.7-1.7s1.1-0.7,1.8-0.7
		c0.7,0,1.2,0.2,1.7,0.7s0.7,1.1,0.7,1.7c0,0.7-0.2,1.3-0.7,1.8s-1.1,0.7-1.7,0.7C236.4,17.2,235.8,17,235.4,16.5z"/>
	<path d="M275.8,16.5c-0.5-0.5-0.7-1.1-0.7-1.8c0-0.7,0.2-1.2,0.7-1.7s1.1-0.7,1.8-0.7c0.7,0,1.2,0.2,1.7,0.7s0.7,1.1,0.7,1.7
		c0,0.7-0.2,1.3-0.7,1.8s-1.1,0.7-1.7,0.7C276.9,17.2,276.3,17,275.8,16.5z M275.8,22.6c-0.5-0.5-0.7-1.1-0.7-1.8
		c0-0.7,0.2-1.2,0.7-1.7s1.1-0.7,1.8-0.7c0.7,0,1.2,0.2,1.7,0.7s0.7,1.1,0.7,1.7c0,0.7-0.2,1.3-0.7,1.8s-1.1,0.7-1.7,0.7
		C276.9,23.3,276.3,23.1,275.8,22.6z M275.8,28.7c-0.5-0.5-0.7-1.1-0.7-1.8c0-0.7,0.2-1.2,0.7-1.7s1.1-0.7,1.8-0.7
		c0.7,0,1.2,0.2,1.7,0.7s0.7,1.1,0.7,1.7c0,0.7-0.2,1.3-0.7,1.8s-1.1,0.7-1.7,0.7C276.9,29.4,276.3,29.2,275.8,28.7z M275.8,34.9
		c-0.5-0.5-0.7-1.1-0.7-1.8c0-0.7,0.2-1.2,0.7-1.7s1.1-0.7,1.8-0.7c0.7,0,1.2,0.2,1.7,0.7s0.7,1.1,0.7,1.7c0,0.7-0.2,1.3-0.7,1.8
		s-1.1,0.7-1.7,0.7C276.9,35.6,276.3,35.3,275.8,34.9z M275.8,41c-0.5-0.5-0.7-1.1-0.7-1.8c0-0.7,0.2-1.2,0.7-1.7s1.1-0.7,1.8-0.7
		c0.7,0,1.2,0.2,1.7,0.7s0.7,1.1,0.7,1.7c0,0.7-0.2,1.3-0.7,1.8s-1.1,0.7-1.7,0.7C276.9,41.7,276.3,41.5,275.8,41z M275.8,47.1
		c-0.5-0.5-0.7-1.1-0.7-1.8c0-0.7,0.2-1.2,0.7-1.7s1.1-0.7,1.8-0.7c0.7,0,1.2,0.2,1.7,0.7s0.7,1.1,0.7,1.7c0,0.7-0.2,1.3-0.7,1.8
		s-1.1,0.7-1.7,0.7C276.9,47.8,276.3,47.6,275.8,47.1z M275.8,53.2c-0.5-0.5-0.7-1.1-0.7-1.8c0-0.7,0.2-1.2,0.7-1.7s1.1-0.7,1.8-0.7
		c0.7,0,1.2,0.2,1.7,0.7s0.7,1.1,0.7,1.7c0,0.7-0.2,1.3-0.7,1.8s-1.1,0.7-1.7,0.7C276.9,53.9,276.3,53.7,275.8,53.2z M281.9,16.5
		c-0.5-0.5-0.7-1.1-0.7-1.8c0-0.7,0.2-1.2,0.7-1.7s1.1-0.7,1.8-0.7c0.7,0,1.2,0.2,1.7,0.7s0.7,1.1,0.7,1.7c0,0.7-0.2,1.3-0.7,1.8
		s-1.1,0.7-1.7,0.7C283,17.2,282.4,17,281.9,16.5z M281.9,53.2c-0.5-0.5-0.7-1.1-0.7-1.8c0-0.7,0.2-1.2,0.7-1.7s1.1-0.7,1.8-0.7
		c0.7,0,1.2,0.2,1.7,0.7s0.7,1.1,0.7,1.7c0,0.7-0.2,1.3-0.7,1.8s-1.1,0.7-1.7,0.7C283,53.9,282.4,53.7,281.9,53.2z M288,16.5
		c-0.5-0.5-0.7-1.1-0.7-1.8c0-0.7,0.2-1.2,0.7-1.7s1.1-0.7,1.8-0.7c0.7,0,1.2,0.2,1.7,0.7s0.7,1.1,0.7,1.7c0,0.7-0.2,1.3-0.7,1.8
		s-1.1,0.7-1.7,0.7C289.1,17.2,288.5,17,288,16.5z M288,53.2c-0.5-0.5-0.7-1.1-0.7-1.8c0-0.7,0.2-1.2,0.7-1.7s1.1-0.7,1.8-0.7
		c0.7,0,1.2,0.2,1.7,0.7s0.7,1.1,0.7,1.7c0,0.7-0.2,1.3-0.7,1.8s-1.1,0.7-1.7,0.7C289.1,53.9,288.5,53.7,288,53.2z M294.2,16.5
		c-0.5-0.5-0.7-1.1-0.7-1.8c0-0.7,0.2-1.2,0.7-1.7s1.1-0.7,1.8-0.7c0.7,0,1.2,0.2,1.7,0.7s0.7,1.1,0.7,1.7c0,0.7-0.2,1.3-0.7,1.8
		s-1.1,0.7-1.7,0.7C295.2,17.2,294.6,17,294.2,16.5z M294.2,53.2c-0.5-0.5-0.7-1.1-0.7-1.8c0-0.7,0.2-1.2,0.7-1.7s1.1-0.7,1.8-0.7
		c0.7,0,1.2,0.2,1.7,0.7s0.7,1.1,0.7,1.7c0,0.7-0.2,1.3-0.7,1.8s-1.1,0.7-1.7,0.7C295.2,53.9,294.6,53.7,294.2,53.2z M300.3,22.6
		c-0.5-0.5-0.7-1.1-0.7-1.8c0-0.7,0.2-1.2,0.7-1.7s1.1-0.7,1.8-0.7c0.7,0,1.2,0.2,1.7,0.7s0.7,1.1,0.7,1.7c0,0.7-0.2,1.3-0.7,1.8
		s-1.1,0.7-1.7,0.7C301.4,23.3,300.8,23.1,300.3,22.6z M300.3,28.7c-0.5-0.5-0.7-1.1-0.7-1.8c0-0.7,0.2-1.2,0.7-1.7s1.1-0.7,1.8-0.7
		c0.7,0,1.2,0.2,1.7,0.7s0.7,1.1,0.7,1.7c0,0.7-0.2,1.3-0.7,1.8s-1.1,0.7-1.7,0.7C301.4,29.4,300.8,29.2,300.3,28.7z M300.3,34.9
		c-0.5-0.5-0.7-1.1-0.7-1.8c0-0.7,0.2-1.2,0.7-1.7s1.1-0.7,1.8-0.7c0.7,0,1.2,0.2,1.7,0.7s0.7,1.1,0.7,1.7c0,0.7-0.2,1.3-0.7,1.8
		s-1.1,0.7-1.7,0.7C301.4,35.6,300.8,35.3,300.3,34.9z M300.3,41c-0.5-0.5-0.7-1.1-0.7-1.8c0-0.7,0.2-1.2,0.7-1.7s1.1-0.7,1.8-0.7
		c0.7,0,1.2,0.2,1.7,0.7s0.7,1.1,0.7,1.7c0,0.7-0.2,1.3-0.7,1.8s-1.1,0.7-1.7,0.7C301.4,41.7,300.8,41.5,300.3,41z M300.3,47.1
		c-0.5-0.5-0.7-1.1-0.7-1.8c0-0.7,0.2-1.2,0.7-1.7s1.1-0.7,1.8-0.7c0.7,0,1.2,0.2,1.7,0.7s0.7,1.1,0.7,1.7c0,0.7-0.2,1.3-0.7,1.8
		s-1.1,0.7-1.7,0.7C301.4,47.8,300.8,47.6,300.3,47.1z"/>
	<path d="M320.5,28.7c-0.5-0.5-0.7-1.1-0.7-1.8c0-0.7,0.2-1.2,0.7-1.7s1.1-0.7,1.8-0.7c0.7,0,1.2,0.2,1.7,0.7s0.7,1.1,0.7,1.7
		c0,0.7-0.2,1.3-0.7,1.8s-1.1,0.7-1.7,0.7C321.6,29.4,321,29.2,320.5,28.7z M326.6,16.5c-0.5-0.5-0.7-1.1-0.7-1.8
		c0-0.7,0.2-1.2,0.7-1.7s1.1-0.7,1.8-0.7c0.7,0,1.2,0.2,1.7,0.7s0.7,1.1,0.7,1.7c0,0.7-0.2,1.3-0.7,1.8s-1.1,0.7-1.7,0.7
		C327.7,17.2,327.1,17,326.6,16.5z M326.6,22.6c-0.5-0.5-0.7-1.1-0.7-1.8c0-0.7,0.2-1.2,0.7-1.7s1.1-0.7,1.8-0.7
		c0.7,0,1.2,0.2,1.7,0.7s0.7,1.1,0.7,1.7c0,0.7-0.2,1.3-0.7,1.8s-1.1,0.7-1.7,0.7C327.7,23.3,327.1,23.1,326.6,22.6z"/>
	<path d="M340.7,28.7c-0.5-0.5-0.7-1.1-0.7-1.8c0-0.7,0.2-1.2,0.7-1.7s1.1-0.7,1.8-0.7c0.7,0,1.2,0.2,1.7,0.7s0.7,1.1,0.7,1.7
		c0,0.7-0.2,1.3-0.7,1.8s-1.1,0.7-1.7,0.7C341.7,29.4,341.1,29.2,340.7,28.7z M340.7,34.9c-0.5-0.5-0.7-1.1-0.7-1.8
		c0-0.7,0.2-1.2,0.7-1.7s1.1-0.7,1.8-0.7c0.7,0,1.2,0.2,1.7,0.7s0.7,1.1,0.7,1.7c0,0.7-0.2,1.3-0.7,1.8s-1.1,0.7-1.7,0.7
		C341.7,35.6,341.1,35.3,340.7,34.9z M340.7,41c-0.5-0.5-0.7-1.1-0.7-1.8c0-0.7,0.2-1.2,0.7-1.7s1.1-0.7,1.8-0.7
		c0.7,0,1.2,0.2,1.7,0.7s0.7,1.1,0.7,1.7c0,0.7-0.2,1.3-0.7,1.8s-1.1,0.7-1.7,0.7C341.7,41.7,341.1,41.5,340.7,41z M340.7,47.1
		c-0.5-0.5-0.7-1.1-0.7-1.8c0-0.7,0.2-1.2,0.7-1.7s1.1-0.7,1.8-0.7c0.7,0,1.2,0.2,1.7,0.7s0.7,1.1,0.7,1.7c0,0.7-0.2,1.3-0.7,1.8
		s-1.1,0.7-1.7,0.7C341.7,47.8,341.1,47.6,340.7,47.1z M340.7,53.2c-0.5-0.5-0.7-1.1-0.7-1.8c0-0.7,0.2-1.2,0.7-1.7s1.1-0.7,1.8-0.7
		c0.7,0,1.2,0.2,1.7,0.7s0.7,1.1,0.7,1.7c0,0.7-0.2,1.3-0.7,1.8s-1.1,0.7-1.7,0.7C341.7,53.9,341.1,53.7,340.7,53.2z M346.8,22.6
		c-0.5-0.5-0.7-1.1-0.7-1.8c0-0.7,0.2-1.2,0.7-1.7s1.1-0.7,1.8-0.7c0.7,0,1.2,0.2,1.7,0.7s0.7,1.1,0.7,1.7c0,0.7-0.2,1.3-0.7,1.8
		s-1.1,0.7-1.7,0.7C347.9,23.3,347.3,23.1,346.8,22.6z M346.8,41c-0.5-0.5-0.7-1.1-0.7-1.8c0-0.7,0.2-1.2,0.7-1.7s1.1-0.7,1.8-0.7
		c0.7,0,1.2,0.2,1.7,0.7s0.7,1.1,0.7,1.7c0,0.7-0.2,1.3-0.7,1.8s-1.1,0.7-1.7,0.7C347.9,41.7,347.3,41.5,346.8,41z M352.9,16.5
		c-0.5-0.5-0.7-1.1-0.7-1.8c0-0.7,0.2-1.2,0.7-1.7s1.1-0.7,1.8-0.7c0.7,0,1.2,0.2,1.7,0.7s0.7,1.1,0.7,1.7c0,0.7-0.2,1.3-0.7,1.8
		s-1.1,0.7-1.7,0.7C354,17.2,353.4,17,352.9,16.5z M352.9,41c-0.5-0.5-0.7-1.1-0.7-1.8c0-0.7,0.2-1.2,0.7-1.7s1.1-0.7,1.8-0.7
		c0.7,0,1.2,0.2,1.7,0.7s0.7,1.1,0.7,1.7c0,0.7-0.2,1.3-0.7,1.8s-1.1,0.7-1.7,0.7C354,41.7,353.4,41.5,352.9,41z M359,22.6
		c-0.5-0.5-0.7-1.1-0.7-1.8c0-0.7,0.2-1.2,0.7-1.7s1.1-0.7,1.8-0.7c0.7,0,1.2,0.2,1.7,0.7s0.7,1.1,0.7,1.7c0,0.7-0.2,1.3-0.7,1.8
		s-1.1,0.7-1.7,0.7C360.1,23.3,359.5,23.1,359,22.6z M359,41c-0.5-0.5-0.7-1.1-0.7-1.8c0-0.7,0.2-1.2,0.7-1.7s1.1-0.7,1.8-0.7
		c0.7,0,1.2,0.2,1.7,0.7s0.7,1.1,0.7,1.7c0,0.7-0.2,1.3-0.7,1.8s-1.1,0.7-1.7,0.7C360.1,41.7,359.5,41.5,359,41z M365.2,28.7
		c-0.5-0.5-0.7-1.1-0.7-1.8c0-0.7,0.2-1.2,0.7-1.7s1.1-0.7,1.8-0.7c0.7,0,1.2,0.2,1.7,0.7s0.7,1.1,0.7,1.7c0,0.7-0.2,1.3-0.7,1.8
		s-1.1,0.7-1.7,0.7C366.2,29.4,365.6,29.2,365.2,28.7z M365.2,34.9c-0.5-0.5-0.7-1.1-0.7-1.8c0-0.7,0.2-1.2,0.7-1.7s1.1-0.7,1.8-0.7
		c0.7,0,1.2,0.2,1.7,0.7s0.7,1.1,0.7,1.7c0,0.7-0.2,1.3-0.7,1.8s-1.1,0.7-1.7,0.7C366.2,35.6,365.6,35.3,365.2,34.9z M365.2,41
		c-0.5-0.5-0.7-1.1-0.7-1.8c0-0.7,0.2-1.2,0.7-1.7s1.1-0.7,1.8-0.7c0.7,0,1.2,0.2,1.7,0.7s0.7,1.1,0.7,1.7c0,0.7-0.2,1.3-0.7,1.8
		s-1.1,0.7-1.7,0.7C366.2,41.7,365.6,41.5,365.2,41z M365.2,47.1c-0.5-0.5-0.7-1.1-0.7-1.8c0-0.7,0.2-1.2,0.7-1.7s1.1-0.7,1.8-0.7
		c0.7,0,1.2,0.2,1.7,0.7s0.7,1.1,0.7,1.7c0,0.7-0.2,1.3-0.7,1.8s-1.1,0.7-1.7,0.7C366.2,47.8,365.6,47.6,365.2,47.1z M365.2,53.2
		c-0.5-0.5-0.7-1.1-0.7-1.8c0-0.7,0.2-1.2,0.7-1.7s1.1-0.7,1.8-0.7c0.7,0,1.2,0.2,1.7,0.7s0.7,1.1,0.7,1.7c0,0.7-0.2,1.3-0.7,1.8
		s-1.1,0.7-1.7,0.7C366.2,53.9,365.6,53.7,365.2,53.2z"/>
	<path d="M373.1,16.5c-0.5-0.5-0.7-1.1-0.7-1.8c0-0.7,0.2-1.2,0.7-1.7s1.1-0.7,1.8-0.7c0.7,0,1.2,0.2,1.7,0.7s0.7,1.1,0.7,1.7
		c0,0.7-0.2,1.3-0.7,1.8s-1.1,0.7-1.7,0.7C374.2,17.2,373.6,17,373.1,16.5z M373.1,22.6c-0.5-0.5-0.7-1.1-0.7-1.8
		c0-0.7,0.2-1.2,0.7-1.7s1.1-0.7,1.8-0.7c0.7,0,1.2,0.2,1.7,0.7s0.7,1.1,0.7,1.7c0,0.7-0.2,1.3-0.7,1.8s-1.1,0.7-1.7,0.7
		C374.2,23.3,373.6,23.1,373.1,22.6z M373.1,28.7c-0.5-0.5-0.7-1.1-0.7-1.8c0-0.7,0.2-1.2,0.7-1.7s1.1-0.7,1.8-0.7
		c0.7,0,1.2,0.2,1.7,0.7s0.7,1.1,0.7,1.7c0,0.7-0.2,1.3-0.7,1.8s-1.1,0.7-1.7,0.7C374.2,29.4,373.6,29.2,373.1,28.7z M373.1,34.9
		c-0.5-0.5-0.7-1.1-0.7-1.8c0-0.7,0.2-1.2,0.7-1.7s1.1-0.7,1.8-0.7c0.7,0,1.2,0.2,1.7,0.7s0.7,1.1,0.7,1.7c0,0.7-0.2,1.3-0.7,1.8
		s-1.1,0.7-1.7,0.7C374.2,35.6,373.6,35.3,373.1,34.9z M373.1,41c-0.5-0.5-0.7-1.1-0.7-1.8c0-0.7,0.2-1.2,0.7-1.7s1.1-0.7,1.8-0.7
		c0.7,0,1.2,0.2,1.7,0.7s0.7,1.1,0.7,1.7c0,0.7-0.2,1.3-0.7,1.8s-1.1,0.7-1.7,0.7C374.2,41.7,373.6,41.5,373.1,41z M373.1,47.1
		c-0.5-0.5-0.7-1.1-0.7-1.8c0-0.7,0.2-1.2,0.7-1.7s1.1-0.7,1.8-0.7c0.7,0,1.2,0.2,1.7,0.7s0.7,1.1,0.7,1.7c0,0.7-0.2,1.3-0.7,1.8
		s-1.1,0.7-1.7,0.7C374.2,47.8,373.6,47.6,373.1,47.1z M373.1,53.2c-0.5-0.5-0.7-1.1-0.7-1.8c0-0.7,0.2-1.2,0.7-1.7s1.1-0.7,1.8-0.7
		c0.7,0,1.2,0.2,1.7,0.7s0.7,1.1,0.7,1.7c0,0.7-0.2,1.3-0.7,1.8s-1.1,0.7-1.7,0.7C374.2,53.9,373.6,53.7,373.1,53.2z M379.2,16.5
		c-0.5-0.5-0.7-1.1-0.7-1.8c0-0.7,0.2-1.2,0.7-1.7s1.1-0.7,1.8-0.7c0.7,0,1.2,0.2,1.7,0.7s0.7,1.1,0.7,1.7c0,0.7-0.2,1.3-0.7,1.8
		s-1.1,0.7-1.7,0.7C380.3,17.2,379.7,17,379.2,16.5z M379.2,34.9c-0.5-0.5-0.7-1.1-0.7-1.8c0-0.7,0.2-1.2,0.7-1.7s1.1-0.7,1.8-0.7
		c0.7,0,1.2,0.2,1.7,0.7s0.7,1.1,0.7,1.7c0,0.7-0.2,1.3-0.7,1.8s-1.1,0.7-1.7,0.7C380.3,35.6,379.7,35.3,379.2,34.9z M385.4,16.5
		c-0.5-0.5-0.7-1.1-0.7-1.8c0-0.7,0.2-1.2,0.7-1.7s1.1-0.7,1.8-0.7c0.7,0,1.2,0.2,1.7,0.7s0.7,1.1,0.7,1.7c0,0.7-0.2,1.3-0.7,1.8
		s-1.1,0.7-1.7,0.7C386.4,17.2,385.8,17,385.4,16.5z M385.4,34.9c-0.5-0.5-0.7-1.1-0.7-1.8c0-0.7,0.2-1.2,0.7-1.7s1.1-0.7,1.8-0.7
		c0.7,0,1.2,0.2,1.7,0.7s0.7,1.1,0.7,1.7c0,0.7-0.2,1.3-0.7,1.8s-1.1,0.7-1.7,0.7C386.4,35.6,385.8,35.3,385.4,34.9z M385.4,41
		c-0.5-0.5-0.7-1.1-0.7-1.8c0-0.7,0.2-1.2,0.7-1.7s1.1-0.7,1.8-0.7c0.7,0,1.2,0.2,1.7,0.7s0.7,1.1,0.7,1.7c0,0.7-0.2,1.3-0.7,1.8
		s-1.1,0.7-1.7,0.7C386.4,41.7,385.8,41.5,385.4,41z M391.5,16.5c-0.5-0.5-0.7-1.1-0.7-1.8c0-0.7,0.2-1.2,0.7-1.7s1.1-0.7,1.8-0.7
		c0.7,0,1.2,0.2,1.7,0.7s0.7,1.1,0.7,1.7c0,0.7-0.2,1.3-0.7,1.8s-1.1,0.7-1.7,0.7C392.6,17.2,392,17,391.5,16.5z M391.5,34.9
		c-0.5-0.5-0.7-1.1-0.7-1.8c0-0.7,0.2-1.2,0.7-1.7s1.1-0.7,1.8-0.7c0.7,0,1.2,0.2,1.7,0.7s0.7,1.1,0.7,1.7c0,0.7-0.2,1.3-0.7,1.8
		s-1.1,0.7-1.7,0.7C392.6,35.6,392,35.3,391.5,34.9z M391.5,47.1c-0.5-0.5-0.7-1.1-0.7-1.8c0-0.7,0.2-1.2,0.7-1.7s1.1-0.7,1.8-0.7
		c0.7,0,1.2,0.2,1.7,0.7s0.7,1.1,0.7,1.7c0,0.7-0.2,1.3-0.7,1.8s-1.1,0.7-1.7,0.7C392.6,47.8,392,47.6,391.5,47.1z M397.6,22.6
		c-0.5-0.5-0.7-1.1-0.7-1.8c0-0.7,0.2-1.2,0.7-1.7s1.1-0.7,1.8-0.7c0.7,0,1.2,0.2,1.7,0.7s0.7,1.1,0.7,1.7c0,0.7-0.2,1.3-0.7,1.8
		s-1.1,0.7-1.7,0.7C398.7,23.3,398.1,23.1,397.6,22.6z M397.6,28.7c-0.5-0.5-0.7-1.1-0.7-1.8c0-0.7,0.2-1.2,0.7-1.7s1.1-0.7,1.8-0.7
		c0.7,0,1.2,0.2,1.7,0.7s0.7,1.1,0.7,1.7c0,0.7-0.2,1.3-0.7,1.8s-1.1,0.7-1.7,0.7C398.7,29.4,398.1,29.2,397.6,28.7z M397.6,53.2
		c-0.5-0.5-0.7-1.1-0.7-1.8c0-0.7,0.2-1.2,0.7-1.7s1.1-0.7,1.8-0.7c0.7,0,1.2,0.2,1.7,0.7s0.7,1.1,0.7,1.7c0,0.7-0.2,1.3-0.7,1.8
		s-1.1,0.7-1.7,0.7C398.7,53.9,398.1,53.7,397.6,53.2z"/>
	<path d="M405.5,22.6c-0.5-0.5-0.7-1.1-0.7-1.8c0-0.7,0.2-1.2,0.7-1.7s1.1-0.7,1.8-0.7c0.7,0,1.2,0.2,1.7,0.7s0.7,1.1,0.7,1.7
		c0,0.7-0.2,1.3-0.7,1.8s-1.1,0.7-1.7,0.7C406.6,23.3,406,23.1,405.5,22.6z M405.5,28.7c-0.5-0.5-0.7-1.1-0.7-1.8
		c0-0.7,0.2-1.2,0.7-1.7s1.1-0.7,1.8-0.7c0.7,0,1.2,0.2,1.7,0.7s0.7,1.1,0.7,1.7c0,0.7-0.2,1.3-0.7,1.8s-1.1,0.7-1.7,0.7
		C406.6,29.4,406,29.2,405.5,28.7z M405.5,34.9c-0.5-0.5-0.7-1.1-0.7-1.8c0-0.7,0.2-1.2,0.7-1.7s1.1-0.7,1.8-0.7
		c0.7,0,1.2,0.2,1.7,0.7s0.7,1.1,0.7,1.7c0,0.7-0.2,1.3-0.7,1.8s-1.1,0.7-1.7,0.7C406.6,35.6,406,35.3,405.5,34.9z M405.5,41
		c-0.5-0.5-0.7-1.1-0.7-1.8c0-0.7,0.2-1.2,0.7-1.7s1.1-0.7,1.8-0.7c0.7,0,1.2,0.2,1.7,0.7s0.7,1.1,0.7,1.7c0,0.7-0.2,1.3-0.7,1.8
		s-1.1,0.7-1.7,0.7C406.6,41.7,406,41.5,405.5,41z M405.5,47.1c-0.5-0.5-0.7-1.1-0.7-1.8c0-0.7,0.2-1.2,0.7-1.7s1.1-0.7,1.8-0.7
		c0.7,0,1.2,0.2,1.7,0.7s0.7,1.1,0.7,1.7c0,0.7-0.2,1.3-0.7,1.8s-1.1,0.7-1.7,0.7C406.6,47.8,406,47.6,405.5,47.1z M411.7,16.5
		c-0.5-0.5-0.7-1.1-0.7-1.8c0-0.7,0.2-1.2,0.7-1.7s1.1-0.7,1.8-0.7c0.7,0,1.2,0.2,1.7,0.7s0.7,1.1,0.7,1.7c0,0.7-0.2,1.3-0.7,1.8
		s-1.1,0.7-1.7,0.7C412.7,17.2,412.2,17,411.7,16.5z M411.7,53.2c-0.5-0.5-0.7-1.1-0.7-1.8c0-0.7,0.2-1.2,0.7-1.7s1.1-0.7,1.8-0.7
		c0.7,0,1.2,0.2,1.7,0.7s0.7,1.1,0.7,1.7c0,0.7-0.2,1.3-0.7,1.8s-1.1,0.7-1.7,0.7C412.7,53.9,412.2,53.7,411.7,53.2z M417.8,16.5
		c-0.5-0.5-0.7-1.1-0.7-1.8c0-0.7,0.2-1.2,0.7-1.7s1.1-0.7,1.8-0.7c0.7,0,1.2,0.2,1.7,0.7s0.7,1.1,0.7,1.7c0,0.7-0.2,1.3-0.7,1.8
		s-1.1,0.7-1.7,0.7C418.9,17.2,418.3,17,417.8,16.5z M417.8,53.2c-0.5-0.5-0.7-1.1-0.7-1.8c0-0.7,0.2-1.2,0.7-1.7s1.1-0.7,1.8-0.7
		c0.7,0,1.2,0.2,1.7,0.7s0.7,1.1,0.7,1.7c0,0.7-0.2,1.3-0.7,1.8s-1.1,0.7-1.7,0.7C418.9,53.9,418.3,53.7,417.8,53.2z M423.9,16.5
		c-0.5-0.5-0.7-1.1-0.7-1.8c0-0.7,0.2-1.2,0.7-1.7s1.1-0.7,1.8-0.7c0.7,0,1.2,0.2,1.7,0.7s0.7,1.1,0.7,1.7c0,0.7-0.2,1.3-0.7,1.8
		s-1.1,0.7-1.7,0.7C425,17.2,424.4,17,423.9,16.5z M423.9,53.2c-0.5-0.5-0.7-1.1-0.7-1.8c0-0.7,0.2-1.2,0.7-1.7s1.1-0.7,1.8-0.7
		c0.7,0,1.2,0.2,1.7,0.7s0.7,1.1,0.7,1.7c0,0.7-0.2,1.3-0.7,1.8s-1.1,0.7-1.7,0.7C425,53.9,424.4,53.7,423.9,53.2z M430,22.6
		c-0.5-0.5-0.7-1.1-0.7-1.8c0-0.7,0.2-1.2,0.7-1.7s1.1-0.7,1.8-0.7c0.7,0,1.2,0.2,1.7,0.7s0.7,1.1,0.7,1.7c0,0.7-0.2,1.3-0.7,1.8
		s-1.1,0.7-1.7,0.7C431.1,23.3,430.5,23.1,430,22.6z M430,47.1c-0.5-0.5-0.7-1.1-0.7-1.8c0-0.7,0.2-1.2,0.7-1.7s1.1-0.7,1.8-0.7
		c0.7,0,1.2,0.2,1.7,0.7s0.7,1.1,0.7,1.7c0,0.7-0.2,1.3-0.7,1.8s-1.1,0.7-1.7,0.7C431.1,47.8,430.5,47.6,430,47.1z"/>
	<path d="M438,16.5c-0.5-0.5-0.7-1.1-0.7-1.8c0-0.7,0.2-1.2,0.7-1.7s1.1-0.7,1.8-0.7c0.7,0,1.2,0.2,1.7,0.7s0.7,1.1,0.7,1.7
		c0,0.7-0.2,1.3-0.7,1.8s-1.1,0.7-1.7,0.7C439.1,17.2,438.5,17,438,16.5z M438,22.6c-0.5-0.5-0.7-1.1-0.7-1.8c0-0.7,0.2-1.2,0.7-1.7
		s1.1-0.7,1.8-0.7c0.7,0,1.2,0.2,1.7,0.7s0.7,1.1,0.7,1.7c0,0.7-0.2,1.3-0.7,1.8s-1.1,0.7-1.7,0.7C439.1,23.3,438.5,23.1,438,22.6z
		 M438,28.7c-0.5-0.5-0.7-1.1-0.7-1.8c0-0.7,0.2-1.2,0.7-1.7s1.1-0.7,1.8-0.7c0.7,0,1.2,0.2,1.7,0.7s0.7,1.1,0.7,1.7
		c0,0.7-0.2,1.3-0.7,1.8s-1.1,0.7-1.7,0.7C439.1,29.4,438.5,29.2,438,28.7z M438,34.9c-0.5-0.5-0.7-1.1-0.7-1.8
		c0-0.7,0.2-1.2,0.7-1.7s1.1-0.7,1.8-0.7c0.7,0,1.2,0.2,1.7,0.7s0.7,1.1,0.7,1.7c0,0.7-0.2,1.3-0.7,1.8s-1.1,0.7-1.7,0.7
		C439.1,35.6,438.5,35.3,438,34.9z M438,41c-0.5-0.5-0.7-1.1-0.7-1.8c0-0.7,0.2-1.2,0.7-1.7s1.1-0.7,1.8-0.7c0.7,0,1.2,0.2,1.7,0.7
		s0.7,1.1,0.7,1.7c0,0.7-0.2,1.3-0.7,1.8s-1.1,0.7-1.7,0.7C439.1,41.7,438.5,41.5,438,41z M438,47.1c-0.5-0.5-0.7-1.1-0.7-1.8
		c0-0.7,0.2-1.2,0.7-1.7s1.1-0.7,1.8-0.7c0.7,0,1.2,0.2,1.7,0.7s0.7,1.1,0.7,1.7c0,0.7-0.2,1.3-0.7,1.8s-1.1,0.7-1.7,0.7
		C439.1,47.8,438.5,47.6,438,47.1z M438,53.2c-0.5-0.5-0.7-1.1-0.7-1.8c0-0.7,0.2-1.2,0.7-1.7s1.1-0.7,1.8-0.7
		c0.7,0,1.2,0.2,1.7,0.7s0.7,1.1,0.7,1.7c0,0.7-0.2,1.3-0.7,1.8s-1.1,0.7-1.7,0.7C439.1,53.9,438.5,53.7,438,53.2z M444.1,34.9
		c-0.5-0.5-0.7-1.1-0.7-1.8c0-0.7,0.2-1.2,0.7-1.7s1.1-0.7,1.8-0.7c0.7,0,1.2,0.2,1.7,0.7s0.7,1.1,0.7,1.7c0,0.7-0.2,1.3-0.7,1.8
		s-1.1,0.7-1.7,0.7C445.2,35.6,444.6,35.3,444.1,34.9z M450.2,34.9c-0.5-0.5-0.7-1.1-0.7-1.8c0-0.7,0.2-1.2,0.7-1.7s1.1-0.7,1.8-0.7
		c0.7,0,1.2,0.2,1.7,0.7s0.7,1.1,0.7,1.7c0,0.7-0.2,1.3-0.7,1.8s-1.1,0.7-1.7,0.7C451.3,35.6,450.7,35.3,450.2,34.9z M456.4,34.9
		c-0.5-0.5-0.7-1.1-0.7-1.8c0-0.7,0.2-1.2,0.7-1.7s1.1-0.7,1.8-0.7c0.7,0,1.2,0.2,1.7,0.7s0.7,1.1,0.7,1.7c0,0.7-0.2,1.3-0.7,1.8
		s-1.1,0.7-1.7,0.7C457.4,35.6,456.8,35.3,456.4,34.9z M462.5,16.5c-0.5-0.5-0.7-1.1-0.7-1.8c0-0.7,0.2-1.2,0.7-1.7s1.1-0.7,1.8-0.7
		c0.7,0,1.2,0.2,1.7,0.7s0.7,1.1,0.7,1.7c0,0.7-0.2,1.3-0.7,1.8s-1.1,0.7-1.7,0.7C463.6,17.2,463,17,462.5,16.5z M462.5,22.6
		c-0.5-0.5-0.7-1.1-0.7-1.8c0-0.7,0.2-1.2,0.7-1.7s1.1-0.7,1.8-0.7c0.7,0,1.2,0.2,1.7,0.7s0.7,1.1,0.7,1.7c0,0.7-0.2,1.3-0.7,1.8
		s-1.1,0.7-1.7,0.7C463.6,23.3,463,23.1,462.5,22.6z M462.5,28.7c-0.5-0.5-0.7-1.1-0.7-1.8c0-0.7,0.2-1.2,0.7-1.7s1.1-0.7,1.8-0.7
		c0.7,0,1.2,0.2,1.7,0.7s0.7,1.1,0.7,1.7c0,0.7-0.2,1.3-0.7,1.8s-1.1,0.7-1.7,0.7C463.6,29.4,463,29.2,462.5,28.7z M462.5,34.9
		c-0.5-0.5-0.7-1.1-0.7-1.8c0-0.7,0.2-1.2,0.7-1.7s1.1-0.7,1.8-0.7c0.7,0,1.2,0.2,1.7,0.7s0.7,1.1,0.7,1.7c0,0.7-0.2,1.3-0.7,1.8
		s-1.1,0.7-1.7,0.7C463.6,35.6,463,35.3,462.5,34.9z M462.5,41c-0.5-0.5-0.7-1.1-0.7-1.8c0-0.7,0.2-1.2,0.7-1.7s1.1-0.7,1.8-0.7
		c0.7,0,1.2,0.2,1.7,0.7s0.7,1.1,0.7,1.7c0,0.7-0.2,1.3-0.7,1.8s-1.1,0.7-1.7,0.7C463.6,41.7,463,41.5,462.5,41z M462.5,47.1
		c-0.5-0.5-0.7-1.1-0.7-1.8c0-0.7,0.2-1.2,0.7-1.7s1.1-0.7,1.8-0.7c0.7,0,1.2,0.2,1.7,0.7s0.7,1.1,0.7,1.7c0,0.7-0.2,1.3-0.7,1.8
		s-1.1,0.7-1.7,0.7C463.6,47.8,463,47.6,462.5,47.1z M462.5,53.2c-0.5-0.5-0.7-1.1-0.7-1.8c0-0.7,0.2-1.2,0.7-1.7s1.1-0.7,1.8-0.7
		c0.7,0,1.2,0.2,1.7,0.7s0.7,1.1,0.7,1.7c0,0.7-0.2,1.3-0.7,1.8s-1.1,0.7-1.7,0.7C463.6,53.9,463,53.7,462.5,53.2z"/>
	<path d="M476.6,16.5c-0.5-0.5-0.7-1.1-0.7-1.8c0-0.7,0.2-1.2,0.7-1.7s1.1-0.7,1.8-0.7c0.7,0,1.2,0.2,1.7,0.7s0.7,1.1,0.7,1.7
		c0,0.7-0.2,1.3-0.7,1.8s-1.1,0.7-1.7,0.7C477.6,17.2,477,17,476.6,16.5z M476.6,53.2c-0.5-0.5-0.7-1.1-0.7-1.8
		c0-0.7,0.2-1.2,0.7-1.7s1.1-0.7,1.8-0.7c0.7,0,1.2,0.2,1.7,0.7s0.7,1.1,0.7,1.7c0,0.7-0.2,1.3-0.7,1.8s-1.1,0.7-1.7,0.7
		C477.6,53.9,477,53.7,476.6,53.2z M482.7,16.5c-0.5-0.5-0.7-1.1-0.7-1.8c0-0.7,0.2-1.2,0.7-1.7s1.1-0.7,1.8-0.7
		c0.7,0,1.2,0.2,1.7,0.7s0.7,1.1,0.7,1.7c0,0.7-0.2,1.3-0.7,1.8s-1.1,0.7-1.7,0.7C483.7,17.2,483.2,17,482.7,16.5z M482.7,22.6
		c-0.5-0.5-0.7-1.1-0.7-1.8c0-0.7,0.2-1.2,0.7-1.7s1.1-0.7,1.8-0.7c0.7,0,1.2,0.2,1.7,0.7s0.7,1.1,0.7,1.7c0,0.7-0.2,1.3-0.7,1.8
		s-1.1,0.7-1.7,0.7C483.7,23.3,483.2,23.1,482.7,22.6z M482.7,28.7c-0.5-0.5-0.7-1.1-0.7-1.8c0-0.7,0.2-1.2,0.7-1.7s1.1-0.7,1.8-0.7
		c0.7,0,1.2,0.2,1.7,0.7s0.7,1.1,0.7,1.7c0,0.7-0.2,1.3-0.7,1.8s-1.1,0.7-1.7,0.7C483.7,29.4,483.2,29.2,482.7,28.7z M482.7,34.9
		c-0.5-0.5-0.7-1.1-0.7-1.8c0-0.7,0.2-1.2,0.7-1.7s1.1-0.7,1.8-0.7c0.7,0,1.2,0.2,1.7,0.7s0.7,1.1,0.7,1.7c0,0.7-0.2,1.3-0.7,1.8
		s-1.1,0.7-1.7,0.7C483.7,35.6,483.2,35.3,482.7,34.9z M482.7,41c-0.5-0.5-0.7-1.1-0.7-1.8c0-0.7,0.2-1.2,0.7-1.7s1.1-0.7,1.8-0.7
		c0.7,0,1.2,0.2,1.7,0.7s0.7,1.1,0.7,1.7c0,0.7-0.2,1.3-0.7,1.8s-1.1,0.7-1.7,0.7C483.7,41.7,483.2,41.5,482.7,41z M482.7,47.1
		c-0.5-0.5-0.7-1.1-0.7-1.8c0-0.7,0.2-1.2,0.7-1.7s1.1-0.7,1.8-0.7c0.7,0,1.2,0.2,1.7,0.7s0.7,1.1,0.7,1.7c0,0.7-0.2,1.3-0.7,1.8
		s-1.1,0.7-1.7,0.7C483.7,47.8,483.2,47.6,482.7,47.1z M482.7,53.2c-0.5-0.5-0.7-1.1-0.7-1.8c0-0.7,0.2-1.2,0.7-1.7s1.1-0.7,1.8-0.7
		c0.7,0,1.2,0.2,1.7,0.7s0.7,1.1,0.7,1.7c0,0.7-0.2,1.3-0.7,1.8s-1.1,0.7-1.7,0.7C483.7,53.9,483.2,53.7,482.7,53.2z M488.8,16.5
		c-0.5-0.5-0.7-1.1-0.7-1.8c0-0.7,0.2-1.2,0.7-1.7s1.1-0.7,1.8-0.7c0.7,0,1.2,0.2,1.7,0.7s0.7,1.1,0.7,1.7c0,0.7-0.2,1.3-0.7,1.8
		s-1.1,0.7-1.7,0.7C489.9,17.2,489.3,17,488.8,16.5z M488.8,53.2c-0.5-0.5-0.7-1.1-0.7-1.8c0-0.7,0.2-1.2,0.7-1.7s1.1-0.7,1.8-0.7
		c0.7,0,1.2,0.2,1.7,0.7s0.7,1.1,0.7,1.7c0,0.7-0.2,1.3-0.7,1.8s-1.1,0.7-1.7,0.7C489.9,53.9,489.3,53.7,488.8,53.2z"/>
	<path d="M502.9,16.5c-0.5-0.5-0.7-1.1-0.7-1.8c0-0.7,0.2-1.2,0.7-1.7s1.1-0.7,1.8-0.7c0.7,0,1.2,0.2,1.7,0.7s0.7,1.1,0.7,1.7
		c0,0.7-0.2,1.3-0.7,1.8s-1.1,0.7-1.7,0.7C503.9,17.2,503.3,17,502.9,16.5z M509,16.5c-0.5-0.5-0.7-1.1-0.7-1.8
		c0-0.7,0.2-1.2,0.7-1.7s1.1-0.7,1.8-0.7c0.7,0,1.2,0.2,1.7,0.7s0.7,1.1,0.7,1.7c0,0.7-0.2,1.3-0.7,1.8s-1.1,0.7-1.7,0.7
		C510.1,17.2,509.5,17,509,16.5z M515.1,16.5c-0.5-0.5-0.7-1.1-0.7-1.8c0-0.7,0.2-1.2,0.7-1.7s1.1-0.7,1.8-0.7
		c0.7,0,1.2,0.2,1.7,0.7s0.7,1.1,0.7,1.7c0,0.7-0.2,1.3-0.7,1.8s-1.1,0.7-1.7,0.7C516.2,17.2,515.6,17,515.1,16.5z M515.1,22.6
		c-0.5-0.5-0.7-1.1-0.7-1.8c0-0.7,0.2-1.2,0.7-1.7s1.1-0.7,1.8-0.7c0.7,0,1.2,0.2,1.7,0.7s0.7,1.1,0.7,1.7c0,0.7-0.2,1.3-0.7,1.8
		s-1.1,0.7-1.7,0.7C516.2,23.3,515.6,23.1,515.1,22.6z M515.1,28.7c-0.5-0.5-0.7-1.1-0.7-1.8c0-0.7,0.2-1.2,0.7-1.7s1.1-0.7,1.8-0.7
		c0.7,0,1.2,0.2,1.7,0.7s0.7,1.1,0.7,1.7c0,0.7-0.2,1.3-0.7,1.8s-1.1,0.7-1.7,0.7C516.2,29.4,515.6,29.2,515.1,28.7z M515.1,34.9
		c-0.5-0.5-0.7-1.1-0.7-1.8c0-0.7,0.2-1.2,0.7-1.7s1.1-0.7,1.8-0.7c0.7,0,1.2,0.2,1.7,0.7s0.7,1.1,0.7,1.7c0,0.7-0.2,1.3-0.7,1.8
		s-1.1,0.7-1.7,0.7C516.2,35.6,515.6,35.3,515.1,34.9z M515.1,41c-0.5-0.5-0.7-1.1-0.7-1.8c0-0.7,0.2-1.2,0.7-1.7s1.1-0.7,1.8-0.7
		c0.7,0,1.2,0.2,1.7,0.7s0.7,1.1,0.7,1.7c0,0.7-0.2,1.3-0.7,1.8s-1.1,0.7-1.7,0.7C516.2,41.7,515.6,41.5,515.1,41z M515.1,47.1
		c-0.5-0.5-0.7-1.1-0.7-1.8c0-0.7,0.2-1.2,0.7-1.7s1.1-0.7,1.8-0.7c0.7,0,1.2,0.2,1.7,0.7s0.7,1.1,0.7,1.7c0,0.7-0.2,1.3-0.7,1.8
		s-1.1,0.7-1.7,0.7C516.2,47.8,515.6,47.6,515.1,47.1z M515.1,53.2c-0.5-0.5-0.7-1.1-0.7-1.8c0-0.7,0.2-1.2,0.7-1.7s1.1-0.7,1.8-0.7
		c0.7,0,1.2,0.2,1.7,0.7s0.7,1.1,0.7,1.7c0,0.7-0.2,1.3-0.7,1.8s-1.1,0.7-1.7,0.7C516.2,53.9,515.6,53.7,515.1,53.2z M521.2,16.5
		c-0.5-0.5-0.7-1.1-0.7-1.8c0-0.7,0.2-1.2,0.7-1.7s1.1-0.7,1.8-0.7c0.7,0,1.2,0.2,1.7,0.7s0.7,1.1,0.7,1.7c0,0.7-0.2,1.3-0.7,1.8
		s-1.1,0.7-1.7,0.7C522.3,17.2,521.7,17,521.2,16.5z M527.4,16.5c-0.5-0.5-0.7-1.1-0.7-1.8c0-0.7,0.2-1.2,0.7-1.7s1.1-0.7,1.8-0.7
		c0.7,0,1.2,0.2,1.7,0.7s0.7,1.1,0.7,1.7c0,0.7-0.2,1.3-0.7,1.8s-1.1,0.7-1.7,0.7C528.4,17.2,527.8,17,527.4,16.5z"/>
	<path d="M535.3,16.5c-0.5-0.5-0.7-1.1-0.7-1.8c0-0.7,0.2-1.2,0.7-1.7s1.1-0.7,1.8-0.7c0.7,0,1.2,0.2,1.7,0.7s0.7,1.1,0.7,1.7
		c0,0.7-0.2,1.3-0.7,1.8s-1.1,0.7-1.7,0.7C536.4,17.2,535.8,17,535.3,16.5z M535.3,22.6c-0.5-0.5-0.7-1.1-0.7-1.8
		c0-0.7,0.2-1.2,0.7-1.7s1.1-0.7,1.8-0.7c0.7,0,1.2,0.2,1.7,0.7s0.7,1.1,0.7,1.7c0,0.7-0.2,1.3-0.7,1.8s-1.1,0.7-1.7,0.7
		C536.4,23.3,535.8,23.1,535.3,22.6z M535.3,28.7c-0.5-0.5-0.7-1.1-0.7-1.8c0-0.7,0.2-1.2,0.7-1.7s1.1-0.7,1.8-0.7
		c0.7,0,1.2,0.2,1.7,0.7s0.7,1.1,0.7,1.7c0,0.7-0.2,1.3-0.7,1.8s-1.1,0.7-1.7,0.7C536.4,29.4,535.8,29.2,535.3,28.7z M535.3,34.9
		c-0.5-0.5-0.7-1.1-0.7-1.8c0-0.7,0.2-1.2,0.7-1.7s1.1-0.7,1.8-0.7c0.7,0,1.2,0.2,1.7,0.7s0.7,1.1,0.7,1.7c0,0.7-0.2,1.3-0.7,1.8
		s-1.1,0.7-1.7,0.7C536.4,35.6,535.8,35.3,535.3,34.9z M535.3,41c-0.5-0.5-0.7-1.1-0.7-1.8c0-0.7,0.2-1.2,0.7-1.7s1.1-0.7,1.8-0.7
		c0.7,0,1.2,0.2,1.7,0.7s0.7,1.1,0.7,1.7c0,0.7-0.2,1.3-0.7,1.8s-1.1,0.7-1.7,0.7C536.4,41.7,535.8,41.5,535.3,41z M535.3,47.1
		c-0.5-0.5-0.7-1.1-0.7-1.8c0-0.7,0.2-1.2,0.7-1.7s1.1-0.7,1.8-0.7c0.7,0,1.2,0.2,1.7,0.7s0.7,1.1,0.7,1.7c0,0.7-0.2,1.3-0.7,1.8
		s-1.1,0.7-1.7,0.7C536.4,47.8,535.8,47.6,535.3,47.1z M535.3,53.2c-0.5-0.5-0.7-1.1-0.7-1.8c0-0.7,0.2-1.2,0.7-1.7s1.1-0.7,1.8-0.7
		c0.7,0,1.2,0.2,1.7,0.7s0.7,1.1,0.7,1.7c0,0.7-0.2,1.3-0.7,1.8s-1.1,0.7-1.7,0.7C536.4,53.9,535.8,53.7,535.3,53.2z M541.4,16.5
		c-0.5-0.5-0.7-1.1-0.7-1.8c0-0.7,0.2-1.2,0.7-1.7s1.1-0.7,1.8-0.7c0.7,0,1.2,0.2,1.7,0.7s0.7,1.1,0.7,1.7c0,0.7-0.2,1.3-0.7,1.8
		s-1.1,0.7-1.7,0.7C542.5,17.2,541.9,17,541.4,16.5z M541.4,34.9c-0.5-0.5-0.7-1.1-0.7-1.8c0-0.7,0.2-1.2,0.7-1.7s1.1-0.7,1.8-0.7
		c0.7,0,1.2,0.2,1.7,0.7s0.7,1.1,0.7,1.7c0,0.7-0.2,1.3-0.7,1.8s-1.1,0.7-1.7,0.7C542.5,35.6,541.9,35.3,541.4,34.9z M541.4,53.2
		c-0.5-0.5-0.7-1.1-0.7-1.8c0-0.7,0.2-1.2,0.7-1.7s1.1-0.7,1.8-0.7c0.7,0,1.2,0.2,1.7,0.7s0.7,1.1,0.7,1.7c0,0.7-0.2,1.3-0.7,1.8
		s-1.1,0.7-1.7,0.7C542.5,53.9,541.9,53.7,541.4,53.2z M547.6,16.5c-0.5-0.5-0.7-1.1-0.7-1.8c0-0.7,0.2-1.2,0.7-1.7s1.1-0.7,1.8-0.7
		c0.7,0,1.2,0.2,1.7,0.7s0.7,1.1,0.7,1.7c0,0.7-0.2,1.3-0.7,1.8s-1.1,0.7-1.7,0.7C548.6,17.2,548,17,547.6,16.5z M547.6,34.9
		c-0.5-0.5-0.7-1.1-0.7-1.8c0-0.7,0.2-1.2,0.7-1.7s1.1-0.7,1.8-0.7c0.7,0,1.2,0.2,1.7,0.7s0.7,1.1,0.7,1.7c0,0.7-0.2,1.3-0.7,1.8
		s-1.1,0.7-1.7,0.7C548.6,35.6,548,35.3,547.6,34.9z M547.6,53.2c-0.5-0.5-0.7-1.1-0.7-1.8c0-0.7,0.2-1.2,0.7-1.7s1.1-0.7,1.8-0.7
		c0.7,0,1.2,0.2,1.7,0.7s0.7,1.1,0.7,1.7c0,0.7-0.2,1.3-0.7,1.8s-1.1,0.7-1.7,0.7C548.6,53.9,548,53.7,547.6,53.2z M553.7,16.5
		c-0.5-0.5-0.7-1.1-0.7-1.8c0-0.7,0.2-1.2,0.7-1.7s1.1-0.7,1.8-0.7c0.7,0,1.2,0.2,1.7,0.7s0.7,1.1,0.7,1.7c0,0.7-0.2,1.3-0.7,1.8
		s-1.1,0.7-1.7,0.7C554.7,17.2,554.2,17,553.7,16.5z M553.7,34.9c-0.5-0.5-0.7-1.1-0.7-1.8c0-0.7,0.2-1.2,0.7-1.7s1.1-0.7,1.8-0.7
		c0.7,0,1.2,0.2,1.7,0.7s0.7,1.1,0.7,1.7c0,0.7-0.2,1.3-0.7,1.8s-1.1,0.7-1.7,0.7C554.7,35.6,554.2,35.3,553.7,34.9z M553.7,53.2
		c-0.5-0.5-0.7-1.1-0.7-1.8c0-0.7,0.2-1.2,0.7-1.7s1.1-0.7,1.8-0.7c0.7,0,1.2,0.2,1.7,0.7s0.7,1.1,0.7,1.7c0,0.7-0.2,1.3-0.7,1.8
		s-1.1,0.7-1.7,0.7C554.7,53.9,554.2,53.7,553.7,53.2z M559.8,16.5c-0.5-0.5-0.7-1.1-0.7-1.8c0-0.7,0.2-1.2,0.7-1.7s1.1-0.7,1.8-0.7
		c0.7,0,1.2,0.2,1.7,0.7s0.7,1.1,0.7,1.7c0,0.7-0.2,1.3-0.7,1.8s-1.1,0.7-1.7,0.7C560.9,17.2,560.3,17,559.8,16.5z M559.8,53.2
		c-0.5-0.5-0.7-1.1-0.7-1.8c0-0.7,0.2-1.2,0.7-1.7s1.1-0.7,1.8-0.7c0.7,0,1.2,0.2,1.7,0.7s0.7,1.1,0.7,1.7c0,0.7-0.2,1.3-0.7,1.8
		s-1.1,0.7-1.7,0.7C560.9,53.9,560.3,53.7,559.8,53.2z"/>
	<path d="M567.7,22.6c-0.5-0.5-0.7-1.1-0.7-1.8c0-0.7,0.2-1.2,0.7-1.7s1.1-0.7,1.8-0.7c0.7,0,1.2,0.2,1.7,0.7s0.7,1.1,0.7,1.7
		c0,0.7-0.2,1.3-0.7,1.8s-1.1,0.7-1.7,0.7C568.8,23.3,568.2,23.1,567.7,22.6z M567.7,28.7c-0.5-0.5-0.7-1.1-0.7-1.8
		c0-0.7,0.2-1.2,0.7-1.7s1.1-0.7,1.8-0.7c0.7,0,1.2,0.2,1.7,0.7s0.7,1.1,0.7,1.7c0,0.7-0.2,1.3-0.7,1.8s-1.1,0.7-1.7,0.7
		C568.8,29.4,568.2,29.2,567.7,28.7z M567.7,34.9c-0.5-0.5-0.7-1.1-0.7-1.8c0-0.7,0.2-1.2,0.7-1.7s1.1-0.7,1.8-0.7
		c0.7,0,1.2,0.2,1.7,0.7s0.7,1.1,0.7,1.7c0,0.7-0.2,1.3-0.7,1.8s-1.1,0.7-1.7,0.7C568.8,35.6,568.2,35.3,567.7,34.9z M567.7,41
		c-0.5-0.5-0.7-1.1-0.7-1.8c0-0.7,0.2-1.2,0.7-1.7s1.1-0.7,1.8-0.7c0.7,0,1.2,0.2,1.7,0.7s0.7,1.1,0.7,1.7c0,0.7-0.2,1.3-0.7,1.8
		s-1.1,0.7-1.7,0.7C568.8,41.7,568.2,41.5,567.7,41z M567.7,47.1c-0.5-0.5-0.7-1.1-0.7-1.8c0-0.7,0.2-1.2,0.7-1.7s1.1-0.7,1.8-0.7
		c0.7,0,1.2,0.2,1.7,0.7s0.7,1.1,0.7,1.7c0,0.7-0.2,1.3-0.7,1.8s-1.1,0.7-1.7,0.7C568.8,47.8,568.2,47.6,567.7,47.1z M573.9,16.5
		c-0.5-0.5-0.7-1.1-0.7-1.8c0-0.7,0.2-1.2,0.7-1.7s1.1-0.7,1.8-0.7c0.7,0,1.2,0.2,1.7,0.7s0.7,1.1,0.7,1.7c0,0.7-0.2,1.3-0.7,1.8
		s-1.1,0.7-1.7,0.7C574.9,17.2,574.3,17,573.9,16.5z M573.9,53.2c-0.5-0.5-0.7-1.1-0.7-1.8c0-0.7,0.2-1.2,0.7-1.7s1.1-0.7,1.8-0.7
		c0.7,0,1.2,0.2,1.7,0.7s0.7,1.1,0.7,1.7c0,0.7-0.2,1.3-0.7,1.8s-1.1,0.7-1.7,0.7C574.9,53.9,574.3,53.7,573.9,53.2z M580,16.5
		c-0.5-0.5-0.7-1.1-0.7-1.8c0-0.7,0.2-1.2,0.7-1.7s1.1-0.7,1.8-0.7c0.7,0,1.2,0.2,1.7,0.7s0.7,1.1,0.7,1.7c0,0.7-0.2,1.3-0.7,1.8
		s-1.1,0.7-1.7,0.7C581.1,17.2,580.5,17,580,16.5z M580,53.2c-0.5-0.5-0.7-1.1-0.7-1.8c0-0.7,0.2-1.2,0.7-1.7s1.1-0.7,1.8-0.7
		c0.7,0,1.2,0.2,1.7,0.7s0.7,1.1,0.7,1.7c0,0.7-0.2,1.3-0.7,1.8s-1.1,0.7-1.7,0.7C581.1,53.9,580.5,53.7,580,53.2z M586.1,16.5
		c-0.5-0.5-0.7-1.1-0.7-1.8c0-0.7,0.2-1.2,0.7-1.7s1.1-0.7,1.8-0.7c0.7,0,1.2,0.2,1.7,0.7s0.7,1.1,0.7,1.7c0,0.7-0.2,1.3-0.7,1.8
		s-1.1,0.7-1.7,0.7C587.2,17.2,586.6,17,586.1,16.5z M586.1,53.2c-0.5-0.5-0.7-1.1-0.7-1.8c0-0.7,0.2-1.2,0.7-1.7s1.1-0.7,1.8-0.7
		c0.7,0,1.2,0.2,1.7,0.7s0.7,1.1,0.7,1.7c0,0.7-0.2,1.3-0.7,1.8s-1.1,0.7-1.7,0.7C587.2,53.9,586.6,53.7,586.1,53.2z M592.2,22.6
		c-0.5-0.5-0.7-1.1-0.7-1.8c0-0.7,0.2-1.2,0.7-1.7s1.1-0.7,1.8-0.7c0.7,0,1.2,0.2,1.7,0.7s0.7,1.1,0.7,1.7c0,0.7-0.2,1.3-0.7,1.8
		s-1.1,0.7-1.7,0.7C593.3,23.3,592.7,23.1,592.2,22.6z M592.2,47.1c-0.5-0.5-0.7-1.1-0.7-1.8c0-0.7,0.2-1.2,0.7-1.7s1.1-0.7,1.8-0.7
		c0.7,0,1.2,0.2,1.7,0.7s0.7,1.1,0.7,1.7c0,0.7-0.2,1.3-0.7,1.8s-1.1,0.7-1.7,0.7C593.3,47.8,592.7,47.6,592.2,47.1z"/>
	<path d="M600.2,16.5c-0.5-0.5-0.7-1.1-0.7-1.8c0-0.7,0.2-1.2,0.7-1.7s1.1-0.7,1.8-0.7c0.7,0,1.2,0.2,1.7,0.7s0.7,1.1,0.7,1.7
		c0,0.7-0.2,1.3-0.7,1.8s-1.1,0.7-1.7,0.7C601.3,17.2,600.7,17,600.2,16.5z M606.3,16.5c-0.5-0.5-0.7-1.1-0.7-1.8
		c0-0.7,0.2-1.2,0.7-1.7s1.1-0.7,1.8-0.7c0.7,0,1.2,0.2,1.7,0.7s0.7,1.1,0.7,1.7c0,0.7-0.2,1.3-0.7,1.8s-1.1,0.7-1.7,0.7
		C607.4,17.2,606.8,17,606.3,16.5z M612.4,16.5c-0.5-0.5-0.7-1.1-0.7-1.8c0-0.7,0.2-1.2,0.7-1.7s1.1-0.7,1.8-0.7
		c0.7,0,1.2,0.2,1.7,0.7s0.7,1.1,0.7,1.7c0,0.7-0.2,1.3-0.7,1.8s-1.1,0.7-1.7,0.7C613.5,17.2,612.9,17,612.4,16.5z M612.4,22.6
		c-0.5-0.5-0.7-1.1-0.7-1.8c0-0.7,0.2-1.2,0.7-1.7s1.1-0.7,1.8-0.7c0.7,0,1.2,0.2,1.7,0.7s0.7,1.1,0.7,1.7c0,0.7-0.2,1.3-0.7,1.8
		s-1.1,0.7-1.7,0.7C613.5,23.3,612.9,23.1,612.4,22.6z M612.4,28.7c-0.5-0.5-0.7-1.1-0.7-1.8c0-0.7,0.2-1.2,0.7-1.7s1.1-0.7,1.8-0.7
		c0.7,0,1.2,0.2,1.7,0.7s0.7,1.1,0.7,1.7c0,0.7-0.2,1.3-0.7,1.8s-1.1,0.7-1.7,0.7C613.5,29.4,612.9,29.2,612.4,28.7z M612.4,34.9
		c-0.5-0.5-0.7-1.1-0.7-1.8c0-0.7,0.2-1.2,0.7-1.7s1.1-0.7,1.8-0.7c0.7,0,1.2,0.2,1.7,0.7s0.7,1.1,0.7,1.7c0,0.7-0.2,1.3-0.7,1.8
		s-1.1,0.7-1.7,0.7C613.5,35.6,612.9,35.3,612.4,34.9z M612.4,41c-0.5-0.5-0.7-1.1-0.7-1.8c0-0.7,0.2-1.2,0.7-1.7s1.1-0.7,1.8-0.7
		c0.7,0,1.2,0.2,1.7,0.7s0.7,1.1,0.7,1.7c0,0.7-0.2,1.3-0.7,1.8s-1.1,0.7-1.7,0.7C613.5,41.7,612.9,41.5,612.4,41z M612.4,47.1
		c-0.5-0.5-0.7-1.1-0.7-1.8c0-0.7,0.2-1.2,0.7-1.7s1.1-0.7,1.8-0.7c0.7,0,1.2,0.2,1.7,0.7s0.7,1.1,0.7,1.7c0,0.7-0.2,1.3-0.7,1.8
		s-1.1,0.7-1.7,0.7C613.5,47.8,612.9,47.6,612.4,47.1z M612.4,53.2c-0.5-0.5-0.7-1.1-0.7-1.8c0-0.7,0.2-1.2,0.7-1.7s1.1-0.7,1.8-0.7
		c0.7,0,1.2,0.2,1.7,0.7s0.7,1.1,0.7,1.7c0,0.7-0.2,1.3-0.7,1.8s-1.1,0.7-1.7,0.7C613.5,53.9,612.9,53.7,612.4,53.2z M618.6,16.5
		c-0.5-0.5-0.7-1.1-0.7-1.8c0-0.7,0.2-1.2,0.7-1.7s1.1-0.7,1.8-0.7c0.7,0,1.2,0.2,1.7,0.7s0.7,1.1,0.7,1.7c0,0.7-0.2,1.3-0.7,1.8
		s-1.1,0.7-1.7,0.7C619.6,17.2,619,17,618.6,16.5z M624.7,16.5c-0.5-0.5-0.7-1.1-0.7-1.8c0-0.7,0.2-1.2,0.7-1.7s1.1-0.7,1.8-0.7
		c0.7,0,1.2,0.2,1.7,0.7s0.7,1.1,0.7,1.7c0,0.7-0.2,1.3-0.7,1.8s-1.1,0.7-1.7,0.7C625.8,17.2,625.2,17,624.7,16.5z"/>
	<path d="M632.6,16.5c-0.5-0.5-0.7-1.1-0.7-1.8c0-0.7,0.2-1.2,0.7-1.7s1.1-0.7,1.8-0.7c0.7,0,1.2,0.2,1.7,0.7s0.7,1.1,0.7,1.7
		c0,0.7-0.2,1.3-0.7,1.8s-1.1,0.7-1.7,0.7C633.7,17.2,633.1,17,632.6,16.5z M632.6,22.6c-0.5-0.5-0.7-1.1-0.7-1.8
		c0-0.7,0.2-1.2,0.7-1.7s1.1-0.7,1.8-0.7c0.7,0,1.2,0.2,1.7,0.7s0.7,1.1,0.7,1.7c0,0.7-0.2,1.3-0.7,1.8s-1.1,0.7-1.7,0.7
		C633.7,23.3,633.1,23.1,632.6,22.6z M632.6,28.7c-0.5-0.5-0.7-1.1-0.7-1.8c0-0.7,0.2-1.2,0.7-1.7s1.1-0.7,1.8-0.7
		c0.7,0,1.2,0.2,1.7,0.7s0.7,1.1,0.7,1.7c0,0.7-0.2,1.3-0.7,1.8s-1.1,0.7-1.7,0.7C633.7,29.4,633.1,29.2,632.6,28.7z M632.6,34.9
		c-0.5-0.5-0.7-1.1-0.7-1.8c0-0.7,0.2-1.2,0.7-1.7s1.1-0.7,1.8-0.7c0.7,0,1.2,0.2,1.7,0.7s0.7,1.1,0.7,1.7c0,0.7-0.2,1.3-0.7,1.8
		s-1.1,0.7-1.7,0.7C633.7,35.6,633.1,35.3,632.6,34.9z M632.6,41c-0.5-0.5-0.7-1.1-0.7-1.8c0-0.7,0.2-1.2,0.7-1.7s1.1-0.7,1.8-0.7
		c0.7,0,1.2,0.2,1.7,0.7s0.7,1.1,0.7,1.7c0,0.7-0.2,1.3-0.7,1.8s-1.1,0.7-1.7,0.7C633.7,41.7,633.1,41.5,632.6,41z M632.6,47.1
		c-0.5-0.5-0.7-1.1-0.7-1.8c0-0.7,0.2-1.2,0.7-1.7s1.1-0.7,1.8-0.7c0.7,0,1.2,0.2,1.7,0.7s0.7,1.1,0.7,1.7c0,0.7-0.2,1.3-0.7,1.8
		s-1.1,0.7-1.7,0.7C633.7,47.8,633.1,47.6,632.6,47.1z M638.7,53.2c-0.5-0.5-0.7-1.1-0.7-1.8c0-0.7,0.2-1.2,0.7-1.7s1.1-0.7,1.8-0.7
		c0.7,0,1.2,0.2,1.7,0.7s0.7,1.1,0.7,1.7c0,0.7-0.2,1.3-0.7,1.8s-1.1,0.7-1.7,0.7C639.8,53.9,639.2,53.7,638.7,53.2z M644.9,53.2
		c-0.5-0.5-0.7-1.1-0.7-1.8c0-0.7,0.2-1.2,0.7-1.7s1.1-0.7,1.8-0.7c0.7,0,1.2,0.2,1.7,0.7s0.7,1.1,0.7,1.7c0,0.7-0.2,1.3-0.7,1.8
		s-1.1,0.7-1.7,0.7C645.9,53.9,645.4,53.7,644.9,53.2z M651,53.2c-0.5-0.5-0.7-1.1-0.7-1.8c0-0.7,0.2-1.2,0.7-1.7s1.1-0.7,1.8-0.7
		c0.7,0,1.2,0.2,1.7,0.7s0.7,1.1,0.7,1.7c0,0.7-0.2,1.3-0.7,1.8s-1.1,0.7-1.7,0.7C652.1,53.9,651.5,53.7,651,53.2z M657.1,16.5
		c-0.5-0.5-0.7-1.1-0.7-1.8c0-0.7,0.2-1.2,0.7-1.7s1.1-0.7,1.8-0.7c0.7,0,1.2,0.2,1.7,0.7s0.7,1.1,0.7,1.7c0,0.7-0.2,1.3-0.7,1.8
		s-1.1,0.7-1.7,0.7C658.2,17.2,657.6,17,657.1,16.5z M657.1,22.6c-0.5-0.5-0.7-1.1-0.7-1.8c0-0.7,0.2-1.2,0.7-1.7s1.1-0.7,1.8-0.7
		c0.7,0,1.2,0.2,1.7,0.7s0.7,1.1,0.7,1.7c0,0.7-0.2,1.3-0.7,1.8s-1.1,0.7-1.7,0.7C658.2,23.3,657.6,23.1,657.1,22.6z M657.1,28.7
		c-0.5-0.5-0.7-1.1-0.7-1.8c0-0.7,0.2-1.2,0.7-1.7s1.1-0.7,1.8-0.7c0.7,0,1.2,0.2,1.7,0.7s0.7,1.1,0.7,1.7c0,0.7-0.2,1.3-0.7,1.8
		s-1.1,0.7-1.7,0.7C658.2,29.4,657.6,29.2,657.1,28.7z M657.1,34.9c-0.5-0.5-0.7-1.1-0.7-1.8c0-0.7,0.2-1.2,0.7-1.7s1.1-0.7,1.8-0.7
		c0.7,0,1.2,0.2,1.7,0.7s0.7,1.1,0.7,1.7c0,0.7-0.2,1.3-0.7,1.8s-1.1,0.7-1.7,0.7C658.2,35.6,657.6,35.3,657.1,34.9z M657.1,41
		c-0.5-0.5-0.7-1.1-0.7-1.8c0-0.7,0.2-1.2,0.7-1.7s1.1-0.7,1.8-0.7c0.7,0,1.2,0.2,1.7,0.7s0.7,1.1,0.7,1.7c0,0.7-0.2,1.3-0.7,1.8
		s-1.1,0.7-1.7,0.7C658.2,41.7,657.6,41.5,657.1,41z M657.1,47.1c-0.5-0.5-0.7-1.1-0.7-1.8c0-0.7,0.2-1.2,0.7-1.7s1.1-0.7,1.8-0.7
		c0.7,0,1.2,0.2,1.7,0.7s0.7,1.1,0.7,1.7c0,0.7-0.2,1.3-0.7,1.8s-1.1,0.7-1.7,0.7C658.2,47.8,657.6,47.6,657.1,47.1z"/>
	<path d="M665.1,16.5c-0.5-0.5-0.7-1.1-0.7-1.8c0-0.7,0.2-1.2,0.7-1.7s1.1-0.7,1.8-0.7c0.7,0,1.2,0.2,1.7,0.7s0.7,1.1,0.7,1.7
		c0,0.7-0.2,1.3-0.7,1.8s-1.1,0.7-1.7,0.7C666.1,17.2,665.5,17,665.1,16.5z M665.1,22.6c-0.5-0.5-0.7-1.1-0.7-1.8
		c0-0.7,0.2-1.2,0.7-1.7s1.1-0.7,1.8-0.7c0.7,0,1.2,0.2,1.7,0.7s0.7,1.1,0.7,1.7c0,0.7-0.2,1.3-0.7,1.8s-1.1,0.7-1.7,0.7
		C666.1,23.3,665.5,23.1,665.1,22.6z M665.1,28.7c-0.5-0.5-0.7-1.1-0.7-1.8c0-0.7,0.2-1.2,0.7-1.7s1.1-0.7,1.8-0.7
		c0.7,0,1.2,0.2,1.7,0.7s0.7,1.1,0.7,1.7c0,0.7-0.2,1.3-0.7,1.8s-1.1,0.7-1.7,0.7C666.1,29.4,665.5,29.2,665.1,28.7z M665.1,34.9
		c-0.5-0.5-0.7-1.1-0.7-1.8c0-0.7,0.2-1.2,0.7-1.7s1.1-0.7,1.8-0.7c0.7,0,1.2,0.2,1.7,0.7s0.7,1.1,0.7,1.7c0,0.7-0.2,1.3-0.7,1.8
		s-1.1,0.7-1.7,0.7C666.1,35.6,665.5,35.3,665.1,34.9z M665.1,41c-0.5-0.5-0.7-1.1-0.7-1.8c0-0.7,0.2-1.2,0.7-1.7s1.1-0.7,1.8-0.7
		c0.7,0,1.2,0.2,1.7,0.7s0.7,1.1,0.7,1.7c0,0.7-0.2,1.3-0.7,1.8s-1.1,0.7-1.7,0.7C666.1,41.7,665.5,41.5,665.1,41z M665.1,47.1
		c-0.5-0.5-0.7-1.1-0.7-1.8c0-0.7,0.2-1.2,0.7-1.7s1.1-0.7,1.8-0.7c0.7,0,1.2,0.2,1.7,0.7s0.7,1.1,0.7,1.7c0,0.7-0.2,1.3-0.7,1.8
		s-1.1,0.7-1.7,0.7C666.1,47.8,665.5,47.6,665.1,47.1z M665.1,53.2c-0.5-0.5-0.7-1.1-0.7-1.8c0-0.7,0.2-1.2,0.7-1.7s1.1-0.7,1.8-0.7
		c0.7,0,1.2,0.2,1.7,0.7s0.7,1.1,0.7,1.7c0,0.7-0.2,1.3-0.7,1.8s-1.1,0.7-1.7,0.7C666.1,53.9,665.5,53.7,665.1,53.2z M671.2,16.5
		c-0.5-0.5-0.7-1.1-0.7-1.8c0-0.7,0.2-1.2,0.7-1.7s1.1-0.7,1.8-0.7c0.7,0,1.2,0.2,1.7,0.7s0.7,1.1,0.7,1.7c0,0.7-0.2,1.3-0.7,1.8
		s-1.1,0.7-1.7,0.7C672.3,17.2,671.7,17,671.2,16.5z M671.2,34.9c-0.5-0.5-0.7-1.1-0.7-1.8c0-0.7,0.2-1.2,0.7-1.7s1.1-0.7,1.8-0.7
		c0.7,0,1.2,0.2,1.7,0.7s0.7,1.1,0.7,1.7c0,0.7-0.2,1.3-0.7,1.8s-1.1,0.7-1.7,0.7C672.3,35.6,671.7,35.3,671.2,34.9z M677.3,16.5
		c-0.5-0.5-0.7-1.1-0.7-1.8c0-0.7,0.2-1.2,0.7-1.7s1.1-0.7,1.8-0.7c0.7,0,1.2,0.2,1.7,0.7s0.7,1.1,0.7,1.7c0,0.7-0.2,1.3-0.7,1.8
		s-1.1,0.7-1.7,0.7C678.4,17.2,677.8,17,677.3,16.5z M677.3,34.9c-0.5-0.5-0.7-1.1-0.7-1.8c0-0.7,0.2-1.2,0.7-1.7s1.1-0.7,1.8-0.7
		c0.7,0,1.2,0.2,1.7,0.7s0.7,1.1,0.7,1.7c0,0.7-0.2,1.3-0.7,1.8s-1.1,0.7-1.7,0.7C678.4,35.6,677.8,35.3,677.3,34.9z M677.3,41
		c-0.5-0.5-0.7-1.1-0.7-1.8c0-0.7,0.2-1.2,0.7-1.7s1.1-0.7,1.8-0.7c0.7,0,1.2,0.2,1.7,0.7s0.7,1.1,0.7,1.7c0,0.7-0.2,1.3-0.7,1.8
		s-1.1,0.7-1.7,0.7C678.4,41.7,677.8,41.5,677.3,41z M683.4,16.5c-0.5-0.5-0.7-1.1-0.7-1.8c0-0.7,0.2-1.2,0.7-1.7s1.1-0.7,1.8-0.7
		c0.7,0,1.2,0.2,1.7,0.7s0.7,1.1,0.7,1.7c0,0.7-0.2,1.3-0.7,1.8s-1.1,0.7-1.7,0.7C684.5,17.2,683.9,17,683.4,16.5z M683.4,34.9
		c-0.5-0.5-0.7-1.1-0.7-1.8c0-0.7,0.2-1.2,0.7-1.7s1.1-0.7,1.8-0.7c0.7,0,1.2,0.2,1.7,0.7s0.7,1.1,0.7,1.7c0,0.7-0.2,1.3-0.7,1.8
		s-1.1,0.7-1.7,0.7C684.5,35.6,683.9,35.3,683.4,34.9z M683.4,47.1c-0.5-0.5-0.7-1.1-0.7-1.8c0-0.7,0.2-1.2,0.7-1.7s1.1-0.7,1.8-0.7
		c0.7,0,1.2,0.2,1.7,0.7s0.7,1.1,0.7,1.7c0,0.7-0.2,1.3-0.7,1.8s-1.1,0.7-1.7,0.7C684.5,47.8,683.9,47.6,683.4,47.1z M689.6,22.6
		c-0.5-0.5-0.7-1.1-0.7-1.8c0-0.7,0.2-1.2,0.7-1.7s1.1-0.7,1.8-0.7c0.7,0,1.2,0.2,1.7,0.7s0.7,1.1,0.7,1.7c0,0.7-0.2,1.3-0.7,1.8
		s-1.1,0.7-1.7,0.7C690.6,23.3,690,23.1,689.6,22.6z M689.6,28.7c-0.5-0.5-0.7-1.1-0.7-1.8c0-0.7,0.2-1.2,0.7-1.7s1.1-0.7,1.8-0.7
		c0.7,0,1.2,0.2,1.7,0.7s0.7,1.1,0.7,1.7c0,0.7-0.2,1.3-0.7,1.8s-1.1,0.7-1.7,0.7C690.6,29.4,690,29.2,689.6,28.7z M689.6,53.2
		c-0.5-0.5-0.7-1.1-0.7-1.8c0-0.7,0.2-1.2,0.7-1.7s1.1-0.7,1.8-0.7c0.7,0,1.2,0.2,1.7,0.7s0.7,1.1,0.7,1.7c0,0.7-0.2,1.3-0.7,1.8
		s-1.1,0.7-1.7,0.7C690.6,53.9,690,53.7,689.6,53.2z"/>
	<path d="M697.5,16.5c-0.5-0.5-0.7-1.1-0.7-1.8c0-0.7,0.2-1.2,0.7-1.7s1.1-0.7,1.8-0.7c0.7,0,1.2,0.2,1.7,0.7s0.7,1.1,0.7,1.7
		c0,0.7-0.2,1.3-0.7,1.8s-1.1,0.7-1.7,0.7C698.6,17.2,698,17,697.5,16.5z M697.5,22.6c-0.5-0.5-0.7-1.1-0.7-1.8
		c0-0.7,0.2-1.2,0.7-1.7s1.1-0.7,1.8-0.7c0.7,0,1.2,0.2,1.7,0.7s0.7,1.1,0.7,1.7c0,0.7-0.2,1.3-0.7,1.8s-1.1,0.7-1.7,0.7
		C698.6,23.3,698,23.1,697.5,22.6z M697.5,28.7c-0.5-0.5-0.7-1.1-0.7-1.8c0-0.7,0.2-1.2,0.7-1.7s1.1-0.7,1.8-0.7
		c0.7,0,1.2,0.2,1.7,0.7s0.7,1.1,0.7,1.7c0,0.7-0.2,1.3-0.7,1.8s-1.1,0.7-1.7,0.7C698.6,29.4,698,29.2,697.5,28.7z M697.5,34.9
		c-0.5-0.5-0.7-1.1-0.7-1.8c0-0.7,0.2-1.2,0.7-1.7s1.1-0.7,1.8-0.7c0.7,0,1.2,0.2,1.7,0.7s0.7,1.1,0.7,1.7c0,0.7-0.2,1.3-0.7,1.8
		s-1.1,0.7-1.7,0.7C698.6,35.6,698,35.3,697.5,34.9z M697.5,41c-0.5-0.5-0.7-1.1-0.7-1.8c0-0.7,0.2-1.2,0.7-1.7s1.1-0.7,1.8-0.7
		c0.7,0,1.2,0.2,1.7,0.7s0.7,1.1,0.7,1.7c0,0.7-0.2,1.3-0.7,1.8s-1.1,0.7-1.7,0.7C698.6,41.7,698,41.5,697.5,41z M697.5,47.1
		c-0.5-0.5-0.7-1.1-0.7-1.8c0-0.7,0.2-1.2,0.7-1.7s1.1-0.7,1.8-0.7c0.7,0,1.2,0.2,1.7,0.7s0.7,1.1,0.7,1.7c0,0.7-0.2,1.3-0.7,1.8
		s-1.1,0.7-1.7,0.7C698.6,47.8,698,47.6,697.5,47.1z M697.5,53.2c-0.5-0.5-0.7-1.1-0.7-1.8c0-0.7,0.2-1.2,0.7-1.7s1.1-0.7,1.8-0.7
		c0.7,0,1.2,0.2,1.7,0.7s0.7,1.1,0.7,1.7c0,0.7-0.2,1.3-0.7,1.8s-1.1,0.7-1.7,0.7C698.6,53.9,698,53.7,697.5,53.2z M703.6,16.5
		c-0.5-0.5-0.7-1.1-0.7-1.8c0-0.7,0.2-1.2,0.7-1.7s1.1-0.7,1.8-0.7c0.7,0,1.2,0.2,1.7,0.7s0.7,1.1,0.7,1.7c0,0.7-0.2,1.3-0.7,1.8
		s-1.1,0.7-1.7,0.7C704.7,17.2,704.1,17,703.6,16.5z M703.6,34.9c-0.5-0.5-0.7-1.1-0.7-1.8c0-0.7,0.2-1.2,0.7-1.7s1.1-0.7,1.8-0.7
		c0.7,0,1.2,0.2,1.7,0.7s0.7,1.1,0.7,1.7c0,0.7-0.2,1.3-0.7,1.8s-1.1,0.7-1.7,0.7C704.7,35.6,704.1,35.3,703.6,34.9z M703.6,53.2
		c-0.5-0.5-0.7-1.1-0.7-1.8c0-0.7,0.2-1.2,0.7-1.7s1.1-0.7,1.8-0.7c0.7,0,1.2,0.2,1.7,0.7s0.7,1.1,0.7,1.7c0,0.7-0.2,1.3-0.7,1.8
		s-1.1,0.7-1.7,0.7C704.7,53.9,704.1,53.7,703.6,53.2z M709.8,16.5c-0.5-0.5-0.7-1.1-0.7-1.8c0-0.7,0.2-1.2,0.7-1.7s1.1-0.7,1.8-0.7
		c0.7,0,1.2,0.2,1.7,0.7s0.7,1.1,0.7,1.7c0,0.7-0.2,1.3-0.7,1.8s-1.1,0.7-1.7,0.7C710.8,17.2,710.2,17,709.8,16.5z M709.8,34.9
		c-0.5-0.5-0.7-1.1-0.7-1.8c0-0.7,0.2-1.2,0.7-1.7s1.1-0.7,1.8-0.7c0.7,0,1.2,0.2,1.7,0.7s0.7,1.1,0.7,1.7c0,0.7-0.2,1.3-0.7,1.8
		s-1.1,0.7-1.7,0.7C710.8,35.6,710.2,35.3,709.8,34.9z M709.8,53.2c-0.5-0.5-0.7-1.1-0.7-1.8c0-0.7,0.2-1.2,0.7-1.7s1.1-0.7,1.8-0.7
		c0.7,0,1.2,0.2,1.7,0.7s0.7,1.1,0.7,1.7c0,0.7-0.2,1.3-0.7,1.8s-1.1,0.7-1.7,0.7C710.8,53.9,710.2,53.7,709.8,53.2z M715.9,16.5
		c-0.5-0.5-0.7-1.1-0.7-1.8c0-0.7,0.2-1.2,0.7-1.7s1.1-0.7,1.8-0.7c0.7,0,1.2,0.2,1.7,0.7s0.7,1.1,0.7,1.7c0,0.7-0.2,1.3-0.7,1.8
		s-1.1,0.7-1.7,0.7C716.9,17.2,716.4,17,715.9,16.5z M715.9,34.9c-0.5-0.5-0.7-1.1-0.7-1.8c0-0.7,0.2-1.2,0.7-1.7s1.1-0.7,1.8-0.7
		c0.7,0,1.2,0.2,1.7,0.7s0.7,1.1,0.7,1.7c0,0.7-0.2,1.3-0.7,1.8s-1.1,0.7-1.7,0.7C716.9,35.6,716.4,35.3,715.9,34.9z M715.9,53.2
		c-0.5-0.5-0.7-1.1-0.7-1.8c0-0.7,0.2-1.2,0.7-1.7s1.1-0.7,1.8-0.7c0.7,0,1.2,0.2,1.7,0.7s0.7,1.1,0.7,1.7c0,0.7-0.2,1.3-0.7,1.8
		s-1.1,0.7-1.7,0.7C716.9,53.9,716.4,53.7,715.9,53.2z M722,16.5c-0.5-0.5-0.7-1.1-0.7-1.8c0-0.7,0.2-1.2,0.7-1.7s1.1-0.7,1.8-0.7
		c0.7,0,1.2,0.2,1.7,0.7s0.7,1.1,0.7,1.7c0,0.7-0.2,1.3-0.7,1.8s-1.1,0.7-1.7,0.7C723.1,17.2,722.5,17,722,16.5z M722,53.2
		c-0.5-0.5-0.7-1.1-0.7-1.8c0-0.7,0.2-1.2,0.7-1.7s1.1-0.7,1.8-0.7c0.7,0,1.2,0.2,1.7,0.7s0.7,1.1,0.7,1.7c0,0.7-0.2,1.3-0.7,1.8
		s-1.1,0.7-1.7,0.7C723.1,53.9,722.5,53.7,722,53.2z"/>
</g>
</svg>
