<?xml version="1.0" encoding="utf-8"?>
<!-- Generator: Adobe Illustrator 22.1.0, SVG Export Plug-In . SVG Version: 6.00 Build 0)  -->
<svg version="1.1" id="Calque_1" xmlns="http://www.w3.org/2000/svg" xmlns:xlink="http://www.w3.org/1999/xlink" x="0px" y="0px"
	 viewBox="0 0 295 25" style="enable-background:new 0 0 295 25;" xml:space="preserve">
<g>
	<path d="M0.4,6.2C0.2,6,0.1,5.7,0.1,5.3c0-0.3,0.1-0.6,0.4-0.8S1,4.1,1.3,4.1c0.3,0,0.6,0.1,0.8,0.4S2.5,5,2.5,5.3
		c0,0.3-0.1,0.6-0.4,0.9S1.6,6.6,1.3,6.6C1,6.6,0.7,6.4,0.4,6.2z M0.4,9.2C0.2,9,0.1,8.7,0.1,8.3c0-0.3,0.1-0.6,0.4-0.8
		S1,7.1,1.3,7.1c0.3,0,0.6,0.1,0.8,0.4S2.5,8,2.5,8.3c0,0.3-0.1,0.6-0.4,0.9C1.9,9.4,1.6,9.6,1.3,9.6C1,9.6,0.7,9.4,0.4,9.2z
		 M0.4,12.2c-0.2-0.2-0.4-0.5-0.4-0.9c0-0.3,0.1-0.6,0.4-0.8c0.2-0.2,0.5-0.4,0.9-0.4c0.3,0,0.6,0.1,0.8,0.4
		c0.2,0.2,0.4,0.5,0.4,0.8c0,0.3-0.1,0.6-0.4,0.9c-0.2,0.2-0.5,0.4-0.8,0.4C1,12.6,0.7,12.4,0.4,12.2z M0.4,15.2
		c-0.2-0.2-0.4-0.5-0.4-0.9c0-0.3,0.1-0.6,0.4-0.8c0.2-0.2,0.5-0.4,0.9-0.4c0.3,0,0.6,0.1,0.8,0.4c0.2,0.2,0.4,0.5,0.4,0.8
		c0,0.3-0.1,0.6-0.4,0.9c-0.2,0.2-0.5,0.4-0.8,0.4C1,15.6,0.7,15.4,0.4,15.2z M0.4,18.2c-0.2-0.2-0.4-0.5-0.4-0.9
		c0-0.3,0.1-0.6,0.4-0.8s0.5-0.4,0.9-0.4c0.3,0,0.6,0.1,0.8,0.4s0.4,0.5,0.4,0.8c0,0.3-0.1,0.6-0.4,0.9s-0.5,0.4-0.8,0.4
		C1,18.6,0.7,18.5,0.4,18.2z M0.4,21.2c-0.2-0.2-0.4-0.5-0.4-0.9c0-0.3,0.1-0.6,0.4-0.8c0.2-0.2,0.5-0.4,0.9-0.4
		c0.3,0,0.6,0.1,0.8,0.4c0.2,0.2,0.4,0.5,0.4,0.8c0,0.3-0.1,0.6-0.4,0.9s-0.5,0.4-0.8,0.4C1,21.6,0.7,21.5,0.4,21.2z M0.4,24.2
		c-0.2-0.2-0.4-0.5-0.4-0.9c0-0.3,0.1-0.6,0.4-0.8c0.2-0.2,0.5-0.4,0.9-0.4c0.3,0,0.6,0.1,0.8,0.4c0.2,0.2,0.4,0.5,0.4,0.8
		c0,0.3-0.1,0.6-0.4,0.9s-0.5,0.4-0.8,0.4C1,24.6,0.7,24.5,0.4,24.2z M3.4,9.2C3.2,9,3.1,8.7,3.1,8.3c0-0.3,0.1-0.6,0.4-0.8
		S4,7.1,4.3,7.1c0.3,0,0.6,0.1,0.8,0.4S5.5,8,5.5,8.3c0,0.3-0.1,0.6-0.4,0.9C4.9,9.4,4.6,9.6,4.3,9.6C4,9.6,3.7,9.4,3.4,9.2z
		 M6.5,12.2c-0.2-0.2-0.4-0.5-0.4-0.9c0-0.3,0.1-0.6,0.4-0.8c0.2-0.2,0.5-0.4,0.9-0.4c0.3,0,0.6,0.1,0.8,0.4
		c0.2,0.2,0.4,0.5,0.4,0.8c0,0.3-0.1,0.6-0.4,0.9c-0.2,0.2-0.5,0.4-0.8,0.4C7,12.6,6.7,12.4,6.5,12.2z M6.5,15.2
		c-0.2-0.2-0.4-0.5-0.4-0.9c0-0.3,0.1-0.6,0.4-0.8c0.2-0.2,0.5-0.4,0.9-0.4c0.3,0,0.6,0.1,0.8,0.4c0.2,0.2,0.4,0.5,0.4,0.8
		c0,0.3-0.1,0.6-0.4,0.9c-0.2,0.2-0.5,0.4-0.8,0.4C7,15.6,6.7,15.4,6.5,15.2z M9.5,9.2C9.2,9,9.1,8.7,9.1,8.3c0-0.3,0.1-0.6,0.4-0.8
		c0.2-0.2,0.5-0.4,0.9-0.4c0.3,0,0.6,0.1,0.8,0.4c0.2,0.2,0.4,0.5,0.4,0.8c0,0.3-0.1,0.6-0.4,0.9c-0.2,0.2-0.5,0.4-0.8,0.4
		C10,9.6,9.7,9.4,9.5,9.2z M12.5,6.2c-0.2-0.2-0.4-0.5-0.4-0.9c0-0.3,0.1-0.6,0.4-0.8c0.2-0.2,0.5-0.4,0.9-0.4
		c0.3,0,0.6,0.1,0.8,0.4c0.2,0.2,0.4,0.5,0.4,0.8c0,0.3-0.1,0.6-0.4,0.9c-0.2,0.2-0.5,0.4-0.8,0.4C13,6.6,12.7,6.4,12.5,6.2z
		 M12.5,9.2c-0.2-0.2-0.4-0.5-0.4-0.9c0-0.3,0.1-0.6,0.4-0.8c0.2-0.2,0.5-0.4,0.9-0.4c0.3,0,0.6,0.1,0.8,0.4
		c0.2,0.2,0.4,0.5,0.4,0.8c0,0.3-0.1,0.6-0.4,0.9c-0.2,0.2-0.5,0.4-0.8,0.4C13,9.6,12.7,9.4,12.5,9.2z M12.5,12.2
		c-0.2-0.2-0.4-0.5-0.4-0.9c0-0.3,0.1-0.6,0.4-0.8c0.2-0.2,0.5-0.4,0.9-0.4c0.3,0,0.6,0.1,0.8,0.4c0.2,0.2,0.4,0.5,0.4,0.8
		c0,0.3-0.1,0.6-0.4,0.9c-0.2,0.2-0.5,0.4-0.8,0.4C13,12.6,12.7,12.4,12.5,12.2z M12.5,15.2c-0.2-0.2-0.4-0.5-0.4-0.9
		c0-0.3,0.1-0.6,0.4-0.8c0.2-0.2,0.5-0.4,0.9-0.4c0.3,0,0.6,0.1,0.8,0.4c0.2,0.2,0.4,0.5,0.4,0.8c0,0.3-0.1,0.6-0.4,0.9
		c-0.2,0.2-0.5,0.4-0.8,0.4C13,15.6,12.7,15.4,12.5,15.2z M12.5,18.2c-0.2-0.2-0.4-0.5-0.4-0.9c0-0.3,0.1-0.6,0.4-0.8
		c0.2-0.2,0.5-0.4,0.9-0.4c0.3,0,0.6,0.1,0.8,0.4c0.2,0.2,0.4,0.5,0.4,0.8c0,0.3-0.1,0.6-0.4,0.9c-0.2,0.2-0.5,0.4-0.8,0.4
		C13,18.6,12.7,18.5,12.5,18.2z M12.5,21.2c-0.2-0.2-0.4-0.5-0.4-0.9c0-0.3,0.1-0.6,0.4-0.8c0.2-0.2,0.5-0.4,0.9-0.4
		c0.3,0,0.6,0.1,0.8,0.4c0.2,0.2,0.4,0.5,0.4,0.8c0,0.3-0.1,0.6-0.4,0.9c-0.2,0.2-0.5,0.4-0.8,0.4C13,21.6,12.7,21.5,12.5,21.2z
		 M12.5,24.2c-0.2-0.2-0.4-0.5-0.4-0.9c0-0.3,0.1-0.6,0.4-0.8c0.2-0.2,0.5-0.4,0.9-0.4c0.3,0,0.6,0.1,0.8,0.4
		c0.2,0.2,0.4,0.5,0.4,0.8c0,0.3-0.1,0.6-0.4,0.9c-0.2,0.2-0.5,0.4-0.8,0.4C13,24.6,12.7,24.5,12.5,24.2z"/>
	<path d="M16.9,9.2c-0.2-0.2-0.4-0.5-0.4-0.9c0-0.3,0.1-0.6,0.4-0.8c0.2-0.2,0.5-0.4,0.9-0.4c0.3,0,0.6,0.1,0.8,0.4
		C18.8,7.7,19,8,19,8.3c0,0.3-0.1,0.6-0.4,0.9c-0.2,0.2-0.5,0.4-0.8,0.4C17.4,9.6,17.1,9.4,16.9,9.2z M16.9,12.2
		c-0.2-0.2-0.4-0.5-0.4-0.9c0-0.3,0.1-0.6,0.4-0.8c0.2-0.2,0.5-0.4,0.9-0.4c0.3,0,0.6,0.1,0.8,0.4c0.2,0.2,0.4,0.5,0.4,0.8
		c0,0.3-0.1,0.6-0.4,0.9c-0.2,0.2-0.5,0.4-0.8,0.4C17.4,12.6,17.1,12.4,16.9,12.2z M16.9,15.2c-0.2-0.2-0.4-0.5-0.4-0.9
		c0-0.3,0.1-0.6,0.4-0.8c0.2-0.2,0.5-0.4,0.9-0.4c0.3,0,0.6,0.1,0.8,0.4c0.2,0.2,0.4,0.5,0.4,0.8c0,0.3-0.1,0.6-0.4,0.9
		c-0.2,0.2-0.5,0.4-0.8,0.4C17.4,15.6,17.1,15.4,16.9,15.2z M16.9,18.2c-0.2-0.2-0.4-0.5-0.4-0.9c0-0.3,0.1-0.6,0.4-0.8
		c0.2-0.2,0.5-0.4,0.9-0.4c0.3,0,0.6,0.1,0.8,0.4c0.2,0.2,0.4,0.5,0.4,0.8c0,0.3-0.1,0.6-0.4,0.9c-0.2,0.2-0.5,0.4-0.8,0.4
		C17.4,18.6,17.1,18.5,16.9,18.2z M16.9,21.2c-0.2-0.2-0.4-0.5-0.4-0.9c0-0.3,0.1-0.6,0.4-0.8c0.2-0.2,0.5-0.4,0.9-0.4
		c0.3,0,0.6,0.1,0.8,0.4c0.2,0.2,0.4,0.5,0.4,0.8c0,0.3-0.1,0.6-0.4,0.9c-0.2,0.2-0.5,0.4-0.8,0.4C17.4,21.6,17.1,21.5,16.9,21.2z
		 M19.9,6.2c-0.2-0.2-0.4-0.5-0.4-0.9c0-0.3,0.1-0.6,0.4-0.8c0.2-0.2,0.5-0.4,0.9-0.4c0.3,0,0.6,0.1,0.8,0.4C21.8,4.7,22,5,22,5.3
		c0,0.3-0.1,0.6-0.4,0.9c-0.2,0.2-0.5,0.4-0.8,0.4C20.4,6.6,20.1,6.4,19.9,6.2z M19.9,24.2c-0.2-0.2-0.4-0.5-0.4-0.9
		c0-0.3,0.1-0.6,0.4-0.8c0.2-0.2,0.5-0.4,0.9-0.4c0.3,0,0.6,0.1,0.8,0.4c0.2,0.2,0.4,0.5,0.4,0.8c0,0.3-0.1,0.6-0.4,0.9
		c-0.2,0.2-0.5,0.4-0.8,0.4C20.4,24.6,20.1,24.5,19.9,24.2z M22.9,6.2c-0.2-0.2-0.4-0.5-0.4-0.9c0-0.3,0.1-0.6,0.4-0.8
		s0.5-0.4,0.9-0.4c0.3,0,0.6,0.1,0.8,0.4C24.8,4.7,25,5,25,5.3c0,0.3-0.1,0.6-0.4,0.9c-0.2,0.2-0.5,0.4-0.8,0.4
		C23.4,6.6,23.1,6.4,22.9,6.2z M22.9,24.2c-0.2-0.2-0.4-0.5-0.4-0.9c0-0.3,0.1-0.6,0.4-0.8c0.2-0.2,0.5-0.4,0.9-0.4
		c0.3,0,0.6,0.1,0.8,0.4c0.2,0.2,0.4,0.5,0.4,0.8c0,0.3-0.1,0.6-0.4,0.9c-0.2,0.2-0.5,0.4-0.8,0.4C23.4,24.6,23.1,24.5,22.9,24.2z
		 M25.9,6.2c-0.2-0.2-0.4-0.5-0.4-0.9c0-0.3,0.1-0.6,0.4-0.8s0.5-0.4,0.9-0.4c0.3,0,0.6,0.1,0.8,0.4C27.8,4.7,28,5,28,5.3
		c0,0.3-0.1,0.6-0.4,0.9c-0.2,0.2-0.5,0.4-0.8,0.4C26.4,6.6,26.1,6.4,25.9,6.2z M25.9,24.2c-0.2-0.2-0.4-0.5-0.4-0.9
		c0-0.3,0.1-0.6,0.4-0.8c0.2-0.2,0.5-0.4,0.9-0.4c0.3,0,0.6,0.1,0.8,0.4c0.2,0.2,0.4,0.5,0.4,0.8c0,0.3-0.1,0.6-0.4,0.9
		c-0.2,0.2-0.5,0.4-0.8,0.4C26.4,24.6,26.1,24.5,25.9,24.2z M28.9,9.2c-0.2-0.2-0.4-0.5-0.4-0.9c0-0.3,0.1-0.6,0.4-0.8
		s0.5-0.4,0.9-0.4c0.3,0,0.6,0.1,0.8,0.4C30.9,7.7,31,8,31,8.3c0,0.3-0.1,0.6-0.4,0.9c-0.2,0.2-0.5,0.4-0.8,0.4
		C29.4,9.6,29.1,9.4,28.9,9.2z M28.9,12.2c-0.2-0.2-0.4-0.5-0.4-0.9c0-0.3,0.1-0.6,0.4-0.8c0.2-0.2,0.5-0.4,0.9-0.4
		c0.3,0,0.6,0.1,0.8,0.4c0.2,0.2,0.4,0.5,0.4,0.8c0,0.3-0.1,0.6-0.4,0.9c-0.2,0.2-0.5,0.4-0.8,0.4C29.4,12.6,29.1,12.4,28.9,12.2z
		 M28.9,15.2c-0.2-0.2-0.4-0.5-0.4-0.9c0-0.3,0.1-0.6,0.4-0.8c0.2-0.2,0.5-0.4,0.9-0.4c0.3,0,0.6,0.1,0.8,0.4
		c0.2,0.2,0.4,0.5,0.4,0.8c0,0.3-0.1,0.6-0.4,0.9c-0.2,0.2-0.5,0.4-0.8,0.4C29.4,15.6,29.1,15.4,28.9,15.2z M28.9,18.2
		c-0.2-0.2-0.4-0.5-0.4-0.9c0-0.3,0.1-0.6,0.4-0.8s0.5-0.4,0.9-0.4c0.3,0,0.6,0.1,0.8,0.4c0.2,0.2,0.4,0.5,0.4,0.8
		c0,0.3-0.1,0.6-0.4,0.9c-0.2,0.2-0.5,0.4-0.8,0.4C29.4,18.6,29.1,18.5,28.9,18.2z M28.9,21.2c-0.2-0.2-0.4-0.5-0.4-0.9
		c0-0.3,0.1-0.6,0.4-0.8c0.2-0.2,0.5-0.4,0.9-0.4c0.3,0,0.6,0.1,0.8,0.4c0.2,0.2,0.4,0.5,0.4,0.8c0,0.3-0.1,0.6-0.4,0.9
		c-0.2,0.2-0.5,0.4-0.8,0.4C29.4,21.6,29.1,21.5,28.9,21.2z"/>
	<path d="M33.3,6.2C33.1,6,33,5.7,33,5.3c0-0.3,0.1-0.6,0.4-0.8s0.5-0.4,0.9-0.4c0.3,0,0.6,0.1,0.8,0.4s0.4,0.5,0.4,0.8
		c0,0.3-0.1,0.6-0.4,0.9s-0.5,0.4-0.8,0.4C33.8,6.6,33.6,6.4,33.3,6.2z M33.3,9.2C33.1,9,33,8.7,33,8.3c0-0.3,0.1-0.6,0.4-0.8
		s0.5-0.4,0.9-0.4c0.3,0,0.6,0.1,0.8,0.4s0.4,0.5,0.4,0.8c0,0.3-0.1,0.6-0.4,0.9c-0.2,0.2-0.5,0.4-0.8,0.4
		C33.8,9.6,33.6,9.4,33.3,9.2z M33.3,12.2C33.1,12,33,11.7,33,11.3c0-0.3,0.1-0.6,0.4-0.8c0.2-0.2,0.5-0.4,0.9-0.4
		c0.3,0,0.6,0.1,0.8,0.4c0.2,0.2,0.4,0.5,0.4,0.8c0,0.3-0.1,0.6-0.4,0.9c-0.2,0.2-0.5,0.4-0.8,0.4C33.8,12.6,33.6,12.4,33.3,12.2z
		 M33.3,15.2C33.1,15,33,14.7,33,14.3c0-0.3,0.1-0.6,0.4-0.8c0.2-0.2,0.5-0.4,0.9-0.4c0.3,0,0.6,0.1,0.8,0.4
		c0.2,0.2,0.4,0.5,0.4,0.8c0,0.3-0.1,0.6-0.4,0.9c-0.2,0.2-0.5,0.4-0.8,0.4C33.8,15.6,33.6,15.4,33.3,15.2z M33.3,18.2
		C33.1,18,33,17.7,33,17.3c0-0.3,0.1-0.6,0.4-0.8s0.5-0.4,0.9-0.4c0.3,0,0.6,0.1,0.8,0.4s0.4,0.5,0.4,0.8c0,0.3-0.1,0.6-0.4,0.9
		s-0.5,0.4-0.8,0.4C33.8,18.6,33.6,18.5,33.3,18.2z M33.3,21.2C33.1,21,33,20.7,33,20.4c0-0.3,0.1-0.6,0.4-0.8
		c0.2-0.2,0.5-0.4,0.9-0.4c0.3,0,0.6,0.1,0.8,0.4c0.2,0.2,0.4,0.5,0.4,0.8c0,0.3-0.1,0.6-0.4,0.9s-0.5,0.4-0.8,0.4
		C33.8,21.6,33.6,21.5,33.3,21.2z M33.3,24.2C33.1,24,33,23.7,33,23.4c0-0.3,0.1-0.6,0.4-0.8c0.2-0.2,0.5-0.4,0.9-0.4
		c0.3,0,0.6,0.1,0.8,0.4c0.2,0.2,0.4,0.5,0.4,0.8c0,0.3-0.1,0.6-0.4,0.9s-0.5,0.4-0.8,0.4C33.8,24.6,33.6,24.5,33.3,24.2z M36.3,6.2
		C36.1,6,36,5.7,36,5.3c0-0.3,0.1-0.6,0.4-0.8s0.5-0.4,0.9-0.4c0.3,0,0.6,0.1,0.8,0.4s0.4,0.5,0.4,0.8c0,0.3-0.1,0.6-0.4,0.9
		s-0.5,0.4-0.8,0.4C36.9,6.6,36.6,6.4,36.3,6.2z M36.3,15.2C36.1,15,36,14.7,36,14.3c0-0.3,0.1-0.6,0.4-0.8c0.2-0.2,0.5-0.4,0.9-0.4
		c0.3,0,0.6,0.1,0.8,0.4c0.2,0.2,0.4,0.5,0.4,0.8c0,0.3-0.1,0.6-0.4,0.9c-0.2,0.2-0.5,0.4-0.8,0.4C36.9,15.6,36.6,15.4,36.3,15.2z
		 M39.3,6.2C39.1,6,39,5.7,39,5.3c0-0.3,0.1-0.6,0.4-0.8s0.5-0.4,0.9-0.4c0.3,0,0.6,0.1,0.8,0.4s0.4,0.5,0.4,0.8
		c0,0.3-0.1,0.6-0.4,0.9s-0.5,0.4-0.8,0.4C39.9,6.6,39.6,6.4,39.3,6.2z M39.3,15.2C39.1,15,39,14.7,39,14.3c0-0.3,0.1-0.6,0.4-0.8
		c0.2-0.2,0.5-0.4,0.9-0.4c0.3,0,0.6,0.1,0.8,0.4c0.2,0.2,0.4,0.5,0.4,0.8c0,0.3-0.1,0.6-0.4,0.9c-0.2,0.2-0.5,0.4-0.8,0.4
		C39.9,15.6,39.6,15.4,39.3,15.2z M39.3,18.2C39.1,18,39,17.7,39,17.3c0-0.3,0.1-0.6,0.4-0.8s0.5-0.4,0.9-0.4c0.3,0,0.6,0.1,0.8,0.4
		s0.4,0.5,0.4,0.8c0,0.3-0.1,0.6-0.4,0.9s-0.5,0.4-0.8,0.4C39.9,18.6,39.6,18.5,39.3,18.2z M42.3,6.2C42.1,6,42,5.7,42,5.3
		c0-0.3,0.1-0.6,0.4-0.8s0.5-0.4,0.9-0.4c0.3,0,0.6,0.1,0.8,0.4s0.4,0.5,0.4,0.8c0,0.3-0.1,0.6-0.4,0.9s-0.5,0.4-0.8,0.4
		C42.9,6.6,42.6,6.4,42.3,6.2z M42.3,15.2C42.1,15,42,14.7,42,14.3c0-0.3,0.1-0.6,0.4-0.8c0.2-0.2,0.5-0.4,0.9-0.4
		c0.3,0,0.6,0.1,0.8,0.4c0.2,0.2,0.4,0.5,0.4,0.8c0,0.3-0.1,0.6-0.4,0.9c-0.2,0.2-0.5,0.4-0.8,0.4C42.9,15.6,42.6,15.4,42.3,15.2z
		 M42.3,21.2C42.1,21,42,20.7,42,20.4c0-0.3,0.1-0.6,0.4-0.8c0.2-0.2,0.5-0.4,0.9-0.4c0.3,0,0.6,0.1,0.8,0.4
		c0.2,0.2,0.4,0.5,0.4,0.8c0,0.3-0.1,0.6-0.4,0.9s-0.5,0.4-0.8,0.4C42.9,21.6,42.6,21.5,42.3,21.2z M45.3,9.2C45.1,9,45,8.7,45,8.3
		c0-0.3,0.1-0.6,0.4-0.8s0.5-0.4,0.9-0.4c0.3,0,0.6,0.1,0.8,0.4s0.4,0.5,0.4,0.8c0,0.3-0.1,0.6-0.4,0.9c-0.2,0.2-0.5,0.4-0.8,0.4
		C45.9,9.6,45.6,9.4,45.3,9.2z M45.3,12.2C45.1,12,45,11.7,45,11.3c0-0.3,0.1-0.6,0.4-0.8c0.2-0.2,0.5-0.4,0.9-0.4
		c0.3,0,0.6,0.1,0.8,0.4c0.2,0.2,0.4,0.5,0.4,0.8c0,0.3-0.1,0.6-0.4,0.9c-0.2,0.2-0.5,0.4-0.8,0.4C45.9,12.6,45.6,12.4,45.3,12.2z
		 M45.3,24.2C45.1,24,45,23.7,45,23.4c0-0.3,0.1-0.6,0.4-0.8c0.2-0.2,0.5-0.4,0.9-0.4c0.3,0,0.6,0.1,0.8,0.4
		c0.2,0.2,0.4,0.5,0.4,0.8c0,0.3-0.1,0.6-0.4,0.9s-0.5,0.4-0.8,0.4C45.9,24.6,45.6,24.5,45.3,24.2z"/>
	<path d="M49.8,6.2c-0.2-0.2-0.4-0.5-0.4-0.9c0-0.3,0.1-0.6,0.4-0.8s0.5-0.4,0.9-0.4c0.3,0,0.6,0.1,0.8,0.4s0.4,0.5,0.4,0.8
		c0,0.3-0.1,0.6-0.4,0.9S51,6.6,50.6,6.6C50.3,6.6,50,6.4,49.8,6.2z M52.8,6.2c-0.2-0.2-0.4-0.5-0.4-0.9c0-0.3,0.1-0.6,0.4-0.8
		s0.5-0.4,0.9-0.4c0.3,0,0.6,0.1,0.8,0.4s0.4,0.5,0.4,0.8c0,0.3-0.1,0.6-0.4,0.9S54,6.6,53.6,6.6C53.3,6.6,53,6.4,52.8,6.2z
		 M55.8,6.2c-0.2-0.2-0.4-0.5-0.4-0.9c0-0.3,0.1-0.6,0.4-0.8s0.5-0.4,0.9-0.4c0.3,0,0.6,0.1,0.8,0.4s0.4,0.5,0.4,0.8
		c0,0.3-0.1,0.6-0.4,0.9S57,6.6,56.6,6.6C56.3,6.6,56,6.4,55.8,6.2z M55.8,9.2c-0.2-0.2-0.4-0.5-0.4-0.9c0-0.3,0.1-0.6,0.4-0.8
		s0.5-0.4,0.9-0.4c0.3,0,0.6,0.1,0.8,0.4s0.4,0.5,0.4,0.8c0,0.3-0.1,0.6-0.4,0.9c-0.2,0.2-0.5,0.4-0.8,0.4C56.3,9.6,56,9.4,55.8,9.2
		z M55.8,12.2c-0.2-0.2-0.4-0.5-0.4-0.9c0-0.3,0.1-0.6,0.4-0.8c0.2-0.2,0.5-0.4,0.9-0.4c0.3,0,0.6,0.1,0.8,0.4
		c0.2,0.2,0.4,0.5,0.4,0.8c0,0.3-0.1,0.6-0.4,0.9c-0.2,0.2-0.5,0.4-0.8,0.4C56.3,12.6,56,12.4,55.8,12.2z M55.8,15.2
		c-0.2-0.2-0.4-0.5-0.4-0.9c0-0.3,0.1-0.6,0.4-0.8c0.2-0.2,0.5-0.4,0.9-0.4c0.3,0,0.6,0.1,0.8,0.4c0.2,0.2,0.4,0.5,0.4,0.8
		c0,0.3-0.1,0.6-0.4,0.9c-0.2,0.2-0.5,0.4-0.8,0.4C56.3,15.6,56,15.4,55.8,15.2z M55.8,18.2c-0.2-0.2-0.4-0.5-0.4-0.9
		c0-0.3,0.1-0.6,0.4-0.8s0.5-0.4,0.9-0.4c0.3,0,0.6,0.1,0.8,0.4s0.4,0.5,0.4,0.8c0,0.3-0.1,0.6-0.4,0.9s-0.5,0.4-0.8,0.4
		C56.3,18.6,56,18.5,55.8,18.2z M55.8,21.2c-0.2-0.2-0.4-0.5-0.4-0.9c0-0.3,0.1-0.6,0.4-0.8c0.2-0.2,0.5-0.4,0.9-0.4
		c0.3,0,0.6,0.1,0.8,0.4c0.2,0.2,0.4,0.5,0.4,0.8c0,0.3-0.1,0.6-0.4,0.9s-0.5,0.4-0.8,0.4C56.3,21.6,56,21.5,55.8,21.2z M55.8,24.2
		c-0.2-0.2-0.4-0.5-0.4-0.9c0-0.3,0.1-0.6,0.4-0.8c0.2-0.2,0.5-0.4,0.9-0.4c0.3,0,0.6,0.1,0.8,0.4c0.2,0.2,0.4,0.5,0.4,0.8
		c0,0.3-0.1,0.6-0.4,0.9s-0.5,0.4-0.8,0.4C56.3,24.6,56,24.5,55.8,24.2z M58.8,6.2c-0.2-0.2-0.4-0.5-0.4-0.9c0-0.3,0.1-0.6,0.4-0.8
		s0.5-0.4,0.9-0.4c0.3,0,0.6,0.1,0.8,0.4s0.4,0.5,0.4,0.8c0,0.3-0.1,0.6-0.4,0.9S60,6.6,59.6,6.6C59.3,6.6,59,6.4,58.8,6.2z
		 M61.8,6.2c-0.2-0.2-0.4-0.5-0.4-0.9c0-0.3,0.1-0.6,0.4-0.8s0.5-0.4,0.9-0.4c0.3,0,0.6,0.1,0.8,0.4s0.4,0.5,0.4,0.8
		c0,0.3-0.1,0.6-0.4,0.9S63,6.6,62.6,6.6C62.3,6.6,62,6.4,61.8,6.2z"/>
	<path d="M66.2,12.2c-0.2-0.2-0.4-0.5-0.4-0.9c0-0.3,0.1-0.6,0.4-0.8c0.2-0.2,0.5-0.4,0.9-0.4c0.3,0,0.6,0.1,0.8,0.4
		c0.2,0.2,0.4,0.5,0.4,0.8c0,0.3-0.1,0.6-0.4,0.9c-0.2,0.2-0.5,0.4-0.8,0.4C66.7,12.6,66.4,12.4,66.2,12.2z M66.2,15.2
		c-0.2-0.2-0.4-0.5-0.4-0.9c0-0.3,0.1-0.6,0.4-0.8c0.2-0.2,0.5-0.4,0.9-0.4c0.3,0,0.6,0.1,0.8,0.4c0.2,0.2,0.4,0.5,0.4,0.8
		c0,0.3-0.1,0.6-0.4,0.9c-0.2,0.2-0.5,0.4-0.8,0.4C66.7,15.6,66.4,15.4,66.2,15.2z M66.2,18.2c-0.2-0.2-0.4-0.5-0.4-0.9
		c0-0.3,0.1-0.6,0.4-0.8c0.2-0.2,0.5-0.4,0.9-0.4c0.3,0,0.6,0.1,0.8,0.4s0.4,0.5,0.4,0.8c0,0.3-0.1,0.6-0.4,0.9s-0.5,0.4-0.8,0.4
		C66.7,18.6,66.4,18.5,66.2,18.2z M66.2,21.2c-0.2-0.2-0.4-0.5-0.4-0.9c0-0.3,0.1-0.6,0.4-0.8c0.2-0.2,0.5-0.4,0.9-0.4
		c0.3,0,0.6,0.1,0.8,0.4c0.2,0.2,0.4,0.5,0.4,0.8c0,0.3-0.1,0.6-0.4,0.9s-0.5,0.4-0.8,0.4C66.7,21.6,66.4,21.5,66.2,21.2z
		 M66.2,24.2c-0.2-0.2-0.4-0.5-0.4-0.9c0-0.3,0.1-0.6,0.4-0.8c0.2-0.2,0.5-0.4,0.9-0.4c0.3,0,0.6,0.1,0.8,0.4
		c0.2,0.2,0.4,0.5,0.4,0.8c0,0.3-0.1,0.6-0.4,0.9s-0.5,0.4-0.8,0.4C66.7,24.6,66.4,24.5,66.2,24.2z M69.2,9.2
		C69,9,68.9,8.7,68.9,8.3c0-0.3,0.1-0.6,0.4-0.8s0.5-0.4,0.9-0.4c0.3,0,0.6,0.1,0.8,0.4s0.4,0.5,0.4,0.8c0,0.3-0.1,0.6-0.4,0.9
		c-0.2,0.2-0.5,0.4-0.8,0.4C69.7,9.6,69.4,9.4,69.2,9.2z M69.2,18.2c-0.2-0.2-0.4-0.5-0.4-0.9c0-0.3,0.1-0.6,0.4-0.8
		s0.5-0.4,0.9-0.4c0.3,0,0.6,0.1,0.8,0.4s0.4,0.5,0.4,0.8c0,0.3-0.1,0.6-0.4,0.9s-0.5,0.4-0.8,0.4C69.7,18.6,69.4,18.5,69.2,18.2z
		 M72.2,6.2C72,6,71.9,5.7,71.9,5.3c0-0.3,0.1-0.6,0.4-0.8c0.2-0.2,0.5-0.4,0.9-0.4c0.3,0,0.6,0.1,0.8,0.4s0.4,0.5,0.4,0.8
		c0,0.3-0.1,0.6-0.4,0.9s-0.5,0.4-0.8,0.4C72.7,6.6,72.4,6.4,72.2,6.2z M72.2,18.2c-0.2-0.2-0.4-0.5-0.4-0.9c0-0.3,0.1-0.6,0.4-0.8
		c0.2-0.2,0.5-0.4,0.9-0.4c0.3,0,0.6,0.1,0.8,0.4s0.4,0.5,0.4,0.8c0,0.3-0.1,0.6-0.4,0.9s-0.5,0.4-0.8,0.4
		C72.7,18.6,72.4,18.5,72.2,18.2z M75.2,9.2C75,9,74.9,8.7,74.9,8.3c0-0.3,0.1-0.6,0.4-0.8s0.5-0.4,0.9-0.4c0.3,0,0.6,0.1,0.8,0.4
		c0.2,0.2,0.4,0.5,0.4,0.8c0,0.3-0.1,0.6-0.4,0.9c-0.2,0.2-0.5,0.4-0.8,0.4C75.7,9.6,75.5,9.4,75.2,9.2z M75.2,18.2
		c-0.2-0.2-0.4-0.5-0.4-0.9c0-0.3,0.1-0.6,0.4-0.8s0.5-0.4,0.9-0.4c0.3,0,0.6,0.1,0.8,0.4c0.2,0.2,0.4,0.5,0.4,0.8
		c0,0.3-0.1,0.6-0.4,0.9c-0.2,0.2-0.5,0.4-0.8,0.4C75.7,18.6,75.5,18.5,75.2,18.2z M78.2,12.2c-0.2-0.2-0.4-0.5-0.4-0.9
		c0-0.3,0.1-0.6,0.4-0.8c0.2-0.2,0.5-0.4,0.9-0.4c0.3,0,0.6,0.1,0.8,0.4c0.2,0.2,0.4,0.5,0.4,0.8c0,0.3-0.1,0.6-0.4,0.9
		c-0.2,0.2-0.5,0.4-0.8,0.4C78.7,12.6,78.5,12.4,78.2,12.2z M78.2,15.2c-0.2-0.2-0.4-0.5-0.4-0.9c0-0.3,0.1-0.6,0.4-0.8
		c0.2-0.2,0.5-0.4,0.9-0.4c0.3,0,0.6,0.1,0.8,0.4c0.2,0.2,0.4,0.5,0.4,0.8c0,0.3-0.1,0.6-0.4,0.9c-0.2,0.2-0.5,0.4-0.8,0.4
		C78.7,15.6,78.5,15.4,78.2,15.2z M78.2,18.2c-0.2-0.2-0.4-0.5-0.4-0.9c0-0.3,0.1-0.6,0.4-0.8c0.2-0.2,0.5-0.4,0.9-0.4
		c0.3,0,0.6,0.1,0.8,0.4s0.4,0.5,0.4,0.8c0,0.3-0.1,0.6-0.4,0.9s-0.5,0.4-0.8,0.4C78.7,18.6,78.5,18.5,78.2,18.2z M78.2,21.2
		c-0.2-0.2-0.4-0.5-0.4-0.9c0-0.3,0.1-0.6,0.4-0.8c0.2-0.2,0.5-0.4,0.9-0.4c0.3,0,0.6,0.1,0.8,0.4c0.2,0.2,0.4,0.5,0.4,0.8
		c0,0.3-0.1,0.6-0.4,0.9s-0.5,0.4-0.8,0.4C78.7,21.6,78.5,21.5,78.2,21.2z M78.2,24.2c-0.2-0.2-0.4-0.5-0.4-0.9
		c0-0.3,0.1-0.6,0.4-0.8c0.2-0.2,0.5-0.4,0.9-0.4c0.3,0,0.6,0.1,0.8,0.4c0.2,0.2,0.4,0.5,0.4,0.8c0,0.3-0.1,0.6-0.4,0.9
		s-0.5,0.4-0.8,0.4C78.7,24.6,78.5,24.5,78.2,24.2z"/>
	<path d="M82.6,9.2c-0.2-0.2-0.4-0.5-0.4-0.9c0-0.3,0.1-0.6,0.4-0.8c0.2-0.2,0.5-0.4,0.9-0.4c0.3,0,0.6,0.1,0.8,0.4s0.4,0.5,0.4,0.8
		c0,0.3-0.1,0.6-0.4,0.9c-0.2,0.2-0.5,0.4-0.8,0.4C83.2,9.6,82.9,9.4,82.6,9.2z M82.6,12.2c-0.2-0.2-0.4-0.5-0.4-0.9
		c0-0.3,0.1-0.6,0.4-0.8c0.2-0.2,0.5-0.4,0.9-0.4c0.3,0,0.6,0.1,0.8,0.4c0.2,0.2,0.4,0.5,0.4,0.8c0,0.3-0.1,0.6-0.4,0.9
		c-0.2,0.2-0.5,0.4-0.8,0.4C83.2,12.6,82.9,12.4,82.6,12.2z M82.6,15.2c-0.2-0.2-0.4-0.5-0.4-0.9c0-0.3,0.1-0.6,0.4-0.8
		c0.2-0.2,0.5-0.4,0.9-0.4c0.3,0,0.6,0.1,0.8,0.4c0.2,0.2,0.4,0.5,0.4,0.8c0,0.3-0.1,0.6-0.4,0.9c-0.2,0.2-0.5,0.4-0.8,0.4
		C83.2,15.6,82.9,15.4,82.6,15.2z M82.6,18.2c-0.2-0.2-0.4-0.5-0.4-0.9c0-0.3,0.1-0.6,0.4-0.8c0.2-0.2,0.5-0.4,0.9-0.4
		c0.3,0,0.6,0.1,0.8,0.4s0.4,0.5,0.4,0.8c0,0.3-0.1,0.6-0.4,0.9s-0.5,0.4-0.8,0.4C83.2,18.6,82.9,18.5,82.6,18.2z M82.6,21.2
		c-0.2-0.2-0.4-0.5-0.4-0.9c0-0.3,0.1-0.6,0.4-0.8c0.2-0.2,0.5-0.4,0.9-0.4c0.3,0,0.6,0.1,0.8,0.4c0.2,0.2,0.4,0.5,0.4,0.8
		c0,0.3-0.1,0.6-0.4,0.9s-0.5,0.4-0.8,0.4C83.2,21.6,82.9,21.5,82.6,21.2z M85.6,6.2c-0.2-0.2-0.4-0.5-0.4-0.9
		c0-0.3,0.1-0.6,0.4-0.8s0.5-0.4,0.9-0.4c0.3,0,0.6,0.1,0.8,0.4c0.2,0.2,0.4,0.5,0.4,0.8c0,0.3-0.1,0.6-0.4,0.9
		c-0.2,0.2-0.5,0.4-0.8,0.4C86.2,6.6,85.9,6.4,85.6,6.2z M85.6,24.2c-0.2-0.2-0.4-0.5-0.4-0.9c0-0.3,0.1-0.6,0.4-0.8
		c0.2-0.2,0.5-0.4,0.9-0.4c0.3,0,0.6,0.1,0.8,0.4c0.2,0.2,0.4,0.5,0.4,0.8c0,0.3-0.1,0.6-0.4,0.9c-0.2,0.2-0.5,0.4-0.8,0.4
		C86.2,24.6,85.9,24.5,85.6,24.2z M88.7,6.2c-0.2-0.2-0.4-0.5-0.4-0.9c0-0.3,0.1-0.6,0.4-0.8c0.2-0.2,0.5-0.4,0.9-0.4
		c0.3,0,0.6,0.1,0.8,0.4s0.4,0.5,0.4,0.8c0,0.3-0.1,0.6-0.4,0.9s-0.5,0.4-0.8,0.4C89.2,6.6,88.9,6.4,88.7,6.2z M88.7,24.2
		c-0.2-0.2-0.4-0.5-0.4-0.9c0-0.3,0.1-0.6,0.4-0.8c0.2-0.2,0.5-0.4,0.9-0.4c0.3,0,0.6,0.1,0.8,0.4c0.2,0.2,0.4,0.5,0.4,0.8
		c0,0.3-0.1,0.6-0.4,0.9s-0.5,0.4-0.8,0.4C89.2,24.6,88.9,24.5,88.7,24.2z M91.7,6.2c-0.2-0.2-0.4-0.5-0.4-0.9
		c0-0.3,0.1-0.6,0.4-0.8s0.5-0.4,0.9-0.4c0.3,0,0.6,0.1,0.8,0.4c0.2,0.2,0.4,0.5,0.4,0.8c0,0.3-0.1,0.6-0.4,0.9
		c-0.2,0.2-0.5,0.4-0.8,0.4C92.2,6.6,91.9,6.4,91.7,6.2z M91.7,18.2c-0.2-0.2-0.4-0.5-0.4-0.9c0-0.3,0.1-0.6,0.4-0.8
		s0.5-0.4,0.9-0.4c0.3,0,0.6,0.1,0.8,0.4c0.2,0.2,0.4,0.5,0.4,0.8c0,0.3-0.1,0.6-0.4,0.9c-0.2,0.2-0.5,0.4-0.8,0.4
		C92.2,18.6,91.9,18.5,91.7,18.2z M91.7,24.2c-0.2-0.2-0.4-0.5-0.4-0.9c0-0.3,0.1-0.6,0.4-0.8c0.2-0.2,0.5-0.4,0.9-0.4
		c0.3,0,0.6,0.1,0.8,0.4c0.2,0.2,0.4,0.5,0.4,0.8c0,0.3-0.1,0.6-0.4,0.9c-0.2,0.2-0.5,0.4-0.8,0.4C92.2,24.6,91.9,24.5,91.7,24.2z
		 M94.7,6.2c-0.2-0.2-0.4-0.5-0.4-0.9c0-0.3,0.1-0.6,0.4-0.8s0.5-0.4,0.9-0.4c0.3,0,0.6,0.1,0.8,0.4s0.4,0.5,0.4,0.8
		c0,0.3-0.1,0.6-0.4,0.9s-0.5,0.4-0.8,0.4C95.2,6.6,94.9,6.4,94.7,6.2z M94.7,18.2c-0.2-0.2-0.4-0.5-0.4-0.9c0-0.3,0.1-0.6,0.4-0.8
		s0.5-0.4,0.9-0.4c0.3,0,0.6,0.1,0.8,0.4s0.4,0.5,0.4,0.8c0,0.3-0.1,0.6-0.4,0.9s-0.5,0.4-0.8,0.4C95.2,18.6,94.9,18.5,94.7,18.2z
		 M94.7,21.2c-0.2-0.2-0.4-0.5-0.4-0.9c0-0.3,0.1-0.6,0.4-0.8c0.2-0.2,0.5-0.4,0.9-0.4c0.3,0,0.6,0.1,0.8,0.4
		c0.2,0.2,0.4,0.5,0.4,0.8c0,0.3-0.1,0.6-0.4,0.9s-0.5,0.4-0.8,0.4C95.2,21.6,94.9,21.5,94.7,21.2z M94.7,24.2
		c-0.2-0.2-0.4-0.5-0.4-0.9c0-0.3,0.1-0.6,0.4-0.8c0.2-0.2,0.5-0.4,0.9-0.4c0.3,0,0.6,0.1,0.8,0.4c0.2,0.2,0.4,0.5,0.4,0.8
		c0,0.3-0.1,0.6-0.4,0.9s-0.5,0.4-0.8,0.4C95.2,24.6,94.9,24.5,94.7,24.2z"/>
	<path d="M99.1,6.2c-0.2-0.2-0.4-0.5-0.4-0.9c0-0.3,0.1-0.6,0.4-0.8s0.5-0.4,0.9-0.4c0.3,0,0.6,0.1,0.8,0.4s0.4,0.5,0.4,0.8
		c0,0.3-0.1,0.6-0.4,0.9s-0.5,0.4-0.8,0.4C99.6,6.6,99.3,6.4,99.1,6.2z M99.1,9.2c-0.2-0.2-0.4-0.5-0.4-0.9c0-0.3,0.1-0.6,0.4-0.8
		s0.5-0.4,0.9-0.4c0.3,0,0.6,0.1,0.8,0.4s0.4,0.5,0.4,0.8c0,0.3-0.1,0.6-0.4,0.9c-0.2,0.2-0.5,0.4-0.8,0.4
		C99.6,9.6,99.3,9.4,99.1,9.2z M99.1,12.2c-0.2-0.2-0.4-0.5-0.4-0.9c0-0.3,0.1-0.6,0.4-0.8c0.2-0.2,0.5-0.4,0.9-0.4
		c0.3,0,0.6,0.1,0.8,0.4c0.2,0.2,0.4,0.5,0.4,0.8c0,0.3-0.1,0.6-0.4,0.9c-0.2,0.2-0.5,0.4-0.8,0.4C99.6,12.6,99.3,12.4,99.1,12.2z
		 M99.1,15.2c-0.2-0.2-0.4-0.5-0.4-0.9c0-0.3,0.1-0.6,0.4-0.8c0.2-0.2,0.5-0.4,0.9-0.4c0.3,0,0.6,0.1,0.8,0.4
		c0.2,0.2,0.4,0.5,0.4,0.8c0,0.3-0.1,0.6-0.4,0.9c-0.2,0.2-0.5,0.4-0.8,0.4C99.6,15.6,99.3,15.4,99.1,15.2z M99.1,18.2
		c-0.2-0.2-0.4-0.5-0.4-0.9c0-0.3,0.1-0.6,0.4-0.8s0.5-0.4,0.9-0.4c0.3,0,0.6,0.1,0.8,0.4s0.4,0.5,0.4,0.8c0,0.3-0.1,0.6-0.4,0.9
		s-0.5,0.4-0.8,0.4C99.6,18.6,99.3,18.5,99.1,18.2z M99.1,21.2c-0.2-0.2-0.4-0.5-0.4-0.9c0-0.3,0.1-0.6,0.4-0.8
		c0.2-0.2,0.5-0.4,0.9-0.4c0.3,0,0.6,0.1,0.8,0.4c0.2,0.2,0.4,0.5,0.4,0.8c0,0.3-0.1,0.6-0.4,0.9s-0.5,0.4-0.8,0.4
		C99.6,21.6,99.3,21.5,99.1,21.2z M99.1,24.2c-0.2-0.2-0.4-0.5-0.4-0.9c0-0.3,0.1-0.6,0.4-0.8c0.2-0.2,0.5-0.4,0.9-0.4
		c0.3,0,0.6,0.1,0.8,0.4c0.2,0.2,0.4,0.5,0.4,0.8c0,0.3-0.1,0.6-0.4,0.9s-0.5,0.4-0.8,0.4C99.6,24.6,99.3,24.5,99.1,24.2z
		 M102.1,9.2c-0.2-0.2-0.4-0.5-0.4-0.9c0-0.3,0.1-0.6,0.4-0.8s0.5-0.4,0.9-0.4c0.3,0,0.6,0.1,0.8,0.4c0.2,0.2,0.4,0.5,0.4,0.8
		c0,0.3-0.1,0.6-0.4,0.9c-0.2,0.2-0.5,0.4-0.8,0.4C102.6,9.6,102.3,9.4,102.1,9.2z M105.1,12.2c-0.2-0.2-0.4-0.5-0.4-0.9
		c0-0.3,0.1-0.6,0.4-0.8c0.2-0.2,0.5-0.4,0.9-0.4c0.3,0,0.6,0.1,0.8,0.4c0.2,0.2,0.4,0.5,0.4,0.8c0,0.3-0.1,0.6-0.4,0.9
		c-0.2,0.2-0.5,0.4-0.8,0.4C105.6,12.6,105.3,12.4,105.1,12.2z M105.1,15.2c-0.2-0.2-0.4-0.5-0.4-0.9c0-0.3,0.1-0.6,0.4-0.8
		c0.2-0.2,0.5-0.4,0.9-0.4c0.3,0,0.6,0.1,0.8,0.4c0.2,0.2,0.4,0.5,0.4,0.8c0,0.3-0.1,0.6-0.4,0.9c-0.2,0.2-0.5,0.4-0.8,0.4
		C105.6,15.6,105.3,15.4,105.1,15.2z M105.1,18.2c-0.2-0.2-0.4-0.5-0.4-0.9c0-0.3,0.1-0.6,0.4-0.8s0.5-0.4,0.9-0.4
		c0.3,0,0.6,0.1,0.8,0.4s0.4,0.5,0.4,0.8c0,0.3-0.1,0.6-0.4,0.9s-0.5,0.4-0.8,0.4C105.6,18.6,105.3,18.5,105.1,18.2z M108.1,21.2
		c-0.2-0.2-0.4-0.5-0.4-0.9c0-0.3,0.1-0.6,0.4-0.8c0.2-0.2,0.5-0.4,0.9-0.4c0.3,0,0.6,0.1,0.8,0.4c0.2,0.2,0.4,0.5,0.4,0.8
		c0,0.3-0.1,0.6-0.4,0.9c-0.2,0.2-0.5,0.4-0.8,0.4C108.6,21.6,108.3,21.5,108.1,21.2z M111.1,6.2c-0.2-0.2-0.4-0.5-0.4-0.9
		c0-0.3,0.1-0.6,0.4-0.8s0.5-0.4,0.9-0.4c0.3,0,0.6,0.1,0.8,0.4s0.4,0.5,0.4,0.8c0,0.3-0.1,0.6-0.4,0.9s-0.5,0.4-0.8,0.4
		C111.6,6.6,111.3,6.4,111.1,6.2z M111.1,9.2c-0.2-0.2-0.4-0.5-0.4-0.9c0-0.3,0.1-0.6,0.4-0.8s0.5-0.4,0.9-0.4
		c0.3,0,0.6,0.1,0.8,0.4s0.4,0.5,0.4,0.8c0,0.3-0.1,0.6-0.4,0.9c-0.2,0.2-0.5,0.4-0.8,0.4C111.6,9.6,111.3,9.4,111.1,9.2z
		 M111.1,12.2c-0.2-0.2-0.4-0.5-0.4-0.9c0-0.3,0.1-0.6,0.4-0.8c0.2-0.2,0.5-0.4,0.9-0.4c0.3,0,0.6,0.1,0.8,0.4
		c0.2,0.2,0.4,0.5,0.4,0.8c0,0.3-0.1,0.6-0.4,0.9c-0.2,0.2-0.5,0.4-0.8,0.4C111.6,12.6,111.3,12.4,111.1,12.2z M111.1,15.2
		c-0.2-0.2-0.4-0.5-0.4-0.9c0-0.3,0.1-0.6,0.4-0.8c0.2-0.2,0.5-0.4,0.9-0.4c0.3,0,0.6,0.1,0.8,0.4c0.2,0.2,0.4,0.5,0.4,0.8
		c0,0.3-0.1,0.6-0.4,0.9c-0.2,0.2-0.5,0.4-0.8,0.4C111.6,15.6,111.3,15.4,111.1,15.2z M111.1,18.2c-0.2-0.2-0.4-0.5-0.4-0.9
		c0-0.3,0.1-0.6,0.4-0.8s0.5-0.4,0.9-0.4c0.3,0,0.6,0.1,0.8,0.4s0.4,0.5,0.4,0.8c0,0.3-0.1,0.6-0.4,0.9s-0.5,0.4-0.8,0.4
		C111.6,18.6,111.3,18.5,111.1,18.2z M111.1,21.2c-0.2-0.2-0.4-0.5-0.4-0.9c0-0.3,0.1-0.6,0.4-0.8c0.2-0.2,0.5-0.4,0.9-0.4
		c0.3,0,0.6,0.1,0.8,0.4c0.2,0.2,0.4,0.5,0.4,0.8c0,0.3-0.1,0.6-0.4,0.9s-0.5,0.4-0.8,0.4C111.6,21.6,111.3,21.5,111.1,21.2z
		 M111.1,24.2c-0.2-0.2-0.4-0.5-0.4-0.9c0-0.3,0.1-0.6,0.4-0.8c0.2-0.2,0.5-0.4,0.9-0.4c0.3,0,0.6,0.1,0.8,0.4
		c0.2,0.2,0.4,0.5,0.4,0.8c0,0.3-0.1,0.6-0.4,0.9s-0.5,0.4-0.8,0.4C111.6,24.6,111.3,24.5,111.1,24.2z"/>
	<path d="M115.5,6.2c-0.2-0.2-0.4-0.5-0.4-0.9c0-0.3,0.1-0.6,0.4-0.8s0.5-0.4,0.9-0.4c0.3,0,0.6,0.1,0.8,0.4s0.4,0.5,0.4,0.8
		c0,0.3-0.1,0.6-0.4,0.9s-0.5,0.4-0.8,0.4C116,6.6,115.8,6.4,115.5,6.2z M115.5,9.2c-0.2-0.2-0.4-0.5-0.4-0.9c0-0.3,0.1-0.6,0.4-0.8
		s0.5-0.4,0.9-0.4c0.3,0,0.6,0.1,0.8,0.4s0.4,0.5,0.4,0.8c0,0.3-0.1,0.6-0.4,0.9c-0.2,0.2-0.5,0.4-0.8,0.4
		C116,9.6,115.8,9.4,115.5,9.2z M115.5,12.2c-0.2-0.2-0.4-0.5-0.4-0.9c0-0.3,0.1-0.6,0.4-0.8c0.2-0.2,0.5-0.4,0.9-0.4
		c0.3,0,0.6,0.1,0.8,0.4c0.2,0.2,0.4,0.5,0.4,0.8c0,0.3-0.1,0.6-0.4,0.9c-0.2,0.2-0.5,0.4-0.8,0.4C116,12.6,115.8,12.4,115.5,12.2z
		 M115.5,15.2c-0.2-0.2-0.4-0.5-0.4-0.9c0-0.3,0.1-0.6,0.4-0.8c0.2-0.2,0.5-0.4,0.9-0.4c0.3,0,0.6,0.1,0.8,0.4
		c0.2,0.2,0.4,0.5,0.4,0.8c0,0.3-0.1,0.6-0.4,0.9c-0.2,0.2-0.5,0.4-0.8,0.4C116,15.6,115.8,15.4,115.5,15.2z M115.5,18.2
		c-0.2-0.2-0.4-0.5-0.4-0.9c0-0.3,0.1-0.6,0.4-0.8s0.5-0.4,0.9-0.4c0.3,0,0.6,0.1,0.8,0.4s0.4,0.5,0.4,0.8c0,0.3-0.1,0.6-0.4,0.9
		s-0.5,0.4-0.8,0.4C116,18.6,115.8,18.5,115.5,18.2z M115.5,21.2c-0.2-0.2-0.4-0.5-0.4-0.9c0-0.3,0.1-0.6,0.4-0.8
		c0.2-0.2,0.5-0.4,0.9-0.4c0.3,0,0.6,0.1,0.8,0.4c0.2,0.2,0.4,0.5,0.4,0.8c0,0.3-0.1,0.6-0.4,0.9s-0.5,0.4-0.8,0.4
		C116,21.6,115.8,21.5,115.5,21.2z M115.5,24.2c-0.2-0.2-0.4-0.5-0.4-0.9c0-0.3,0.1-0.6,0.4-0.8c0.2-0.2,0.5-0.4,0.9-0.4
		c0.3,0,0.6,0.1,0.8,0.4c0.2,0.2,0.4,0.5,0.4,0.8c0,0.3-0.1,0.6-0.4,0.9s-0.5,0.4-0.8,0.4C116,24.6,115.8,24.5,115.5,24.2z
		 M118.5,6.2c-0.2-0.2-0.4-0.5-0.4-0.9c0-0.3,0.1-0.6,0.4-0.8s0.5-0.4,0.9-0.4c0.3,0,0.6,0.1,0.8,0.4c0.2,0.2,0.4,0.5,0.4,0.8
		c0,0.3-0.1,0.6-0.4,0.9c-0.2,0.2-0.5,0.4-0.8,0.4C119,6.6,118.8,6.4,118.5,6.2z M118.5,15.2c-0.2-0.2-0.4-0.5-0.4-0.9
		c0-0.3,0.1-0.6,0.4-0.8c0.2-0.2,0.5-0.4,0.9-0.4c0.3,0,0.6,0.1,0.8,0.4c0.2,0.2,0.4,0.5,0.4,0.8c0,0.3-0.1,0.6-0.4,0.9
		c-0.2,0.2-0.5,0.4-0.8,0.4C119,15.6,118.8,15.4,118.5,15.2z M118.5,24.2c-0.2-0.2-0.4-0.5-0.4-0.9c0-0.3,0.1-0.6,0.4-0.8
		c0.2-0.2,0.5-0.4,0.9-0.4c0.3,0,0.6,0.1,0.8,0.4c0.2,0.2,0.4,0.5,0.4,0.8c0,0.3-0.1,0.6-0.4,0.9c-0.2,0.2-0.5,0.4-0.8,0.4
		C119,24.6,118.8,24.5,118.5,24.2z M121.5,6.2c-0.2-0.2-0.4-0.5-0.4-0.9c0-0.3,0.1-0.6,0.4-0.8s0.5-0.4,0.9-0.4
		c0.3,0,0.6,0.1,0.8,0.4s0.4,0.5,0.4,0.8c0,0.3-0.1,0.6-0.4,0.9s-0.5,0.4-0.8,0.4C122.1,6.6,121.8,6.4,121.5,6.2z M121.5,15.2
		c-0.2-0.2-0.4-0.5-0.4-0.9c0-0.3,0.1-0.6,0.4-0.8c0.2-0.2,0.5-0.4,0.9-0.4c0.3,0,0.6,0.1,0.8,0.4c0.2,0.2,0.4,0.5,0.4,0.8
		c0,0.3-0.1,0.6-0.4,0.9c-0.2,0.2-0.5,0.4-0.8,0.4C122.1,15.6,121.8,15.4,121.5,15.2z M121.5,24.2c-0.2-0.2-0.4-0.5-0.4-0.9
		c0-0.3,0.1-0.6,0.4-0.8c0.2-0.2,0.5-0.4,0.9-0.4c0.3,0,0.6,0.1,0.8,0.4c0.2,0.2,0.4,0.5,0.4,0.8c0,0.3-0.1,0.6-0.4,0.9
		s-0.5,0.4-0.8,0.4C122.1,24.6,121.8,24.5,121.5,24.2z M124.5,6.2c-0.2-0.2-0.4-0.5-0.4-0.9c0-0.3,0.1-0.6,0.4-0.8s0.5-0.4,0.9-0.4
		c0.3,0,0.6,0.1,0.8,0.4c0.2,0.2,0.4,0.5,0.4,0.8c0,0.3-0.1,0.6-0.4,0.9c-0.2,0.2-0.5,0.4-0.8,0.4C125.1,6.6,124.8,6.4,124.5,6.2z
		 M124.5,15.2c-0.2-0.2-0.4-0.5-0.4-0.9c0-0.3,0.1-0.6,0.4-0.8c0.2-0.2,0.5-0.4,0.9-0.4c0.3,0,0.6,0.1,0.8,0.4
		c0.2,0.2,0.4,0.5,0.4,0.8c0,0.3-0.1,0.6-0.4,0.9c-0.2,0.2-0.5,0.4-0.8,0.4C125.1,15.6,124.8,15.4,124.5,15.2z M124.5,24.2
		c-0.2-0.2-0.4-0.5-0.4-0.9c0-0.3,0.1-0.6,0.4-0.8c0.2-0.2,0.5-0.4,0.9-0.4c0.3,0,0.6,0.1,0.8,0.4c0.2,0.2,0.4,0.5,0.4,0.8
		c0,0.3-0.1,0.6-0.4,0.9c-0.2,0.2-0.5,0.4-0.8,0.4C125.1,24.6,124.8,24.5,124.5,24.2z M127.5,6.2c-0.2-0.2-0.4-0.5-0.4-0.9
		c0-0.3,0.1-0.6,0.4-0.8s0.5-0.4,0.9-0.4c0.3,0,0.6,0.1,0.8,0.4c0.2,0.2,0.4,0.5,0.4,0.8c0,0.3-0.1,0.6-0.4,0.9
		c-0.2,0.2-0.5,0.4-0.8,0.4C128.1,6.6,127.8,6.4,127.5,6.2z M127.5,24.2c-0.2-0.2-0.4-0.5-0.4-0.9c0-0.3,0.1-0.6,0.4-0.8
		c0.2-0.2,0.5-0.4,0.9-0.4c0.3,0,0.6,0.1,0.8,0.4c0.2,0.2,0.4,0.5,0.4,0.8c0,0.3-0.1,0.6-0.4,0.9c-0.2,0.2-0.5,0.4-0.8,0.4
		C128.1,24.6,127.8,24.5,127.5,24.2z"/>
	<path d="M132,15.2c-0.2-0.2-0.4-0.5-0.4-0.9c0-0.3,0.1-0.6,0.4-0.8c0.2-0.2,0.5-0.4,0.9-0.4c0.3,0,0.6,0.1,0.8,0.4
		c0.2,0.2,0.4,0.5,0.4,0.8c0,0.3-0.1,0.6-0.4,0.9c-0.2,0.2-0.5,0.4-0.8,0.4C132.5,15.6,132.2,15.4,132,15.2z M135,15.2
		c-0.2-0.2-0.4-0.5-0.4-0.9c0-0.3,0.1-0.6,0.4-0.8c0.2-0.2,0.5-0.4,0.9-0.4c0.3,0,0.6,0.1,0.8,0.4c0.2,0.2,0.4,0.5,0.4,0.8
		c0,0.3-0.1,0.6-0.4,0.9c-0.2,0.2-0.5,0.4-0.8,0.4C135.5,15.6,135.2,15.4,135,15.2z M138,15.2c-0.2-0.2-0.4-0.5-0.4-0.9
		c0-0.3,0.1-0.6,0.4-0.8c0.2-0.2,0.5-0.4,0.9-0.4c0.3,0,0.6,0.1,0.8,0.4c0.2,0.2,0.4,0.5,0.4,0.8c0,0.3-0.1,0.6-0.4,0.9
		c-0.2,0.2-0.5,0.4-0.8,0.4C138.5,15.6,138.2,15.4,138,15.2z M141,15.2c-0.2-0.2-0.4-0.5-0.4-0.9c0-0.3,0.1-0.6,0.4-0.8
		c0.2-0.2,0.5-0.4,0.9-0.4c0.3,0,0.6,0.1,0.8,0.4c0.2,0.2,0.4,0.5,0.4,0.8c0,0.3-0.1,0.6-0.4,0.9c-0.2,0.2-0.5,0.4-0.8,0.4
		C141.5,15.6,141.2,15.4,141,15.2z M144,15.2c-0.2-0.2-0.4-0.5-0.4-0.9c0-0.3,0.1-0.6,0.4-0.8c0.2-0.2,0.5-0.4,0.9-0.4
		c0.3,0,0.6,0.1,0.8,0.4c0.2,0.2,0.4,0.5,0.4,0.8c0,0.3-0.1,0.6-0.4,0.9c-0.2,0.2-0.5,0.4-0.8,0.4C144.5,15.6,144.2,15.4,144,15.2z"
		/>
	<path d="M148.4,12.2c-0.2-0.2-0.4-0.5-0.4-0.9c0-0.3,0.1-0.6,0.4-0.8c0.2-0.2,0.5-0.4,0.9-0.4c0.3,0,0.6,0.1,0.8,0.4
		c0.2,0.2,0.4,0.5,0.4,0.8c0,0.3-0.1,0.6-0.4,0.9c-0.2,0.2-0.5,0.4-0.8,0.4C148.9,12.6,148.6,12.4,148.4,12.2z M148.4,15.2
		c-0.2-0.2-0.4-0.5-0.4-0.9c0-0.3,0.1-0.6,0.4-0.8c0.2-0.2,0.5-0.4,0.9-0.4c0.3,0,0.6,0.1,0.8,0.4c0.2,0.2,0.4,0.5,0.4,0.8
		c0,0.3-0.1,0.6-0.4,0.9c-0.2,0.2-0.5,0.4-0.8,0.4C148.9,15.6,148.6,15.4,148.4,15.2z M148.4,18.2c-0.2-0.2-0.4-0.5-0.4-0.9
		c0-0.3,0.1-0.6,0.4-0.8c0.2-0.2,0.5-0.4,0.9-0.4c0.3,0,0.6,0.1,0.8,0.4c0.2,0.2,0.4,0.5,0.4,0.8c0,0.3-0.1,0.6-0.4,0.9
		c-0.2,0.2-0.5,0.4-0.8,0.4C148.9,18.6,148.6,18.5,148.4,18.2z M148.4,21.2c-0.2-0.2-0.4-0.5-0.4-0.9c0-0.3,0.1-0.6,0.4-0.8
		c0.2-0.2,0.5-0.4,0.9-0.4c0.3,0,0.6,0.1,0.8,0.4c0.2,0.2,0.4,0.5,0.4,0.8c0,0.3-0.1,0.6-0.4,0.9c-0.2,0.2-0.5,0.4-0.8,0.4
		C148.9,21.6,148.6,21.5,148.4,21.2z M148.4,24.2c-0.2-0.2-0.4-0.5-0.4-0.9c0-0.3,0.1-0.6,0.4-0.8c0.2-0.2,0.5-0.4,0.9-0.4
		c0.3,0,0.6,0.1,0.8,0.4c0.2,0.2,0.4,0.5,0.4,0.8c0,0.3-0.1,0.6-0.4,0.9c-0.2,0.2-0.5,0.4-0.8,0.4C148.9,24.6,148.6,24.5,148.4,24.2
		z M151.4,9.2c-0.2-0.2-0.4-0.5-0.4-0.9c0-0.3,0.1-0.6,0.4-0.8c0.2-0.2,0.5-0.4,0.9-0.4c0.3,0,0.6,0.1,0.8,0.4
		c0.2,0.2,0.4,0.5,0.4,0.8c0,0.3-0.1,0.6-0.4,0.9c-0.2,0.2-0.5,0.4-0.8,0.4C151.9,9.6,151.6,9.4,151.4,9.2z M151.4,18.2
		c-0.2-0.2-0.4-0.5-0.4-0.9c0-0.3,0.1-0.6,0.4-0.8c0.2-0.2,0.5-0.4,0.9-0.4c0.3,0,0.6,0.1,0.8,0.4c0.2,0.2,0.4,0.5,0.4,0.8
		c0,0.3-0.1,0.6-0.4,0.9c-0.2,0.2-0.5,0.4-0.8,0.4C151.9,18.6,151.6,18.5,151.4,18.2z M154.4,6.2c-0.2-0.2-0.4-0.5-0.4-0.9
		c0-0.3,0.1-0.6,0.4-0.8c0.2-0.2,0.5-0.4,0.9-0.4c0.3,0,0.6,0.1,0.8,0.4c0.2,0.2,0.4,0.5,0.4,0.8c0,0.3-0.1,0.6-0.4,0.9
		c-0.2,0.2-0.5,0.4-0.8,0.4C154.9,6.6,154.6,6.4,154.4,6.2z M154.4,18.2c-0.2-0.2-0.4-0.5-0.4-0.9c0-0.3,0.1-0.6,0.4-0.8
		c0.2-0.2,0.5-0.4,0.9-0.4c0.3,0,0.6,0.1,0.8,0.4c0.2,0.2,0.4,0.5,0.4,0.8c0,0.3-0.1,0.6-0.4,0.9c-0.2,0.2-0.5,0.4-0.8,0.4
		C154.9,18.6,154.6,18.5,154.4,18.2z M157.4,9.2c-0.2-0.2-0.4-0.5-0.4-0.9c0-0.3,0.1-0.6,0.4-0.8c0.2-0.2,0.5-0.4,0.9-0.4
		c0.3,0,0.6,0.1,0.8,0.4c0.2,0.2,0.4,0.5,0.4,0.8c0,0.3-0.1,0.6-0.4,0.9c-0.2,0.2-0.5,0.4-0.8,0.4C157.9,9.6,157.6,9.4,157.4,9.2z
		 M157.4,18.2c-0.2-0.2-0.4-0.5-0.4-0.9c0-0.3,0.1-0.6,0.4-0.8c0.2-0.2,0.5-0.4,0.9-0.4c0.3,0,0.6,0.1,0.8,0.4
		c0.2,0.2,0.4,0.5,0.4,0.8c0,0.3-0.1,0.6-0.4,0.9c-0.2,0.2-0.5,0.4-0.8,0.4C157.9,18.6,157.6,18.5,157.4,18.2z M160.4,12.2
		c-0.2-0.2-0.4-0.5-0.4-0.9c0-0.3,0.1-0.6,0.4-0.8c0.2-0.2,0.5-0.4,0.9-0.4c0.3,0,0.6,0.1,0.8,0.4c0.2,0.2,0.4,0.5,0.4,0.8
		c0,0.3-0.1,0.6-0.4,0.9c-0.2,0.2-0.5,0.4-0.8,0.4C160.9,12.6,160.7,12.4,160.4,12.2z M160.4,15.2c-0.2-0.2-0.4-0.5-0.4-0.9
		c0-0.3,0.1-0.6,0.4-0.8c0.2-0.2,0.5-0.4,0.9-0.4c0.3,0,0.6,0.1,0.8,0.4c0.2,0.2,0.4,0.5,0.4,0.8c0,0.3-0.1,0.6-0.4,0.9
		c-0.2,0.2-0.5,0.4-0.8,0.4C160.9,15.6,160.7,15.4,160.4,15.2z M160.4,18.2c-0.2-0.2-0.4-0.5-0.4-0.9c0-0.3,0.1-0.6,0.4-0.8
		c0.2-0.2,0.5-0.4,0.9-0.4c0.3,0,0.6,0.1,0.8,0.4c0.2,0.2,0.4,0.5,0.4,0.8c0,0.3-0.1,0.6-0.4,0.9c-0.2,0.2-0.5,0.4-0.8,0.4
		C160.9,18.6,160.7,18.5,160.4,18.2z M160.4,21.2c-0.2-0.2-0.4-0.5-0.4-0.9c0-0.3,0.1-0.6,0.4-0.8c0.2-0.2,0.5-0.4,0.9-0.4
		c0.3,0,0.6,0.1,0.8,0.4c0.2,0.2,0.4,0.5,0.4,0.8c0,0.3-0.1,0.6-0.4,0.9c-0.2,0.2-0.5,0.4-0.8,0.4C160.9,21.6,160.7,21.5,160.4,21.2
		z M160.4,24.2c-0.2-0.2-0.4-0.5-0.4-0.9c0-0.3,0.1-0.6,0.4-0.8c0.2-0.2,0.5-0.4,0.9-0.4c0.3,0,0.6,0.1,0.8,0.4
		c0.2,0.2,0.4,0.5,0.4,0.8c0,0.3-0.1,0.6-0.4,0.9c-0.2,0.2-0.5,0.4-0.8,0.4C160.9,24.6,160.7,24.5,160.4,24.2z"/>
	<path d="M164.8,6.2c-0.2-0.2-0.4-0.5-0.4-0.9c0-0.3,0.1-0.6,0.4-0.8c0.2-0.2,0.5-0.4,0.9-0.4c0.3,0,0.6,0.1,0.8,0.4
		c0.2,0.2,0.4,0.5,0.4,0.8c0,0.3-0.1,0.6-0.4,0.9c-0.2,0.2-0.5,0.4-0.8,0.4C165.4,6.6,165.1,6.4,164.8,6.2z M164.8,9.2
		c-0.2-0.2-0.4-0.5-0.4-0.9c0-0.3,0.1-0.6,0.4-0.8c0.2-0.2,0.5-0.4,0.9-0.4c0.3,0,0.6,0.1,0.8,0.4c0.2,0.2,0.4,0.5,0.4,0.8
		c0,0.3-0.1,0.6-0.4,0.9c-0.2,0.2-0.5,0.4-0.8,0.4C165.4,9.6,165.1,9.4,164.8,9.2z M164.8,12.2c-0.2-0.2-0.4-0.5-0.4-0.9
		c0-0.3,0.1-0.6,0.4-0.8c0.2-0.2,0.5-0.4,0.9-0.4c0.3,0,0.6,0.1,0.8,0.4c0.2,0.2,0.4,0.5,0.4,0.8c0,0.3-0.1,0.6-0.4,0.9
		c-0.2,0.2-0.5,0.4-0.8,0.4C165.4,12.6,165.1,12.4,164.8,12.2z M164.8,15.2c-0.2-0.2-0.4-0.5-0.4-0.9c0-0.3,0.1-0.6,0.4-0.8
		c0.2-0.2,0.5-0.4,0.9-0.4c0.3,0,0.6,0.1,0.8,0.4c0.2,0.2,0.4,0.5,0.4,0.8c0,0.3-0.1,0.6-0.4,0.9c-0.2,0.2-0.5,0.4-0.8,0.4
		C165.4,15.6,165.1,15.4,164.8,15.2z M164.8,18.2c-0.2-0.2-0.4-0.5-0.4-0.9c0-0.3,0.1-0.6,0.4-0.8c0.2-0.2,0.5-0.4,0.9-0.4
		c0.3,0,0.6,0.1,0.8,0.4c0.2,0.2,0.4,0.5,0.4,0.8c0,0.3-0.1,0.6-0.4,0.9c-0.2,0.2-0.5,0.4-0.8,0.4C165.4,18.6,165.1,18.5,164.8,18.2
		z M164.8,21.2c-0.2-0.2-0.4-0.5-0.4-0.9c0-0.3,0.1-0.6,0.4-0.8c0.2-0.2,0.5-0.4,0.9-0.4c0.3,0,0.6,0.1,0.8,0.4
		c0.2,0.2,0.4,0.5,0.4,0.8c0,0.3-0.1,0.6-0.4,0.9c-0.2,0.2-0.5,0.4-0.8,0.4C165.4,21.6,165.1,21.5,164.8,21.2z M167.8,24.2
		c-0.2-0.2-0.4-0.5-0.4-0.9c0-0.3,0.1-0.6,0.4-0.8c0.2-0.2,0.5-0.4,0.9-0.4c0.3,0,0.6,0.1,0.8,0.4c0.2,0.2,0.4,0.5,0.4,0.8
		c0,0.3-0.1,0.6-0.4,0.9c-0.2,0.2-0.5,0.4-0.8,0.4C168.4,24.6,168.1,24.5,167.8,24.2z M170.8,24.2c-0.2-0.2-0.4-0.5-0.4-0.9
		c0-0.3,0.1-0.6,0.4-0.8c0.2-0.2,0.5-0.4,0.9-0.4c0.3,0,0.6,0.1,0.8,0.4c0.2,0.2,0.4,0.5,0.4,0.8c0,0.3-0.1,0.6-0.4,0.9
		c-0.2,0.2-0.5,0.4-0.8,0.4C171.4,24.6,171.1,24.5,170.8,24.2z M173.9,24.2c-0.2-0.2-0.4-0.5-0.4-0.9c0-0.3,0.1-0.6,0.4-0.8
		c0.2-0.2,0.5-0.4,0.9-0.4c0.3,0,0.6,0.1,0.8,0.4c0.2,0.2,0.4,0.5,0.4,0.8c0,0.3-0.1,0.6-0.4,0.9c-0.2,0.2-0.5,0.4-0.8,0.4
		C174.4,24.6,174.1,24.5,173.9,24.2z M176.9,6.2c-0.2-0.2-0.4-0.5-0.4-0.9c0-0.3,0.1-0.6,0.4-0.8c0.2-0.2,0.5-0.4,0.9-0.4
		c0.3,0,0.6,0.1,0.8,0.4c0.2,0.2,0.4,0.5,0.4,0.8c0,0.3-0.1,0.6-0.4,0.9c-0.2,0.2-0.5,0.4-0.8,0.4C177.4,6.6,177.1,6.4,176.9,6.2z
		 M176.9,9.2c-0.2-0.2-0.4-0.5-0.4-0.9c0-0.3,0.1-0.6,0.4-0.8c0.2-0.2,0.5-0.4,0.9-0.4c0.3,0,0.6,0.1,0.8,0.4
		c0.2,0.2,0.4,0.5,0.4,0.8c0,0.3-0.1,0.6-0.4,0.9c-0.2,0.2-0.5,0.4-0.8,0.4C177.4,9.6,177.1,9.4,176.9,9.2z M176.9,12.2
		c-0.2-0.2-0.4-0.5-0.4-0.9c0-0.3,0.1-0.6,0.4-0.8c0.2-0.2,0.5-0.4,0.9-0.4c0.3,0,0.6,0.1,0.8,0.4c0.2,0.2,0.4,0.5,0.4,0.8
		c0,0.3-0.1,0.6-0.4,0.9c-0.2,0.2-0.5,0.4-0.8,0.4C177.4,12.6,177.1,12.4,176.9,12.2z M176.9,15.2c-0.2-0.2-0.4-0.5-0.4-0.9
		c0-0.3,0.1-0.6,0.4-0.8c0.2-0.2,0.5-0.4,0.9-0.4c0.3,0,0.6,0.1,0.8,0.4c0.2,0.2,0.4,0.5,0.4,0.8c0,0.3-0.1,0.6-0.4,0.9
		c-0.2,0.2-0.5,0.4-0.8,0.4C177.4,15.6,177.1,15.4,176.9,15.2z M176.9,18.2c-0.2-0.2-0.4-0.5-0.4-0.9c0-0.3,0.1-0.6,0.4-0.8
		c0.2-0.2,0.5-0.4,0.9-0.4c0.3,0,0.6,0.1,0.8,0.4c0.2,0.2,0.4,0.5,0.4,0.8c0,0.3-0.1,0.6-0.4,0.9c-0.2,0.2-0.5,0.4-0.8,0.4
		C177.4,18.6,177.1,18.5,176.9,18.2z M176.9,21.2c-0.2-0.2-0.4-0.5-0.4-0.9c0-0.3,0.1-0.6,0.4-0.8c0.2-0.2,0.5-0.4,0.9-0.4
		c0.3,0,0.6,0.1,0.8,0.4c0.2,0.2,0.4,0.5,0.4,0.8c0,0.3-0.1,0.6-0.4,0.9c-0.2,0.2-0.5,0.4-0.8,0.4C177.4,21.6,177.1,21.5,176.9,21.2
		z"/>
	<path d="M181.3,15.2c-0.2-0.2-0.4-0.5-0.4-0.9c0-0.3,0.1-0.6,0.4-0.8c0.2-0.2,0.5-0.4,0.9-0.4c0.3,0,0.6,0.1,0.8,0.4
		c0.2,0.2,0.4,0.5,0.4,0.8c0,0.3-0.1,0.6-0.4,0.9c-0.2,0.2-0.5,0.4-0.8,0.4C181.8,15.6,181.5,15.4,181.3,15.2z M184.3,15.2
		c-0.2-0.2-0.4-0.5-0.4-0.9c0-0.3,0.1-0.6,0.4-0.8c0.2-0.2,0.5-0.4,0.9-0.4c0.3,0,0.6,0.1,0.8,0.4c0.2,0.2,0.4,0.5,0.4,0.8
		c0,0.3-0.1,0.6-0.4,0.9c-0.2,0.2-0.5,0.4-0.8,0.4C184.8,15.6,184.5,15.4,184.3,15.2z M187.3,15.2c-0.2-0.2-0.4-0.5-0.4-0.9
		c0-0.3,0.1-0.6,0.4-0.8c0.2-0.2,0.5-0.4,0.9-0.4c0.3,0,0.6,0.1,0.8,0.4c0.2,0.2,0.4,0.5,0.4,0.8c0,0.3-0.1,0.6-0.4,0.9
		c-0.2,0.2-0.5,0.4-0.8,0.4C187.8,15.6,187.5,15.4,187.3,15.2z M190.3,15.2c-0.2-0.2-0.4-0.5-0.4-0.9c0-0.3,0.1-0.6,0.4-0.8
		c0.2-0.2,0.5-0.4,0.9-0.4c0.3,0,0.6,0.1,0.8,0.4c0.2,0.2,0.4,0.5,0.4,0.8c0,0.3-0.1,0.6-0.4,0.9c-0.2,0.2-0.5,0.4-0.8,0.4
		C190.8,15.6,190.5,15.4,190.3,15.2z M193.3,15.2c-0.2-0.2-0.4-0.5-0.4-0.9c0-0.3,0.1-0.6,0.4-0.8c0.2-0.2,0.5-0.4,0.9-0.4
		c0.3,0,0.6,0.1,0.8,0.4c0.2,0.2,0.4,0.5,0.4,0.8c0,0.3-0.1,0.6-0.4,0.9c-0.2,0.2-0.5,0.4-0.8,0.4C193.8,15.6,193.5,15.4,193.3,15.2
		z"/>
	<path d="M197.7,6.2c-0.2-0.2-0.4-0.5-0.4-0.9c0-0.3,0.1-0.6,0.4-0.8c0.2-0.2,0.5-0.4,0.9-0.4c0.3,0,0.6,0.1,0.8,0.4
		c0.2,0.2,0.4,0.5,0.4,0.8c0,0.3-0.1,0.6-0.4,0.9c-0.2,0.2-0.5,0.4-0.8,0.4C198.2,6.6,198,6.4,197.7,6.2z M197.7,9.2
		c-0.2-0.2-0.4-0.5-0.4-0.9c0-0.3,0.1-0.6,0.4-0.8c0.2-0.2,0.5-0.4,0.9-0.4c0.3,0,0.6,0.1,0.8,0.4c0.2,0.2,0.4,0.5,0.4,0.8
		c0,0.3-0.1,0.6-0.4,0.9c-0.2,0.2-0.5,0.4-0.8,0.4C198.2,9.6,198,9.4,197.7,9.2z M197.7,12.2c-0.2-0.2-0.4-0.5-0.4-0.9
		c0-0.3,0.1-0.6,0.4-0.8c0.2-0.2,0.5-0.4,0.9-0.4c0.3,0,0.6,0.1,0.8,0.4c0.2,0.2,0.4,0.5,0.4,0.8c0,0.3-0.1,0.6-0.4,0.9
		c-0.2,0.2-0.5,0.4-0.8,0.4C198.2,12.6,198,12.4,197.7,12.2z M197.7,15.2c-0.2-0.2-0.4-0.5-0.4-0.9c0-0.3,0.1-0.6,0.4-0.8
		c0.2-0.2,0.5-0.4,0.9-0.4c0.3,0,0.6,0.1,0.8,0.4c0.2,0.2,0.4,0.5,0.4,0.8c0,0.3-0.1,0.6-0.4,0.9c-0.2,0.2-0.5,0.4-0.8,0.4
		C198.2,15.6,198,15.4,197.7,15.2z M197.7,18.2c-0.2-0.2-0.4-0.5-0.4-0.9c0-0.3,0.1-0.6,0.4-0.8c0.2-0.2,0.5-0.4,0.9-0.4
		c0.3,0,0.6,0.1,0.8,0.4c0.2,0.2,0.4,0.5,0.4,0.8c0,0.3-0.1,0.6-0.4,0.9c-0.2,0.2-0.5,0.4-0.8,0.4C198.2,18.6,198,18.5,197.7,18.2z
		 M197.7,21.2c-0.2-0.2-0.4-0.5-0.4-0.9c0-0.3,0.1-0.6,0.4-0.8c0.2-0.2,0.5-0.4,0.9-0.4c0.3,0,0.6,0.1,0.8,0.4
		c0.2,0.2,0.4,0.5,0.4,0.8c0,0.3-0.1,0.6-0.4,0.9c-0.2,0.2-0.5,0.4-0.8,0.4C198.2,21.6,198,21.5,197.7,21.2z M197.7,24.2
		c-0.2-0.2-0.4-0.5-0.4-0.9c0-0.3,0.1-0.6,0.4-0.8c0.2-0.2,0.5-0.4,0.9-0.4c0.3,0,0.6,0.1,0.8,0.4c0.2,0.2,0.4,0.5,0.4,0.8
		c0,0.3-0.1,0.6-0.4,0.9c-0.2,0.2-0.5,0.4-0.8,0.4C198.2,24.6,198,24.5,197.7,24.2z M200.7,6.2c-0.2-0.2-0.4-0.5-0.4-0.9
		c0-0.3,0.1-0.6,0.4-0.8c0.2-0.2,0.5-0.4,0.9-0.4c0.3,0,0.6,0.1,0.8,0.4c0.2,0.2,0.4,0.5,0.4,0.8c0,0.3-0.1,0.6-0.4,0.9
		c-0.2,0.2-0.5,0.4-0.8,0.4C201.2,6.6,201,6.4,200.7,6.2z M200.7,15.2c-0.2-0.2-0.4-0.5-0.4-0.9c0-0.3,0.1-0.6,0.4-0.8
		c0.2-0.2,0.5-0.4,0.9-0.4c0.3,0,0.6,0.1,0.8,0.4c0.2,0.2,0.4,0.5,0.4,0.8c0,0.3-0.1,0.6-0.4,0.9c-0.2,0.2-0.5,0.4-0.8,0.4
		C201.2,15.6,201,15.4,200.7,15.2z M203.7,6.2c-0.2-0.2-0.4-0.5-0.4-0.9c0-0.3,0.1-0.6,0.4-0.8c0.2-0.2,0.5-0.4,0.9-0.4
		c0.3,0,0.6,0.1,0.8,0.4c0.2,0.2,0.4,0.5,0.4,0.8c0,0.3-0.1,0.6-0.4,0.9c-0.2,0.2-0.5,0.4-0.8,0.4C204.3,6.6,204,6.4,203.7,6.2z
		 M203.7,15.2c-0.2-0.2-0.4-0.5-0.4-0.9c0-0.3,0.1-0.6,0.4-0.8c0.2-0.2,0.5-0.4,0.9-0.4c0.3,0,0.6,0.1,0.8,0.4
		c0.2,0.2,0.4,0.5,0.4,0.8c0,0.3-0.1,0.6-0.4,0.9c-0.2,0.2-0.5,0.4-0.8,0.4C204.3,15.6,204,15.4,203.7,15.2z M206.7,6.2
		c-0.2-0.2-0.4-0.5-0.4-0.9c0-0.3,0.1-0.6,0.4-0.8c0.2-0.2,0.5-0.4,0.9-0.4c0.3,0,0.6,0.1,0.8,0.4c0.2,0.2,0.4,0.5,0.4,0.8
		c0,0.3-0.1,0.6-0.4,0.9c-0.2,0.2-0.5,0.4-0.8,0.4C207.3,6.6,207,6.4,206.7,6.2z M206.7,15.2c-0.2-0.2-0.4-0.5-0.4-0.9
		c0-0.3,0.1-0.6,0.4-0.8c0.2-0.2,0.5-0.4,0.9-0.4c0.3,0,0.6,0.1,0.8,0.4c0.2,0.2,0.4,0.5,0.4,0.8c0,0.3-0.1,0.6-0.4,0.9
		c-0.2,0.2-0.5,0.4-0.8,0.4C207.3,15.6,207,15.4,206.7,15.2z M209.7,9.2c-0.2-0.2-0.4-0.5-0.4-0.9c0-0.3,0.1-0.6,0.4-0.8
		c0.2-0.2,0.5-0.4,0.9-0.4c0.3,0,0.6,0.1,0.8,0.4c0.2,0.2,0.4,0.5,0.4,0.8c0,0.3-0.1,0.6-0.4,0.9c-0.2,0.2-0.5,0.4-0.8,0.4
		C210.3,9.6,210,9.4,209.7,9.2z M209.7,12.2c-0.2-0.2-0.4-0.5-0.4-0.9c0-0.3,0.1-0.6,0.4-0.8c0.2-0.2,0.5-0.4,0.9-0.4
		c0.3,0,0.6,0.1,0.8,0.4c0.2,0.2,0.4,0.5,0.4,0.8c0,0.3-0.1,0.6-0.4,0.9c-0.2,0.2-0.5,0.4-0.8,0.4C210.3,12.6,210,12.4,209.7,12.2z"
		/>
	<path d="M214.2,6.2c-0.2-0.2-0.4-0.5-0.4-0.9c0-0.3,0.1-0.6,0.4-0.8s0.5-0.4,0.9-0.4c0.3,0,0.6,0.1,0.8,0.4
		c0.2,0.2,0.4,0.5,0.4,0.8c0,0.3-0.1,0.6-0.4,0.9c-0.2,0.2-0.5,0.4-0.8,0.4C214.7,6.6,214.4,6.4,214.2,6.2z M214.2,9.2
		c-0.2-0.2-0.4-0.5-0.4-0.9c0-0.3,0.1-0.6,0.4-0.8s0.5-0.4,0.9-0.4c0.3,0,0.6,0.1,0.8,0.4c0.2,0.2,0.4,0.5,0.4,0.8
		c0,0.3-0.1,0.6-0.4,0.9c-0.2,0.2-0.5,0.4-0.8,0.4C214.7,9.6,214.4,9.4,214.2,9.2z M214.2,12.2c-0.2-0.2-0.4-0.5-0.4-0.9
		c0-0.3,0.1-0.6,0.4-0.8c0.2-0.2,0.5-0.4,0.9-0.4c0.3,0,0.6,0.1,0.8,0.4c0.2,0.2,0.4,0.5,0.4,0.8c0,0.3-0.1,0.6-0.4,0.9
		c-0.2,0.2-0.5,0.4-0.8,0.4C214.7,12.6,214.4,12.4,214.2,12.2z M214.2,15.2c-0.2-0.2-0.4-0.5-0.4-0.9c0-0.3,0.1-0.6,0.4-0.8
		c0.2-0.2,0.5-0.4,0.9-0.4c0.3,0,0.6,0.1,0.8,0.4c0.2,0.2,0.4,0.5,0.4,0.8c0,0.3-0.1,0.6-0.4,0.9c-0.2,0.2-0.5,0.4-0.8,0.4
		C214.7,15.6,214.4,15.4,214.2,15.2z M214.2,18.2c-0.2-0.2-0.4-0.5-0.4-0.9c0-0.3,0.1-0.6,0.4-0.8s0.5-0.4,0.9-0.4
		c0.3,0,0.6,0.1,0.8,0.4c0.2,0.2,0.4,0.5,0.4,0.8c0,0.3-0.1,0.6-0.4,0.9c-0.2,0.2-0.5,0.4-0.8,0.4C214.7,18.6,214.4,18.5,214.2,18.2
		z M214.2,21.2c-0.2-0.2-0.4-0.5-0.4-0.9c0-0.3,0.1-0.6,0.4-0.8c0.2-0.2,0.5-0.4,0.9-0.4c0.3,0,0.6,0.1,0.8,0.4
		c0.2,0.2,0.4,0.5,0.4,0.8c0,0.3-0.1,0.6-0.4,0.9c-0.2,0.2-0.5,0.4-0.8,0.4C214.7,21.6,214.4,21.5,214.2,21.2z M214.2,24.2
		c-0.2-0.2-0.4-0.5-0.4-0.9c0-0.3,0.1-0.6,0.4-0.8c0.2-0.2,0.5-0.4,0.9-0.4c0.3,0,0.6,0.1,0.8,0.4c0.2,0.2,0.4,0.5,0.4,0.8
		c0,0.3-0.1,0.6-0.4,0.9c-0.2,0.2-0.5,0.4-0.8,0.4C214.7,24.6,214.4,24.5,214.2,24.2z M217.2,6.2c-0.2-0.2-0.4-0.5-0.4-0.9
		c0-0.3,0.1-0.6,0.4-0.8c0.2-0.2,0.5-0.4,0.9-0.4c0.3,0,0.6,0.1,0.8,0.4c0.2,0.2,0.4,0.5,0.4,0.8c0,0.3-0.1,0.6-0.4,0.9
		c-0.2,0.2-0.5,0.4-0.8,0.4C217.7,6.6,217.4,6.4,217.2,6.2z M217.2,15.2c-0.2-0.2-0.4-0.5-0.4-0.9c0-0.3,0.1-0.6,0.4-0.8
		c0.2-0.2,0.5-0.4,0.9-0.4c0.3,0,0.6,0.1,0.8,0.4c0.2,0.2,0.4,0.5,0.4,0.8c0,0.3-0.1,0.6-0.4,0.9c-0.2,0.2-0.5,0.4-0.8,0.4
		C217.7,15.6,217.4,15.4,217.2,15.2z M217.2,24.2c-0.2-0.2-0.4-0.5-0.4-0.9c0-0.3,0.1-0.6,0.4-0.8c0.2-0.2,0.5-0.4,0.9-0.4
		c0.3,0,0.6,0.1,0.8,0.4c0.2,0.2,0.4,0.5,0.4,0.8c0,0.3-0.1,0.6-0.4,0.9c-0.2,0.2-0.5,0.4-0.8,0.4C217.7,24.6,217.4,24.5,217.2,24.2
		z M220.2,6.2c-0.2-0.2-0.4-0.5-0.4-0.9c0-0.3,0.1-0.6,0.4-0.8c0.2-0.2,0.5-0.4,0.9-0.4c0.3,0,0.6,0.1,0.8,0.4
		c0.2,0.2,0.4,0.5,0.4,0.8c0,0.3-0.1,0.6-0.4,0.9c-0.2,0.2-0.5,0.4-0.8,0.4C220.7,6.6,220.4,6.4,220.2,6.2z M220.2,15.2
		c-0.2-0.2-0.4-0.5-0.4-0.9c0-0.3,0.1-0.6,0.4-0.8c0.2-0.2,0.5-0.4,0.9-0.4c0.3,0,0.6,0.1,0.8,0.4c0.2,0.2,0.4,0.5,0.4,0.8
		c0,0.3-0.1,0.6-0.4,0.9c-0.2,0.2-0.5,0.4-0.8,0.4C220.7,15.6,220.4,15.4,220.2,15.2z M220.2,24.2c-0.2-0.2-0.4-0.5-0.4-0.9
		c0-0.3,0.1-0.6,0.4-0.8c0.2-0.2,0.5-0.4,0.9-0.4c0.3,0,0.6,0.1,0.8,0.4c0.2,0.2,0.4,0.5,0.4,0.8c0,0.3-0.1,0.6-0.4,0.9
		c-0.2,0.2-0.5,0.4-0.8,0.4C220.7,24.6,220.4,24.5,220.2,24.2z M223.2,6.2c-0.2-0.2-0.4-0.5-0.4-0.9c0-0.3,0.1-0.6,0.4-0.8
		c0.2-0.2,0.5-0.4,0.9-0.4c0.3,0,0.6,0.1,0.8,0.4s0.4,0.5,0.4,0.8c0,0.3-0.1,0.6-0.4,0.9s-0.5,0.4-0.8,0.4
		C223.7,6.6,223.4,6.4,223.2,6.2z M223.2,15.2c-0.2-0.2-0.4-0.5-0.4-0.9c0-0.3,0.1-0.6,0.4-0.8c0.2-0.2,0.5-0.4,0.9-0.4
		c0.3,0,0.6,0.1,0.8,0.4c0.2,0.2,0.4,0.5,0.4,0.8c0,0.3-0.1,0.6-0.4,0.9c-0.2,0.2-0.5,0.4-0.8,0.4C223.7,15.6,223.4,15.4,223.2,15.2
		z M223.2,24.2c-0.2-0.2-0.4-0.5-0.4-0.9c0-0.3,0.1-0.6,0.4-0.8c0.2-0.2,0.5-0.4,0.9-0.4c0.3,0,0.6,0.1,0.8,0.4
		c0.2,0.2,0.4,0.5,0.4,0.8c0,0.3-0.1,0.6-0.4,0.9s-0.5,0.4-0.8,0.4C223.7,24.6,223.4,24.5,223.2,24.2z M226.2,6.2
		c-0.2-0.2-0.4-0.5-0.4-0.9c0-0.3,0.1-0.6,0.4-0.8c0.2-0.2,0.5-0.4,0.9-0.4c0.3,0,0.6,0.1,0.8,0.4c0.2,0.2,0.4,0.5,0.4,0.8
		c0,0.3-0.1,0.6-0.4,0.9c-0.2,0.2-0.5,0.4-0.8,0.4C226.7,6.6,226.4,6.4,226.2,6.2z M226.2,24.2c-0.2-0.2-0.4-0.5-0.4-0.9
		c0-0.3,0.1-0.6,0.4-0.8c0.2-0.2,0.5-0.4,0.9-0.4c0.3,0,0.6,0.1,0.8,0.4c0.2,0.2,0.4,0.5,0.4,0.8c0,0.3-0.1,0.6-0.4,0.9
		c-0.2,0.2-0.5,0.4-0.8,0.4C226.7,24.6,226.4,24.5,226.2,24.2z"/>
	<path d="M230.6,6.2c-0.2-0.2-0.4-0.5-0.4-0.9c0-0.3,0.1-0.6,0.4-0.8c0.2-0.2,0.5-0.4,0.9-0.4c0.3,0,0.6,0.1,0.8,0.4
		c0.2,0.2,0.4,0.5,0.4,0.8c0,0.3-0.1,0.6-0.4,0.9c-0.2,0.2-0.5,0.4-0.8,0.4C231.1,6.6,230.8,6.4,230.6,6.2z M230.6,9.2
		c-0.2-0.2-0.4-0.5-0.4-0.9c0-0.3,0.1-0.6,0.4-0.8c0.2-0.2,0.5-0.4,0.9-0.4c0.3,0,0.6,0.1,0.8,0.4c0.2,0.2,0.4,0.5,0.4,0.8
		c0,0.3-0.1,0.6-0.4,0.9c-0.2,0.2-0.5,0.4-0.8,0.4C231.1,9.6,230.8,9.4,230.6,9.2z M230.6,12.2c-0.2-0.2-0.4-0.5-0.4-0.9
		c0-0.3,0.1-0.6,0.4-0.8c0.2-0.2,0.5-0.4,0.9-0.4c0.3,0,0.6,0.1,0.8,0.4c0.2,0.2,0.4,0.5,0.4,0.8c0,0.3-0.1,0.6-0.4,0.9
		c-0.2,0.2-0.5,0.4-0.8,0.4C231.1,12.6,230.8,12.4,230.6,12.2z M230.6,15.2c-0.2-0.2-0.4-0.5-0.4-0.9c0-0.3,0.1-0.6,0.4-0.8
		c0.2-0.2,0.5-0.4,0.9-0.4c0.3,0,0.6,0.1,0.8,0.4c0.2,0.2,0.4,0.5,0.4,0.8c0,0.3-0.1,0.6-0.4,0.9c-0.2,0.2-0.5,0.4-0.8,0.4
		C231.1,15.6,230.8,15.4,230.6,15.2z M230.6,18.2c-0.2-0.2-0.4-0.5-0.4-0.9c0-0.3,0.1-0.6,0.4-0.8c0.2-0.2,0.5-0.4,0.9-0.4
		c0.3,0,0.6,0.1,0.8,0.4c0.2,0.2,0.4,0.5,0.4,0.8c0,0.3-0.1,0.6-0.4,0.9c-0.2,0.2-0.5,0.4-0.8,0.4C231.1,18.6,230.8,18.5,230.6,18.2
		z M230.6,21.2c-0.2-0.2-0.4-0.5-0.4-0.9c0-0.3,0.1-0.6,0.4-0.8c0.2-0.2,0.5-0.4,0.9-0.4c0.3,0,0.6,0.1,0.8,0.4
		c0.2,0.2,0.4,0.5,0.4,0.8c0,0.3-0.1,0.6-0.4,0.9c-0.2,0.2-0.5,0.4-0.8,0.4C231.1,21.6,230.8,21.5,230.6,21.2z M230.6,24.2
		c-0.2-0.2-0.4-0.5-0.4-0.9c0-0.3,0.1-0.6,0.4-0.8c0.2-0.2,0.5-0.4,0.9-0.4c0.3,0,0.6,0.1,0.8,0.4c0.2,0.2,0.4,0.5,0.4,0.8
		c0,0.3-0.1,0.6-0.4,0.9c-0.2,0.2-0.5,0.4-0.8,0.4C231.1,24.6,230.8,24.5,230.6,24.2z M233.6,6.2c-0.2-0.2-0.4-0.5-0.4-0.9
		c0-0.3,0.1-0.6,0.4-0.8c0.2-0.2,0.5-0.4,0.9-0.4c0.3,0,0.6,0.1,0.8,0.4c0.2,0.2,0.4,0.5,0.4,0.8c0,0.3-0.1,0.6-0.4,0.9
		c-0.2,0.2-0.5,0.4-0.8,0.4C234.1,6.6,233.8,6.4,233.6,6.2z M233.6,15.2c-0.2-0.2-0.4-0.5-0.4-0.9c0-0.3,0.1-0.6,0.4-0.8
		c0.2-0.2,0.5-0.4,0.9-0.4c0.3,0,0.6,0.1,0.8,0.4c0.2,0.2,0.4,0.5,0.4,0.8c0,0.3-0.1,0.6-0.4,0.9c-0.2,0.2-0.5,0.4-0.8,0.4
		C234.1,15.6,233.8,15.4,233.6,15.2z M236.6,6.2c-0.2-0.2-0.4-0.5-0.4-0.9c0-0.3,0.1-0.6,0.4-0.8c0.2-0.2,0.5-0.4,0.9-0.4
		c0.3,0,0.6,0.1,0.8,0.4c0.2,0.2,0.4,0.5,0.4,0.8c0,0.3-0.1,0.6-0.4,0.9c-0.2,0.2-0.5,0.4-0.8,0.4C237.1,6.6,236.8,6.4,236.6,6.2z
		 M236.6,15.2c-0.2-0.2-0.4-0.5-0.4-0.9c0-0.3,0.1-0.6,0.4-0.8c0.2-0.2,0.5-0.4,0.9-0.4c0.3,0,0.6,0.1,0.8,0.4
		c0.2,0.2,0.4,0.5,0.4,0.8c0,0.3-0.1,0.6-0.4,0.9c-0.2,0.2-0.5,0.4-0.8,0.4C237.1,15.6,236.8,15.4,236.6,15.2z M236.6,18.2
		c-0.2-0.2-0.4-0.5-0.4-0.9c0-0.3,0.1-0.6,0.4-0.8c0.2-0.2,0.5-0.4,0.9-0.4c0.3,0,0.6,0.1,0.8,0.4c0.2,0.2,0.4,0.5,0.4,0.8
		c0,0.3-0.1,0.6-0.4,0.9c-0.2,0.2-0.5,0.4-0.8,0.4C237.1,18.6,236.8,18.5,236.6,18.2z M239.6,6.2c-0.2-0.2-0.4-0.5-0.4-0.9
		c0-0.3,0.1-0.6,0.4-0.8c0.2-0.2,0.5-0.4,0.9-0.4c0.3,0,0.6,0.1,0.8,0.4c0.2,0.2,0.4,0.5,0.4,0.8c0,0.3-0.1,0.6-0.4,0.9
		c-0.2,0.2-0.5,0.4-0.8,0.4C240.1,6.6,239.8,6.4,239.6,6.2z M239.6,15.2c-0.2-0.2-0.4-0.5-0.4-0.9c0-0.3,0.1-0.6,0.4-0.8
		c0.2-0.2,0.5-0.4,0.9-0.4c0.3,0,0.6,0.1,0.8,0.4c0.2,0.2,0.4,0.5,0.4,0.8c0,0.3-0.1,0.6-0.4,0.9c-0.2,0.2-0.5,0.4-0.8,0.4
		C240.1,15.6,239.8,15.4,239.6,15.2z M239.6,21.2c-0.2-0.2-0.4-0.5-0.4-0.9c0-0.3,0.1-0.6,0.4-0.8c0.2-0.2,0.5-0.4,0.9-0.4
		c0.3,0,0.6,0.1,0.8,0.4c0.2,0.2,0.4,0.5,0.4,0.8c0,0.3-0.1,0.6-0.4,0.9c-0.2,0.2-0.5,0.4-0.8,0.4C240.1,21.6,239.8,21.5,239.6,21.2
		z M242.6,9.2c-0.2-0.2-0.4-0.5-0.4-0.9c0-0.3,0.1-0.6,0.4-0.8c0.2-0.2,0.5-0.4,0.9-0.4c0.3,0,0.6,0.1,0.8,0.4
		c0.2,0.2,0.4,0.5,0.4,0.8c0,0.3-0.1,0.6-0.4,0.9c-0.2,0.2-0.5,0.4-0.8,0.4C243.1,9.6,242.8,9.4,242.6,9.2z M242.6,12.2
		c-0.2-0.2-0.4-0.5-0.4-0.9c0-0.3,0.1-0.6,0.4-0.8c0.2-0.2,0.5-0.4,0.9-0.4c0.3,0,0.6,0.1,0.8,0.4c0.2,0.2,0.4,0.5,0.4,0.8
		c0,0.3-0.1,0.6-0.4,0.9c-0.2,0.2-0.5,0.4-0.8,0.4C243.1,12.6,242.8,12.4,242.6,12.2z M242.6,24.2c-0.2-0.2-0.4-0.5-0.4-0.9
		c0-0.3,0.1-0.6,0.4-0.8c0.2-0.2,0.5-0.4,0.9-0.4c0.3,0,0.6,0.1,0.8,0.4c0.2,0.2,0.4,0.5,0.4,0.8c0,0.3-0.1,0.6-0.4,0.9
		c-0.2,0.2-0.5,0.4-0.8,0.4C243.1,24.6,242.8,24.5,242.6,24.2z"/>
	<path d="M247,9.2c-0.2-0.2-0.4-0.5-0.4-0.9c0-0.3,0.1-0.6,0.4-0.8c0.2-0.2,0.5-0.4,0.9-0.4c0.3,0,0.6,0.1,0.8,0.4
		c0.2,0.2,0.4,0.5,0.4,0.8c0,0.3-0.1,0.6-0.4,0.9c-0.2,0.2-0.5,0.4-0.8,0.4C247.6,9.6,247.3,9.4,247,9.2z M247,12.2
		c-0.2-0.2-0.4-0.5-0.4-0.9c0-0.3,0.1-0.6,0.4-0.8c0.2-0.2,0.5-0.4,0.9-0.4c0.3,0,0.6,0.1,0.8,0.4c0.2,0.2,0.4,0.5,0.4,0.8
		c0,0.3-0.1,0.6-0.4,0.9c-0.2,0.2-0.5,0.4-0.8,0.4C247.6,12.6,247.3,12.4,247,12.2z M247,15.2c-0.2-0.2-0.4-0.5-0.4-0.9
		c0-0.3,0.1-0.6,0.4-0.8c0.2-0.2,0.5-0.4,0.9-0.4c0.3,0,0.6,0.1,0.8,0.4c0.2,0.2,0.4,0.5,0.4,0.8c0,0.3-0.1,0.6-0.4,0.9
		c-0.2,0.2-0.5,0.4-0.8,0.4C247.6,15.6,247.3,15.4,247,15.2z M247,18.2c-0.2-0.2-0.4-0.5-0.4-0.9c0-0.3,0.1-0.6,0.4-0.8
		c0.2-0.2,0.5-0.4,0.9-0.4c0.3,0,0.6,0.1,0.8,0.4c0.2,0.2,0.4,0.5,0.4,0.8c0,0.3-0.1,0.6-0.4,0.9c-0.2,0.2-0.5,0.4-0.8,0.4
		C247.6,18.6,247.3,18.5,247,18.2z M247,21.2c-0.2-0.2-0.4-0.5-0.4-0.9c0-0.3,0.1-0.6,0.4-0.8c0.2-0.2,0.5-0.4,0.9-0.4
		c0.3,0,0.6,0.1,0.8,0.4c0.2,0.2,0.4,0.5,0.4,0.8c0,0.3-0.1,0.6-0.4,0.9c-0.2,0.2-0.5,0.4-0.8,0.4C247.6,21.6,247.3,21.5,247,21.2z
		 M250,6.2c-0.2-0.2-0.4-0.5-0.4-0.9c0-0.3,0.1-0.6,0.4-0.8c0.2-0.2,0.5-0.4,0.9-0.4c0.3,0,0.6,0.1,0.8,0.4c0.2,0.2,0.4,0.5,0.4,0.8
		c0,0.3-0.1,0.6-0.4,0.9c-0.2,0.2-0.5,0.4-0.8,0.4C250.6,6.6,250.3,6.4,250,6.2z M250,24.2c-0.2-0.2-0.4-0.5-0.4-0.9
		c0-0.3,0.1-0.6,0.4-0.8c0.2-0.2,0.5-0.4,0.9-0.4c0.3,0,0.6,0.1,0.8,0.4c0.2,0.2,0.4,0.5,0.4,0.8c0,0.3-0.1,0.6-0.4,0.9
		c-0.2,0.2-0.5,0.4-0.8,0.4C250.6,24.6,250.3,24.5,250,24.2z M253,6.2c-0.2-0.2-0.4-0.5-0.4-0.9c0-0.3,0.1-0.6,0.4-0.8
		c0.2-0.2,0.5-0.4,0.9-0.4c0.3,0,0.6,0.1,0.8,0.4c0.2,0.2,0.4,0.5,0.4,0.8c0,0.3-0.1,0.6-0.4,0.9c-0.2,0.2-0.5,0.4-0.8,0.4
		C253.6,6.6,253.3,6.4,253,6.2z M253,24.2c-0.2-0.2-0.4-0.5-0.4-0.9c0-0.3,0.1-0.6,0.4-0.8c0.2-0.2,0.5-0.4,0.9-0.4
		c0.3,0,0.6,0.1,0.8,0.4c0.2,0.2,0.4,0.5,0.4,0.8c0,0.3-0.1,0.6-0.4,0.9c-0.2,0.2-0.5,0.4-0.8,0.4C253.6,24.6,253.3,24.5,253,24.2z
		 M256.1,6.2c-0.2-0.2-0.4-0.5-0.4-0.9c0-0.3,0.1-0.6,0.4-0.8c0.2-0.2,0.5-0.4,0.9-0.4c0.3,0,0.6,0.1,0.8,0.4s0.4,0.5,0.4,0.8
		c0,0.3-0.1,0.6-0.4,0.9s-0.5,0.4-0.8,0.4C256.6,6.6,256.3,6.4,256.1,6.2z M256.1,24.2c-0.2-0.2-0.4-0.5-0.4-0.9
		c0-0.3,0.1-0.6,0.4-0.8c0.2-0.2,0.5-0.4,0.9-0.4c0.3,0,0.6,0.1,0.8,0.4c0.2,0.2,0.4,0.5,0.4,0.8c0,0.3-0.1,0.6-0.4,0.9
		s-0.5,0.4-0.8,0.4C256.6,24.6,256.3,24.5,256.1,24.2z M259.1,9.2c-0.2-0.2-0.4-0.5-0.4-0.9c0-0.3,0.1-0.6,0.4-0.8s0.5-0.4,0.9-0.4
		c0.3,0,0.6,0.1,0.8,0.4c0.2,0.2,0.4,0.5,0.4,0.8c0,0.3-0.1,0.6-0.4,0.9c-0.2,0.2-0.5,0.4-0.8,0.4C259.6,9.6,259.3,9.4,259.1,9.2z
		 M259.1,21.2c-0.2-0.2-0.4-0.5-0.4-0.9c0-0.3,0.1-0.6,0.4-0.8c0.2-0.2,0.5-0.4,0.9-0.4c0.3,0,0.6,0.1,0.8,0.4
		c0.2,0.2,0.4,0.5,0.4,0.8c0,0.3-0.1,0.6-0.4,0.9c-0.2,0.2-0.5,0.4-0.8,0.4C259.6,21.6,259.3,21.5,259.1,21.2z"/>
	<path d="M263.5,6.2c-0.2-0.2-0.4-0.5-0.4-0.9c0-0.3,0.1-0.6,0.4-0.8s0.5-0.4,0.9-0.4c0.3,0,0.6,0.1,0.8,0.4
		c0.2,0.2,0.4,0.5,0.4,0.8c0,0.3-0.1,0.6-0.4,0.9c-0.2,0.2-0.5,0.4-0.8,0.4C264,6.6,263.7,6.4,263.5,6.2z M263.5,9.2
		c-0.2-0.2-0.4-0.5-0.4-0.9c0-0.3,0.1-0.6,0.4-0.8s0.5-0.4,0.9-0.4c0.3,0,0.6,0.1,0.8,0.4c0.2,0.2,0.4,0.5,0.4,0.8
		c0,0.3-0.1,0.6-0.4,0.9c-0.2,0.2-0.5,0.4-0.8,0.4C264,9.6,263.7,9.4,263.5,9.2z M263.5,12.2c-0.2-0.2-0.4-0.5-0.4-0.9
		c0-0.3,0.1-0.6,0.4-0.8c0.2-0.2,0.5-0.4,0.9-0.4c0.3,0,0.6,0.1,0.8,0.4c0.2,0.2,0.4,0.5,0.4,0.8c0,0.3-0.1,0.6-0.4,0.9
		c-0.2,0.2-0.5,0.4-0.8,0.4C264,12.6,263.7,12.4,263.5,12.2z M263.5,15.2c-0.2-0.2-0.4-0.5-0.4-0.9c0-0.3,0.1-0.6,0.4-0.8
		c0.2-0.2,0.5-0.4,0.9-0.4c0.3,0,0.6,0.1,0.8,0.4c0.2,0.2,0.4,0.5,0.4,0.8c0,0.3-0.1,0.6-0.4,0.9c-0.2,0.2-0.5,0.4-0.8,0.4
		C264,15.6,263.7,15.4,263.5,15.2z M263.5,18.2c-0.2-0.2-0.4-0.5-0.4-0.9c0-0.3,0.1-0.6,0.4-0.8s0.5-0.4,0.9-0.4
		c0.3,0,0.6,0.1,0.8,0.4c0.2,0.2,0.4,0.5,0.4,0.8c0,0.3-0.1,0.6-0.4,0.9c-0.2,0.2-0.5,0.4-0.8,0.4C264,18.6,263.7,18.5,263.5,18.2z
		 M263.5,21.2c-0.2-0.2-0.4-0.5-0.4-0.9c0-0.3,0.1-0.6,0.4-0.8c0.2-0.2,0.5-0.4,0.9-0.4c0.3,0,0.6,0.1,0.8,0.4
		c0.2,0.2,0.4,0.5,0.4,0.8c0,0.3-0.1,0.6-0.4,0.9c-0.2,0.2-0.5,0.4-0.8,0.4C264,21.6,263.7,21.5,263.5,21.2z M263.5,24.2
		c-0.2-0.2-0.4-0.5-0.4-0.9c0-0.3,0.1-0.6,0.4-0.8c0.2-0.2,0.5-0.4,0.9-0.4c0.3,0,0.6,0.1,0.8,0.4c0.2,0.2,0.4,0.5,0.4,0.8
		c0,0.3-0.1,0.6-0.4,0.9c-0.2,0.2-0.5,0.4-0.8,0.4C264,24.6,263.7,24.5,263.5,24.2z M266.5,15.2c-0.2-0.2-0.4-0.5-0.4-0.9
		c0-0.3,0.1-0.6,0.4-0.8c0.2-0.2,0.5-0.4,0.9-0.4c0.3,0,0.6,0.1,0.8,0.4c0.2,0.2,0.4,0.5,0.4,0.8c0,0.3-0.1,0.6-0.4,0.9
		c-0.2,0.2-0.5,0.4-0.8,0.4C267,15.6,266.7,15.4,266.5,15.2z M269.5,15.2c-0.2-0.2-0.4-0.5-0.4-0.9c0-0.3,0.1-0.6,0.4-0.8
		c0.2-0.2,0.5-0.4,0.9-0.4c0.3,0,0.6,0.1,0.8,0.4c0.2,0.2,0.4,0.5,0.4,0.8c0,0.3-0.1,0.6-0.4,0.9c-0.2,0.2-0.5,0.4-0.8,0.4
		C270,15.6,269.7,15.4,269.5,15.2z M272.5,15.2c-0.2-0.2-0.4-0.5-0.4-0.9c0-0.3,0.1-0.6,0.4-0.8c0.2-0.2,0.5-0.4,0.9-0.4
		c0.3,0,0.6,0.1,0.8,0.4c0.2,0.2,0.4,0.5,0.4,0.8c0,0.3-0.1,0.6-0.4,0.9c-0.2,0.2-0.5,0.4-0.8,0.4C273,15.6,272.7,15.4,272.5,15.2z
		 M275.5,6.2c-0.2-0.2-0.4-0.5-0.4-0.9c0-0.3,0.1-0.6,0.4-0.8c0.2-0.2,0.5-0.4,0.9-0.4c0.3,0,0.6,0.1,0.8,0.4s0.4,0.5,0.4,0.8
		c0,0.3-0.1,0.6-0.4,0.9s-0.5,0.4-0.8,0.4C276,6.6,275.7,6.4,275.5,6.2z M275.5,9.2c-0.2-0.2-0.4-0.5-0.4-0.9c0-0.3,0.1-0.6,0.4-0.8
		c0.2-0.2,0.5-0.4,0.9-0.4c0.3,0,0.6,0.1,0.8,0.4s0.4,0.5,0.4,0.8c0,0.3-0.1,0.6-0.4,0.9c-0.2,0.2-0.5,0.4-0.8,0.4
		C276,9.6,275.7,9.4,275.5,9.2z M275.5,12.2c-0.2-0.2-0.4-0.5-0.4-0.9c0-0.3,0.1-0.6,0.4-0.8c0.2-0.2,0.5-0.4,0.9-0.4
		c0.3,0,0.6,0.1,0.8,0.4c0.2,0.2,0.4,0.5,0.4,0.8c0,0.3-0.1,0.6-0.4,0.9c-0.2,0.2-0.5,0.4-0.8,0.4C276,12.6,275.7,12.4,275.5,12.2z
		 M275.5,15.2c-0.2-0.2-0.4-0.5-0.4-0.9c0-0.3,0.1-0.6,0.4-0.8c0.2-0.2,0.5-0.4,0.9-0.4c0.3,0,0.6,0.1,0.8,0.4
		c0.2,0.2,0.4,0.5,0.4,0.8c0,0.3-0.1,0.6-0.4,0.9c-0.2,0.2-0.5,0.4-0.8,0.4C276,15.6,275.7,15.4,275.5,15.2z M275.5,18.2
		c-0.2-0.2-0.4-0.5-0.4-0.9c0-0.3,0.1-0.6,0.4-0.8c0.2-0.2,0.5-0.4,0.9-0.4c0.3,0,0.6,0.1,0.8,0.4s0.4,0.5,0.4,0.8
		c0,0.3-0.1,0.6-0.4,0.9s-0.5,0.4-0.8,0.4C276,18.6,275.7,18.5,275.5,18.2z M275.5,21.2c-0.2-0.2-0.4-0.5-0.4-0.9
		c0-0.3,0.1-0.6,0.4-0.8c0.2-0.2,0.5-0.4,0.9-0.4c0.3,0,0.6,0.1,0.8,0.4c0.2,0.2,0.4,0.5,0.4,0.8c0,0.3-0.1,0.6-0.4,0.9
		s-0.5,0.4-0.8,0.4C276,21.6,275.7,21.5,275.5,21.2z M275.5,24.2c-0.2-0.2-0.4-0.5-0.4-0.9c0-0.3,0.1-0.6,0.4-0.8
		c0.2-0.2,0.5-0.4,0.9-0.4c0.3,0,0.6,0.1,0.8,0.4c0.2,0.2,0.4,0.5,0.4,0.8c0,0.3-0.1,0.6-0.4,0.9s-0.5,0.4-0.8,0.4
		C276,24.6,275.7,24.5,275.5,24.2z"/>
	<path d="M279.9,6.2c-0.2-0.2-0.4-0.5-0.4-0.9c0-0.3,0.1-0.6,0.4-0.8s0.5-0.4,0.9-0.4c0.3,0,0.6,0.1,0.8,0.4
		c0.2,0.2,0.4,0.5,0.4,0.8c0,0.3-0.1,0.6-0.4,0.9c-0.2,0.2-0.5,0.4-0.8,0.4C280.4,6.6,280.2,6.4,279.9,6.2z M279.9,9.2
		c-0.2-0.2-0.4-0.5-0.4-0.9c0-0.3,0.1-0.6,0.4-0.8s0.5-0.4,0.9-0.4c0.3,0,0.6,0.1,0.8,0.4c0.2,0.2,0.4,0.5,0.4,0.8
		c0,0.3-0.1,0.6-0.4,0.9c-0.2,0.2-0.5,0.4-0.8,0.4C280.4,9.6,280.2,9.4,279.9,9.2z M279.9,12.2c-0.2-0.2-0.4-0.5-0.4-0.9
		c0-0.3,0.1-0.6,0.4-0.8c0.2-0.2,0.5-0.4,0.9-0.4c0.3,0,0.6,0.1,0.8,0.4c0.2,0.2,0.4,0.5,0.4,0.8c0,0.3-0.1,0.6-0.4,0.9
		c-0.2,0.2-0.5,0.4-0.8,0.4C280.4,12.6,280.2,12.4,279.9,12.2z M279.9,15.2c-0.2-0.2-0.4-0.5-0.4-0.9c0-0.3,0.1-0.6,0.4-0.8
		c0.2-0.2,0.5-0.4,0.9-0.4c0.3,0,0.6,0.1,0.8,0.4c0.2,0.2,0.4,0.5,0.4,0.8c0,0.3-0.1,0.6-0.4,0.9c-0.2,0.2-0.5,0.4-0.8,0.4
		C280.4,15.6,280.2,15.4,279.9,15.2z M279.9,18.2c-0.2-0.2-0.4-0.5-0.4-0.9c0-0.3,0.1-0.6,0.4-0.8s0.5-0.4,0.9-0.4
		c0.3,0,0.6,0.1,0.8,0.4c0.2,0.2,0.4,0.5,0.4,0.8c0,0.3-0.1,0.6-0.4,0.9c-0.2,0.2-0.5,0.4-0.8,0.4C280.4,18.6,280.2,18.5,279.9,18.2
		z M279.9,21.2c-0.2-0.2-0.4-0.5-0.4-0.9c0-0.3,0.1-0.6,0.4-0.8c0.2-0.2,0.5-0.4,0.9-0.4c0.3,0,0.6,0.1,0.8,0.4
		c0.2,0.2,0.4,0.5,0.4,0.8c0,0.3-0.1,0.6-0.4,0.9c-0.2,0.2-0.5,0.4-0.8,0.4C280.4,21.6,280.2,21.5,279.9,21.2z M279.9,24.2
		c-0.2-0.2-0.4-0.5-0.4-0.9c0-0.3,0.1-0.6,0.4-0.8c0.2-0.2,0.5-0.4,0.9-0.4c0.3,0,0.6,0.1,0.8,0.4c0.2,0.2,0.4,0.5,0.4,0.8
		c0,0.3-0.1,0.6-0.4,0.9c-0.2,0.2-0.5,0.4-0.8,0.4C280.4,24.6,280.2,24.5,279.9,24.2z M282.9,6.2c-0.2-0.2-0.4-0.5-0.4-0.9
		c0-0.3,0.1-0.6,0.4-0.8c0.2-0.2,0.5-0.4,0.9-0.4c0.3,0,0.6,0.1,0.8,0.4c0.2,0.2,0.4,0.5,0.4,0.8c0,0.3-0.1,0.6-0.4,0.9
		c-0.2,0.2-0.5,0.4-0.8,0.4C283.4,6.6,283.2,6.4,282.9,6.2z M282.9,15.2c-0.2-0.2-0.4-0.5-0.4-0.9c0-0.3,0.1-0.6,0.4-0.8
		c0.2-0.2,0.5-0.4,0.9-0.4c0.3,0,0.6,0.1,0.8,0.4c0.2,0.2,0.4,0.5,0.4,0.8c0,0.3-0.1,0.6-0.4,0.9c-0.2,0.2-0.5,0.4-0.8,0.4
		C283.4,15.6,283.2,15.4,282.9,15.2z M282.9,24.2c-0.2-0.2-0.4-0.5-0.4-0.9c0-0.3,0.1-0.6,0.4-0.8c0.2-0.2,0.5-0.4,0.9-0.4
		c0.3,0,0.6,0.1,0.8,0.4c0.2,0.2,0.4,0.5,0.4,0.8c0,0.3-0.1,0.6-0.4,0.9c-0.2,0.2-0.5,0.4-0.8,0.4C283.4,24.6,283.2,24.5,282.9,24.2
		z M285.9,6.2c-0.2-0.2-0.4-0.5-0.4-0.9c0-0.3,0.1-0.6,0.4-0.8s0.5-0.4,0.9-0.4c0.3,0,0.6,0.1,0.8,0.4S288,5,288,5.3
		c0,0.3-0.1,0.6-0.4,0.9s-0.5,0.4-0.8,0.4C286.5,6.6,286.2,6.4,285.9,6.2z M285.9,15.2c-0.2-0.2-0.4-0.5-0.4-0.9
		c0-0.3,0.1-0.6,0.4-0.8c0.2-0.2,0.5-0.4,0.9-0.4c0.3,0,0.6,0.1,0.8,0.4c0.2,0.2,0.4,0.5,0.4,0.8c0,0.3-0.1,0.6-0.4,0.9
		c-0.2,0.2-0.5,0.4-0.8,0.4C286.5,15.6,286.2,15.4,285.9,15.2z M285.9,24.2c-0.2-0.2-0.4-0.5-0.4-0.9c0-0.3,0.1-0.6,0.4-0.8
		c0.2-0.2,0.5-0.4,0.9-0.4c0.3,0,0.6,0.1,0.8,0.4c0.2,0.2,0.4,0.5,0.4,0.8c0,0.3-0.1,0.6-0.4,0.9s-0.5,0.4-0.8,0.4
		C286.5,24.6,286.2,24.5,285.9,24.2z M288.9,6.2c-0.2-0.2-0.4-0.5-0.4-0.9c0-0.3,0.1-0.6,0.4-0.8s0.5-0.4,0.9-0.4
		c0.3,0,0.6,0.1,0.8,0.4c0.2,0.2,0.4,0.5,0.4,0.8c0,0.3-0.1,0.6-0.4,0.9c-0.2,0.2-0.5,0.4-0.8,0.4C289.5,6.6,289.2,6.4,288.9,6.2z
		 M288.9,15.2c-0.2-0.2-0.4-0.5-0.4-0.9c0-0.3,0.1-0.6,0.4-0.8c0.2-0.2,0.5-0.4,0.9-0.4c0.3,0,0.6,0.1,0.8,0.4
		c0.2,0.2,0.4,0.5,0.4,0.8c0,0.3-0.1,0.6-0.4,0.9c-0.2,0.2-0.5,0.4-0.8,0.4C289.5,15.6,289.2,15.4,288.9,15.2z M288.9,24.2
		c-0.2-0.2-0.4-0.5-0.4-0.9c0-0.3,0.1-0.6,0.4-0.8c0.2-0.2,0.5-0.4,0.9-0.4c0.3,0,0.6,0.1,0.8,0.4c0.2,0.2,0.4,0.5,0.4,0.8
		c0,0.3-0.1,0.6-0.4,0.9c-0.2,0.2-0.5,0.4-0.8,0.4C289.5,24.6,289.2,24.5,288.9,24.2z M291.9,6.2c-0.2-0.2-0.4-0.5-0.4-0.9
		c0-0.3,0.1-0.6,0.4-0.8c0.2-0.2,0.5-0.4,0.9-0.4c0.3,0,0.6,0.1,0.8,0.4S294,5,294,5.3c0,0.3-0.1,0.6-0.4,0.9s-0.5,0.4-0.8,0.4
		C292.5,6.6,292.2,6.4,291.9,6.2z M291.9,24.2c-0.2-0.2-0.4-0.5-0.4-0.9c0-0.3,0.1-0.6,0.4-0.8c0.2-0.2,0.5-0.4,0.9-0.4
		c0.3,0,0.6,0.1,0.8,0.4c0.2,0.2,0.4,0.5,0.4,0.8c0,0.3-0.1,0.6-0.4,0.9s-0.5,0.4-0.8,0.4C292.5,24.6,292.2,24.5,291.9,24.2z"/>
</g>
</svg>
