<svg id="Capa_1" data-name="Capa 1" xmlns="http://www.w3.org/2000/svg" viewBox="0 0 181.7 798"><defs><style>.cls-1{fill:#010101;}.cls-2{fill:#fff;}</style></defs><title>bg_dots</title><polygon class="cls-1" points="0 0 181.7 0 110.28 798 0 798 0 0"/><g id="Layer_1" data-name="Layer 1"><path class="cls-2" d="M12.15,458.64v-1.29H88v1.29Z" transform="translate(0 13)"/><path class="cls-2" d="M26.68,591.87c-1.86-2.49-2.21-5.85-2.31-8.94,0-8.38-.05-16.76,0-25.14.15-3.85.9-8.52,4.39-10.45,4.48-2.37,9.6-1.36,14.38-1.57,0,7.32,0,14.65,0,22-1.93.1-3.88-.23-5.77.29-1.65.42-2,3-1,4.27.9.94,2.25.89,3.4,1H60.15a5.12,5.12,0,0,0,3.34-.82c1.28-1.29.73-4.13-1.09-4.46-2.55-.52-5.17-.12-7.76-.26,0-7.32,0-14.67,0-22,3.34,0,6.66,0,10,0,3,0,6.3.54,8.42,3.06s2.46,6,2.61,9.22v25.35c-.13,3.12-.69,6.5-2.72,8.87s-5.08,3-7.89,3c-9.85,0-19.71,0-29.56,0C32.38,595.13,28.84,594.61,26.68,591.87Z" transform="translate(0 13)"/><path class="cls-2" d="M24.73,695.26c-.11-11.31,0-22.63,0-34q25.32-4.93,50.65-9.79c0,7.49,0,15,0,22.46-3.64.45-7.31.8-11,1.27q0,3.06,0,6.13c3.64.42,7.31.79,11,1.24,0,7.44,0,14.9,0,22.34h-.54C58.13,701.62,41.42,698.48,24.73,695.26Zm11.7-17c5.57.8,11.14,1.52,16.71,2.27,0-1.47,0-3,0-4.46C47.55,676.79,42,677.49,36.43,678.27Z" transform="translate(0 13)"/><path class="cls-2" d="M24.69,649.05c0-11,0-22,0-33-.07-4-.07-8.45,2.08-11.93,1.84-2.93,5.24-3.92,8.31-4.1,3.23-.14,6.77-.05,9.51,2.09,2,1.54,3,4.1,3.64,6.57a10.5,10.5,0,0,1,4.35-6.74c3.07-1.85,6.69-2,10.12-2.06H75.34v22.06H57.77c-1.09,0-2.47.16-3,1.38s-.22,2.73-.28,4.06c7,0,13.9,0,20.87,0,0,7.23,0,14.49,0,21.72Zm11.57-21.72c2.38,0,4.73,0,7.11,0-.09-1.64.41-3.85-1.07-4.92a6,6,0,0,0-4.91-.08C35.79,623.3,36.34,625.67,36.26,627.33Z" transform="translate(0 13)"/><path class="cls-2" d="M24.69,541.08c0-7.23,0-14.49,0-21.71,5.72,0,11.42,0,17.12,0v-5.42c-5.72,0-11.42,0-17.14,0V492.21H75.32v21.71c-7.33,0-14.64,0-22,0v5.43c7.31.07,14.64,0,21.94,0,0,7.23,0,14.48,0,21.71Q50,541.07,24.69,541.08Z" transform="translate(0 13)"/><path class="cls-2" d="M24.69,487.21q0-10.84,0-21.69H75.34v21.69Q50,487.21,24.69,487.21Z" transform="translate(0 13)"/><path class="cls-2" d="M24.79,450.59q0-18.48,0-37a17.19,17.19,0,0,0,2.68.31c-.36,8.49-.32,17-.32,25.54q19.7,1.13,39.42,2.3c3,.23,5.92.07,8.87.11-.06,1.83,0,3.64,0,5.47-4.09-.35-8.18-.89-12.3-1.08q-18-1-36-2.13c0,2.16,0,4.31,0,6.47C26.36,450.62,25.59,450.62,24.79,450.59Z" transform="translate(0 13)"/><path class="cls-2" d="M24.84,365.49c0-2.07,0-4.13,0-6.2,1.24.12,2.46.14,3.7.21-.08,2-.06,4.11,0,6.15C27.3,365.6,26.08,365.53,24.84,365.49Z" transform="translate(0 13)"/><path class="cls-2" d="M24.84,235.13c0-1.69,0-3.36,0-5,8.67.87,17.39,1.15,26.11,1.6,8.17.39,16.35.75,24.52.72,0,1.6,0,3.22,0,4.81-3.09-.25-6.17-.58-9.26-.82a20.53,20.53,0,0,1,4.5,4,26.65,26.65,0,0,1,4.76,11.71,45.52,45.52,0,0,1-.58,19.06c-1.18,4.63-3.34,9.2-6.92,12.11-5.4,4.2-13,3.73-18.45-.16-5.61-3.87-8.91-10.68-10.56-17.53-2.25-9.91-2-20.26-1-30.33A81.36,81.36,0,0,0,24.84,235.13Zm15.08,22.74a38.82,38.82,0,0,0,4,13.52c2.87,5.49,8.1,9.55,13.88,10.23a13.31,13.31,0,0,0,12-5.47c2.27-3,3.36-6.94,3.92-10.79a37.73,37.73,0,0,0-1-15.4c-1.92-6.74-7.35-12.35-13.84-13.28-6-.9-12.17-.83-18.25-1.25A68.17,68.17,0,0,0,39.92,257.87Z" transform="translate(0 13)"/><path class="cls-2" d="M37.41,386.21a38.88,38.88,0,0,1,.15-9.46,18.45,18.45,0,0,0,2.57-.23,40.09,40.09,0,0,0-.49,9.72,18.39,18.39,0,0,0,5.89,12.25,13.84,13.84,0,0,0,7.55,2.95c7.43.9,14.91.85,22.39,1,0,1.62,0,3.26,0,4.88-12.47-1-25-2.11-37.48-2,.07-1.48.07-3,0-4.46,2.27.17,4.57.38,6.86.52a21.38,21.38,0,0,1-4.42-4.77A24.38,24.38,0,0,1,37.41,386.21Z" transform="translate(0 13)"/><path class="cls-2" d="M39,341.4c-1.8-10.42-2.55-21.19-.92-31.68a18.48,18.48,0,0,1,3-7.77,6.62,6.62,0,0,1,5.59-2.44c4.3.05,8.57.58,12.85,1,5.32.45,10.63.8,15.94.73-.06,1.71,0,3.4,0,5.12-8-1.36-16.17-1.57-24.27-2.25a26.56,26.56,0,0,1,2.5,6c2,7.67,2.66,15.68,4.57,23.37.9,3.6,2,7.28,4.22,10.17a5,5,0,0,0,7.13,1.15c2.57-2.19,3.67-5.8,4.1-9.2a67.77,67.77,0,0,0-1.29-21.86c.94.33,1.89.66,2.85.92a97.91,97.91,0,0,1,.56,22.11,20.25,20.25,0,0,1-3.41,10.35c-1.54,2.16-4.09,3.62-6.64,3.17s-4.65-2.56-6-4.93c-2-3.8-3-8.12-3.92-12.37-1.61-7.23-2.12-14.72-4-21.85-.73-2.72-2.05-5.54-4.43-6.9-1.78-1-4-.05-5.1,1.67-2.38,3.52-2.7,8.07-2.92,12.29A82.69,82.69,0,0,0,42,342.09C41,341.8,40,341.62,39,341.4Z" transform="translate(0 13)"/><path class="cls-2" d="M38,365.37c.07-1.6.07-3.22,0-4.81,12.45,1.29,25,2.25,37.47,2.44-.08,1.64,0,3.26-.06,4.88C63,366.59,50.46,365.86,38,365.37Z" transform="translate(0 13)"/></g><text y="13"></text><ellipse class="cls-2" cx="35.61" cy="222.64" rx="5.71" ry="6.36"/><ellipse class="cls-2" cx="56.56" cy="222.64" rx="5.71" ry="6.36"/><ellipse class="cls-2" cx="76.87" cy="222.64" rx="5.71" ry="6.36"/></svg>