<?xml version="1.0" encoding="utf-8"?>
<!-- Generator: Adobe Illustrator 22.1.0, SVG Export Plug-In . SVG Version: 6.00 Build 0)  -->
<svg version="1.1" id="Capa_1" xmlns="http://www.w3.org/2000/svg" xmlns:xlink="http://www.w3.org/1999/xlink" x="0px" y="0px"
	 viewBox="0 0 1366 768" style="enable-background:new 0 0 1366 768;" xml:space="preserve">
<style type="text/css">
	.st0{fill:#FFFFFF;}
</style>
<polygon points="-3,0 181.7,0 109.1,768 -3,768 "/>
<g id="Layer_1">
	<g>
		<path class="st0" d="M7.8,405.3v-1.5c32.7,0,65.3,0,98,0v1.5C73.1,405.3,40.4,405.3,7.8,405.3z"/>
		<path class="st0" d="M26.5,561c-2.4-2.9-2.9-6.8-3-10.4c0-9.8-0.1-19.6,0-29.4c0.2-4.5,1.2-10,5.7-12.2c5.8-2.8,12.4-1.6,18.6-1.8
			c0,8.6,0,17.1,0,25.7c-2.5,0.1-5-0.3-7.4,0.3c-2.1,0.5-2.6,3.5-1.3,5c1.2,1.1,2.9,1,4.4,1.1c8.8,0,17.5,0,26.3,0
			c1.5-0.1,3.1,0,4.3-1c1.7-1.5,0.9-4.8-1.4-5.2c-3.3-0.6-6.7-0.1-10-0.3c0-8.6,0-17.1,0-25.7c4.3-0.1,8.6,0,12.9,0
			c3.8-0.1,8.1,0.6,10.9,3.6c2.6,2.9,3.2,7,3.4,10.8c0,9.9,0,19.7,0,29.6c-0.2,3.6-0.9,7.6-3.5,10.4c-2.6,2.7-6.6,3.5-10.2,3.5
			c-12.7,0-25.5,0-38.2,0C33.9,564.8,29.3,564.2,26.5,561z"/>
		<g>
			<path class="st0" d="M24,681.8c-0.1-13.2,0-26.4-0.1-39.7c21.8-3.8,43.6-7.6,65.4-11.4c0,8.7,0,17.5,0,26.2
				c-4.7,0.5-9.4,0.9-14.1,1.5c0,2.4,0,4.8,0,7.2c4.7,0.5,9.4,0.9,14.1,1.5c0,8.7,0,17.4,0,26.1h-0.7
				C67.2,689.2,45.6,685.5,24,681.8z M39.1,661.9c7.2,0.9,14.4,1.8,21.6,2.7c0-1.7,0-3.5,0-5.2C53.5,660.2,46.3,661,39.1,661.9z"/>
		</g>
		<g>
			<path class="st0" d="M24,627.8c0-12.9,0-25.7,0-38.6c-0.1-4.7-0.1-9.9,2.7-13.9c2.4-3.4,6.8-4.6,10.7-4.8
				c4.2-0.2,8.7-0.1,12.3,2.4c2.5,1.8,3.9,4.8,4.7,7.7c0.8-3.2,2.7-6.3,5.6-7.9c4-2.2,8.6-2.3,13.1-2.4c5.5,0,10.9,0,16.3,0
				c0,8.6,0,17.2,0,25.8c-7.6,0-15.1,0-22.7,0c-1.4,0-3.2,0.2-3.9,1.6c-0.7,1.5-0.3,3.2-0.4,4.7c9,0,18,0,27,0c0,8.4,0,16.9,0,25.4
				C67.6,627.8,45.8,627.8,24,627.8z M38.9,602.4c3.1,0,6.1,0,9.2,0c-0.1-1.9,0.5-4.5-1.4-5.8c-1.9-0.9-4.3-0.8-6.3-0.1
				C38.3,597.7,39,600.4,38.9,602.4z"/>
		</g>
		<path class="st0" d="M24,501.6c0-8.4,0-16.9,0-25.4c7.4,0,14.8,0,22.1,0c0-2.1,0-4.2,0-6.3c-7.4,0-14.8,0-22.1,0
			c0-8.4,0-16.9,0-25.3c21.8,0,43.6,0,65.4,0c0,8.4,0,16.9,0,25.4c-9.5,0-18.9,0-28.4,0c0,2.1,0,4.2,0,6.3c9.4,0.1,18.9,0,28.3,0
			c0,8.4,0,16.9,0,25.4C67.6,501.6,45.8,501.6,24,501.6z"/>
		<path class="st0" d="M24,438.7c0-8.4,0-16.9,0-25.3c21.8,0,43.6,0,65.4,0c0,8.4,0,16.9,0,25.3C67.6,438.7,45.8,438.7,24,438.7z"/>
		<path class="st0" d="M24.1,395.9c0-14.4,0-28.8,0-43.2c1.1,0.2,2.3,0.3,3.5,0.4c-0.5,9.9-0.4,19.9-0.4,29.8
			c17,0.9,33.9,1.8,50.9,2.7c3.8,0.3,7.6,0.1,11.5,0.1c-0.1,2.1-0.1,4.3,0,6.4c-5.3-0.4-10.6-1-15.9-1.3c-15.5-0.8-31-1.7-46.5-2.5
			c0,2.5,0,5,0,7.6C26.1,395.9,25.1,395.9,24.1,395.9z"/>
		<path class="st0" d="M24.2,296.5c0-2.4,0-4.8,0-7.2c1.6,0.1,3.2,0.2,4.8,0.2c-0.1,2.4-0.1,4.8,0,7.2
			C27.3,296.6,25.8,296.5,24.2,296.5z"/>
		<g>
			<path class="st0" d="M24.2,144.2c0-2,0-3.9,0-5.9c11.2,1,22.5,1.3,33.7,1.9c10.5,0.5,21.1,0.9,31.7,0.9c0,1.9,0,3.8,0,5.6
				c-4-0.3-8-0.7-12-1c2.1,1.4,4.2,2.8,5.8,4.7c3.3,3.8,5.1,8.7,6.1,13.7c1.5,7.3,1.3,15.1-0.7,22.3c-1.5,5.4-4.3,10.7-8.9,14.1
				c-7,4.9-16.8,4.4-23.8-0.2c-7.3-4.5-11.5-12.5-13.6-20.5c-2.9-11.6-2.6-23.7-1.2-35.4C35.5,143.8,29.8,143.9,24.2,144.2z
				 M43.6,170.8c0.8,5.5,2.3,11,5.2,15.8c3.7,6.4,10.5,11.2,17.9,12c5.8,0.6,11.8-1.9,15.5-6.4c2.9-3.6,4.3-8.1,5.1-12.6
				c0.9-6,0.6-12.2-1.3-18c-2.5-7.9-9.5-14.4-17.9-15.5c-7.8-1-15.7-1-23.6-1.5C42.6,153.1,42.4,162.1,43.6,170.8z"/>
		</g>
		<path class="st0" d="M40.4,320.7c-0.4-3.7-0.4-7.4,0.2-11.1c1.1,0,2.2-0.1,3.3-0.3c-0.6,3.8-1.1,7.6-0.6,11.4
			c0.5,5.5,3.2,10.9,7.6,14.3c2.8,2.1,6.3,3.1,9.7,3.5c9.6,1,19.3,1,28.9,1.1c-0.1,1.9-0.1,3.8,0,5.7c-16.1-1.2-32.2-2.5-48.4-2.4
			c0.1-1.7,0.1-3.5,0-5.2c2.9,0.2,5.9,0.4,8.9,0.6c-2.1-1.6-4.2-3.3-5.7-5.6C41.9,329.2,40.9,324.9,40.4,320.7z"/>
		<path class="st0" d="M42.5,268.3c-2.3-12.2-3.3-24.8-1.2-37c0.7-3.2,1.7-6.5,3.8-9.1c1.7-2.1,4.6-2.9,7.2-2.9
			c5.6,0.1,11.1,0.7,16.6,1.2c6.9,0.5,13.7,0.9,20.6,0.9c-0.1,2,0,4,0,6c-10.4-1.6-20.9-1.8-31.4-2.6c1.3,2.2,2.6,4.5,3.2,7
			c2.6,9,3.4,18.3,5.9,27.3c1.2,4.2,2.6,8.5,5.5,11.9c2.2,2.6,6.4,3.4,9.2,1.3c3.3-2.6,4.7-6.8,5.3-10.7c1.1-8.5,0.3-17.2-1.7-25.5
			c1.2,0.4,2.4,0.8,3.7,1.1c1.3,8.5,1.6,17.2,0.7,25.8c-0.4,4.3-1.6,8.7-4.4,12.1c-2,2.5-5.3,4.2-8.6,3.7c-3.3-0.5-6-3-7.7-5.8
			c-2.6-4.4-3.9-9.5-5.1-14.5c-2.1-8.4-2.7-17.2-5.2-25.5c-0.9-3.2-2.7-6.5-5.7-8.1c-2.3-1.2-5.1-0.1-6.6,1.9
			c-3.1,4.1-3.5,9.4-3.8,14.4c-0.4,9.4,0.7,18.9,3.3,28C45,268.8,43.7,268.6,42.5,268.3z"/>
		<path class="st0" d="M41.1,296.3c0.1-1.9,0.1-3.8,0-5.6c16.1,1.5,32.2,2.6,48.4,2.9c-0.1,1.9,0,3.8-0.1,5.7
			C73.4,297.8,57.3,296.9,41.1,296.3z"/>
	</g>
</g>
</svg>
