<?xml version="1.0" encoding="utf-8"?>
<!-- Generator: Adobe Illustrator 22.1.0, SVG Export Plug-In . SVG Version: 6.00 Build 0)  -->
<svg version="1.1" id="Capa_1" xmlns="http://www.w3.org/2000/svg" xmlns:xlink="http://www.w3.org/1999/xlink" x="0px" y="0px"
	 viewBox="0 0 152 745" style="enable-background:new 0 0 152 745;" xml:space="preserve">
<style type="text/css">
	.st0{fill:#FFFFFF;}
</style>
<g id="Layer_1">
	<g>
		<path class="st0" d="M1.1,368.2v-1.9c45,0,90,0,134.9,0v1.9C91,368.2,46,368.2,1.1,368.2z"/>
		<path class="st0" d="M26.9,567.2c-3.3-3.7-3.9-8.7-4.1-13.4c0-12.5-0.1-25,0-37.5c0.3-5.7,1.6-12.7,7.8-15.6
			c8-3.5,17.1-2,25.6-2.3c0,10.9,0,21.9,0,32.8c-3.4,0.1-6.9-0.4-10.3,0.4c-2.9,0.6-3.6,4.5-1.8,6.4c1.6,1.4,4,1.3,6.1,1.4
			c12.1,0,24.1,0,36.2,0c2-0.1,4.3,0,5.9-1.2c2.3-1.9,1.3-6.2-1.9-6.7c-4.5-0.8-9.2-0.2-13.8-0.4c0-10.9,0-21.9,0-32.8
			c5.9-0.1,11.9,0,17.8,0c5.3-0.1,11.2,0.8,15,4.6c3.6,3.8,4.4,9,4.7,13.8c0,12.6,0,25.2,0,37.9c-0.2,4.7-1.2,9.7-4.8,13.3
			c-3.6,3.4-9,4.5-14,4.5c-17.5,0-35.1,0-52.6,0C37,572.1,30.8,571.3,26.9,567.2z"/>
		<g>
			<path class="st0" d="M23.4,721.6c-0.2-16.9,0-33.8-0.1-50.7c30-4.9,60.1-9.7,90.1-14.6c0,11.2,0,22.4,0,33.5
				c-6.5,0.7-13,1.2-19.5,1.9c0,3,0,6.1,0,9.1c6.5,0.6,13,1.2,19.5,1.9c0,11.1,0,22.3,0,33.4h-1C82.9,731.1,53.1,726.4,23.4,721.6z
				 M44.2,696.3c9.9,1.2,19.8,2.3,29.7,3.4c0-2.2,0-4.5,0-6.7C64,694,54.1,695.1,44.2,696.3z"/>
		</g>
		<g>
			<path class="st0" d="M23.4,652.6c0-16.4,0-32.9,0-49.4c-0.1-6-0.1-12.6,3.7-17.8c3.3-4.4,9.3-5.9,14.8-6.1
				c5.8-0.2,12-0.1,16.9,3.1c3.5,2.3,5.3,6.1,6.5,9.8c1.1-4.1,3.7-8,7.7-10.1c5.5-2.8,11.9-3,18-3.1c7.5,0,15,0,22.5,0
				c0,11,0,21.9,0,33c-10.4,0-20.9,0-31.3,0c-1.9,0-4.4,0.2-5.4,2.1c-0.9,1.9-0.4,4.1-0.5,6.1c12.4,0,24.7,0,37.1,0
				c0,10.8,0,21.6,0,32.4C83.4,652.6,53.4,652.6,23.4,652.6z M43.9,620.2c4.2,0,8.4,0,12.7,0c-0.2-2.5,0.7-5.7-1.9-7.4
				c-2.7-1.1-6-1.1-8.7-0.1C43.1,614.2,44.1,617.7,43.9,620.2z"/>
		</g>
		<path class="st0" d="M23.4,491.3c0-10.8,0-21.6,0-32.4c10.2,0,20.3,0,30.5,0c0-2.7,0-5.4,0-8.1c-10.2,0-20.3,0-30.5,0
			c0-10.8,0-21.6,0-32.4c30,0,60.1,0,90.1,0c0,10.8,0,21.6,0,32.4c-13,0-26,0-39.1,0c0,2.7,0,5.4,0,8.1c13,0.1,26,0,39,0
			c0,10.8,0,21.6,0,32.4C83.4,491.3,53.4,491.3,23.4,491.3z"/>
		<path class="st0" d="M23.4,410.9c0-10.8,0-21.6,0-32.4c30,0,60.1,0,90.1,0c0,10.8,0,21.6,0,32.4C83.4,410.9,53.4,410.9,23.4,410.9
			z"/>
		<path class="st0" d="M23.6,356.2c0-18.4,0-36.8,0-55.2c1.6,0.2,3.2,0.4,4.8,0.5c-0.6,12.7-0.6,25.4-0.6,38.1
			c23.4,1.1,46.7,2.3,70.1,3.4c5.3,0.4,10.5,0.1,15.8,0.2c-0.1,2.7-0.1,5.4,0,8.2c-7.3-0.5-14.6-1.3-21.9-1.6
			c-21.3-1.1-42.7-2.1-64-3.2c0,3.2,0,6.5,0,9.7C26.3,356.2,25,356.2,23.6,356.2z"/>
		<path class="st0" d="M23.6,229.1c0-3.1,0-6.2,0-9.3c2.2,0.2,4.4,0.2,6.6,0.3c-0.2,3-0.1,6.1,0,9.2C28,229.3,25.8,229.2,23.6,229.1
			z"/>
		<g>
			<path class="st0" d="M23.6,34.4c0-2.5,0-5,0-7.5c15.4,1.3,31,1.7,46.5,2.4c14.5,0.6,29.1,1.1,43.6,1.1c0,2.4,0,4.8,0,7.2
				c-5.5-0.4-11-0.9-16.5-1.2c2.9,1.8,5.8,3.5,8,6c4.6,4.9,7.1,11.2,8.5,17.5c2,9.4,1.8,19.2-1,28.5c-2.1,6.9-5.9,13.7-12.3,18.1
				c-9.6,6.3-23.2,5.6-32.8-0.2c-10-5.8-15.9-16-18.8-26.2c-4-14.8-3.6-30.3-1.7-45.3C39.2,33.9,31.4,34,23.6,34.4z M50.5,68.4
				c1.1,7,3.1,14,7.1,20.2c5.1,8.2,14.4,14.3,24.7,15.3c8,0.8,16.3-2.4,21.3-8.2c4-4.6,6-10.4,7-16.1c1.2-7.6,0.8-15.6-1.8-23
				c-3.4-10.1-13.1-18.4-24.6-19.8c-10.7-1.3-21.7-1.2-32.5-1.9C49.1,45.8,48.7,57.2,50.5,68.4z"/>
		</g>
		<path class="st0" d="M46,260c-0.5-4.7-0.6-9.5,0.3-14.1c1.5,0,3-0.2,4.6-0.4c-0.8,4.8-1.4,9.7-0.9,14.5c0.7,7,4.4,13.9,10.5,18.3
			c3.8,2.7,8.7,4,13.4,4.4c13.2,1.3,26.5,1.3,39.8,1.4c-0.1,2.4-0.1,4.9,0,7.3c-22.2-1.5-44.4-3.2-66.7-3c0.1-2.2,0.1-4.5,0-6.7
			c4,0.2,8.1,0.6,12.2,0.8c-2.9-2.1-5.8-4.3-7.9-7.1C48,270.9,46.7,265.4,46,260z"/>
		<path class="st0" d="M48.8,193.1c-3.2-15.6-4.5-31.7-1.6-47.3c0.9-4.1,2.4-8.3,5.3-11.6c2.4-2.7,6.3-3.8,9.9-3.6
			c7.7,0.1,15.2,0.9,22.9,1.5c9.5,0.7,18.9,1.2,28.4,1.1c-0.1,2.6,0,5.1,0,7.6c-14.3-2-28.8-2.3-43.2-3.4c1.8,2.8,3.5,5.7,4.5,8.9
			c3.6,11.5,4.7,23.4,8.1,34.9c1.6,5.4,3.5,10.9,7.5,15.2c3,3.4,8.8,4.4,12.7,1.7c4.6-3.3,6.5-8.7,7.3-13.7
			c1.6-10.9,0.4-22-2.3-32.6c1.7,0.5,3.4,1,5.1,1.4c1.8,10.9,2.2,22.1,1,33c-0.6,5.5-2.2,11.1-6.1,15.5c-2.7,3.2-7.3,5.4-11.8,4.7
			c-4.6-0.6-8.3-3.8-10.6-7.4c-3.6-5.7-5.4-12.1-7-18.5c-2.9-10.8-3.8-22-7.2-32.6c-1.3-4.1-3.7-8.3-7.9-10.3
			c-3.2-1.5-7.1-0.1-9.1,2.5c-4.2,5.3-4.8,12.1-5.2,18.4c-0.5,12.1,1,24.2,4.6,35.8C52.4,193.7,50.6,193.4,48.8,193.1z"/>
		<path class="st0" d="M47,228.9c0.1-2.4,0.1-4.8,0-7.2c22.1,1.9,44.4,3.4,66.7,3.6c-0.2,2.5,0,4.9-0.1,7.3
			C91.4,230.7,69.2,229.7,47,228.9z"/>
	</g>
</g>
<circle class="st0" cx="38" cy="14" r="10"/>
<circle class="st0" cx="69.5" cy="14" r="10"/>
<circle class="st0" cx="101" cy="14" r="10"/>
</svg>
