<?xml version="1.0" encoding="utf-8"?>
<!-- Generator: Adobe Illustrator 22.1.0, SVG Export Plug-In . SVG Version: 6.00 Build 0)  -->
<svg version="1.1" xmlns="http://www.w3.org/2000/svg" xmlns:xlink="http://www.w3.org/1999/xlink" x="0px" y="0px"
	 viewBox="0 0 390 2169.2" style="enable-background:new 0 0 390 2169.2;" xml:space="preserve">
<style type="text/css">
	.st0{fill:#FFFFFF;}
</style>
<g id="Calque_3">
	<rect width="390" height="2169.2"/>
</g>
<g id="Layer_1">
	<g>
		<path class="st0" d="M17.6,1088.2v-5.5c118,0,236,0,354,0v5.5C253.6,1088.2,135.6,1088.2,17.6,1088.2z"/>
		<path class="st0" d="M85.4,1655.8c-8.7-10.6-10.3-24.9-10.8-38.1c0.1-35.7-0.2-71.4,0.1-107.1c0.7-16.4,4.2-36.3,20.5-44.5
			c20.9-10.1,44.8-5.8,67.1-6.7c0,31.2,0.1,62.4,0,93.7c-9,0.4-18.1-1-26.9,1.2c-7.7,1.8-9.5,12.7-4.7,18.2c4.2,4,10.5,3.8,15.9,4.1
			c31.7,0,63.3,0,95,0c5.3-0.2,11.2,0,15.6-3.5c6-5.5,3.4-17.6-5.1-19c-11.9-2.2-24.1-0.5-36.2-1.1c-0.1-31.2-0.1-62.5,0-93.7
			c15.6-0.2,31.1,0,46.7-0.1c13.9-0.2,29.4,2.3,39.3,13c9.4,10.7,11.5,25.6,12.2,39.3c0,36,0,72,0,108c-0.6,13.3-3.2,27.7-12.7,37.8
			c-9.4,9.8-23.7,12.8-36.8,12.9c-46,0-92,0.1-138-0.1C112,1669.7,95.5,1667.5,85.4,1655.8z"/>
		<g>
			<path class="st0" d="M76.3,2096.3c-0.5-48.2-0.1-96.4-0.2-144.7c78.8-14,157.6-27.8,236.4-41.7c0,31.9,0.1,63.8,0,95.7
				c-17,1.9-34.1,3.4-51.1,5.4c-0.1,8.7-0.1,17.4,0,26.1c17,1.8,34.1,3.4,51.1,5.3c0.1,31.7,0,63.5,0.1,95.2h-2.5
				C232.2,2123.4,154.2,2110,76.3,2096.3z M130.9,2023.9c26,3.4,52,6.5,78,9.7c0-6.3,0.1-12.7,0-19
				C182.8,2017.6,156.8,2020.6,130.9,2023.9z"/>
		</g>
		<g>
			<path class="st0" d="M76.1,1899.4c-0.1-46.9,0-93.8,0-140.8c-0.3-17.2-0.3-36,9.7-50.8c8.6-12.5,24.5-16.7,38.8-17.5
				c15.1-0.6,31.6-0.2,44.4,8.9c9.2,6.6,14,17.5,17,28c2.9-11.6,9.6-22.8,20.3-28.7c14.3-7.9,31.2-8.5,47.2-8.8c19.7,0,39.3,0,59,0
				c0,31.3,0,62.6,0,94c-27.3,0-54.7,0-82,0c-5.1,0.1-11.5,0.7-14.1,5.9c-2.4,5.4-1,11.6-1.3,17.3c32.5,0.1,64.9,0,97.4,0
				c0.1,30.8,0.1,61.7,0,92.5C233.7,1899.4,154.9,1899.4,76.1,1899.4z M130.1,1806.9c11.1,0,22.1,0.1,33.2,0c-0.4-7,1.9-16.4-5-21
				c-7-3.2-15.7-3-22.9-0.3C127.9,1789.7,130.5,1799.8,130.1,1806.9z"/>
		</g>
		<path class="st0" d="M76.1,1439.4c-0.1-30.8-0.1-61.7,0-92.5c26.7-0.1,53.3,0.1,79.9-0.1c0-7.7,0-15.4,0-23.1
			c-26.7-0.1-53.3,0-80-0.1c0-30.8,0-61.6,0-92.4c78.8,0,157.6,0,236.4,0c0,30.8,0,61.6,0,92.5c-34.2,0.1-68.3-0.1-102.5,0.1
			c0,7.7,0,15.4,0,23.1c34.1,0.3,68.3,0,102.4,0.1c0.1,30.8,0.1,61.7,0,92.5C233.7,1439.4,154.9,1439.4,76.1,1439.4z"/>
		<path class="st0" d="M76.1,1209.9c-0.1-30.8-0.1-61.6,0-92.4c78.8,0,157.6,0,236.4,0c0,30.8,0,61.6,0,92.4
			C233.7,1209.9,154.9,1210,76.1,1209.9z"/>
		<path class="st0" d="M76.6,1053.9c-0.1-52.5,0-105.1,0-157.6c4.1,0.7,8.3,1.2,12.5,1.3c-1.7,36.2-1.5,72.5-1.5,108.8
			c61.3,3.2,122.6,6.5,184,9.8c13.8,1,27.6,0.3,41.4,0.5c-0.3,7.8-0.2,15.5-0.1,23.3c-19.1-1.5-38.2-3.8-57.4-4.6
			c-56-3-112-6.1-168-9.1c0,9.2,0.1,18.4,0,27.6C83.9,1054,80.3,1054,76.6,1053.9z"/>
		<path class="st0" d="M76.8,691.3c0-8.8,0.1-17.6,0-26.4c5.8,0.5,11.5,0.6,17.3,0.9c-0.4,8.7-0.3,17.5,0,26.2
			C88.3,691.8,82.6,691.5,76.8,691.3z"/>
		<g>
			<path class="st0" d="M76.8,135.9c0.1-7.2,0.1-14.3,0-21.5c40.5,3.7,81.2,4.9,121.9,6.8c38.1,1.7,76.3,3.2,114.4,3.1
				c0,6.8,0.1,13.7,0,20.5c-14.4-1.1-28.8-2.5-43.2-3.5c7.5,5.1,15.2,10.1,21,17.2c12.1,14,18.6,31.9,22.2,49.9
				c5.3,26.8,4.6,54.9-2.7,81.2c-5.5,19.7-15.6,39.2-32.3,51.6c-25.2,17.9-60.8,15.9-86.1-0.7c-26.2-16.5-41.6-45.5-49.3-74.7
				c-10.5-42.2-9.5-86.3-4.5-129.2C117.7,134.6,97.2,134.9,76.8,135.9z M147.2,232.8c2.9,20,8.2,40,18.7,57.6
				c13.4,23.4,37.8,40.7,64.8,43.6c21,2.2,42.7-6.9,56-23.3c10.6-13,15.7-29.6,18.3-46c3.1-21.8,2.1-44.5-4.7-65.6
				c-9-28.7-34.3-52.6-64.6-56.6c-28.2-3.8-56.8-3.5-85.2-5.3C143.5,168.5,142.6,201.1,147.2,232.8z"/>
		</g>
		<path class="st0" d="M106.6,80.5c-15.7,0.8-30.1-13-30-28.7c-0.8-13.9,9.7-26.8,23-30h12.9c12.5,2.9,22.5,14.1,23.3,27
			C137.5,65.1,123.1,80.8,106.6,80.5z"/>
		<path class="st0" d="M135.5,779.6c-1.4-13.4-1.5-27,0.7-40.3c4,0,8-0.5,12-1c-2.2,13.7-3.8,27.6-2.3,41.4
			c1.8,20.1,11.6,39.6,27.5,52.2c10,7.8,22.7,11.3,35.2,12.6c34.7,3.8,69.6,3.6,104.5,4.1c-0.2,6.9-0.2,13.9,0,20.8
			c-58.2-4.4-116.5-9-174.9-8.6c0.3-6.3,0.3-12.7,0-19c10.6,0.7,21.3,1.6,32,2.2c-7.5-6-15.2-12.2-20.6-20.3
			C140.8,810.7,137.2,795,135.5,779.6z"/>
		<path class="st0" d="M142.9,588.7c-8.4-44.4-11.9-90.3-4.3-135c2.4-11.8,6.2-23.7,13.9-33.1c6.2-7.6,16.6-10.7,26.1-10.4
			c20.1,0.2,40,2.5,60,4.2c24.8,1.9,49.6,3.4,74.4,3.1c-0.3,7.3-0.1,14.5-0.1,21.8c-37.5-5.8-75.5-6.7-113.3-9.6
			c4.6,8.1,9.3,16.3,11.7,25.4c9.4,32.7,12.4,66.8,21.3,99.6c4.2,15.3,9.3,31,19.7,43.3c7.9,9.6,23.2,12.5,33.3,4.9
			c12-9.3,17.1-24.7,19.1-39.2c4.1-31,1-62.7-6-93.1c4.4,1.4,8.8,2.8,13.3,3.9c4.6,31.1,5.8,62.9,2.6,94.2
			c-1.5,15.7-5.8,31.7-15.9,44.1c-7.2,9.2-19.1,15.4-31,13.5c-12.1-1.8-21.7-10.9-27.8-21c-9.4-16.2-14.1-34.6-18.3-52.7
			c-7.5-30.8-9.9-62.7-18.9-93.1c-3.4-11.6-9.6-23.6-20.7-29.4c-8.3-4.3-18.6-0.2-23.8,7.1c-11.1,15-12.6,34.4-13.6,52.4
			c-1.3,34.4,2.5,69,12.1,102C152.2,590.4,147.5,589.6,142.9,588.7z"/>
		<path class="st0" d="M138.1,690.8c0.3-6.8,0.3-13.7,0-20.5c58.1,5.5,116.5,9.6,174.9,10.4c-0.4,7,0.1,13.9-0.3,20.8
			C254.7,696,196.4,692.9,138.1,690.8z"/>
		<path class="st0" d="M186.8,79.5c-14.1-3.6-23.8-18.5-21.4-32.9c1.5-12,11.1-21.8,22.6-24.9h13.3c16.8,3.7,27.7,23,21.5,39.1
			C218,75.2,201.3,83.8,186.8,79.5z"/>
		<path class="st0" d="M265,74.2c-9.8-7.5-13.9-21.3-9.8-32.9c3.1-9.8,11.7-16.9,21.4-19.6h13.5c8.3,2.4,15.9,7.8,19.7,15.7
			c6.1,11.6,3.2,27.1-6.8,35.7C292.8,82.5,275.8,83,265,74.2z"/>
	</g>
</g>
</svg>
