<svg id="Capa_1" data-name="Capa 1" xmlns="http://www.w3.org/2000/svg" viewBox="0 0 134.94 745.11"><defs><style>.cls-1{fill:#fff;}</style></defs><title>logo_izq_3</title><g id="Layer_1" data-name="Layer 1"><path class="cls-1" d="M1.06,381.23V379.3H136v1.93Z" transform="translate(-1.06 -4)"/><path class="cls-1" d="M26.91,580.21c-3.32-3.71-3.93-8.73-4.12-13.35,0-12.52-.08-25,0-37.55.26-5.75,1.6-12.73,7.81-15.6,8-3.54,17.08-2,25.58-2.35,0,10.94,0,21.88,0,32.85-3.43.14-6.9-.35-10.26.42-2.93.63-3.62,4.45-1.79,6.38,1.6,1.4,4,1.33,6.06,1.44H86.45c2-.07,4.27,0,5.94-1.23a3.88,3.88,0,0,0-1.94-6.66c-4.54-.77-9.19-.18-13.8-.39,0-10.93,0-21.91,0-32.84,5.95-.07,11.85,0,17.8,0,5.3-.07,11.21.81,15,4.56,3.58,3.75,4.38,9,4.65,13.78v37.86c-.23,4.66-1.22,9.71-4.84,13.25s-9,4.48-14,4.52c-17.53,0-35.07,0-52.6,0C37,585.08,30.76,584.31,26.91,580.21Z" transform="translate(-1.06 -4)"/><path class="cls-1" d="M23.44,734.64c-.19-16.9,0-33.8-.08-50.73q45.06-7.36,90.11-14.62c0,11.18,0,22.37,0,33.55-6.48.67-13,1.19-19.48,1.89q0,4.57,0,9.15c6.48.63,13,1.19,19.48,1.86,0,11.11,0,22.26,0,33.37h-1C82.86,744.14,53.13,739.44,23.44,734.64Zm20.81-25.38c9.91,1.19,19.82,2.27,29.73,3.4,0-2.21,0-4.46,0-6.67C64,707.05,54.12,708.1,44.25,709.26Z" transform="translate(-1.06 -4)"/><path class="cls-1" d="M23.36,665.61c0-16.44,0-32.88,0-49.36-.11-6-.11-12.62,3.7-17.81,3.28-4.38,9.34-5.85,14.79-6.13,5.75-.21,12-.07,16.92,3.12,3.51,2.31,5.34,6.13,6.48,9.81A15.72,15.72,0,0,1,73,595.18c5.45-2.77,11.89-3,18-3.08h22.49v32.95H82.21c-1.94,0-4.38.24-5.37,2.07s-.38,4.06-.5,6.06c12.39,0,24.74,0,37.13,0,0,10.8,0,21.63,0,32.43Zm20.58-32.43c4.24,0,8.43,0,12.66,0-.15-2.45.72-5.75-1.91-7.36a12.66,12.66,0,0,0-8.73-.1C43.11,627.15,44.1,630.69,43.94,633.18Z" transform="translate(-1.06 -4)"/><path class="cls-1" d="M23.36,504.35c0-10.8,0-21.63,0-32.43,10.18,0,20.32,0,30.46,0v-8.1c-10.18,0-20.32,0-30.5,0V431.36h90.11v32.43c-13,0-26,0-39.07,0v8.1c13,.11,26,0,39,0,0,10.79,0,21.63,0,32.42Q68.45,504.34,23.36,504.35Z" transform="translate(-1.06 -4)"/><path class="cls-1" d="M23.36,423.89q-.06-16.18,0-32.39h90.11v32.39Q68.41,423.89,23.36,423.89Z" transform="translate(-1.06 -4)"/><path class="cls-1" d="M23.55,369.21c0-18.41,0-36.85,0-55.25a35.83,35.83,0,0,0,4.77.45c-.65,12.69-.58,25.42-.58,38.14Q62.8,354.25,97.88,356c5.26.35,10.52.11,15.78.18-.11,2.73-.07,5.43,0,8.16-7.28-.52-14.56-1.33-21.88-1.61q-32-1.58-64-3.19c0,3.23,0,6.45,0,9.68C26.33,369.24,25,369.24,23.55,369.21Z" transform="translate(-1.06 -4)"/><path class="cls-1" d="M23.63,242.09c0-3.08,0-6.17,0-9.25,2.21.17,4.38.21,6.59.31-.15,3-.11,6.14,0,9.19C28,242.27,25.84,242.16,23.63,242.09Z" transform="translate(-1.06 -4)"/><path class="cls-1" d="M23.63,47.39c0-2.53,0-5,0-7.54,15.44,1.3,31,1.72,46.46,2.38,14.53.6,29.09,1.13,43.61,1.09,0,2.38,0,4.8,0,7.19-5.49-.39-11-.88-16.47-1.23,2.86,1.79,5.8,3.54,8,6,4.61,4.91,7.09,11.18,8.46,17.49a57.22,57.22,0,0,1-1,28.47c-2.1,6.91-6,13.74-12.31,18.09-9.61,6.27-23.18,5.57-32.82-.25-10-5.78-15.86-16-18.79-26.18-4-14.8-3.62-30.26-1.72-45.3A174.12,174.12,0,0,0,23.63,47.39Zm26.83,34c1.11,7,3.13,14,7.13,20.19a33.46,33.46,0,0,0,24.7,15.28,25.69,25.69,0,0,0,21.35-8.16c4-4.56,6-10.38,7-16.13a47.67,47.67,0,0,0-1.79-23A30.36,30.36,0,0,0,84.2,49.7c-10.75-1.33-21.65-1.23-32.48-1.86A85.64,85.64,0,0,0,50.46,81.36Z" transform="translate(-1.06 -4)"/><path class="cls-1" d="M46,273.05a48.83,48.83,0,0,1,.27-14.13,41.34,41.34,0,0,0,4.57-.35A50.22,50.22,0,0,0,50,273.08a25.92,25.92,0,0,0,10.48,18.3c3.81,2.74,8.65,4,13.42,4.42,13.22,1.33,26.53,1.26,39.83,1.44-.08,2.41-.08,4.87,0,7.29-22.18-1.55-44.41-3.16-66.67-3a61.65,61.65,0,0,0,0-6.66c4,.25,8.12.56,12.2.77-2.86-2.1-5.79-4.27-7.85-7.11C48,284,46.65,278.44,46,273.05Z" transform="translate(-1.06 -4)"/><path class="cls-1" d="M48.82,206.12c-3.2-15.56-4.53-31.65-1.64-47.32.92-4.14,2.37-8.31,5.3-11.61,2.37-2.66,6.33-3.75,10-3.64,7.66.07,15.25.87,22.87,1.47,9.46.67,18.91,1.19,28.36,1.09-.11,2.56,0,5.08,0,7.64-14.29-2-28.77-2.35-43.18-3.37a37,37,0,0,1,4.46,8.91c3.58,11.46,4.72,23.42,8.12,34.91,1.6,5.37,3.54,10.87,7.5,15.18,3,3.37,8.85,4.39,12.7,1.72,4.57-3.26,6.52-8.66,7.28-13.74,1.56-10.87.38-22-2.29-32.64,1.68.49,3.36,1,5.07,1.37a123,123,0,0,1,1,33c-.57,5.51-2.21,11.11-6.06,15.46a13.4,13.4,0,0,1-11.82,4.73c-4.61-.63-8.27-3.82-10.59-7.36-3.59-5.68-5.38-12.13-7-18.47-2.86-10.8-3.77-22-7.2-32.64-1.3-4.07-3.66-8.27-7.89-10.31-3.17-1.5-7.09-.07-9.07,2.49-4.24,5.26-4.81,12.06-5.19,18.37a104.49,104.49,0,0,0,4.61,35.76C52.37,206.72,50.58,206.44,48.82,206.12Z" transform="translate(-1.06 -4)"/><path class="cls-1" d="M47,241.92a71.85,71.85,0,0,0,0-7.19c22.15,1.93,44.41,3.36,66.67,3.65-.15,2.45,0,4.87-.11,7.29C91.44,243.74,69.22,242.65,47,241.92Z" transform="translate(-1.06 -4)"/></g><circle class="cls-1" cx="36.94" cy="10" r="10"/><circle class="cls-1" cx="68.44" cy="10" r="10"/><circle class="cls-1" cx="99.94" cy="10" r="10"/></svg>