<?xml version="1.0" encoding="utf-8"?>
<!-- Generator: Adobe Illustrator 22.1.0, SVG Export Plug-In . SVG Version: 6.00 Build 0)  -->
<svg version="1.1" id="Capa_1" xmlns="http://www.w3.org/2000/svg" xmlns:xlink="http://www.w3.org/1999/xlink" x="0px" y="0px"
	 viewBox="0 0 1366 768" style="enable-background:new 0 0 1366 768;" xml:space="preserve">
<style type="text/css">
	.st0{fill:#FFFFFF;}
</style>
<polygon points="-3,0 181.7,0 109.1,768 -3,768 "/>
<g id="Layer_1">
	<g>
		<path class="st0" d="M19.2,470.6v-1.3c25.3,0,50.6,0,75.8,0v1.3C69.7,470.6,44.4,470.6,19.2,470.6z"/>
		<path class="st0" d="M33.7,603.9c-1.9-2.5-2.2-5.8-2.3-8.9c0-8.4,0-16.8,0-25.1c0.1-3.8,0.9-8.5,4.4-10.4
			c4.5-2.4,9.6-1.4,14.4-1.6c0,7.3,0,14.6,0,22c-1.9,0.1-3.9-0.2-5.8,0.3c-1.6,0.4-2,3-1,4.3c0.9,0.9,2.2,0.9,3.4,1
			c6.8,0,13.6,0,20.4,0c1.1,0,2.4,0,3.3-0.8c1.3-1.3,0.7-4.1-1.1-4.5c-2.5-0.5-5.2-0.1-7.8-0.3c0-7.3,0-14.7,0-22c3.3,0,6.7,0,10,0
			c3,0,6.3,0.5,8.4,3.1c2,2.5,2.5,6,2.6,9.2c0,8.4,0,16.9,0,25.3c-0.1,3.1-0.7,6.5-2.7,8.9c-2,2.3-5.1,3-7.9,3c-9.9,0-19.7,0-29.6,0
			C39.4,607.1,35.8,606.6,33.7,603.9z"/>
		<g>
			<path class="st0" d="M31.7,707.3c-0.1-11.3,0-22.6,0-34c16.9-3.3,33.8-6.5,50.7-9.8c0,7.5,0,15,0,22.5c-3.6,0.4-7.3,0.8-10.9,1.3
				c0,2,0,4.1,0,6.1c3.6,0.4,7.3,0.8,10.9,1.2c0,7.4,0,14.9,0,22.3h-0.5C65.1,713.6,48.4,710.5,31.7,707.3z M43.4,690.3
				c5.6,0.8,11.1,1.5,16.7,2.3c0-1.5,0-3,0-4.5C54.5,688.8,49,689.5,43.4,690.3z"/>
		</g>
		<g>
			<path class="st0" d="M31.7,661c0-11,0-22,0-33c-0.1-4-0.1-8.4,2.1-11.9c1.8-2.9,5.2-3.9,8.3-4.1c3.2-0.1,6.8,0,9.5,2.1
				c2,1.5,3,4.1,3.6,6.6c0.6-2.7,2.1-5.4,4.3-6.7c3.1-1.9,6.7-2,10.1-2.1c4.2,0,8.4,0,12.6,0c0,7.3,0,14.7,0,22.1
				c-5.8,0-11.7,0-17.6,0c-1.1,0-2.5,0.2-3,1.4c-0.5,1.3-0.2,2.7-0.3,4.1c7,0,13.9,0,20.9,0c0,7.2,0,14.5,0,21.7
				C65.5,661,48.6,661,31.7,661z M43.3,639.3c2.4,0,4.7,0,7.1,0c-0.1-1.6,0.4-3.8-1.1-4.9c-1.5-0.8-3.4-0.7-4.9-0.1
				C42.8,635.3,43.3,637.7,43.3,639.3z"/>
		</g>
		<path class="st0" d="M31.7,553.1c0-7.2,0-14.5,0-21.7c5.7,0,11.4,0,17.1,0c0-1.8,0-3.6,0-5.4c-5.7,0-11.4,0-17.1,0
			c0-7.2,0-14.5,0-21.7c16.9,0,33.8,0,50.7,0c0,7.2,0,14.5,0,21.7c-7.3,0-14.6,0-22,0c0,1.8,0,3.6,0,5.4c7.3,0.1,14.6,0,21.9,0
			c0,7.2,0,14.5,0,21.7C65.5,553.1,48.6,553.1,31.7,553.1z"/>
		<path class="st0" d="M31.7,499.2c0-7.2,0-14.5,0-21.7c16.9,0,33.8,0,50.7,0c0,7.2,0,14.5,0,21.7C65.5,499.2,48.6,499.2,31.7,499.2
			z"/>
		<path class="st0" d="M31.8,462.6c0-12.3,0-24.7,0-37c0.9,0.2,1.8,0.3,2.7,0.3c-0.4,8.5-0.3,17-0.3,25.5
			c13.1,0.8,26.3,1.5,39.4,2.3c3,0.2,5.9,0.1,8.9,0.1c-0.1,1.8,0,3.6,0,5.5c-4.1-0.4-8.2-0.9-12.3-1.1c-12-0.7-24-1.4-36-2.1
			c0,2.2,0,4.3,0,6.5C33.4,462.6,32.6,462.6,31.8,462.6z"/>
		<path class="st0" d="M31.8,377.5c0-2.1,0-4.1,0-6.2c1.2,0.1,2.5,0.1,3.7,0.2c-0.1,2-0.1,4.1,0,6.1
			C34.3,377.6,33.1,377.5,31.8,377.5z"/>
		<g>
			<path class="st0" d="M31.8,247.1c0-1.7,0-3.4,0-5c8.7,0.9,17.4,1.2,26.1,1.6c8.2,0.4,16.3,0.8,24.5,0.7c0,1.6,0,3.2,0,4.8
				c-3.1-0.3-6.2-0.6-9.3-0.8c1.6,1.2,3.3,2.4,4.5,4c2.6,3.3,4,7.5,4.8,11.7c1.1,6.3,1,12.9-0.6,19.1c-1.2,4.6-3.3,9.2-6.9,12.1
				c-5.4,4.2-13,3.7-18.4-0.2c-5.6-3.9-8.9-10.7-10.6-17.5c-2.2-9.9-2-20.3-1-30.3C40.6,246.8,36.2,246.9,31.8,247.1z M46.9,269.9
				c0.6,4.7,1.8,9.4,4,13.5c2.9,5.5,8.1,9.6,13.9,10.2c4.5,0.5,9.1-1.6,12-5.5c2.3-3.1,3.4-6.9,3.9-10.8c0.7-5.1,0.4-10.4-1-15.4
				c-1.9-6.7-7.3-12.3-13.8-13.3c-6-0.9-12.2-0.8-18.3-1.2C46.1,254.8,45.9,262.4,46.9,269.9z"/>
		</g>
		<path class="st0" d="M44.4,398.2c-0.3-3.1-0.3-6.3,0.1-9.5c0.9,0,1.7-0.1,2.6-0.2c-0.5,3.2-0.8,6.5-0.5,9.7
			c0.4,4.7,2.5,9.3,5.9,12.3c2.1,1.8,4.9,2.7,7.5,3c7.4,0.9,14.9,0.8,22.4,1c0,1.6,0,3.3,0,4.9c-12.5-1-25-2.1-37.5-2
			c0.1-1.5,0.1-3,0-4.5c2.3,0.2,4.6,0.4,6.9,0.5c-1.6-1.4-3.3-2.9-4.4-4.8C45.5,405.5,44.8,401.8,44.4,398.2z"/>
		<path class="st0" d="M46,353.4c-1.8-10.4-2.5-21.2-0.9-31.7c0.5-2.8,1.3-5.6,3-7.8c1.3-1.8,3.6-2.5,5.6-2.4c4.3,0,8.6,0.6,12.9,1
			c5.3,0.4,10.6,0.8,15.9,0.7c-0.1,1.7,0,3.4,0,5.1c-8-1.4-16.2-1.6-24.3-2.3c1,1.9,2,3.8,2.5,6c2,7.7,2.7,15.7,4.6,23.4
			c0.9,3.6,2,7.3,4.2,10.2c1.7,2.3,5,2.9,7.1,1.2c2.6-2.2,3.7-5.8,4.1-9.2c0.9-7.3,0.2-14.7-1.3-21.9c0.9,0.3,1.9,0.7,2.8,0.9
			c1,7.3,1.2,14.8,0.6,22.1c-0.3,3.7-1.2,7.4-3.4,10.4c-1.5,2.2-4.1,3.6-6.6,3.2c-2.6-0.4-4.6-2.6-6-4.9c-2-3.8-3-8.1-3.9-12.4
			c-1.6-7.2-2.1-14.7-4-21.9c-0.7-2.7-2.1-5.5-4.4-6.9c-1.8-1-4,0-5.1,1.7c-2.4,3.5-2.7,8.1-2.9,12.3c-0.3,8.1,0.5,16.2,2.6,23.9
			C48,353.8,47,353.6,46,353.4z"/>
		<path class="st0" d="M45,377.4c0.1-1.6,0.1-3.2,0-4.8c12.4,1.3,25,2.3,37.5,2.4c-0.1,1.6,0,3.3-0.1,4.9
			C70,378.6,57.5,377.9,45,377.4z"/>
	</g>
</g>
</svg>
