<?xml version="1.0" encoding="UTF-8" ?>
<!DOCTYPE svg PUBLIC "-//W3C//DTD SVG 1.1//EN" "http://www.w3.org/Graphics/SVG/1.1/DTD/svg11.dtd">
<svg width="1245pt" height="1245pt" viewBox="0 0 1245 1245" version="1.1" xmlns="http://www.w3.org/2000/svg">
<g id="#000000ff">
<path fill="#000000" opacity="1.00" d=" M 0.00 0.00 L 1245.00 0.00 L 1245.00 1245.00 L 0.00 1245.00 L 0.00 0.00 M 5.21 5.21 C 4.99 414.13 5.21 823.07 5.10 1232.00 C 5.08 1234.90 4.99 1237.84 5.62 1240.71 C 6.22 1173.83 5.71 1106.90 5.88 1040.00 C 5.92 695.31 5.81 350.62 5.93 5.93 C 413.95 5.81 821.98 5.91 1230.00 5.88 C 1233.56 5.86 1237.15 6.04 1240.71 5.63 C 1235.20 4.60 1229.56 5.32 1224.00 5.12 C 817.74 5.17 411.47 5.01 5.21 5.21 M 591.26 325.30 C 581.83 337.01 581.01 352.68 579.96 366.99 C 580.02 411.00 580.03 455.00 579.96 499.00 C 580.44 513.48 582.87 529.56 594.28 539.75 C 605.24 548.06 619.39 551.51 633.00 551.01 C 670.01 551.00 707.02 550.98 744.03 551.02 C 756.64 550.06 769.99 547.42 779.70 538.70 C 788.05 530.42 790.89 518.37 791.99 507.04 C 792.02 488.69 791.98 470.35 792.00 452.00 C 760.67 452.00 729.33 452.00 698.00 452.00 C 697.99 460.67 698.00 469.35 698.02 478.03 C 697.65 484.37 697.03 491.44 691.83 495.85 C 688.39 496.76 684.49 497.95 681.27 495.74 C 675.78 493.70 675.15 487.05 674.97 482.02 C 675.18 446.75 674.70 411.45 675.20 376.19 C 675.00 367.75 684.38 362.42 691.72 366.18 C 693.08 367.56 694.44 368.93 695.84 370.28 C 698.58 379.63 698.01 389.38 698.00 399.00 C 729.33 399.00 760.67 399.00 792.00 399.00 C 791.93 385.00 792.12 370.99 791.93 356.99 C 790.42 343.04 786.99 326.79 773.97 319.04 C 762.15 312.59 748.32 310.63 735.00 311.00 C 698.66 311.04 662.32 310.91 625.98 311.07 C 613.62 312.80 599.64 315.03 591.26 325.30 M 154.15 312.00 C 153.84 318.76 152.05 325.33 150.99 332.00 C 138.34 404.67 125.22 477.27 112.80 549.98 C 144.80 550.02 176.80 549.99 208.79 550.00 C 210.87 533.04 212.59 516.01 214.10 499.00 C 222.70 499.00 231.30 499.00 239.90 499.00 C 241.48 516.01 242.98 533.04 245.20 550.00 C 277.18 550.00 309.16 550.01 341.14 549.99 C 341.01 548.12 340.93 546.25 340.60 544.40 C 327.06 466.92 313.22 389.49 299.79 312.00 C 251.25 312.00 202.70 312.00 154.15 312.00 M 351.00 312.00 C 351.00 391.33 351.00 470.67 351.00 550.00 C 382.00 550.00 413.00 550.00 444.00 550.00 C 444.00 517.34 444.00 484.67 444.00 452.01 C 450.43 452.25 457.64 450.72 463.25 454.75 C 465.99 457.30 466.94 461.34 467.02 464.97 C 466.97 493.31 467.01 521.66 467.00 550.00 C 498.67 550.00 530.33 550.00 562.00 550.00 C 562.02 528.33 561.96 506.66 562.04 484.99 C 560.77 469.36 560.18 452.58 550.76 439.26 C 545.10 430.35 534.94 426.03 525.46 422.43 C 534.33 420.80 542.55 416.22 549.13 410.14 C 559.74 398.57 561.86 382.06 561.00 367.00 C 561.80 350.19 557.43 330.30 541.96 321.06 C 530.01 313.55 515.60 313.06 502.01 311.96 C 451.67 312.05 401.34 311.98 351.00 312.00 M 811.00 312.00 C 811.00 391.33 811.00 470.67 811.00 550.00 C 842.00 550.00 873.00 550.00 904.00 550.00 C 904.00 515.67 904.00 481.33 904.00 447.00 C 911.66 447.00 919.33 447.00 927.00 447.00 C 927.00 481.33 927.00 515.67 927.00 550.00 C 958.00 550.00 989.00 550.00 1020.00 550.00 C 1020.00 470.67 1020.00 391.33 1020.00 312.00 C 989.00 312.00 958.00 312.00 927.00 312.00 C 927.00 338.67 927.00 365.33 927.00 392.00 C 919.33 392.00 911.66 392.00 904.00 392.00 C 904.00 365.33 904.00 338.67 904.00 312.00 C 873.00 312.00 842.00 312.00 811.00 312.00 M 1041.00 312.00 C 1041.00 391.33 1041.00 470.67 1041.00 550.00 C 1072.00 550.00 1103.00 550.00 1134.00 550.00 C 1134.00 470.67 1134.00 391.33 1134.00 312.00 C 1103.00 312.00 1072.00 312.00 1041.00 312.00 M 52.99 608.00 C 53.00 609.92 53.01 611.85 53.03 613.78 C 432.99 613.82 812.95 613.58 1192.91 613.90 C 1192.82 611.93 1192.76 609.97 1192.72 608.01 C 812.81 607.99 432.90 608.01 52.99 608.00 M 113.26 672.16 C 113.40 676.09 112.71 679.97 111.97 683.83 C 148.70 683.34 185.43 682.18 222.20 682.82 C 216.71 750.44 215.58 818.38 207.94 885.86 C 215.93 885.77 223.92 885.76 231.91 885.87 C 231.02 858.50 234.06 831.34 235.13 804.06 C 238.04 763.66 239.45 723.03 242.86 682.75 C 279.20 682.66 315.56 682.56 351.84 683.94 C 351.53 679.98 351.85 676.01 353.09 672.22 C 273.15 672.26 193.20 672.39 113.26 672.16 M 558.24 672.17 C 557.20 677.70 557.15 683.32 557.13 688.93 C 566.06 688.00 574.92 687.91 583.85 688.97 C 583.51 683.31 584.53 677.74 585.05 672.14 C 576.11 672.25 567.18 672.19 558.24 672.17 M 1115.00 672.00 C 1114.57 690.59 1116.01 709.29 1113.98 727.78 C 1093.12 725.16 1072.07 724.09 1051.01 723.98 C 1010.87 725.67 968.06 729.57 933.79 752.79 C 915.70 764.01 901.90 782.46 897.43 803.39 C 892.16 825.97 901.10 851.34 920.11 864.88 C 941.95 881.25 969.90 886.89 996.59 888.42 C 1007.35 890.24 1018.16 888.04 1028.93 887.83 C 1051.73 884.78 1075.61 879.77 1093.87 864.87 C 1100.17 860.65 1104.28 854.17 1109.04 848.45 C 1108.41 860.99 1106.10 873.43 1105.99 886.00 C 1112.99 886.00 1119.99 886.00 1127.00 886.00 C 1127.07 874.66 1126.87 863.32 1127.07 851.98 C 1129.36 840.44 1126.64 828.55 1128.93 817.01 C 1128.94 796.75 1130.86 776.63 1131.43 756.41 C 1132.91 728.26 1133.93 700.06 1137.21 672.02 C 1129.80 671.98 1122.40 672.01 1115.00 672.00 M 422.47 739.53 C 416.03 743.50 411.62 749.81 405.81 754.55 C 406.07 745.34 406.36 736.00 408.12 726.95 C 401.60 728.64 394.55 728.41 387.95 727.29 C 388.81 743.56 387.29 759.74 387.16 775.98 C 384.73 812.62 382.92 849.34 378.93 885.86 C 386.26 885.79 393.60 885.71 400.92 885.92 C 400.60 853.40 401.07 820.81 405.44 788.57 C 407.18 772.83 415.90 757.84 429.56 749.55 C 452.93 732.43 483.51 732.90 510.88 737.03 C 510.94 732.98 510.93 728.84 509.15 725.11 C 500.73 725.54 492.44 723.50 483.99 724.18 C 462.97 725.66 440.45 727.32 422.47 739.53 M 660.18 732.15 C 659.93 736.61 658.31 740.83 657.74 745.24 C 691.13 736.71 725.60 733.21 760.00 733.96 C 776.21 735.40 793.42 735.78 808.01 743.97 C 815.04 747.00 822.16 753.70 821.06 762.03 C 820.78 767.99 815.64 771.91 811.69 775.72 C 800.33 784.63 785.59 786.73 771.93 789.94 C 734.56 796.68 696.35 800.24 660.13 812.16 C 646.37 817.12 631.48 823.83 624.69 837.68 C 619.47 850.06 624.68 864.94 635.68 872.32 C 654.71 886.68 679.68 887.23 702.40 888.57 C 726.90 890.06 751.34 887.32 775.71 884.92 C 776.90 880.46 778.42 876.10 779.99 871.77 C 749.38 877.98 717.88 881.42 686.77 877.35 C 672.56 875.56 657.30 871.60 647.37 860.62 C 639.85 852.22 642.64 838.67 650.96 831.96 C 658.55 825.91 667.57 821.97 676.61 818.62 C 709.65 808.12 744.33 804.86 778.23 798.26 C 792.77 795.27 807.33 791.54 820.20 783.86 C 816.59 817.86 816.70 852.27 809.81 885.98 C 817.54 886.02 825.27 885.99 833.00 886.00 C 833.36 874.01 832.10 861.92 833.99 850.04 C 834.27 819.60 840.98 789.49 839.99 758.97 C 839.11 750.71 834.57 742.88 827.21 738.77 C 805.24 725.44 778.69 725.94 754.01 723.96 C 722.56 723.83 691.15 726.34 660.18 732.15 M 557.99 727.34 C 558.30 743.58 556.52 759.75 556.16 775.98 C 553.28 812.64 552.10 849.54 547.22 886.01 C 554.44 885.60 561.68 885.83 568.91 885.87 C 569.55 832.87 574.33 780.07 579.09 727.27 C 572.19 728.49 564.91 728.39 557.99 727.34 M 528.41 1124.51 C 513.88 1126.62 502.37 1141.37 504.11 1156.04 C 503.93 1171.52 518.57 1185.12 534.00 1183.90 C 545.28 1184.77 555.53 1177.33 560.86 1167.89 C 566.10 1156.69 564.68 1142.16 555.70 1133.29 C 548.96 1125.77 538.22 1122.88 528.41 1124.51 M 617.41 1124.53 C 605.75 1126.23 595.82 1135.69 593.33 1147.17 C 592.64 1154.41 592.32 1162.24 596.39 1168.64 C 601.40 1179.70 614.38 1185.15 626.04 1183.86 C 644.33 1183.18 657.32 1162.38 651.52 1145.39 C 647.95 1130.79 631.84 1121.76 617.41 1124.53 M 706.41 1124.53 C 689.79 1126.22 678.47 1144.23 682.04 1160.02 C 683.15 1168.65 689.00 1176.33 696.70 1180.24 C 712.60 1190.00 736.94 1180.50 740.64 1161.80 C 742.91 1153.79 741.16 1145.06 736.97 1138.00 C 731.13 1127.44 717.98 1122.67 706.41 1124.53 Z" />
<path fill="#000000" opacity="1.00" d=" M 444.00 367.01 C 449.78 367.28 455.95 365.96 461.36 368.64 C 465.12 370.08 466.35 374.44 466.92 378.04 C 467.01 384.35 468.13 391.66 463.57 396.78 C 457.65 400.30 450.65 400.25 444.00 399.99 C 444.00 389.00 444.00 378.00 444.00 367.01 Z" />
<path fill="#000000" opacity="1.00" d=" M 226.07 375.22 C 226.54 374.86 227.50 374.12 227.97 373.75 C 229.97 397.53 233.08 421.30 236.20 444.97 C 230.07 445.02 223.94 445.01 217.81 444.98 C 220.68 421.75 223.97 398.52 226.07 375.22 Z" />
<path fill="#000000" opacity="1.00" d=" M 992.19 741.21 C 1031.79 731.90 1073.09 731.91 1113.00 739.20 C 1113.23 751.71 1111.80 764.11 1111.57 776.59 C 1110.16 799.88 1110.96 825.99 1095.02 845.03 C 1070.65 875.01 1028.46 881.99 992.03 878.05 C 970.53 876.27 948.29 869.89 932.32 854.68 C 924.73 845.99 918.26 835.72 917.07 824.00 C 913.83 805.51 922.98 787.40 934.30 773.32 C 949.40 756.57 970.62 746.67 992.19 741.21 Z" />
</g>
<g id="#ffffffff">
<path fill="#ffffff" opacity="1.00" d=" M 5.21 5.21 C 411.47 5.01 817.74 5.17 1224.00 5.12 C 1229.56 5.32 1235.20 4.60 1240.71 5.63 C 1237.15 6.04 1233.56 5.86 1230.00 5.88 C 821.98 5.91 413.95 5.81 5.93 5.93 C 5.81 350.62 5.92 695.31 5.88 1040.00 C 5.71 1106.90 6.22 1173.83 5.62 1240.71 C 4.99 1237.84 5.08 1234.90 5.10 1232.00 C 5.21 823.07 4.99 414.13 5.21 5.21 Z" />
<path fill="#ffffff" opacity="1.00" d=" M 591.26 325.30 C 599.64 315.03 613.62 312.80 625.98 311.07 C 662.32 310.91 698.66 311.04 735.00 311.00 C 748.32 310.63 762.15 312.59 773.97 319.04 C 786.99 326.79 790.42 343.04 791.93 356.99 C 792.12 370.99 791.93 385.00 792.00 399.00 C 760.67 399.00 729.33 399.00 698.00 399.00 C 698.01 389.38 698.58 379.63 695.84 370.28 C 694.44 368.93 693.08 367.56 691.72 366.18 C 684.38 362.42 675.00 367.75 675.20 376.19 C 674.70 411.45 675.18 446.75 674.97 482.02 C 675.15 487.05 675.78 493.70 681.27 495.74 C 684.49 497.95 688.39 496.76 691.83 495.85 C 697.03 491.44 697.65 484.37 698.02 478.03 C 698.00 469.35 697.99 460.67 698.00 452.00 C 729.33 452.00 760.67 452.00 792.00 452.00 C 791.98 470.35 792.02 488.69 791.99 507.04 C 790.89 518.37 788.05 530.42 779.70 538.70 C 769.99 547.42 756.64 550.06 744.03 551.02 C 707.02 550.98 670.01 551.00 633.00 551.01 C 619.39 551.51 605.24 548.06 594.28 539.75 C 582.87 529.56 580.44 513.48 579.96 499.00 C 580.03 455.00 580.02 411.00 579.96 366.99 C 581.01 352.68 581.83 337.01 591.26 325.30 Z" />
<path fill="#ffffff" opacity="1.00" d=" M 154.15 312.00 C 202.70 312.00 251.25 312.00 299.79 312.00 C 313.22 389.49 327.06 466.92 340.60 544.40 C 340.93 546.25 341.01 548.12 341.14 549.99 C 309.16 550.01 277.18 550.00 245.20 550.00 C 242.98 533.04 241.48 516.01 239.90 499.00 C 231.30 499.00 222.70 499.00 214.10 499.00 C 212.59 516.01 210.87 533.04 208.79 550.00 C 176.80 549.99 144.80 550.02 112.80 549.98 C 125.22 477.27 138.34 404.67 150.99 332.00 C 152.05 325.33 153.84 318.76 154.15 312.00 M 226.07 375.22 C 223.97 398.52 220.68 421.75 217.81 444.98 C 223.94 445.01 230.07 445.02 236.20 444.97 C 233.08 421.30 229.97 397.53 227.97 373.75 C 227.50 374.12 226.54 374.86 226.07 375.22 Z" />
<path fill="#ffffff" opacity="1.00" d=" M 351.00 312.00 C 401.34 311.98 451.67 312.05 502.01 311.96 C 515.60 313.06 530.01 313.55 541.96 321.06 C 557.43 330.30 561.80 350.19 561.00 367.00 C 561.86 382.06 559.74 398.57 549.13 410.14 C 542.55 416.22 534.33 420.80 525.46 422.43 C 534.94 426.03 545.10 430.35 550.76 439.26 C 560.18 452.58 560.77 469.36 562.04 484.99 C 561.96 506.66 562.02 528.33 562.00 550.00 C 530.33 550.00 498.67 550.00 467.00 550.00 C 467.01 521.66 466.97 493.31 467.02 464.97 C 466.94 461.34 465.99 457.30 463.25 454.75 C 457.64 450.72 450.43 452.25 444.00 452.01 C 444.00 484.67 444.00 517.34 444.00 550.00 C 413.00 550.00 382.00 550.00 351.00 550.00 C 351.00 470.67 351.00 391.33 351.00 312.00 M 444.00 367.01 C 444.00 378.00 444.00 389.00 444.00 399.99 C 450.65 400.25 457.65 400.30 463.57 396.78 C 468.13 391.66 467.01 384.35 466.92 378.04 C 466.35 374.44 465.12 370.08 461.36 368.64 C 455.95 365.96 449.78 367.28 444.00 367.01 Z" />
<path fill="#ffffff" opacity="1.00" d=" M 811.00 312.00 C 842.00 312.00 873.00 312.00 904.00 312.00 C 904.00 338.67 904.00 365.33 904.00 392.00 C 911.66 392.00 919.33 392.00 927.00 392.00 C 927.00 365.33 927.00 338.67 927.00 312.00 C 958.00 312.00 989.00 312.00 1020.00 312.00 C 1020.00 391.33 1020.00 470.67 1020.00 550.00 C 989.00 550.00 958.00 550.00 927.00 550.00 C 927.00 515.67 927.00 481.33 927.00 447.00 C 919.33 447.00 911.66 447.00 904.00 447.00 C 904.00 481.33 904.00 515.67 904.00 550.00 C 873.00 550.00 842.00 550.00 811.00 550.00 C 811.00 470.67 811.00 391.33 811.00 312.00 Z" />
<path fill="#ffffff" opacity="1.00" d=" M 1041.00 312.00 C 1072.00 312.00 1103.00 312.00 1134.00 312.00 C 1134.00 391.33 1134.00 470.67 1134.00 550.00 C 1103.00 550.00 1072.00 550.00 1041.00 550.00 C 1041.00 470.67 1041.00 391.33 1041.00 312.00 Z" />
<path fill="#ffffff" opacity="1.00" d=" M 52.99 608.00 C 432.90 608.01 812.81 607.99 1192.72 608.01 C 1192.76 609.97 1192.82 611.93 1192.91 613.90 C 812.95 613.58 432.99 613.82 53.03 613.78 C 53.01 611.85 53.00 609.92 52.99 608.00 Z" />
<path fill="#ffffff" opacity="1.00" d=" M 113.26 672.16 C 193.20 672.39 273.15 672.26 353.09 672.22 C 351.85 676.01 351.53 679.98 351.84 683.94 C 315.56 682.56 279.20 682.66 242.86 682.75 C 239.45 723.03 238.04 763.66 235.13 804.06 C 234.06 831.34 231.02 858.50 231.91 885.87 C 223.92 885.76 215.93 885.77 207.94 885.86 C 215.58 818.38 216.71 750.44 222.20 682.82 C 185.43 682.18 148.70 683.34 111.97 683.83 C 112.71 679.97 113.40 676.09 113.26 672.16 Z" />
<path fill="#ffffff" opacity="1.00" d=" M 558.24 672.17 C 567.18 672.19 576.11 672.25 585.05 672.14 C 584.53 677.74 583.51 683.31 583.85 688.97 C 574.92 687.91 566.06 688.00 557.13 688.93 C 557.15 683.32 557.20 677.70 558.24 672.17 Z" />
<path fill="#ffffff" opacity="1.00" d=" M 1115.00 672.00 C 1122.40 672.01 1129.80 671.98 1137.21 672.02 C 1133.93 700.06 1132.91 728.26 1131.43 756.41 C 1130.86 776.63 1128.94 796.75 1128.93 817.01 C 1126.64 828.55 1129.36 840.44 1127.07 851.98 C 1126.87 863.32 1127.07 874.66 1127.00 886.00 C 1119.99 886.00 1112.99 886.00 1105.99 886.00 C 1106.10 873.43 1108.41 860.99 1109.04 848.45 C 1104.28 854.17 1100.17 860.65 1093.87 864.87 C 1075.61 879.77 1051.73 884.78 1028.93 887.83 C 1018.16 888.04 1007.35 890.24 996.59 888.42 C 969.90 886.89 941.95 881.25 920.11 864.88 C 901.10 851.34 892.16 825.97 897.43 803.39 C 901.90 782.46 915.70 764.01 933.79 752.79 C 968.06 729.57 1010.87 725.67 1051.01 723.98 C 1072.07 724.09 1093.12 725.16 1113.98 727.78 C 1116.01 709.29 1114.57 690.59 1115.00 672.00 M 992.19 741.21 C 970.62 746.67 949.40 756.57 934.30 773.32 C 922.98 787.40 913.83 805.51 917.07 824.00 C 918.26 835.72 924.73 845.99 932.32 854.68 C 948.29 869.89 970.53 876.27 992.03 878.05 C 1028.46 881.99 1070.65 875.01 1095.02 845.03 C 1110.96 825.99 1110.16 799.88 1111.57 776.59 C 1111.80 764.11 1113.23 751.71 1113.00 739.20 C 1073.09 731.91 1031.79 731.90 992.19 741.21 Z" />
<path fill="#ffffff" opacity="1.00" d=" M 422.47 739.53 C 440.45 727.32 462.97 725.66 483.99 724.18 C 492.44 723.50 500.73 725.54 509.15 725.11 C 510.93 728.84 510.94 732.98 510.88 737.03 C 483.51 732.90 452.93 732.43 429.56 749.55 C 415.90 757.84 407.18 772.83 405.44 788.57 C 401.07 820.81 400.60 853.40 400.92 885.92 C 393.60 885.71 386.26 885.79 378.93 885.86 C 382.92 849.34 384.73 812.62 387.16 775.98 C 387.29 759.74 388.81 743.56 387.95 727.29 C 394.55 728.41 401.60 728.64 408.12 726.95 C 406.36 736.00 406.07 745.34 405.81 754.55 C 411.62 749.81 416.03 743.50 422.47 739.53 Z" />
<path fill="#ffffff" opacity="1.00" d=" M 660.18 732.15 C 691.15 726.34 722.56 723.83 754.01 723.96 C 778.69 725.94 805.24 725.44 827.21 738.77 C 834.57 742.88 839.11 750.71 839.99 758.97 C 840.98 789.49 834.27 819.60 833.99 850.04 C 832.10 861.92 833.36 874.01 833.00 886.00 C 825.27 885.99 817.54 886.02 809.81 885.98 C 816.70 852.27 816.59 817.86 820.20 783.86 C 807.33 791.54 792.77 795.27 778.23 798.26 C 744.33 804.86 709.65 808.12 676.61 818.62 C 667.57 821.97 658.55 825.91 650.96 831.96 C 642.64 838.67 639.85 852.22 647.37 860.62 C 657.30 871.60 672.56 875.56 686.77 877.35 C 717.88 881.42 749.38 877.98 779.99 871.77 C 778.42 876.10 776.90 880.46 775.71 884.92 C 751.34 887.32 726.90 890.06 702.40 888.57 C 679.68 887.23 654.71 886.68 635.68 872.32 C 624.68 864.94 619.47 850.06 624.69 837.68 C 631.48 823.83 646.37 817.12 660.13 812.16 C 696.35 800.24 734.56 796.68 771.93 789.94 C 785.59 786.73 800.33 784.63 811.69 775.72 C 815.64 771.91 820.78 767.99 821.06 762.03 C 822.16 753.70 815.04 747.00 808.01 743.97 C 793.42 735.78 776.21 735.40 760.00 733.96 C 725.60 733.21 691.13 736.71 657.74 745.24 C 658.31 740.83 659.93 736.61 660.18 732.15 Z" />
<path fill="#ffffff" opacity="1.00" d=" M 557.99 727.34 C 564.91 728.39 572.19 728.49 579.09 727.27 C 574.33 780.07 569.55 832.87 568.91 885.87 C 561.68 885.83 554.44 885.60 547.22 886.01 C 552.10 849.54 553.28 812.64 556.16 775.98 C 556.52 759.75 558.30 743.58 557.99 727.34 Z" />
<path fill="#ffffff" opacity="1.00" d=" M 528.41 1124.51 C 538.22 1122.88 548.96 1125.77 555.70 1133.29 C 564.68 1142.16 566.10 1156.69 560.86 1167.89 C 555.53 1177.33 545.28 1184.77 534.00 1183.90 C 518.57 1185.12 503.93 1171.52 504.11 1156.04 C 502.37 1141.37 513.88 1126.62 528.41 1124.51 Z" />
<path fill="#ffffff" opacity="1.00" d=" M 617.41 1124.53 C 631.84 1121.76 647.95 1130.79 651.52 1145.39 C 657.32 1162.38 644.33 1183.18 626.04 1183.86 C 614.38 1185.15 601.40 1179.70 596.39 1168.64 C 592.32 1162.24 592.64 1154.41 593.33 1147.17 C 595.82 1135.69 605.75 1126.23 617.41 1124.53 Z" />
<path fill="#ffffff" opacity="1.00" d=" M 706.41 1124.53 C 717.98 1122.67 731.13 1127.44 736.97 1138.00 C 741.16 1145.06 742.91 1153.79 740.64 1161.80 C 736.94 1180.50 712.60 1190.00 696.70 1180.24 C 689.00 1176.33 683.15 1168.65 682.04 1160.02 C 678.47 1144.23 689.79 1126.22 706.41 1124.53 Z" />
</g>
</svg>
